<svg xmlns="http://www.w3.org/2000/svg" viewBox="0 0 534.9 504">
  <g opacity=".1">
    <path d="M280.7 383.6c0-.1-.1-.2-.2-.2s-.2.1-.2.2.1.2.2.2.2-.1.2-.2zM280.7 364.2c0-.1-.1-.2-.2-.2s-.2.1-.2.2.1.2.2.2.2-.1.2-.2zM280.8 344.7c0-.2-.1-.3-.3-.3-.2 0-.3.1-.3.3 0 .2.1.3.3.3.2.1.3-.1.3-.3zM281.1 325.3c0-.3-.3-.6-.6-.6s-.6.3-.6.6.3.6.6.6.6-.3.6-.6zM281.3 305.9c0-.4-.4-.8-.8-.8-.5 0-.8.4-.8.8 0 .5.4.8.8.8s.8-.4.8-.8zM281.3 286.4c0-.5-.4-.8-.8-.8-.5 0-.8.4-.8.8s.4.8.8.8.8-.3.8-.8zM281.5 267c0-.6-.5-1-1-1-.6 0-1 .5-1 1 0 .6.5 1 1 1 .6 0 1-.4 1-1zM281.8 247.5c0-.7-.6-1.3-1.3-1.3-.7 0-1.3.6-1.3 1.3 0 .7.6 1.4 1.3 1.4.7 0 1.3-.6 1.3-1.4zM282.2 228.1c0-1-.8-1.7-1.7-1.7-1 0-1.7.8-1.7 1.7 0 .9.8 1.7 1.7 1.7 1 0 1.7-.8 1.7-1.7zM282.1 208.7c0-.9-.7-1.6-1.6-1.6-.9 0-1.6.7-1.6 1.6 0 .9.7 1.6 1.6 1.6.9-.1 1.6-.8 1.6-1.6zM281.6 189.2c0-.6-.5-1.1-1.1-1.1-.6 0-1.1.5-1.1 1.1 0 .6.5 1.1 1.1 1.1.6 0 1.1-.5 1.1-1.1zM281.8 169.8c0-.8-.6-1.4-1.3-1.4-.7 0-1.3.6-1.3 1.4 0 .7.6 1.3 1.3 1.3.7 0 1.3-.6 1.3-1.3zM282.1 150.3c0-.9-.7-1.6-1.6-1.6-.9 0-1.6.7-1.6 1.6 0 .9.7 1.6 1.6 1.6.9 0 1.6-.7 1.6-1.6zM281.8 130.9c0-.7-.6-1.3-1.3-1.3-.7 0-1.3.6-1.3 1.3s.6 1.3 1.3 1.3c.7 0 1.3-.6 1.3-1.3zM282.8 111.4c0-1.2-1-2.3-2.3-2.3-1.3 0-2.3 1-2.3 2.3 0 1.3 1 2.3 2.3 2.3 1.2 0 2.3-1 2.3-2.3zM280.6 72.6c0-.1-.1-.1 0 0-.1-.1-.1 0-.1 0h.1c-.1 0 0 0 0 0zM280.8 53.1c0-.1-.1-.3-.3-.3-.1 0-.3.1-.3.3 0 .2.1.3.3.3.2 0 .3-.1.3-.3zM280.9 33.7c0-.2-.2-.4-.4-.4s-.4.2-.4.4.2.4.4.4.4-.2.4-.4zM281.2 14.2c0-.4-.3-.7-.7-.7-.4 0-.7.3-.7.7 0 .4.3.7.7.7.4 0 .7-.3.7-.7zM300.2 403.1c0-.1-.1-.3-.3-.3-.1 0-.3.1-.3.3 0 .2.1.3.3.3.2-.1.3-.2.3-.3zM300.3 383.6c0-.2-.2-.4-.4-.4s-.4.2-.4.4.2.4.4.4c.3 0 .4-.2.4-.4zM300.4 364.2c0-.2-.2-.4-.4-.4s-.4.2-.4.4.2.4.4.4.4-.2.4-.4zM300.5 344.7c0-.3-.3-.6-.6-.6s-.6.3-.6.6.3.6.6.6c.4 0 .6-.2.6-.6zM301.1 325.3c0-.7-.5-1.2-1.2-1.2s-1.2.5-1.2 1.2.5 1.2 1.2 1.2 1.2-.5 1.2-1.2zM300.9 305.9c0-.5-.4-.9-.9-.9s-.9.4-.9.9.4.9.9.9.9-.4.9-.9zM301.2 286.4c0-.7-.6-1.2-1.3-1.2-.7 0-1.2.6-1.2 1.2 0 .7.6 1.2 1.2 1.2.7.1 1.3-.5 1.3-1.2zM301.3 267c0-.8-.6-1.4-1.4-1.4s-1.4.6-1.4 1.4c0 .8.6 1.4 1.4 1.4s1.4-.6 1.4-1.4zM301.7 247.5c0-.9-.8-1.7-1.7-1.7-.9 0-1.7.8-1.7 1.7 0 1 .8 1.7 1.7 1.7.9.1 1.7-.7 1.7-1.7z"/>
    <circle cx="299.9" cy="228.1" r="1.4"/>
    <path d="M301.6 208.7c0-.9-.7-1.7-1.7-1.7-.9 0-1.7.8-1.7 1.7 0 .9.8 1.7 1.7 1.7 1-.1 1.7-.8 1.7-1.7zM301.3 189.2c0-.7-.6-1.4-1.4-1.4-.7 0-1.3.6-1.3 1.4 0 .7.6 1.3 1.3 1.3.8.1 1.4-.5 1.4-1.3zM301.4 169.8c0-.8-.7-1.5-1.5-1.5s-1.5.6-1.5 1.5c0 .8.7 1.5 1.5 1.5s1.5-.7 1.5-1.5zM301.6 150.3c0-.9-.7-1.7-1.7-1.7-.9 0-1.7.8-1.7 1.7 0 .9.8 1.7 1.7 1.7 1 0 1.7-.7 1.7-1.7zM301.4 130.9c0-.8-.7-1.5-1.5-1.5s-1.5.6-1.5 1.5c0 .8.7 1.5 1.5 1.5s1.5-.7 1.5-1.5zM303 111.4c0-1.7-1.4-3-3-3-1.7 0-3 1.4-3 3 0 1.7 1.4 3 3 3 1.6.1 3-1.3 3-3zM302.9 92c0-1.6-1.3-2.9-2.9-2.9-1.6 0-2.9 1.3-2.9 2.9 0 1.6 1.3 2.9 2.9 2.9 1.5 0 2.9-1.3 2.9-2.9zM300 72.6c0-.1 0-.1 0 0-.1-.1-.1 0-.1 0h.1zM300.2 53.1c0-.1-.1-.3-.3-.3-.1 0-.3.1-.3.3 0 .2.1.3.3.3.2 0 .3-.1.3-.3zM300.3 33.7c0-.2-.2-.4-.4-.4s-.4.2-.4.4.2.4.4.4c.3-.1.4-.2.4-.4zM300.4 14.2c0-.3-.2-.5-.5-.5s-.5.2-.5.5.2.5.5.5.5-.2.5-.5zM319.7 403.1c0-.2-.1-.3-.3-.3-.2 0-.3.1-.3.3 0 .2.1.3.3.3.2 0 .3-.1.3-.3zM319.8 383.6c0-.2-.2-.4-.4-.4s-.4.2-.4.4.2.4.4.4c.2.1.4-.1.4-.4zM319.9 364.2c0-.3-.2-.5-.5-.5s-.5.2-.5.5.2.5.5.5c.2 0 .5-.2.5-.5zM320.5 344.7c0-.6-.5-1.1-1.1-1.1-.6 0-1.1.5-1.1 1.1 0 .6.5 1.1 1.1 1.1.6.1 1.1-.4 1.1-1.1zM320.8 325.3c0-.8-.7-1.5-1.5-1.5s-1.5.6-1.5 1.5.7 1.5 1.5 1.5 1.5-.7 1.5-1.5zM320.6 305.9c0-.7-.6-1.2-1.3-1.2-.7 0-1.2.6-1.2 1.2 0 .7.5 1.2 1.2 1.2.8 0 1.3-.5 1.3-1.2zM320.8 286.4c0-.8-.7-1.5-1.5-1.5s-1.5.6-1.5 1.5c0 .8.7 1.5 1.5 1.5s1.5-.7 1.5-1.5zM321.2 267c0-1-.8-1.8-1.8-1.8s-1.8.8-1.8 1.8.8 1.8 1.8 1.8 1.8-.8 1.8-1.8zM321.6 247.5c0-1.2-1-2.2-2.2-2.2-1.2 0-2.1 1-2.1 2.2 0 1.2 1 2.2 2.1 2.2 1.2 0 2.2-1 2.2-2.2zM321.1 228.1c0-1-.8-1.7-1.7-1.7-.9 0-1.7.8-1.7 1.7 0 .9.8 1.7 1.7 1.7.9 0 1.7-.8 1.7-1.7zM320.7 208.7c0-.7-.6-1.3-1.4-1.3-.7 0-1.3.6-1.3 1.3 0 .7.6 1.4 1.3 1.4.8-.1 1.4-.7 1.4-1.4zM320.9 189.2c0-.8-.7-1.5-1.5-1.5s-1.5.7-1.5 1.5.7 1.5 1.5 1.5 1.5-.7 1.5-1.5zM321.1 169.8c0-.9-.7-1.7-1.7-1.7-.9 0-1.7.8-1.7 1.7 0 .9.7 1.7 1.7 1.7.9-.1 1.7-.8 1.7-1.7zM320.8 150.3c0-.8-.6-1.4-1.4-1.4-.8 0-1.4.6-1.4 1.4 0 .8.6 1.4 1.4 1.4.8 0 1.4-.6 1.4-1.4zM321 130.9c0-.9-.7-1.6-1.6-1.6-.9 0-1.6.7-1.6 1.6 0 .9.7 1.6 1.6 1.6.9 0 1.6-.7 1.6-1.6zM321.9 111.4c0-1.4-1.1-2.5-2.5-2.5s-2.5 1.1-2.5 2.5 1.1 2.5 2.5 2.5c1.4.1 2.5-1.1 2.5-2.5zM324 92c0-2.5-2.1-4.6-4.6-4.6-2.5 0-4.6 2.1-4.6 4.6 0 2.5 2 4.6 4.6 4.6 2.5 0 4.6-2.1 4.6-4.6zM324.4 72.6c0-2.8-2.2-5-5-5s-5 2.2-5 5 2.2 5 5 5 5-2.3 5-5zM319.8 53.1c0-.2-.2-.4-.4-.4s-.4.2-.4.4.2.4.4.4.4-.1.4-.4zM319.9 33.7c0-.3-.2-.5-.5-.5s-.5.2-.5.5.2.5.5.5.5-.2.5-.5zM319.8 14.2c0-.2-.2-.4-.4-.4s-.4.2-.4.4.2.4.4.4c.2.1.4-.1.4-.4zM339.2 403.1c0-.2-.2-.4-.4-.4s-.4.2-.4.4.2.4.4.4.4-.2.4-.4zM339.3 383.6c0-.2-.2-.4-.4-.4s-.4.2-.4.4.2.4.4.4c.2.1.4-.1.4-.4zM339.9 364.2c0-.6-.5-1.1-1.1-1.1-.6 0-1.1.5-1.1 1.1 0 .6.5 1.1 1.1 1.1.6 0 1.1-.5 1.1-1.1zM340.2 344.7c0-.8-.6-1.4-1.4-1.4-.8 0-1.4.6-1.4 1.4 0 .8.6 1.4 1.4 1.4.8.1 1.4-.6 1.4-1.4zM339.8 325.3c0-.6-.5-1-1-1-.6 0-1 .5-1 1s.5 1 1 1c.6 0 1-.4 1-1zM340.1 305.9c0-.7-.6-1.2-1.3-1.2-.7 0-1.2.6-1.2 1.2 0 .7.5 1.2 1.2 1.2s1.3-.5 1.3-1.2zM340.8 286.4c0-1.1-.9-2-2-2s-2 .9-2 2 .9 2 2 2 2-.9 2-2zM341 267c0-1.2-1-2.2-2.2-2.2-1.2 0-2.1 1-2.1 2.2 0 1.2 1 2.2 2.1 2.2 1.2-.1 2.2-1 2.2-2.2zM341.4 247.5c0-1.4-1.2-2.6-2.6-2.6-1.4 0-2.6 1.2-2.6 2.6 0 1.4 1.2 2.6 2.6 2.6 1.5 0 2.6-1.1 2.6-2.6zM341 228.1c0-1.2-1-2.2-2.2-2.2-1.2 0-2.1 1-2.1 2.2s1 2.2 2.1 2.2c1.2 0 2.2-1 2.2-2.2zM340.3 208.7c0-.8-.7-1.5-1.5-1.5s-1.4.6-1.4 1.5c0 .8.6 1.5 1.4 1.5.8-.1 1.5-.7 1.5-1.5zM340.5 189.2c0-.9-.7-1.7-1.7-1.7-.9 0-1.7.7-1.7 1.7 0 .9.8 1.7 1.7 1.7 1 0 1.7-.8 1.7-1.7zM340.7 169.8c0-1-.8-1.8-1.8-1.8s-1.8.8-1.8 1.8.8 1.8 1.8 1.8c.9 0 1.8-.8 1.8-1.8zM340.3 150.3c0-.8-.7-1.5-1.5-1.5s-1.4.6-1.4 1.5c0 .8.6 1.5 1.4 1.5.8 0 1.5-.7 1.5-1.5z"/>
    <circle cx="338.8" cy="130.9" r="2.5"/>
    <path d="M341.6 111.4c0-1.5-1.2-2.8-2.8-2.8-1.5 0-2.7 1.2-2.7 2.8s1.2 2.8 2.7 2.8c1.6 0 2.8-1.2 2.8-2.8zM344.5 92c0-3.1-2.5-5.7-5.7-5.7-3.1 0-5.6 2.5-5.6 5.7 0 3.1 2.5 5.7 5.6 5.7 3.2 0 5.7-2.6 5.7-5.7zM344.4 72.6c0-3.1-2.5-5.6-5.6-5.6-3.1 0-5.5 2.5-5.5 5.6 0 3.1 2.5 5.6 5.5 5.6 3.1-.1 5.6-2.6 5.6-5.6zM344.6 53.1c0-3.2-2.6-5.8-5.8-5.8-3.2 0-5.8 2.6-5.8 5.8 0 3.2 2.6 5.8 5.8 5.8 3.2 0 5.8-2.6 5.8-5.8zM339.6 33.7c0-.4-.4-.8-.8-.8s-.8.4-.8.8.4.8.8.8c.5 0 .8-.4.8-.8zM340 14.2c0-.6-.5-1.1-1.2-1.1-.6 0-1.1.5-1.1 1.1 0 .6.5 1.1 1.1 1.1.7.1 1.2-.4 1.2-1.1zM359.1 403.1c0-.4-.4-.8-.8-.8-.5 0-.8.4-.8.8 0 .5.4.8.8.8s.8-.4.8-.8zM358.8 383.6c0-.3-.2-.5-.5-.5s-.5.2-.5.5.2.5.5.5c.2 0 .5-.2.5-.5zM359.5 364.2c0-.7-.5-1.2-1.2-1.2s-1.2.5-1.2 1.2c0 .6.5 1.2 1.2 1.2.6 0 1.2-.5 1.2-1.2zM359.3 344.7c0-.6-.5-1-1-1-.6 0-1 .5-1 1 0 .6.5 1 1 1 .5.1 1-.4 1-1zM359.5 325.3c0-.7-.5-1.2-1.2-1.2s-1.2.5-1.2 1.2.5 1.2 1.2 1.2c.6 0 1.2-.5 1.2-1.2zM359.7 305.9c0-.8-.6-1.4-1.4-1.4-.8 0-1.4.6-1.4 1.4s.6 1.4 1.4 1.4c.7 0 1.4-.7 1.4-1.4z"/>
    <circle cx="358.3" cy="286.4" r="2.6"/>
    <path d="M361.7 267c0-1.9-1.5-3.4-3.4-3.4s-3.4 1.5-3.4 3.4 1.5 3.4 3.4 3.4c1.8 0 3.4-1.5 3.4-3.4zM361.4 247.5c0-1.7-1.4-3.1-3.1-3.1-1.7 0-3.1 1.4-3.1 3.1 0 1.7 1.4 3.1 3.1 3.1 1.7 0 3.1-1.4 3.1-3.1z"/>
    <circle cx="358.3" cy="228.1" r="2.6"/>
    <path d="M360 208.7c0-.9-.8-1.7-1.7-1.7-.9 0-1.7.8-1.7 1.7 0 .9.8 1.7 1.7 1.7.9-.1 1.7-.8 1.7-1.7zM360.2 189.2c0-1-.8-1.9-1.9-1.9-1 0-1.9.8-1.9 1.9 0 1 .8 1.9 1.9 1.9 1 0 1.9-.8 1.9-1.9zM359.7 169.8c0-.8-.6-1.4-1.4-1.4-.8 0-1.4.6-1.4 1.4 0 .8.6 1.4 1.4 1.4.7 0 1.4-.6 1.4-1.4zM359.9 150.3c0-.9-.7-1.6-1.6-1.6-.9 0-1.6.7-1.6 1.6 0 .9.7 1.6 1.6 1.6.9 0 1.6-.7 1.6-1.6z"/>
    <circle cx="358.3" cy="130.9" r="2.8"/>
    <path d="M361.4 111.4c0-1.7-1.4-3.1-3.1-3.1-1.7 0-3.1 1.4-3.1 3.1 0 1.7 1.4 3.1 3.1 3.1 1.7.1 3.1-1.3 3.1-3.1zM361.8 92c0-2-1.6-3.6-3.6-3.6s-3.6 1.6-3.6 3.6 1.6 3.6 3.6 3.6 3.6-1.6 3.6-3.6zM365 72.6a6.7 6.7 0 1 0-6.7 6.7c3.7-.1 6.7-3.1 6.7-6.7zM363.9 53.1c0-3.1-2.5-5.7-5.7-5.7-3.1 0-5.7 2.5-5.7 5.7 0 3.1 2.5 5.7 5.7 5.7s5.7-2.6 5.7-5.7zM363.9 33.7c0-3.1-2.5-5.7-5.7-5.7-3.1 0-5.7 2.5-5.7 5.7 0 3.1 2.5 5.7 5.7 5.7 3.2-.1 5.7-2.6 5.7-5.7zM360 14.2c0-.9-.8-1.7-1.7-1.7-.9 0-1.7.8-1.7 1.7 0 .9.8 1.7 1.7 1.7.9 0 1.7-.7 1.7-1.7zM378.1 403.1c0-.2-.2-.4-.4-.4s-.4.2-.4.4.2.4.4.4.4-.2.4-.4zM378.8 383.6c0-.6-.5-1.1-1.1-1.1-.6 0-1.2.5-1.2 1.1 0 .6.5 1.1 1.2 1.1.6.1 1.1-.4 1.1-1.1zM379.2 364.2c0-.8-.6-1.5-1.4-1.5-.8 0-1.5.6-1.5 1.5 0 .8.6 1.5 1.5 1.5.7 0 1.4-.7 1.4-1.5zM378.9 344.7c0-.6-.5-1.2-1.2-1.2s-1.2.5-1.2 1.2.5 1.2 1.2 1.2 1.2-.5 1.2-1.2zM379.1 325.3c0-.8-.6-1.4-1.4-1.4-.8 0-1.4.6-1.4 1.4s.6 1.4 1.4 1.4c.8 0 1.4-.6 1.4-1.4zM379.4 305.9c0-.9-.8-1.7-1.7-1.7-1 0-1.7.8-1.7 1.7 0 1 .8 1.7 1.7 1.7 1 0 1.7-.8 1.7-1.7zM379.8 286.4c0-1.2-.9-2.1-2.1-2.1-1.2 0-2.1.9-2.1 2.1 0 1.2.9 2.1 2.1 2.1 1.2 0 2.1-.9 2.1-2.1zM382.1 267c0-2.4-2-4.4-4.4-4.4-2.4 0-4.4 2-4.4 4.4 0 2.4 2 4.4 4.4 4.4 2.4 0 4.4-2 4.4-4.4zM381.9 247.5c0-2.3-1.9-4.2-4.2-4.2-2.3 0-4.2 1.9-4.2 4.2 0 2.3 1.9 4.2 4.2 4.2 2.3 0 4.2-1.8 4.2-4.2zM381.1 228.1c0-1.8-1.5-3.3-3.3-3.3-1.9 0-3.4 1.5-3.4 3.3 0 1.8 1.5 3.3 3.4 3.3 1.8 0 3.3-1.5 3.3-3.3zM379.5 208.7c0-1-.8-1.8-1.8-1.8s-1.8.8-1.8 1.8.8 1.8 1.8 1.8 1.8-.8 1.8-1.8zM379.8 189.2c0-1.2-.9-2.1-2.1-2.1-1.2 0-2.1.9-2.1 2.1 0 1.2.9 2.1 2.1 2.1 1.2 0 2.1-.9 2.1-2.1zM379.2 169.8c0-.8-.6-1.5-1.4-1.5-.8 0-1.5.6-1.5 1.5 0 .8.6 1.5 1.5 1.5.7-.1 1.4-.7 1.4-1.5zM380.5 150.3c0-1.5-1.2-2.7-2.7-2.7-1.5 0-2.8 1.2-2.8 2.7 0 1.5 1.2 2.8 2.8 2.8 1.4 0 2.7-1.3 2.7-2.8zM380.9 130.9c0-1.8-1.4-3.2-3.2-3.2-1.8 0-3.2 1.4-3.2 3.2 0 1.8 1.4 3.2 3.2 3.2 1.8 0 3.2-1.5 3.2-3.2zM381.3 111.4c0-2-1.6-3.6-3.6-3.6s-3.6 1.6-3.6 3.6 1.6 3.6 3.6 3.6c2 .1 3.6-1.6 3.6-3.6zM381.8 92c0-2.2-1.8-4-4-4s-4.1 1.8-4.1 4 1.8 4 4.1 4c2.1 0 4-1.8 4-4zM385.4 72.6c0-4.3-3.5-7.7-7.7-7.7-4.3 0-7.7 3.4-7.7 7.7 0 4.3 3.4 7.7 7.7 7.7 4.3 0 7.7-3.5 7.7-7.7zM384 53.1c0-3.5-2.8-6.3-6.2-6.3-3.5 0-6.3 2.8-6.3 6.3s2.8 6.3 6.3 6.3c3.4 0 6.2-2.8 6.2-6.3zM385.7 33.7c0-4.4-3.6-8-8-8s-8 3.6-8 8 3.6 8 8 8 8-3.6 8-8zM385.6 14.2c0-4.4-3.5-7.9-7.9-7.9s-7.9 3.5-7.9 7.9 3.6 7.9 7.9 7.9c4.4.1 7.9-3.5 7.9-7.9zM397.4 461.4c0-.1-.1-.2-.2-.2s-.2.1-.2.2.1.2.2.2.2-.1.2-.2zM397.4 442c0-.1-.1-.2-.2-.2s-.2.1-.2.2.1.2.2.2.2-.1.2-.2zM397.6 422.5c0-.2-.2-.4-.4-.4s-.4.2-.4.4.2.4.4.4c.2.1.4-.1.4-.4zM397.9 403.1c0-.4-.4-.8-.8-.8s-.8.3-.8.8c0 .4.3.8.8.8.5-.1.8-.4.8-.8zM397.8 383.6c0-.4-.3-.7-.7-.7-.4 0-.7.3-.7.7 0 .4.3.7.7.7.4 0 .7-.3.7-.7zM398.3 364.2c0-.6-.5-1.1-1.1-1.1-.6 0-1.1.5-1.1 1.1 0 .6.5 1.1 1.1 1.1.6 0 1.1-.5 1.1-1.1zM398.6 344.7c0-.8-.6-1.4-1.4-1.4-.8 0-1.4.6-1.4 1.4 0 .8.6 1.4 1.4 1.4.7.1 1.4-.6 1.4-1.4zM398.9 325.3c0-1-.8-1.7-1.7-1.7-.9 0-1.7.8-1.7 1.7 0 .9.8 1.7 1.7 1.7.9 0 1.7-.7 1.7-1.7zM399.2 305.9c0-1.2-.9-2.1-2.1-2.1-1.2 0-2.1.9-2.1 2.1 0 1.2.9 2.1 2.1 2.1 1.2 0 2.1-1 2.1-2.1z"/>
    <circle cx="397.2" cy="286.4" r="2.5"/>
    <path d="M400.1 267c0-1.6-1.3-3-3-3-1.6 0-3 1.3-3 3 0 1.6 1.3 3 3 3s3-1.4 3-3zM399.7 247.5c0-1.4-1.2-2.6-2.6-2.6-1.4 0-2.6 1.2-2.6 2.6 0 1.4 1.2 2.6 2.6 2.6 1.5 0 2.6-1.1 2.6-2.6zM399 228.1c0-1-.8-1.8-1.8-1.8s-1.8.8-1.8 1.8.8 1.8 1.8 1.8 1.8-.8 1.8-1.8zM399.2 208.7c0-1.2-.9-2.1-2.1-2.1-1.2 0-2.1.9-2.1 2.1 0 1.2.9 2.1 2.1 2.1 1.2 0 2.1-1 2.1-2.1zM398.6 189.2c0-.8-.6-1.4-1.4-1.4-.8 0-1.4.6-1.4 1.4 0 .8.6 1.4 1.4 1.4.7 0 1.4-.6 1.4-1.4zM398.9 169.8c0-1-.8-1.7-1.7-1.7-.9 0-1.7.8-1.7 1.7 0 .9.8 1.7 1.7 1.7.9 0 1.7-.8 1.7-1.7zM400.3 150.3c0-1.8-1.4-3.2-3.2-3.2-1.8 0-3.2 1.4-3.2 3.2 0 1.8 1.4 3.2 3.2 3.2 1.8 0 3.2-1.4 3.2-3.2zM400.8 130.9c0-2-1.6-3.6-3.6-3.6s-3.6 1.6-3.6 3.6 1.6 3.6 3.6 3.6c1.9 0 3.6-1.6 3.6-3.6zM401.2 111.4c0-2.3-1.8-4.1-4.1-4.1s-4.1 1.8-4.1 4.1 1.8 4.1 4.1 4.1 4.1-1.8 4.1-4.1zM401.7 92c0-2.5-2-4.6-4.6-4.6-2.5 0-4.6 2.1-4.6 4.6 0 2.5 2.1 4.6 4.6 4.6 2.6 0 4.6-2.1 4.6-4.6zM401 72.6c0-2.1-1.7-3.8-3.8-3.8-2.1 0-3.8 1.7-3.8 3.8 0 2.1 1.7 3.8 3.8 3.8 2.1 0 3.8-1.7 3.8-3.8zM404.4 53.1c0-4-3.2-7.2-7.2-7.2s-7.2 3.2-7.2 7.2 3.2 7.2 7.2 7.2c3.9 0 7.2-3.2 7.2-7.2zM406.1 33.7c0-4.9-4-8.9-8.9-8.9s-9 4-9 8.9 4 9 9 9c4.9-.1 8.9-4.1 8.9-9zM406.1 14.2c0-4.9-4-9-8.9-9s-9 4-9 9c0 4.9 4 9 9 9 4.9 0 8.9-4 8.9-9zM416.7 461.4c0-.1 0-.1-.1-.1s-.1.1-.1.1c0 .1 0 .1.1.1s.1 0 .1-.1zM416.8 442c0-.1-.1-.2-.2-.2s-.2.1-.2.2.1.2.2.2c.1-.1.2-.1.2-.2zM417.1 422.5c0-.3-.2-.5-.5-.5s-.5.2-.5.5.2.5.5.5c.3.1.5-.2.5-.5zM417 403.1c0-.2-.2-.4-.4-.4s-.4.2-.4.4.2.4.4.4.4-.2.4-.4zM417.2 383.6c0-.4-.3-.7-.6-.7-.4 0-.6.3-.6.7 0 .4.3.6.6.6.4.1.6-.2.6-.6zM418 364.2c0-.8-.6-1.4-1.4-1.4-.8 0-1.4.6-1.4 1.4 0 .8.6 1.4 1.4 1.4.8 0 1.4-.6 1.4-1.4zM418.3 344.7c0-.9-.8-1.7-1.7-1.7-.9 0-1.7.8-1.7 1.7 0 1 .8 1.7 1.7 1.7 1 .1 1.7-.7 1.7-1.7zM418.6 325.3c0-1.1-.9-2-2-2s-2 .9-2 2 .9 2 2 2 2-.9 2-2zM419 305.9c0-1.3-1.1-2.4-2.4-2.4-1.3 0-2.4 1.1-2.4 2.4 0 1.3 1.1 2.4 2.4 2.4 1.3 0 2.4-1.1 2.4-2.4zM419.7 286.4c0-1.7-1.4-3.1-3.1-3.1-1.7 0-3.1 1.4-3.1 3.1 0 1.7 1.4 3.1 3.1 3.1 1.7.1 3.1-1.4 3.1-3.1zM420.2 267c0-2-1.6-3.6-3.6-3.6S413 265 413 267s1.6 3.6 3.6 3.6 3.6-1.6 3.6-3.6zM418.1 247.5c0-.8-.7-1.5-1.5-1.5s-1.5.7-1.5 1.5.7 1.5 1.5 1.5 1.5-.6 1.5-1.5zM417.7 228.1c0-.6-.5-1.1-1.1-1.1-.6 0-1.1.5-1.1 1.1 0 .6.5 1.1 1.1 1.1.6 0 1.1-.5 1.1-1.1zM417.9 208.7c0-.7-.6-1.3-1.3-1.3-.7 0-1.4.6-1.4 1.3 0 .7.6 1.4 1.4 1.4.7-.1 1.3-.7 1.3-1.4zM418.2 189.2c0-.9-.7-1.6-1.6-1.6-.9 0-1.6.7-1.6 1.6 0 .9.7 1.6 1.6 1.6.9 0 1.6-.7 1.6-1.6zM419.8 169.8c0-1.8-1.4-3.2-3.2-3.2-1.8 0-3.2 1.4-3.2 3.2 0 1.8 1.4 3.2 3.2 3.2 1.8 0 3.2-1.5 3.2-3.2zM420.2 150.3c0-2-1.6-3.6-3.6-3.6s-3.6 1.6-3.6 3.6 1.6 3.6 3.6 3.6 3.6-1.6 3.6-3.6zM420.8 130.9c0-2.3-1.9-4.2-4.2-4.2-2.3 0-4.1 1.9-4.1 4.2 0 2.3 1.9 4.2 4.1 4.2 2.3-.1 4.2-1.9 4.2-4.2zM421.2 111.4c0-2.6-2.1-4.6-4.6-4.6-2.6 0-4.6 2.1-4.6 4.6 0 2.6 2.1 4.6 4.6 4.6 2.6.1 4.6-2 4.6-4.6zM421.8 92c0-2.9-2.3-5.2-5.2-5.2-2.9 0-5.2 2.3-5.2 5.2 0 2.9 2.3 5.2 5.2 5.2 2.9 0 5.2-2.3 5.2-5.2zM420.6 72.6c0-2.2-1.8-4-4-4s-4 1.8-4 4 1.8 4 4 4 4-1.8 4-4zM427 53.1c0-5.8-4.7-10.4-10.4-10.4s-10.4 4.7-10.4 10.4 4.7 10.4 10.4 10.4c5.8 0 10.4-4.6 10.4-10.4z"/>
    <path d="M426.9 33.7c0-5.7-4.6-10.3-10.3-10.3-5.7 0-10.3 4.6-10.3 10.3 0 5.7 4.6 10.3 10.3 10.3 5.7 0 10.3-4.6 10.3-10.3z"/>
    <path d="M426.5 14.2c0-5.5-4.4-9.9-9.9-9.9s-9.9 4.4-9.9 9.9 4.5 9.9 9.9 9.9c5.5.1 9.9-4.4 9.9-9.9zM436.1 461.4c0-.1 0-.1-.1-.1s-.1.1-.1.1c0 .1 0 .1.1.1s.1 0 .1-.1zM436.3 442c0-.1-.1-.2-.2-.2s-.2.1-.2.2.1.2.2.2.2-.1.2-.2zM436.3 422.5c0-.1-.1-.3-.3-.3-.1 0-.3.1-.3.3 0 .1.1.3.3.3.2 0 .3-.1.3-.3zM436.4 403.1c0-.2-.2-.4-.4-.4s-.4.2-.4.4.2.4.4.4.4-.2.4-.4zM437 383.6c0-.5-.4-1-1-1-.5 0-1 .4-1 1 0 .5.4 1 1 1s1-.4 1-1zM437.3 364.2c0-.7-.6-1.2-1.2-1.2s-1.2.6-1.2 1.2c0 .7.6 1.2 1.2 1.2s1.2-.5 1.2-1.2zM438.1 344.7c0-1.2-.9-2.1-2.1-2.1s-2.1.9-2.1 2.1c0 1.2.9 2.1 2.1 2.1s2.1-.9 2.1-2.1zM438.6 325.3c0-1.4-1.1-2.5-2.5-2.5s-2.5 1.1-2.5 2.5 1.1 2.5 2.5 2.5 2.5-1.1 2.5-2.5zM439 305.9c0-1.6-1.3-3-3-3-1.6 0-3 1.3-3 3 0 1.6 1.3 3 3 3 1.7-.1 3-1.4 3-3zM439.5 286.4c0-1.9-1.5-3.5-3.4-3.5s-3.4 1.5-3.4 3.5 1.5 3.5 3.4 3.5 3.4-1.6 3.4-3.5zM440.2 267c0-2.3-1.9-4.2-4.2-4.2-2.3 0-4.2 1.9-4.2 4.2 0 2.3 1.9 4.2 4.2 4.2 2.4 0 4.2-1.9 4.2-4.2zM438.8 247.5c0-1.5-1.3-2.8-2.8-2.8-1.5 0-2.8 1.3-2.8 2.8 0 1.6 1.3 2.8 2.8 2.8 1.6 0 2.8-1.2 2.8-2.8zM437.6 228.1c0-.9-.7-1.6-1.6-1.6-.9 0-1.6.7-1.6 1.6 0 .9.7 1.6 1.6 1.6.9 0 1.6-.7 1.6-1.6zM437.5 208.7c0-.8-.7-1.5-1.5-1.5s-1.5.6-1.5 1.5c0 .8.7 1.5 1.5 1.5.8-.1 1.5-.7 1.5-1.5zM439.2 189.2c0-1.8-1.4-3.2-3.2-3.2-1.8 0-3.2 1.4-3.2 3.2 0 1.8 1.4 3.2 3.2 3.2 1.8 0 3.2-1.4 3.2-3.2zM439.8 169.8c0-2.1-1.7-3.7-3.7-3.7-2.1 0-3.7 1.7-3.7 3.7 0 2.1 1.7 3.7 3.7 3.7s3.7-1.7 3.7-3.7zM440.1 150.3c0-2.3-1.8-4.1-4.1-4.1s-4.1 1.8-4.1 4.1 1.8 4.1 4.1 4.1 4.1-1.8 4.1-4.1zM440.6 130.9c0-2.5-2.1-4.6-4.6-4.6s-4.6 2.1-4.6 4.6c0 2.5 2.1 4.6 4.6 4.6s4.6-2.1 4.6-4.6zM441.3 111.4c0-2.9-2.3-5.2-5.2-5.2-2.9 0-5.2 2.3-5.2 5.2 0 2.9 2.3 5.2 5.2 5.2 2.8.1 5.2-2.3 5.2-5.2z"/>
    <circle cx="436" cy="92" r="3.9"/>
    <path d="M440.5 72.6c0-2.5-2-4.5-4.5-4.5s-4.5 2-4.5 4.5 2 4.5 4.5 4.5c2.5-.1 4.5-2.1 4.5-4.5zM443.6 53.1c0-4.2-3.4-7.5-7.5-7.5-4.2 0-7.5 3.4-7.5 7.5 0 4.2 3.4 7.6 7.5 7.6s7.5-3.4 7.5-7.6zM447.3 33.7c0-6.2-5-11.2-11.2-11.2-6.2 0-11.2 5-11.2 11.2s5 11.2 11.2 11.2c6.1 0 11.2-5 11.2-11.2z"/>
    <path d="M447 14.2c0-6.1-4.9-11-11-11s-11 4.9-11 11 4.9 11 11 11 11-4.9 11-11zM455.7 461.4c0-.1-.1-.2-.2-.2s-.2.1-.2.2.1.2.2.2.2-.1.2-.2zM455.8 442c0-.1-.1-.3-.3-.3-.2 0-.3.1-.3.3 0 .2.1.3.3.3.1-.1.3-.2.3-.3zM455.7 422.5c0-.1-.1-.2-.2-.2s-.2.1-.2.2.1.2.2.2.2-.1.2-.2zM455.9 403.1c0-.2-.2-.4-.4-.4s-.4.2-.4.4.2.4.4.4.4-.2.4-.4zM456.3 383.6c0-.5-.4-.8-.8-.8-.5 0-.8.4-.8.8s.4.8.8.8.8-.3.8-.8zM457.1 364.2c0-.9-.7-1.6-1.6-1.6-.9 0-1.6.7-1.6 1.6 0 .9.7 1.6 1.6 1.6.8 0 1.6-.7 1.6-1.6zM457.4 344.7c0-1.1-.9-1.9-1.9-1.9-1.1 0-1.9.9-1.9 1.9 0 1.1.9 1.9 1.9 1.9 1.1.1 1.9-.8 1.9-1.9zM457.9 325.3c0-1.3-1.1-2.4-2.4-2.4-1.3 0-2.4 1.1-2.4 2.4 0 1.3 1.1 2.4 2.4 2.4 1.3 0 2.4-1.1 2.4-2.4zM458.4 305.9c0-1.6-1.3-2.9-2.9-2.9-1.6 0-2.9 1.3-2.9 2.9 0 1.6 1.3 2.9 2.9 2.9 1.6 0 2.9-1.3 2.9-2.9zM459.9 286.4c0-2.4-2-4.4-4.4-4.4-2.4 0-4.4 2-4.4 4.4 0 2.4 1.9 4.4 4.4 4.4 2.4 0 4.4-2 4.4-4.4zM458.6 267c0-1.7-1.4-3.1-3.1-3.1-1.7 0-3.1 1.4-3.1 3.1 0 1.7 1.4 3.1 3.1 3.1 1.7 0 3.1-1.4 3.1-3.1zM459.7 247.5c0-2.3-1.9-4.3-4.2-4.3-2.4 0-4.3 1.9-4.3 4.3s1.9 4.3 4.3 4.3c2.3 0 4.2-1.9 4.2-4.3zM456.7 228.1c0-.6-.5-1.2-1.2-1.2s-1.2.5-1.2 1.2.5 1.2 1.2 1.2c.6 0 1.2-.5 1.2-1.2zM457.1 208.7c0-.9-.7-1.6-1.6-1.6-.9 0-1.6.7-1.6 1.6 0 .9.7 1.6 1.6 1.6.8-.1 1.6-.8 1.6-1.6zM459.1 189.2c0-2-1.6-3.6-3.6-3.6s-3.6 1.6-3.6 3.6 1.6 3.6 3.6 3.6c1.9 0 3.6-1.6 3.6-3.6zM459.7 169.8c0-2.3-1.9-4.2-4.2-4.2-2.3 0-4.2 1.9-4.2 4.2 0 2.3 1.9 4.2 4.2 4.2 2.3 0 4.2-1.9 4.2-4.2zM460.1 150.3c0-2.6-2.1-4.6-4.6-4.6-2.6 0-4.6 2.1-4.6 4.6 0 2.6 2.1 4.6 4.6 4.6 2.5.1 4.6-2 4.6-4.6zM460.9 130.9c0-3-2.4-5.4-5.4-5.4-3 0-5.4 2.4-5.4 5.4 0 3 2.4 5.4 5.4 5.4 3 0 5.4-2.4 5.4-5.4zM461.4 111.4c0-3.3-2.7-5.9-5.9-5.9-3.3 0-5.9 2.6-5.9 5.9 0 3.3 2.7 5.9 5.9 5.9 3.3.1 5.9-2.6 5.9-5.9zM459.7 92c0-2.4-1.9-4.3-4.2-4.3-2.4 0-4.3 1.9-4.3 4.3 0 2.3 1.9 4.3 4.3 4.3 2.3 0 4.2-1.9 4.2-4.3zM463.1 72.6c0-4.2-3.4-7.7-7.6-7.7-4.2 0-7.7 3.4-7.7 7.7 0 4.2 3.4 7.6 7.7 7.6 4.2 0 7.6-3.4 7.6-7.6zM463.7 53.1c0-4.6-3.7-8.2-8.2-8.2s-8.3 3.7-8.3 8.2c0 4.6 3.7 8.3 8.3 8.3s8.2-3.7 8.2-8.3zM464.4 33.7c0-4.9-4-8.9-8.9-8.9s-9 4-9 8.9 4 9 9 9c4.9-.1 8.9-4.1 8.9-9z"/>
    <path d="M467.3 14.2c0-6.6-5.3-11.9-11.8-11.9-6.6 0-11.9 5.3-11.9 11.9 0 6.6 5.3 11.9 11.9 11.9 6.5 0 11.8-5.3 11.8-11.9zM475.1 461.4c0-.1-.1-.2-.2-.2s-.2.1-.2.2.1.2.2.2.2-.1.2-.2zM475.1 442c0-.1-.1-.2-.2-.2s-.2.1-.2.2.1.2.2.2.2-.1.2-.2zM475.3 422.5c0-.2-.1-.3-.3-.3-.2 0-.3.1-.3.3 0 .2.1.3.3.3.1 0 .3-.1.3-.3zM475.5 403.1c0-.3-.3-.6-.6-.6s-.6.3-.6.6.3.6.6.6c.4 0 .6-.3.6-.6zM475.8 383.6c0-.5-.4-.9-.9-.9s-.9.4-.9.9.4.9.9.9c.5.1.9-.4.9-.9zM476.1 364.2c0-.7-.5-1.2-1.2-1.2s-1.2.5-1.2 1.2c0 .6.5 1.2 1.2 1.2s1.2-.5 1.2-1.2zM476.3 344.7c0-.8-.6-1.4-1.4-1.4-.8 0-1.4.6-1.4 1.4 0 .8.6 1.4 1.4 1.4.8.1 1.4-.6 1.4-1.4zM476.5 325.3c0-.9-.7-1.6-1.6-1.6-.9 0-1.6.7-1.6 1.6 0 .9.7 1.6 1.6 1.6.9 0 1.6-.7 1.6-1.6zM478.8 305.9c0-2.1-1.7-3.9-3.9-3.9-2.1 0-3.9 1.7-3.9 3.9 0 2.1 1.7 3.9 3.9 3.9s3.9-1.8 3.9-3.9zM479.8 286.4c0-2.7-2.2-4.9-4.8-4.9-2.7 0-4.8 2.2-4.8 4.9s2.2 4.9 4.8 4.9c2.6 0 4.8-2.2 4.8-4.9zM477 267c0-1.2-.9-2.1-2.1-2.1-1.2 0-2.1.9-2.1 2.1 0 1.2 1 2.1 2.1 2.1 1.2 0 2.1-1 2.1-2.1zM476.2 247.5c0-.7-.6-1.2-1.2-1.2-.7 0-1.2.5-1.2 1.2s.6 1.2 1.2 1.2c.6.1 1.2-.5 1.2-1.2zM476.5 228.1c0-.9-.7-1.6-1.6-1.6-.9 0-1.6.7-1.6 1.6 0 .9.7 1.6 1.6 1.6.9 0 1.6-.7 1.6-1.6zM479.3 208.7c0-2.4-2-4.4-4.4-4.4-2.4 0-4.4 2-4.4 4.4 0 2.4 2 4.4 4.4 4.4 2.4-.1 4.4-2 4.4-4.4zM481 189.2c0-3.3-2.7-6-6-6s-6 2.7-6 6 2.7 6 6 6c3.3.1 6-2.7 6-6zM479.7 169.8c0-2.7-2.1-4.8-4.8-4.8-2.6 0-4.8 2.1-4.8 4.8 0 2.6 2.2 4.8 4.8 4.8 2.7 0 4.8-2.2 4.8-4.8zM480.2 150.3c0-2.9-2.3-5.2-5.2-5.2-2.9 0-5.2 2.3-5.2 5.2 0 2.9 2.3 5.2 5.2 5.2 2.8.1 5.2-2.3 5.2-5.2zM480.9 130.9c0-3.3-2.7-5.9-5.9-5.9-3.3 0-5.9 2.7-5.9 5.9 0 3.3 2.7 5.9 5.9 5.9s5.9-2.6 5.9-5.9zM478.9 111.4c0-2.2-1.8-4-4-4s-4 1.8-4 4 1.8 4 4 4 4-1.8 4-4zM479.5 92c0-2.5-2-4.5-4.5-4.5s-4.5 2-4.5 4.5 2 4.5 4.5 4.5c2.4 0 4.5-2 4.5-4.5zM483.2 72.6c0-4.6-3.7-8.3-8.2-8.3-4.6 0-8.2 3.7-8.2 8.3 0 4.6 3.7 8.2 8.2 8.2 4.5 0 8.2-3.7 8.2-8.2zM483.9 53.1c0-4.9-4-8.9-8.9-8.9s-9 4-9 8.9c0 5 4 9 9 9 4.9 0 8.9-4 8.9-9zM484.5 33.7c0-5.3-4.3-9.6-9.6-9.6s-9.6 4.3-9.6 9.6 4.3 9.6 9.6 9.6 9.6-4.3 9.6-9.6z"/>
    <path d="M485 14.2c0-5.6-4.5-10.1-10.1-10.1s-10.1 4.5-10.1 10.1 4.5 10.1 10.1 10.1S485 19.8 485 14.2zM495 461.4c0-.3-.3-.6-.6-.6s-.6.3-.6.6.3.6.6.6.6-.3.6-.6zM494.8 442c0-.2-.2-.4-.4-.4s-.4.2-.4.4.2.4.4.4.4-.2.4-.4zM495.2 422.5c0-.4-.4-.8-.8-.8s-.8.4-.8.8.4.8.8.8.8-.3.8-.8zM495.4 403.1c0-.6-.5-1-1-1-.6 0-1 .5-1 1 0 .6.5 1 1 1s1-.5 1-1zM495.5 383.6c0-.7-.5-1.2-1.2-1.2s-1.2.5-1.2 1.2c0 .6.5 1.2 1.2 1.2s1.2-.5 1.2-1.2zM496.3 364.2c0-1.1-.9-1.9-1.9-1.9s-1.9.9-1.9 1.9c0 1.1.9 1.9 1.9 1.9s1.9-.8 1.9-1.9zM496.6 344.7c0-1.2-1-2.2-2.2-2.2s-2.2 1-2.2 2.2c0 1.2 1 2.2 2.2 2.2s2.2-.9 2.2-2.2zM497 325.3c0-1.4-1.2-2.6-2.6-2.6s-2.6 1.2-2.6 2.6 1.2 2.6 2.6 2.6 2.6-1.2 2.6-2.6zM497.2 305.9c0-1.6-1.3-2.9-2.9-2.9-1.6 0-2.9 1.3-2.9 2.9 0 1.6 1.3 2.9 2.9 2.9 1.7-.1 2.9-1.4 2.9-2.9zM497.7 286.4c0-1.8-1.5-3.3-3.3-3.3-1.8 0-3.3 1.5-3.3 3.3 0 1.8 1.5 3.3 3.3 3.3 1.8 0 3.3-1.5 3.3-3.3zM495.9 267c0-.8-.7-1.5-1.5-1.5s-1.5.7-1.5 1.5.7 1.5 1.5 1.5 1.5-.7 1.5-1.5zM497.7 247.5c0-1.8-1.5-3.3-3.3-3.3-1.8 0-3.3 1.5-3.3 3.3 0 1.9 1.5 3.3 3.3 3.3 1.8.1 3.3-1.4 3.3-3.3zM500.2 228.1c0-3.2-2.6-5.9-5.9-5.9-3.3 0-5.9 2.6-5.9 5.9 0 3.2 2.6 5.9 5.9 5.9 3.3 0 5.9-2.7 5.9-5.9zM498.1 208.7c0-2.1-1.7-3.8-3.8-3.8s-3.8 1.7-3.8 3.8c0 2.1 1.7 3.8 3.8 3.8s3.8-1.8 3.8-3.8zM496.2 189.2c0-1-.8-1.8-1.8-1.8s-1.8.8-1.8 1.8.8 1.8 1.8 1.8 1.8-.8 1.8-1.8zM496.3 169.8c0-1.1-.9-1.9-1.9-1.9s-1.9.9-1.9 1.9c0 1.1.9 1.9 1.9 1.9s1.9-.9 1.9-1.9zM496.8 150.3c0-1.4-1.1-2.5-2.5-2.5s-2.5 1.1-2.5 2.5 1.1 2.5 2.5 2.5 2.5-1.1 2.5-2.5zM497.7 130.9c0-1.8-1.5-3.3-3.3-3.3-1.8 0-3.3 1.5-3.3 3.3 0 1.8 1.5 3.3 3.3 3.3 1.8 0 3.3-1.5 3.3-3.3zM498 111.4c0-2-1.6-3.6-3.6-3.6s-3.6 1.6-3.6 3.6 1.6 3.6 3.6 3.6 3.6-1.6 3.6-3.6zM502.6 92c0-4.5-3.7-8.2-8.2-8.2s-8.2 3.7-8.2 8.2c0 4.5 3.7 8.2 8.2 8.2s8.2-3.7 8.2-8.2zM502.3 72.6c0-4.4-3.5-7.9-7.9-7.9s-7.9 3.5-7.9 7.9 3.5 7.9 7.9 7.9c4.3 0 7.9-3.6 7.9-7.9zM502 53.1c0-4.2-3.4-7.7-7.7-7.7s-7.7 3.4-7.7 7.7c0 4.2 3.4 7.7 7.7 7.7s7.7-3.5 7.7-7.7zM501.8 33.7c0-4.1-3.3-7.4-7.4-7.4-4.1 0-7.4 3.3-7.4 7.4 0 4.1 3.3 7.4 7.4 7.4 4.1 0 7.4-3.3 7.4-7.4zM501.5 14.2c0-3.9-3.2-7.1-7.1-7.1-3.9 0-7.1 3.2-7.1 7.1 0 3.9 3.2 7.1 7.1 7.1 3.9.1 7.1-3.1 7.1-7.1zM514.3 461.4c0-.3-.2-.5-.5-.5s-.5.2-.5.5.2.5.5.5.5-.2.5-.5zM514.2 442c0-.2-.2-.4-.4-.4s-.4.2-.4.4.2.4.4.4c.2-.1.4-.2.4-.4zM514.2 422.5c0-.2-.2-.4-.4-.4s-.4.2-.4.4.2.4.4.4c.3.1.4-.1.4-.4zM514.6 403.1c0-.4-.3-.8-.8-.8-.4 0-.7.3-.7.8 0 .4.3.8.7.8.4-.1.8-.4.8-.8zM514.7 383.6c0-.5-.4-.9-.9-.9s-.9.4-.9.9.4.9.9.9.9-.4.9-.9zM515.2 364.2c0-.8-.6-1.4-1.4-1.4-.8 0-1.4.6-1.4 1.4 0 .8.6 1.4 1.4 1.4.8 0 1.4-.6 1.4-1.4zM515.4 344.7c0-.9-.7-1.6-1.6-1.6-.9 0-1.6.7-1.6 1.6 0 .9.7 1.6 1.6 1.6.9.1 1.6-.7 1.6-1.6zM515.7 325.3c0-1-.8-1.9-1.9-1.9-1 0-1.9.8-1.9 1.9 0 1 .8 1.9 1.9 1.9 1.1 0 1.9-.9 1.9-1.9zM515.9 305.9c0-1.2-.9-2.1-2.1-2.1-1.2 0-2.1.9-2.1 2.1 0 1.2.9 2.1 2.1 2.1 1.2 0 2.1-1 2.1-2.1zM514.9 286.4c0-.6-.5-1.1-1.1-1.1-.6 0-1.1.5-1.1 1.1s.5 1.1 1.1 1.1c.6.1 1.1-.4 1.1-1.1zM516.1 267c0-1.3-1-2.3-2.3-2.3-1.3 0-2.3 1-2.3 2.3 0 1.2 1 2.3 2.3 2.3 1.3 0 2.3-1.1 2.3-2.3zM516.1 247.5c0-1.3-1-2.3-2.3-2.3-1.3 0-2.3 1-2.3 2.3 0 1.3 1.1 2.3 2.3 2.3 1.3.1 2.3-1 2.3-2.3zM515.4 228.1c0-.9-.7-1.6-1.6-1.6-.9 0-1.6.7-1.6 1.6 0 .9.7 1.6 1.6 1.6.9 0 1.6-.7 1.6-1.6zM515.5 208.7c0-.9-.8-1.7-1.7-1.7-.9 0-1.7.8-1.7 1.7 0 1 .8 1.7 1.7 1.7 1 0 1.7-.8 1.7-1.7zM514.7 189.2c0-.5-.4-.9-.9-.9s-.9.4-.9.9.4.9.9.9.9-.4.9-.9zM514.7 169.8c0-.5-.4-.9-.9-.9s-.9.4-.9.9.4.9.9.9.9-.4.9-.9zM515.4 150.3c0-.9-.7-1.6-1.6-1.6-.9 0-1.6.7-1.6 1.6 0 .9.7 1.6 1.6 1.6.9 0 1.6-.7 1.6-1.6zM515.8 130.9c0-1.1-.9-2-2-2s-2 .9-2 2 .9 2 2 2 2-.9 2-2zM518 111.4c0-2.3-1.9-4.2-4.2-4.2-2.3 0-4.1 1.9-4.1 4.2 0 2.3 1.9 4.2 4.1 4.2 2.3 0 4.2-1.9 4.2-4.2zM518 92c0-2.3-1.9-4.2-4.2-4.2-2.3 0-4.2 1.9-4.2 4.2 0 2.3 1.9 4.2 4.2 4.2 2.3 0 4.2-1.9 4.2-4.2zM516 72.6c0-1.2-1-2.2-2.2-2.2-1.2 0-2.2 1-2.2 2.2 0 1.2 1 2.2 2.2 2.2 1.2 0 2.2-1 2.2-2.2zM517.7 53.1c0-2.1-1.7-3.9-3.9-3.9-2.1 0-3.9 1.7-3.9 3.9 0 2.1 1.8 3.9 3.9 3.9 2.2 0 3.9-1.7 3.9-3.9zM517.4 33.7c0-2-1.6-3.6-3.6-3.6s-3.6 1.6-3.6 3.6 1.6 3.6 3.6 3.6 3.6-1.6 3.6-3.6zM517.5 14.2c0-2.1-1.7-3.7-3.7-3.7-2.1 0-3.7 1.7-3.7 3.7 0 2.1 1.7 3.7 3.7 3.7 2.1 0 3.7-1.6 3.7-3.7zM535 344.7c0-.9-.8-1.7-1.7-1.7-.9 0-1.7.8-1.7 1.7 0 1 .8 1.7 1.7 1.7.9.1 1.7-.7 1.7-1.7zM535.3 325.3c0-1.1-.9-2.1-2.1-2.1-1.1 0-2 .9-2 2.1 0 1.1.9 2.1 2 2.1 1.2 0 2.1-1 2.1-2.1zM535.7 305.9c0-1.3-1.1-2.4-2.4-2.4-1.3 0-2.4 1.1-2.4 2.4 0 1.3 1.1 2.4 2.4 2.4 1.3 0 2.4-1.1 2.4-2.4zM535.2 267c0-1.1-.9-2-2-2s-2 .9-2 2 .9 2 2 2c1.2 0 2-.9 2-2zM534.9 247.5c0-.9-.7-1.6-1.6-1.6-.9 0-1.6.7-1.6 1.6 0 .9.7 1.6 1.6 1.6.8.1 1.6-.7 1.6-1.6zM536.5 150.3c0-1.8-1.5-3.3-3.3-3.3-1.8 0-3.3 1.5-3.3 3.3 0 1.8 1.5 3.3 3.3 3.3 1.9 0 3.3-1.5 3.3-3.3zM535.6 130.9c0-1.3-1.1-2.4-2.4-2.4-1.3 0-2.4 1.1-2.4 2.4 0 1.3 1.1 2.4 2.4 2.4 1.4 0 2.4-1.1 2.4-2.4zM535.6 111.4c0-1.3-1-2.3-2.3-2.3-1.3 0-2.3 1-2.3 2.3 0 1.3 1.1 2.3 2.3 2.3 1.2.1 2.3-1 2.3-2.3zM535.8 92c0-1.4-1.2-2.6-2.6-2.6-1.4 0-2.6 1.2-2.6 2.6s1.2 2.6 2.6 2.6c1.5 0 2.6-1.2 2.6-2.6zM536.3 72.6c0-1.7-1.3-3-3-3s-3 1.4-3 3c0 1.7 1.3 3 3 3 1.6 0 3-1.4 3-3zM536.4 53.1c0-1.7-1.4-3.1-3.1-3.1-1.7 0-3.1 1.4-3.1 3.1 0 1.7 1.4 3.1 3.1 3.1 1.7 0 3.1-1.4 3.1-3.1zM536.4 33.7c0-1.8-1.4-3.2-3.2-3.2-1.7 0-3.2 1.4-3.2 3.2 0 1.8 1.4 3.2 3.2 3.2 1.8 0 3.2-1.5 3.2-3.2zM536.4 14.2c0-1.8-1.4-3.2-3.2-3.2-1.7 0-3.2 1.4-3.2 3.2 0 1.8 1.4 3.2 3.2 3.2 1.8 0 3.2-1.4 3.2-3.2z"/>
  </g>
  <g fill="none" stroke="#05282D" stroke-miterlimit="10">
    <path d="M279.1 206.3c0-.9-.7-1.6-1.6-1.6-.9 0-1.6.7-1.6 1.6 0 .9.7 1.6 1.6 1.6.9 0 1.6-.8 1.6-1.6zM277.6 70.2s-.1-.1 0 0c-.1-.1-.1 0-.1 0-.1 0 0 .1.1 0-.1.1 0 0 0 0zM277.8 50.7c0-.1-.1-.3-.3-.3-.1 0-.3.1-.3.3 0 .2.1.3.3.3.1 0 .3-.1.3-.3zM277.9 31.3c0-.2-.2-.4-.4-.4s-.4.2-.4.4.2.4.4.4.4-.2.4-.4z"/>
    <circle cx="296.9" cy="225.7" r="1.4"/>
    <path d="M298.6 206.3c0-.9-.7-1.7-1.7-1.7-.9 0-1.7.8-1.7 1.7 0 .9.8 1.7 1.7 1.7 1 0 1.7-.8 1.7-1.7zM298.3 186.9c0-.7-.6-1.4-1.4-1.4-.7 0-1.3.6-1.3 1.4 0 .7.6 1.3 1.3 1.3.8 0 1.4-.6 1.4-1.3zM298.4 128.5c0-.8-.7-1.5-1.5-1.5s-1.5.6-1.5 1.5c0 .8.7 1.5 1.5 1.5s1.5-.7 1.5-1.5zM300 109.1c0-1.7-1.4-3-3-3-1.7 0-3 1.4-3 3 0 1.7 1.4 3 3 3s3-1.4 3-3zM299.9 89.6c0-1.6-1.3-2.9-2.9-2.9-1.6 0-2.9 1.3-2.9 2.9 0 1.6 1.3 2.9 2.9 2.9 1.5 0 2.9-1.3 2.9-2.9zM297 70.2s0-.1 0 0c-.1-.1-.1 0-.1 0s0 .1.1 0c0 .1 0 0 0 0zM297.2 50.7c0-.1-.1-.3-.3-.3-.1 0-.3.1-.3.3 0 .2.1.3.3.3.2 0 .3-.1.3-.3zM297.3 31.3c0-.2-.2-.4-.4-.4s-.4.2-.4.4.2.4.4.4c.3 0 .4-.2.4-.4zM297.4 11.9c0-.3-.2-.5-.5-.5s-.5.2-.5.5.2.5.5.5.5-.3.5-.5zM318.5 245.2c0-1.2-1-2.2-2.2-2.2-1.2 0-2.1 1-2.1 2.2 0 1.2 1 2.2 2.1 2.2 1.3-.1 2.2-1 2.2-2.2zM318.1 225.7c0-1-.8-1.7-1.7-1.7-.9 0-1.7.8-1.7 1.7 0 .9.8 1.7 1.7 1.7.9.1 1.7-.7 1.7-1.7zM317.7 206.3c0-.7-.6-1.3-1.4-1.3-.7 0-1.3.6-1.3 1.3 0 .7.6 1.4 1.3 1.4.8-.1 1.4-.7 1.4-1.4zM317.9 186.9c0-.8-.7-1.5-1.5-1.5s-1.5.7-1.5 1.5.7 1.5 1.5 1.5 1.5-.7 1.5-1.5zM318.1 167.4c0-.9-.7-1.7-1.7-1.7-.9 0-1.7.8-1.7 1.7 0 .9.7 1.7 1.7 1.7.9 0 1.7-.8 1.7-1.7zM317.8 148c0-.8-.6-1.4-1.4-1.4-.8 0-1.4.6-1.4 1.4 0 .8.6 1.4 1.4 1.4.7 0 1.4-.7 1.4-1.4zM318 128.5c0-.9-.7-1.6-1.6-1.6-.9 0-1.6.7-1.6 1.6 0 .9.7 1.6 1.6 1.6.9 0 1.6-.7 1.6-1.6zM318.9 109.1c0-1.4-1.1-2.5-2.5-2.5s-2.5 1.1-2.5 2.5 1.1 2.5 2.5 2.5 2.5-1.1 2.5-2.5zM321 89.6c0-2.5-2.1-4.6-4.6-4.6-2.5 0-4.6 2.1-4.6 4.6 0 2.5 2 4.6 4.6 4.6 2.5 0 4.6-2 4.6-4.6zM321.4 70.2c0-2.8-2.2-5-5-5s-5 2.2-5 5 2.2 5 5 5c2.7 0 5-2.2 5-5zM316.8 50.7c0-.2-.2-.4-.4-.4s-.4.2-.4.4.2.4.4.4c.2.1.4-.1.4-.4zM316.9 31.3c0-.3-.2-.5-.5-.5s-.5.2-.5.5.2.5.5.5.5-.2.5-.5zM316.8 11.9c0-.2-.2-.4-.4-.4s-.4.2-.4.4.2.4.4.4.4-.2.4-.4zM336.8 322.9c0-.6-.5-1-1-1-.6 0-1 .5-1 1 0 .6.5 1 1 1 .6.1 1-.4 1-1zM337.1 303.5c0-.7-.6-1.2-1.3-1.2-.7 0-1.2.6-1.2 1.2 0 .7.5 1.2 1.2 1.2s1.3-.5 1.3-1.2zM337.8 284.1c0-1.1-.9-2-2-2s-2 .9-2 2 .9 2 2 2 2-.9 2-2zM338 264.6c0-1.2-1-2.2-2.2-2.2-1.2 0-2.1 1-2.1 2.2 0 1.2 1 2.2 2.1 2.2 1.2 0 2.2-1 2.2-2.2zM338.4 245.2c0-1.4-1.2-2.6-2.6-2.6-1.4 0-2.6 1.2-2.6 2.6 0 1.4 1.2 2.6 2.6 2.6 1.5 0 2.6-1.2 2.6-2.6zM338 225.7c0-1.2-1-2.2-2.2-2.2-1.2 0-2.1 1-2.1 2.2s1 2.2 2.1 2.2c1.2 0 2.2-1 2.2-2.2zM337.3 206.3c0-.8-.7-1.5-1.5-1.5s-1.4.6-1.4 1.5c0 .8.6 1.5 1.4 1.5.8-.1 1.5-.7 1.5-1.5zM337.5 186.9c0-.9-.7-1.7-1.7-1.7-.9 0-1.7.7-1.7 1.7 0 .9.8 1.7 1.7 1.7.9-.1 1.7-.8 1.7-1.7zM337.7 167.4c0-1-.8-1.8-1.8-1.8s-1.8.8-1.8 1.8.8 1.8 1.8 1.8c.9 0 1.8-.8 1.8-1.8zM337.3 148c0-.8-.7-1.5-1.5-1.5s-1.4.6-1.4 1.5c0 .8.6 1.5 1.4 1.5.8-.1 1.5-.7 1.5-1.5z"/>
    <circle cx="335.8" cy="128.5" r="2.5"/>
    <path d="M338.6 109.1c0-1.5-1.2-2.8-2.8-2.8-1.5 0-2.7 1.2-2.7 2.8s1.2 2.8 2.7 2.8c1.5-.1 2.8-1.3 2.8-2.8zM341.5 89.6c0-3.1-2.5-5.7-5.7-5.7-3.1 0-5.6 2.5-5.6 5.7 0 3.1 2.5 5.7 5.6 5.7 3.2 0 5.7-2.5 5.7-5.7zM341.4 70.2c0-3.1-2.5-5.6-5.6-5.6-3.1 0-5.5 2.5-5.5 5.6 0 3.1 2.5 5.6 5.5 5.6 3.1 0 5.6-2.5 5.6-5.6zM341.6 50.7c0-3.2-2.6-5.8-5.8-5.8-3.2 0-5.8 2.6-5.8 5.8 0 3.2 2.6 5.8 5.8 5.8 3.2 0 5.8-2.6 5.8-5.8zM336.6 31.3c0-.4-.4-.8-.8-.8s-.8.4-.8.8.4.8.8.8c.5 0 .8-.3.8-.8zM337 11.9c0-.6-.5-1.1-1.2-1.1-.6 0-1.1.5-1.1 1.1 0 .6.5 1.1 1.1 1.1.7 0 1.2-.5 1.2-1.1zM356.3 342.4c0-.6-.5-1-1-1-.6 0-1 .5-1 1 0 .6.5 1 1 1s1-.4 1-1zM356.4 322.9c0-.7-.5-1.2-1.2-1.2s-1.2.5-1.2 1.2.5 1.2 1.2 1.2 1.2-.5 1.2-1.2zM356.7 303.5c0-.8-.6-1.4-1.4-1.4-.8 0-1.4.6-1.4 1.4s.6 1.4 1.4 1.4c.7 0 1.4-.6 1.4-1.4z"/>
    <circle cx="355.3" cy="284.1" r="2.6"/>
    <path d="M358.7 264.6c0-1.9-1.5-3.4-3.4-3.4s-3.4 1.5-3.4 3.4 1.5 3.4 3.4 3.4c1.8 0 3.4-1.5 3.4-3.4zM358.3 245.2c0-1.7-1.4-3.1-3.1-3.1-1.7 0-3.1 1.4-3.1 3.1 0 1.7 1.4 3.1 3.1 3.1 1.8 0 3.1-1.4 3.1-3.1z"/>
    <circle cx="355.3" cy="225.7" r="2.6"/>
    <path d="M356.9 206.3c0-.9-.8-1.7-1.7-1.7-.9 0-1.7.8-1.7 1.7 0 .9.8 1.7 1.7 1.7 1 0 1.7-.8 1.7-1.7zM357.1 186.9c0-1-.8-1.9-1.9-1.9-1 0-1.9.8-1.9 1.9 0 1 .8 1.9 1.9 1.9 1.1-.1 1.9-.9 1.9-1.9zM356.7 167.4c0-.8-.6-1.4-1.4-1.4-.8 0-1.4.6-1.4 1.4 0 .8.6 1.4 1.4 1.4.7 0 1.4-.6 1.4-1.4zM356.9 148c0-.9-.7-1.6-1.6-1.6-.9 0-1.6.7-1.6 1.6 0 .9.7 1.6 1.6 1.6.9 0 1.6-.7 1.6-1.6z"/>
    <circle cx="355.3" cy="128.5" r="2.8"/>
    <path d="M358.4 109.1c0-1.7-1.4-3.1-3.1-3.1-1.7 0-3.1 1.4-3.1 3.1 0 1.7 1.4 3.1 3.1 3.1 1.7 0 3.1-1.4 3.1-3.1zM358.8 89.6c0-2-1.6-3.6-3.6-3.6s-3.6 1.6-3.6 3.6 1.6 3.6 3.6 3.6 3.6-1.6 3.6-3.6zM361.9 70.2a6.7 6.7 0 1 0-6.7 6.7c3.8 0 6.7-3 6.7-6.7zM360.9 50.7c0-3.1-2.5-5.7-5.7-5.7-3.1 0-5.7 2.5-5.7 5.7 0 3.1 2.5 5.7 5.7 5.7s5.7-2.5 5.7-5.7zM360.9 31.3c0-3.1-2.5-5.7-5.7-5.7-3.1 0-5.7 2.5-5.7 5.7 0 3.1 2.5 5.7 5.7 5.7s5.7-2.6 5.7-5.7zM356.9 11.9c0-.9-.8-1.7-1.7-1.7-.9 0-1.7.8-1.7 1.7 0 .9.8 1.7 1.7 1.7 1-.1 1.7-.8 1.7-1.7zM375.1 400.7c0-.2-.2-.4-.4-.4s-.4.2-.4.4.2.4.4.4c.2.1.4-.1.4-.4zM375.8 381.3c0-.6-.5-1.1-1.1-1.1-.6 0-1.2.5-1.2 1.1 0 .6.5 1.1 1.2 1.1.6 0 1.1-.5 1.1-1.1zM376.2 361.8c0-.8-.6-1.5-1.4-1.5-.8 0-1.5.6-1.5 1.5 0 .8.6 1.5 1.5 1.5.7 0 1.4-.7 1.4-1.5zM375.9 342.4c0-.6-.5-1.2-1.2-1.2s-1.2.5-1.2 1.2.5 1.2 1.2 1.2 1.2-.6 1.2-1.2zM376.1 322.9c0-.8-.6-1.4-1.4-1.4-.8 0-1.4.6-1.4 1.4 0 .8.6 1.4 1.4 1.4.8.1 1.4-.6 1.4-1.4zM376.4 303.5c0-.9-.8-1.7-1.7-1.7-1 0-1.7.8-1.7 1.7 0 1 .8 1.7 1.7 1.7 1 0 1.7-.7 1.7-1.7zM376.8 284.1c0-1.2-.9-2.1-2.1-2.1-1.2 0-2.1.9-2.1 2.1 0 1.2.9 2.1 2.1 2.1 1.2 0 2.1-1 2.1-2.1zM379.1 264.6c0-2.4-2-4.4-4.4-4.4-2.4 0-4.4 2-4.4 4.4 0 2.4 2 4.4 4.4 4.4 2.4 0 4.4-2 4.4-4.4zM378.9 245.2c0-2.3-1.9-4.2-4.2-4.2-2.3 0-4.2 1.9-4.2 4.2 0 2.3 1.9 4.2 4.2 4.2 2.3 0 4.2-1.9 4.2-4.2zM378.1 225.7c0-1.8-1.5-3.3-3.3-3.3-1.9 0-3.4 1.5-3.4 3.3 0 1.8 1.5 3.3 3.4 3.3 1.8.1 3.3-1.4 3.3-3.3zM376.5 206.3c0-1-.8-1.8-1.8-1.8s-1.8.8-1.8 1.8.8 1.8 1.8 1.8 1.8-.8 1.8-1.8zM376.8 186.9c0-1.2-.9-2.1-2.1-2.1-1.2 0-2.1.9-2.1 2.1 0 1.2.9 2.1 2.1 2.1 1.2 0 2.1-1 2.1-2.1zM376.2 167.4c0-.8-.6-1.5-1.4-1.5-.8 0-1.5.6-1.5 1.5 0 .8.6 1.5 1.5 1.5.7 0 1.4-.7 1.4-1.5zM377.5 148c0-1.5-1.2-2.7-2.7-2.7-1.5 0-2.8 1.2-2.8 2.7 0 1.5 1.2 2.8 2.8 2.8 1.4-.1 2.7-1.3 2.7-2.8zM377.9 128.5c0-1.8-1.4-3.2-3.2-3.2-1.8 0-3.2 1.4-3.2 3.2 0 1.8 1.4 3.2 3.2 3.2 1.8 0 3.2-1.4 3.2-3.2zM378.3 109.1c0-2-1.6-3.6-3.6-3.6s-3.6 1.6-3.6 3.6 1.6 3.6 3.6 3.6 3.6-1.6 3.6-3.6zM378.7 89.6c0-2.2-1.8-4-4-4s-4.1 1.8-4.1 4 1.8 4 4.1 4c2.2.1 4-1.7 4-4zM382.4 70.2c0-4.3-3.5-7.7-7.7-7.7-4.3 0-7.7 3.4-7.7 7.7 0 4.3 3.4 7.7 7.7 7.7 4.3 0 7.7-3.4 7.7-7.7zM381 50.7c0-3.5-2.8-6.3-6.2-6.3-3.5 0-6.3 2.8-6.3 6.3s2.8 6.3 6.3 6.3c3.4 0 6.2-2.8 6.2-6.3zM382.7 31.3c0-4.4-3.6-8-8-8s-8 3.6-8 8 3.6 8 8 8 8-3.6 8-8zM382.6 11.9c0-4.4-3.5-7.9-7.9-7.9s-7.9 3.5-7.9 7.9 3.6 7.9 7.9 7.9c4.4 0 7.9-3.6 7.9-7.9zM394.4 459c0-.1-.1-.2-.2-.2s-.2.1-.2.2.1.2.2.2c.1.1.2 0 .2-.2zM394.4 439.6c0-.1-.1-.2-.2-.2s-.2.1-.2.2.1.2.2.2.2-.1.2-.2zM394.6 420.2c0-.2-.2-.4-.4-.4s-.4.2-.4.4.2.4.4.4.4-.2.4-.4zM394.9 400.7c0-.4-.4-.8-.8-.8s-.8.3-.8.8c0 .4.3.8.8.8s.8-.4.8-.8zM394.8 381.3c0-.4-.3-.7-.7-.7-.4 0-.7.3-.7.7 0 .4.3.7.7.7.4 0 .7-.3.7-.7zM395.3 361.8c0-.6-.5-1.1-1.1-1.1-.6 0-1.1.5-1.1 1.1 0 .6.5 1.1 1.1 1.1.6.1 1.1-.4 1.1-1.1zM395.6 342.4c0-.8-.6-1.4-1.4-1.4-.8 0-1.4.6-1.4 1.4 0 .8.6 1.4 1.4 1.4.7 0 1.4-.6 1.4-1.4zM395.9 322.9c0-1-.8-1.7-1.7-1.7-.9 0-1.7.8-1.7 1.7 0 .9.8 1.7 1.7 1.7.9.1 1.7-.7 1.7-1.7zM396.2 303.5c0-1.2-.9-2.1-2.1-2.1-1.2 0-2.1.9-2.1 2.1 0 1.2.9 2.1 2.1 2.1 1.2 0 2.1-.9 2.1-2.1z"/>
    <circle cx="394.2" cy="284.1" r="2.5"/>
    <path d="M397.1 264.6c0-1.6-1.3-3-3-3-1.6 0-3 1.3-3 3 0 1.6 1.3 3 3 3s3-1.3 3-3zM396.7 245.2c0-1.4-1.2-2.6-2.6-2.6-1.4 0-2.6 1.2-2.6 2.6 0 1.4 1.2 2.6 2.6 2.6 1.5 0 2.6-1.2 2.6-2.6zM396 225.7c0-1-.8-1.8-1.8-1.8s-1.8.8-1.8 1.8.8 1.8 1.8 1.8c1 .1 1.8-.8 1.8-1.8zM396.2 206.3c0-1.2-.9-2.1-2.1-2.1-1.2 0-2.1.9-2.1 2.1 0 1.2.9 2.1 2.1 2.1 1.2 0 2.1-.9 2.1-2.1zM395.6 186.9c0-.8-.6-1.4-1.4-1.4-.8 0-1.4.6-1.4 1.4 0 .8.6 1.4 1.4 1.4.7 0 1.4-.7 1.4-1.4zM395.9 167.4c0-1-.8-1.7-1.7-1.7-.9 0-1.7.8-1.7 1.7 0 .9.8 1.7 1.7 1.7.9 0 1.7-.7 1.7-1.7zM397.3 148c0-1.8-1.4-3.2-3.2-3.2-1.8 0-3.2 1.4-3.2 3.2 0 1.8 1.4 3.2 3.2 3.2 1.8-.1 3.2-1.5 3.2-3.2zM397.8 128.5c0-2-1.6-3.6-3.6-3.6s-3.6 1.6-3.6 3.6 1.6 3.6 3.6 3.6c1.9 0 3.6-1.6 3.6-3.6zM398.2 109.1c0-2.3-1.8-4.1-4.1-4.1s-4.1 1.8-4.1 4.1 1.8 4.1 4.1 4.1 4.1-1.9 4.1-4.1zM398.7 89.6c0-2.5-2-4.6-4.6-4.6-2.5 0-4.6 2.1-4.6 4.6 0 2.5 2.1 4.6 4.6 4.6 2.6 0 4.6-2 4.6-4.6zM398 70.2c0-2.1-1.7-3.8-3.8-3.8-2.1 0-3.8 1.7-3.8 3.8 0 2.1 1.7 3.8 3.8 3.8 2.1 0 3.8-1.7 3.8-3.8zM401.4 50.7c0-4-3.2-7.2-7.2-7.2s-7.2 3.2-7.2 7.2 3.2 7.2 7.2 7.2c3.9.1 7.2-3.2 7.2-7.2zM403.1 31.3c0-4.9-4-8.9-8.9-8.9s-9 4-9 8.9 4 9 9 9c4.9 0 8.9-4.1 8.9-9zM403.1 11.9c0-4.9-4-9-8.9-9s-9 4-9 9c0 4.9 4 9 9 9 4.9-.1 8.9-4.1 8.9-9zM413.7 459c0-.1 0-.1-.1-.1s-.1.1-.1.1c0 .1 0 .1.1.1.1.1.1 0 .1-.1zM413.8 439.6c0-.1-.1-.2-.2-.2s-.2.1-.2.2.1.2.2.2.2-.1.2-.2zM414.1 420.2c0-.3-.2-.5-.5-.5s-.5.2-.5.5.2.5.5.5.5-.2.5-.5zM414 400.7c0-.2-.2-.4-.4-.4s-.4.2-.4.4.2.4.4.4c.2.1.4-.1.4-.4zM414.2 381.3c0-.4-.3-.7-.6-.7-.4 0-.6.3-.6.7 0 .4.3.6.6.6s.6-.3.6-.6zM415 361.8c0-.8-.6-1.4-1.4-1.4-.8 0-1.4.6-1.4 1.4 0 .8.6 1.4 1.4 1.4.8 0 1.4-.6 1.4-1.4zM415.3 342.4c0-.9-.8-1.7-1.7-1.7-.9 0-1.7.8-1.7 1.7 0 1 .8 1.7 1.7 1.7 1 0 1.7-.8 1.7-1.7zM415.6 322.9c0-1.1-.9-2-2-2s-2 .9-2 2 .9 2 2 2 2-.9 2-2zM416 303.5c0-1.3-1.1-2.4-2.4-2.4-1.3 0-2.4 1.1-2.4 2.4 0 1.3 1.1 2.4 2.4 2.4 1.3 0 2.4-1 2.4-2.4zM416.7 284.1c0-1.7-1.4-3.1-3.1-3.1-1.7 0-3.1 1.4-3.1 3.1 0 1.7 1.4 3.1 3.1 3.1 1.7 0 3.1-1.4 3.1-3.1zM417.2 264.6c0-2-1.6-3.6-3.6-3.6s-3.6 1.6-3.6 3.6 1.6 3.6 3.6 3.6 3.6-1.6 3.6-3.6zM415.1 245.2c0-.8-.7-1.5-1.5-1.5s-1.5.7-1.5 1.5.7 1.5 1.5 1.5 1.5-.7 1.5-1.5zM414.7 225.7c0-.6-.5-1.1-1.1-1.1-.6 0-1.1.5-1.1 1.1 0 .6.5 1.1 1.1 1.1.6 0 1.1-.5 1.1-1.1zM414.9 206.3c0-.7-.6-1.3-1.3-1.3-.7 0-1.4.6-1.4 1.3 0 .7.6 1.4 1.4 1.4.7-.1 1.3-.7 1.3-1.4zM415.2 186.9c0-.9-.7-1.6-1.6-1.6-.9 0-1.6.7-1.6 1.6 0 .9.7 1.6 1.6 1.6.9 0 1.6-.8 1.6-1.6zM416.8 167.4c0-1.8-1.4-3.2-3.2-3.2-1.8 0-3.2 1.4-3.2 3.2 0 1.8 1.4 3.2 3.2 3.2 1.7 0 3.2-1.4 3.2-3.2zM417.2 148c0-2-1.6-3.6-3.6-3.6S410 146 410 148s1.6 3.6 3.6 3.6 3.6-1.6 3.6-3.6zM417.8 128.5c0-2.3-1.9-4.2-4.2-4.2-2.3 0-4.1 1.9-4.1 4.2 0 2.3 1.9 4.2 4.1 4.2 2.3 0 4.2-1.9 4.2-4.2zM418.2 109.1c0-2.6-2.1-4.6-4.6-4.6-2.6 0-4.6 2.1-4.6 4.6 0 2.6 2.1 4.6 4.6 4.6 2.5 0 4.6-2.1 4.6-4.6zM418.8 89.6c0-2.9-2.3-5.2-5.2-5.2-2.9 0-5.2 2.3-5.2 5.2 0 2.9 2.3 5.2 5.2 5.2 2.9 0 5.2-2.3 5.2-5.2zM417.6 70.2c0-2.2-1.8-4-4-4s-4 1.8-4 4 1.8 4 4 4 4-1.8 4-4zM424 50.7c0-5.8-4.7-10.4-10.4-10.4s-10.4 4.7-10.4 10.4 4.7 10.4 10.4 10.4c5.7.1 10.4-4.6 10.4-10.4z"/>
    <path d="M423.9 31.3c0-5.7-4.6-10.3-10.3-10.3-5.7 0-10.3 4.6-10.3 10.3 0 5.7 4.6 10.3 10.3 10.3 5.7 0 10.3-4.6 10.3-10.3z"/>
    <path d="M423.5 11.9c0-5.5-4.4-9.9-9.9-9.9s-9.9 4.4-9.9 9.9 4.5 9.9 9.9 9.9c5.5 0 9.9-4.5 9.9-9.9zM433.1 459c0-.1 0-.1-.1-.1s-.1.1-.1.1c0 .1 0 .1.1.1s.1 0 .1-.1zM433.3 439.6c0-.1-.1-.2-.2-.2s-.2.1-.2.2.1.2.2.2.2-.1.2-.2zM433.3 420.2c0-.1-.1-.3-.3-.3-.1 0-.3.1-.3.3 0 .1.1.3.3.3.2-.1.3-.2.3-.3zM433.4 400.7c0-.2-.2-.4-.4-.4s-.4.2-.4.4.2.4.4.4.4-.2.4-.4zM434 381.3c0-.5-.4-1-1-1-.5 0-1 .4-1 1 0 .5.4 1 1 1 .6-.1 1-.5 1-1zM434.3 361.8c0-.7-.6-1.2-1.2-1.2s-1.2.6-1.2 1.2c0 .7.6 1.2 1.2 1.2s1.2-.5 1.2-1.2zM435.1 342.4c0-1.2-.9-2.1-2.1-2.1s-2.1.9-2.1 2.1c0 1.2.9 2.1 2.1 2.1s2.1-.9 2.1-2.1zM435.6 322.9c0-1.4-1.1-2.5-2.5-2.5s-2.5 1.1-2.5 2.5 1.1 2.5 2.5 2.5 2.5-1.1 2.5-2.5zM436 303.5c0-1.6-1.3-3-3-3-1.6 0-3 1.3-3 3 0 1.6 1.3 3 3 3s3-1.4 3-3zM436.5 284.1c0-1.9-1.5-3.5-3.4-3.5s-3.4 1.5-3.4 3.5 1.5 3.5 3.4 3.5c1.8-.1 3.4-1.6 3.4-3.5zM437.2 264.6c0-2.3-1.9-4.2-4.2-4.2-2.3 0-4.2 1.9-4.2 4.2 0 2.3 1.9 4.2 4.2 4.2 2.4 0 4.2-1.9 4.2-4.2zM435.8 245.2c0-1.5-1.3-2.8-2.8-2.8-1.5 0-2.8 1.3-2.8 2.8 0 1.6 1.3 2.8 2.8 2.8 1.6 0 2.8-1.3 2.8-2.8zM434.6 225.7c0-.9-.7-1.6-1.6-1.6-.9 0-1.6.7-1.6 1.6 0 .9.7 1.6 1.6 1.6.9 0 1.6-.7 1.6-1.6zM434.5 206.3c0-.8-.7-1.5-1.5-1.5s-1.5.6-1.5 1.5c0 .8.7 1.5 1.5 1.5.8-.1 1.5-.7 1.5-1.5zM436.2 186.9c0-1.8-1.4-3.2-3.2-3.2-1.8 0-3.2 1.4-3.2 3.2 0 1.8 1.4 3.2 3.2 3.2 1.8-.1 3.2-1.5 3.2-3.2zM436.8 167.4c0-2.1-1.7-3.7-3.7-3.7-2.1 0-3.7 1.7-3.7 3.7 0 2.1 1.7 3.7 3.7 3.7s3.7-1.6 3.7-3.7zM437.1 148c0-2.3-1.8-4.1-4.1-4.1s-4.1 1.8-4.1 4.1 1.8 4.1 4.1 4.1 4.1-1.9 4.1-4.1zM437.6 128.5c0-2.5-2.1-4.6-4.6-4.6s-4.6 2.1-4.6 4.6c0 2.5 2.1 4.6 4.6 4.6s4.6-2 4.6-4.6zM438.3 109.1c0-2.9-2.3-5.2-5.2-5.2-2.9 0-5.2 2.3-5.2 5.2 0 2.9 2.3 5.2 5.2 5.2 2.8 0 5.2-2.3 5.2-5.2z"/>
    <circle cx="433" cy="89.6" r="3.9"/>
    <path d="M437.5 70.2c0-2.5-2-4.5-4.5-4.5s-4.5 2-4.5 4.5 2 4.5 4.5 4.5 4.5-2 4.5-4.5zM440.6 50.7c0-4.2-3.4-7.5-7.5-7.5-4.2 0-7.5 3.4-7.5 7.5 0 4.2 3.4 7.6 7.5 7.6s7.5-3.4 7.5-7.6zM444.3 31.3c0-6.2-5-11.2-11.2-11.2-6.2 0-11.2 5-11.2 11.2s5 11.2 11.2 11.2c6.1 0 11.2-5 11.2-11.2z"/>
    <path d="M444 11.9c0-6.1-4.9-11-11-11s-11 4.9-11 11 4.9 11 11 11 11-5 11-11zM452.6 459c0-.1-.1-.2-.2-.2s-.2.1-.2.2.1.2.2.2c.2 0 .2-.1.2-.2zM452.7 439.6c0-.1-.1-.3-.3-.3-.2 0-.3.1-.3.3 0 .2.1.3.3.3.2 0 .3-.2.3-.3zM452.7 420.2c0-.1-.1-.2-.2-.2s-.2.1-.2.2.1.2.2.2.2-.1.2-.2zM452.9 400.7c0-.2-.2-.4-.4-.4s-.4.2-.4.4.2.4.4.4.4-.2.4-.4zM453.3 381.3c0-.5-.4-.8-.8-.8-.5 0-.8.4-.8.8s.4.8.8.8.8-.4.8-.8zM454 361.8c0-.9-.7-1.6-1.6-1.6-.9 0-1.6.7-1.6 1.6 0 .9.7 1.6 1.6 1.6.9 0 1.6-.7 1.6-1.6zM454.4 342.4c0-1.1-.9-1.9-1.9-1.9-1.1 0-1.9.9-1.9 1.9 0 1.1.9 1.9 1.9 1.9 1.1 0 1.9-.8 1.9-1.9zM454.8 322.9c0-1.3-1.1-2.4-2.4-2.4-1.3 0-2.4 1.1-2.4 2.4 0 1.3 1.1 2.4 2.4 2.4 1.4 0 2.4-1 2.4-2.4zM455.4 303.5c0-1.6-1.3-2.9-2.9-2.9-1.6 0-2.9 1.3-2.9 2.9 0 1.6 1.3 2.9 2.9 2.9 1.6 0 2.9-1.3 2.9-2.9zM456.8 284.1c0-2.4-2-4.4-4.4-4.4-2.4 0-4.4 2-4.4 4.4 0 2.4 1.9 4.4 4.4 4.4 2.5-.1 4.4-2 4.4-4.4zM455.6 264.6c0-1.7-1.4-3.1-3.1-3.1-1.7 0-3.1 1.4-3.1 3.1 0 1.7 1.4 3.1 3.1 3.1 1.7 0 3.1-1.4 3.1-3.1zM456.7 245.2c0-2.3-1.9-4.3-4.2-4.3-2.4 0-4.3 1.9-4.3 4.3s1.9 4.3 4.3 4.3c2.3-.1 4.2-2 4.2-4.3zM453.7 225.7c0-.6-.5-1.2-1.2-1.2s-1.2.5-1.2 1.2.5 1.2 1.2 1.2c.6 0 1.2-.5 1.2-1.2zM454 206.3c0-.9-.7-1.6-1.6-1.6-.9 0-1.6.7-1.6 1.6 0 .9.7 1.6 1.6 1.6.9 0 1.6-.8 1.6-1.6zM456 186.9c0-2-1.6-3.6-3.6-3.6s-3.6 1.6-3.6 3.6 1.6 3.6 3.6 3.6c2-.1 3.6-1.7 3.6-3.6zM456.7 167.4c0-2.3-1.9-4.2-4.2-4.2-2.3 0-4.2 1.9-4.2 4.2 0 2.3 1.9 4.2 4.2 4.2 2.3 0 4.2-1.9 4.2-4.2zM457.1 148c0-2.6-2.1-4.6-4.6-4.6-2.6 0-4.6 2.1-4.6 4.6 0 2.6 2.1 4.6 4.6 4.6 2.5 0 4.6-2.1 4.6-4.6zM457.9 128.5c0-3-2.4-5.4-5.4-5.4-3 0-5.4 2.4-5.4 5.4 0 3 2.4 5.4 5.4 5.4 3 0 5.4-2.4 5.4-5.4zM458.4 109.1c0-3.3-2.7-5.9-5.9-5.9-3.3 0-5.9 2.6-5.9 5.9 0 3.3 2.7 5.9 5.9 5.9 3.3 0 5.9-2.6 5.9-5.9zM456.7 89.6c0-2.4-1.9-4.3-4.2-4.3-2.4 0-4.3 1.9-4.3 4.3 0 2.3 1.9 4.3 4.3 4.3 2.3 0 4.2-1.9 4.2-4.3zM460.1 70.2c0-4.2-3.4-7.7-7.6-7.7-4.2 0-7.7 3.4-7.7 7.7 0 4.2 3.4 7.6 7.7 7.6 4.2 0 7.6-3.4 7.6-7.6zM460.7 50.7c0-4.6-3.7-8.2-8.2-8.2s-8.3 3.7-8.3 8.2c0 4.6 3.7 8.3 8.3 8.3s8.2-3.7 8.2-8.3zM461.4 31.3c0-4.9-4-8.9-8.9-8.9s-9 4-9 8.9 4 9 9 9c4.9 0 8.9-4.1 8.9-9z"/>
    <path d="M464.3 11.9C464.3 5.3 459 0 452.5 0c-6.6 0-11.9 5.3-11.9 11.9 0 6.6 5.3 11.9 11.9 11.9 6.5-.1 11.8-5.4 11.8-11.9zM472.1 459c0-.1-.1-.2-.2-.2s-.2.1-.2.2.1.2.2.2.2-.1.2-.2zM472.1 439.6c0-.1-.1-.2-.2-.2s-.2.1-.2.2.1.2.2.2.2-.1.2-.2zM472.2 420.2c0-.2-.1-.3-.3-.3-.2 0-.3.1-.3.3 0 .2.1.3.3.3.2 0 .3-.2.3-.3zM472.5 400.7c0-.3-.3-.6-.6-.6s-.6.3-.6.6.3.6.6.6.6-.3.6-.6zM472.8 381.3c0-.5-.4-.9-.9-.9s-.9.4-.9.9.4.9.9.9.9-.4.9-.9zM473.1 361.8c0-.7-.5-1.2-1.2-1.2s-1.2.5-1.2 1.2c0 .6.5 1.2 1.2 1.2s1.2-.5 1.2-1.2zM473.3 342.4c0-.8-.6-1.4-1.4-1.4-.8 0-1.4.6-1.4 1.4 0 .8.6 1.4 1.4 1.4.8 0 1.4-.6 1.4-1.4zM473.5 322.9c0-.9-.7-1.6-1.6-1.6-.9 0-1.6.7-1.6 1.6 0 .9.7 1.6 1.6 1.6.9.1 1.6-.7 1.6-1.6zM475.8 303.5c0-2.1-1.7-3.9-3.9-3.9-2.1 0-3.9 1.7-3.9 3.9 0 2.1 1.7 3.9 3.9 3.9s3.9-1.8 3.9-3.9zM476.8 284.1c0-2.7-2.2-4.9-4.8-4.9-2.7 0-4.8 2.2-4.8 4.9s2.2 4.9 4.8 4.9c2.6-.1 4.8-2.3 4.8-4.9zM474 264.6c0-1.2-.9-2.1-2.1-2.1-1.2 0-2.1.9-2.1 2.1 0 1.2 1 2.1 2.1 2.1 1.2 0 2.1-.9 2.1-2.1zM473.2 245.2c0-.7-.6-1.2-1.2-1.2-.7 0-1.2.5-1.2 1.2s.6 1.2 1.2 1.2 1.2-.5 1.2-1.2zM473.5 225.7c0-.9-.7-1.6-1.6-1.6-.9 0-1.6.7-1.6 1.6 0 .9.7 1.6 1.6 1.6.9 0 1.6-.7 1.6-1.6zM476.3 206.3c0-2.4-2-4.4-4.4-4.4-2.4 0-4.4 2-4.4 4.4 0 2.4 2 4.4 4.4 4.4 2.4 0 4.4-2 4.4-4.4zM478 186.9c0-3.3-2.7-6-6-6s-6 2.7-6 6 2.7 6 6 6 6-2.7 6-6zM476.7 167.4c0-2.7-2.1-4.8-4.8-4.8-2.6 0-4.8 2.1-4.8 4.8 0 2.6 2.2 4.8 4.8 4.8 2.7 0 4.8-2.1 4.8-4.8zM477.2 148c0-2.9-2.3-5.2-5.2-5.2-2.9 0-5.2 2.3-5.2 5.2 0 2.9 2.3 5.2 5.2 5.2 2.8 0 5.2-2.3 5.2-5.2zM477.8 128.5c0-3.3-2.7-5.9-5.9-5.9-3.3 0-5.9 2.7-5.9 5.9 0 3.3 2.7 5.9 5.9 5.9 3.3.1 5.9-2.6 5.9-5.9zM475.9 109.1c0-2.2-1.8-4-4-4s-4 1.8-4 4 1.8 4 4 4 4-1.8 4-4zM476.4 89.6c0-2.5-2-4.5-4.5-4.5s-4.5 2-4.5 4.5 2 4.5 4.5 4.5c2.5.1 4.5-2 4.5-4.5zM480.2 70.2c0-4.6-3.7-8.3-8.2-8.3-4.6 0-8.2 3.7-8.2 8.3 0 4.6 3.7 8.2 8.2 8.2 4.5 0 8.2-3.6 8.2-8.2zM480.9 50.7c0-4.9-4-8.9-8.9-8.9s-9 4-9 8.9c0 5 4 9 9 9 4.9 0 8.9-4 8.9-9zM481.5 31.3c0-5.3-4.3-9.6-9.6-9.6s-9.6 4.3-9.6 9.6 4.3 9.6 9.6 9.6 9.6-4.3 9.6-9.6z"/>
    <path d="M482 11.9c0-5.6-4.5-10.1-10.1-10.1s-10.1 4.5-10.1 10.1S466.3 22 471.9 22c5.6-.1 10.1-4.6 10.1-10.1zM492 459c0-.3-.3-.6-.6-.6s-.6.3-.6.6.3.6.6.6.6-.2.6-.6zM491.8 439.6c0-.2-.2-.4-.4-.4s-.4.2-.4.4.2.4.4.4.4-.2.4-.4zM492.2 420.2c0-.4-.4-.8-.8-.8s-.8.4-.8.8.4.8.8.8.8-.4.8-.8zM492.4 400.7c0-.6-.5-1-1-1-.6 0-1 .5-1 1 0 .6.5 1 1 1s1-.4 1-1zM492.5 381.3c0-.7-.5-1.2-1.2-1.2s-1.2.5-1.2 1.2c0 .6.5 1.2 1.2 1.2s1.2-.6 1.2-1.2zM493.3 361.8c0-1.1-.9-1.9-1.9-1.9s-1.9.9-1.9 1.9c0 1.1.9 1.9 1.9 1.9s1.9-.8 1.9-1.9zM493.6 342.4c0-1.2-1-2.2-2.2-2.2s-2.2 1-2.2 2.2c0 1.2 1 2.2 2.2 2.2s2.2-1 2.2-2.2zM493.9 322.9c0-1.4-1.2-2.6-2.6-2.6s-2.6 1.2-2.6 2.6 1.2 2.6 2.6 2.6 2.6-1.1 2.6-2.6zM494.2 303.5c0-1.6-1.3-2.9-2.9-2.9-1.6 0-2.9 1.3-2.9 2.9 0 1.6 1.3 2.9 2.9 2.9 1.7 0 2.9-1.3 2.9-2.9zM494.7 284.1c0-1.8-1.5-3.3-3.3-3.3-1.8 0-3.3 1.5-3.3 3.3 0 1.8 1.5 3.3 3.3 3.3 1.8 0 3.3-1.5 3.3-3.3zM492.9 264.6c0-.8-.7-1.5-1.5-1.5s-1.5.7-1.5 1.5.7 1.5 1.5 1.5 1.5-.6 1.5-1.5zM494.7 245.2c0-1.8-1.5-3.3-3.3-3.3-1.8 0-3.3 1.5-3.3 3.3 0 1.9 1.5 3.3 3.3 3.3 1.8 0 3.3-1.5 3.3-3.3zM497.2 225.7c0-3.2-2.6-5.9-5.9-5.9-3.3 0-5.9 2.6-5.9 5.9 0 3.2 2.6 5.9 5.9 5.9 3.3 0 5.9-2.6 5.9-5.9zM495.1 206.3c0-2.1-1.7-3.8-3.8-3.8s-3.8 1.7-3.8 3.8c0 2.1 1.7 3.8 3.8 3.8s3.8-1.7 3.8-3.8zM493.2 186.9c0-1-.8-1.8-1.8-1.8s-1.8.8-1.8 1.8.8 1.8 1.8 1.8 1.8-.8 1.8-1.8zM493.3 167.4c0-1.1-.9-1.9-1.9-1.9s-1.9.9-1.9 1.9c0 1.1.9 1.9 1.9 1.9s1.9-.8 1.9-1.9zM493.8 148c0-1.4-1.1-2.5-2.5-2.5s-2.5 1.1-2.5 2.5 1.1 2.5 2.5 2.5 2.5-1.2 2.5-2.5zM494.7 128.5c0-1.8-1.5-3.3-3.3-3.3-1.8 0-3.3 1.5-3.3 3.3 0 1.8 1.5 3.3 3.3 3.3 1.8.1 3.3-1.4 3.3-3.3zM495 109.1c0-2-1.6-3.6-3.6-3.6s-3.6 1.6-3.6 3.6 1.6 3.6 3.6 3.6 3.6-1.6 3.6-3.6zM499.6 89.6c0-4.5-3.7-8.2-8.2-8.2s-8.2 3.7-8.2 8.2c0 4.5 3.7 8.2 8.2 8.2s8.2-3.6 8.2-8.2zM499.3 70.2c0-4.4-3.5-7.9-7.9-7.9s-7.9 3.5-7.9 7.9 3.5 7.9 7.9 7.9c4.3 0 7.9-3.5 7.9-7.9zM499 50.7c0-4.2-3.4-7.7-7.7-7.7s-7.7 3.4-7.7 7.7c0 4.2 3.4 7.7 7.7 7.7s7.7-3.4 7.7-7.7zM498.8 31.3c0-4.1-3.3-7.4-7.4-7.4-4.1 0-7.4 3.3-7.4 7.4 0 4.1 3.3 7.4 7.4 7.4 4.1.1 7.4-3.3 7.4-7.4zM498.5 11.9c0-3.9-3.2-7.1-7.1-7.1-3.9 0-7.1 3.2-7.1 7.1 0 3.9 3.2 7.1 7.1 7.1 3.9 0 7.1-3.2 7.1-7.1zM511.3 459c0-.3-.2-.5-.5-.5s-.5.2-.5.5.2.5.5.5.5-.2.5-.5zM511.2 439.6c0-.2-.2-.4-.4-.4s-.4.2-.4.4.2.4.4.4.4-.2.4-.4zM511.2 420.2c0-.2-.2-.4-.4-.4s-.4.2-.4.4.2.4.4.4.4-.2.4-.4zM511.6 400.7c0-.4-.3-.8-.8-.8-.4 0-.7.3-.7.8 0 .4.3.8.7.8.4 0 .8-.4.8-.8zM511.7 381.3c0-.5-.4-.9-.9-.9s-.9.4-.9.9.4.9.9.9c.5-.1.9-.5.9-.9zM512.2 361.8c0-.8-.6-1.4-1.4-1.4-.8 0-1.4.6-1.4 1.4 0 .8.6 1.4 1.4 1.4.8 0 1.4-.6 1.4-1.4zM512.4 342.4c0-.9-.7-1.6-1.6-1.6-.9 0-1.6.7-1.6 1.6 0 .9.7 1.6 1.6 1.6.9 0 1.6-.7 1.6-1.6zM512.7 322.9c0-1-.8-1.9-1.9-1.9-1 0-1.9.8-1.9 1.9 0 1 .8 1.9 1.9 1.9 1.1 0 1.9-.8 1.9-1.9zM512.9 303.5c0-1.2-.9-2.1-2.1-2.1-1.2 0-2.1.9-2.1 2.1 0 1.2.9 2.1 2.1 2.1 1.2 0 2.1-.9 2.1-2.1zM511.9 284.1c0-.6-.5-1.1-1.1-1.1-.6 0-1.1.5-1.1 1.1s.5 1.1 1.1 1.1c.6 0 1.1-.5 1.1-1.1zM513.1 264.6c0-1.3-1-2.3-2.3-2.3-1.3 0-2.3 1-2.3 2.3 0 1.2 1 2.3 2.3 2.3 1.3 0 2.3-1 2.3-2.3zM513.1 245.2c0-1.3-1-2.3-2.3-2.3-1.3 0-2.3 1-2.3 2.3 0 1.3 1.1 2.3 2.3 2.3 1.3 0 2.3-1 2.3-2.3zM512.4 225.7c0-.9-.7-1.6-1.6-1.6-.9 0-1.6.7-1.6 1.6 0 .9.7 1.6 1.6 1.6.9 0 1.6-.7 1.6-1.6zM512.5 206.3c0-.9-.8-1.7-1.7-1.7-.9 0-1.7.8-1.7 1.7 0 1 .8 1.7 1.7 1.7 1 0 1.7-.8 1.7-1.7zM511.7 186.9c0-.5-.4-.9-.9-.9s-.9.4-.9.9.4.9.9.9c.5-.1.9-.5.9-.9zM511.7 167.4c0-.5-.4-.9-.9-.9s-.9.4-.9.9.4.9.9.9.9-.4.9-.9zM512.4 148c0-.9-.7-1.6-1.6-1.6-.9 0-1.6.7-1.6 1.6 0 .9.7 1.6 1.6 1.6.9 0 1.6-.7 1.6-1.6zM512.8 128.5c0-1.1-.9-2-2-2s-2 .9-2 2 .9 2 2 2 2-.9 2-2zM515 109.1c0-2.3-1.9-4.2-4.2-4.2-2.3 0-4.1 1.9-4.1 4.2 0 2.3 1.9 4.2 4.1 4.2 2.3-.1 4.2-1.9 4.2-4.2zM515 89.6c0-2.3-1.9-4.2-4.2-4.2-2.3 0-4.2 1.9-4.2 4.2 0 2.3 1.9 4.2 4.2 4.2 2.3 0 4.2-1.8 4.2-4.2zM513 70.2c0-1.2-1-2.2-2.2-2.2-1.2 0-2.2 1-2.2 2.2 0 1.2 1 2.2 2.2 2.2 1.2 0 2.2-1 2.2-2.2zM514.7 50.7c0-2.1-1.7-3.9-3.9-3.9-2.1 0-3.9 1.7-3.9 3.9 0 2.1 1.8 3.9 3.9 3.9 2.1 0 3.9-1.7 3.9-3.9zM514.4 31.3c0-2-1.6-3.6-3.6-3.6s-3.6 1.6-3.6 3.6 1.6 3.6 3.6 3.6 3.6-1.6 3.6-3.6zM514.5 11.9c0-2.1-1.7-3.7-3.7-3.7s-3.7 1.7-3.7 3.7c0 2.1 1.7 3.7 3.7 3.7s3.7-1.7 3.7-3.7zM532 342.4c0-.9-.8-1.7-1.7-1.7-.9 0-1.7.8-1.7 1.7 0 1 .8 1.7 1.7 1.7.9 0 1.7-.8 1.7-1.7zM532.3 322.9c0-1.1-.9-2.1-2.1-2.1-1.1 0-2 .9-2 2.1 0 1.1.9 2.1 2 2.1 1.2 0 2.1-.9 2.1-2.1zM532.7 303.5c0-1.3-1.1-2.4-2.4-2.4-1.3 0-2.4 1.1-2.4 2.4 0 1.3 1.1 2.4 2.4 2.4 1.3 0 2.4-1 2.4-2.4zM532.2 264.6c0-1.1-.9-2-2-2s-2 .9-2 2 .9 2 2 2 2-.9 2-2zM531.9 245.2c0-.9-.7-1.6-1.6-1.6-.9 0-1.6.7-1.6 1.6 0 .9.7 1.6 1.6 1.6.8 0 1.6-.7 1.6-1.6zM533.5 148c0-1.8-1.5-3.3-3.3-3.3-1.8 0-3.3 1.5-3.3 3.3 0 1.8 1.5 3.3 3.3 3.3 1.9 0 3.3-1.5 3.3-3.3zM532.6 128.5c0-1.3-1.1-2.4-2.4-2.4-1.3 0-2.4 1.1-2.4 2.4 0 1.3 1.1 2.4 2.4 2.4 1.4 0 2.4-1.1 2.4-2.4zM532.6 109.1c0-1.3-1-2.3-2.3-2.3-1.3 0-2.3 1-2.3 2.3 0 1.3 1.1 2.3 2.3 2.3 1.2 0 2.3-1 2.3-2.3zM532.8 89.6c0-1.4-1.2-2.6-2.6-2.6-1.4 0-2.6 1.2-2.6 2.6s1.2 2.6 2.6 2.6c1.5 0 2.6-1.1 2.6-2.6zM533.3 70.2c0-1.7-1.3-3-3-3s-3 1.4-3 3c0 1.7 1.3 3 3 3 1.6 0 3-1.3 3-3zM533.4 50.7c0-1.7-1.4-3.1-3.1-3.1-1.7 0-3.1 1.4-3.1 3.1 0 1.7 1.4 3.1 3.1 3.1 1.7.1 3.1-1.3 3.1-3.1zM533.4 31.3c0-1.8-1.4-3.2-3.2-3.2-1.7 0-3.2 1.4-3.2 3.2 0 1.8 1.4 3.2 3.2 3.2 1.8 0 3.2-1.4 3.2-3.2zM533.4 11.9c0-1.8-1.4-3.2-3.2-3.2-1.7 0-3.2 1.4-3.2 3.2 0 1.8 1.4 3.2 3.2 3.2 1.8 0 3.2-1.5 3.2-3.2z"/>
  </g>
  <g opacity=".1">
    <path d="M257.4 167.4c0-.1.1-.2.2-.2s.2.1.2.2-.1.2-.2.2c-.2-.1-.2-.2-.2-.2zM257.3 147.9c0-.1.1-.2.2-.2s.2.1.2.2-.1.2-.2.2-.2-.1-.2-.2zM257.2 128.5c0-.2.1-.3.3-.3.2 0 .3.1.3.3 0 .2-.1.3-.3.3-.2 0-.3-.2-.3-.3zM256.9 109c0-.3.3-.6.6-.6s.6.3.6.6-.3.6-.6.6-.6-.2-.6-.6zM256.7 89.6c0-.4.4-.8.8-.8.5 0 .8.4.8.8 0 .5-.4.8-.8.8s-.8-.4-.8-.8zM256.7 70.1c0-.5.4-.8.8-.8.5 0 .8.4.8.8s-.4.8-.8.8-.8-.3-.8-.8zM256.5 50.7c0-.6.5-1 1-1 .6 0 1 .5 1 1 0 .6-.5 1-1 1s-1-.4-1-1zM256.2 31.3c0-.7.6-1.3 1.3-1.3.7 0 1.3.6 1.3 1.3 0 .7-.6 1.4-1.3 1.4-.7-.1-1.3-.7-1.3-1.4zM255.8 11.8c0-1 .8-1.7 1.7-1.7 1 0 1.7.8 1.7 1.7 0 .9-.8 1.7-1.7 1.7-.9 0-1.7-.7-1.7-1.7zM237.8 186.8c0-.1.1-.3.3-.3.1 0 .3.1.3.3 0 .2-.1.3-.3.3-.2 0-.3-.2-.3-.3zM237.7 167.4c0-.2.2-.4.4-.4s.4.2.4.4-.2.4-.4.4c-.2-.1-.4-.2-.4-.4zM237.6 147.9c0-.2.2-.4.4-.4s.4.2.4.4-.2.4-.4.4-.4-.2-.4-.4zM237.5 128.5c0-.3.3-.6.6-.6s.6.3.6.6-.3.6-.6.6c-.4 0-.6-.3-.6-.6zM236.9 109c0-.7.5-1.2 1.2-1.2s1.2.5 1.2 1.2-.5 1.2-1.2 1.2-1.2-.5-1.2-1.2zM237.2 89.6c0-.5.4-.9.9-.9s.9.4.9.9-.4.9-.9.9-.9-.4-.9-.9zM236.8 70.1c0-.7.6-1.2 1.3-1.2s1.2.6 1.2 1.2c0 .7-.6 1.2-1.2 1.2s-1.3-.5-1.3-1.2zM236.7 50.7c0-.8.6-1.4 1.4-1.4.8 0 1.4.6 1.4 1.4 0 .8-.6 1.4-1.4 1.4-.8 0-1.4-.6-1.4-1.4zM236.3 31.3c0-.9.8-1.7 1.7-1.7.9 0 1.7.8 1.7 1.7 0 1-.8 1.7-1.7 1.7-.9 0-1.7-.8-1.7-1.7z"/>
    <circle cx="238.1" cy="11.8" r="1.4"/>
    <path d="M218.3 186.8c0-.2.1-.3.3-.3.2 0 .3.1.3.3 0 .2-.1.3-.3.3-.2 0-.3-.1-.3-.3zM218.2 167.4c0-.2.2-.4.4-.4s.4.2.4.4-.2.4-.4.4-.4-.2-.4-.4zM218.1 147.9c0-.3.2-.5.5-.5s.5.2.5.5-.2.5-.5.5c-.2 0-.5-.2-.5-.5zM217.5 128.5c0-.6.5-1.1 1.1-1.1.6 0 1.1.5 1.1 1.1 0 .6-.5 1.1-1.1 1.1-.6 0-1.1-.5-1.1-1.1zM217.2 109c0-.8.7-1.5 1.5-1.5s1.5.6 1.5 1.5-.7 1.5-1.5 1.5-1.5-.7-1.5-1.5zM217.4 89.6c0-.7.6-1.2 1.3-1.2s1.2.6 1.2 1.2c0 .7-.5 1.2-1.2 1.2s-1.3-.5-1.3-1.2zM217.2 70.1c0-.8.7-1.5 1.5-1.5s1.5.6 1.5 1.5c0 .8-.7 1.5-1.5 1.5s-1.5-.7-1.5-1.5zM216.9 50.7c0-1 .8-1.8 1.8-1.8s1.8.8 1.8 1.8-.8 1.8-1.8 1.8c-1.1 0-1.8-.8-1.8-1.8zM216.5 31.3c0-1.2 1-2.2 2.2-2.2 1.2 0 2.1 1 2.1 2.2 0 1.2-1 2.2-2.1 2.2-1.3-.1-2.2-1.1-2.2-2.2zM216.9 11.8c0-1 .8-1.7 1.7-1.7.9 0 1.7.8 1.7 1.7 0 .9-.8 1.7-1.7 1.7-.9 0-1.7-.7-1.7-1.7zM198.8 186.8c0-.2.2-.4.4-.4s.4.2.4.4-.2.4-.4.4-.4-.2-.4-.4zM198.8 167.4c0-.2.2-.4.4-.4s.4.2.4.4-.2.4-.4.4-.4-.2-.4-.4zM198.1 147.9c0-.6.5-1.1 1.1-1.1.6 0 1.1.5 1.1 1.1 0 .6-.5 1.1-1.1 1.1-.6 0-1.1-.5-1.1-1.1zM197.8 128.5c0-.8.6-1.4 1.4-1.4.8 0 1.4.6 1.4 1.4 0 .8-.6 1.4-1.4 1.4-.8 0-1.4-.7-1.4-1.4zM198.2 109c0-.6.5-1 1-1 .6 0 1 .5 1 1s-.5 1-1 1c-.6 0-1-.4-1-1zM197.9 89.6c0-.7.6-1.2 1.3-1.2.7 0 1.2.6 1.2 1.2 0 .7-.5 1.2-1.2 1.2s-1.3-.5-1.3-1.2zM197.2 70.1c0-1.1.9-2 2-2s2 .9 2 2-.9 2-2 2-2-.9-2-2zM197 50.7c0-1.2 1-2.2 2.2-2.2 1.2 0 2.1 1 2.1 2.2 0 1.2-1 2.2-2.1 2.2-1.2 0-2.2-1-2.2-2.2zM196.6 31.3c0-1.4 1.2-2.6 2.6-2.6 1.4 0 2.6 1.2 2.6 2.6 0 1.4-1.2 2.6-2.6 2.6-1.4-.1-2.6-1.2-2.6-2.6zM197 11.8c0-1.2 1-2.2 2.2-2.2 1.2 0 2.1 1 2.1 2.2s-1 2.2-2.1 2.2c-1.2 0-2.2-1-2.2-2.2zM178.9 186.8c0-.4.4-.8.8-.8.5 0 .8.4.8.8 0 .5-.4.8-.8.8s-.8-.4-.8-.8zM179.2 167.4c0-.3.2-.5.5-.5s.5.2.5.5-.2.5-.5.5c-.2-.1-.5-.3-.5-.5zM178.6 147.9c0-.7.5-1.2 1.2-1.2s1.2.5 1.2 1.2c0 .6-.5 1.2-1.2 1.2s-1.2-.5-1.2-1.2zM178.7 128.5c0-.6.5-1 1-1 .6 0 1 .5 1 1 0 .6-.5 1-1 1s-1-.5-1-1zM178.6 109c0-.7.5-1.2 1.2-1.2s1.2.5 1.2 1.2-.5 1.2-1.2 1.2-1.2-.5-1.2-1.2zM178.3 89.6c0-.8.6-1.4 1.4-1.4.8 0 1.4.6 1.4 1.4s-.6 1.4-1.4 1.4c-.7 0-1.4-.6-1.4-1.4z"/>
    <circle cx="179.7" cy="70.1" r="2.6"/>
    <path d="M176.3 50.7c0-1.9 1.5-3.4 3.4-3.4s3.4 1.5 3.4 3.4-1.5 3.4-3.4 3.4-3.4-1.5-3.4-3.4zM176.7 31.3c0-1.7 1.4-3.1 3.1-3.1 1.7 0 3.1 1.4 3.1 3.1 0 1.7-1.4 3.1-3.1 3.1-1.7-.1-3.1-1.4-3.1-3.1z"/>
    <circle cx="179.7" cy="11.8" r="2.6"/>
    <path d="M159.9 186.8c0-.2.2-.4.4-.4s.4.2.4.4-.2.4-.4.4-.4-.2-.4-.4zM159.2 167.4c0-.6.5-1.1 1.1-1.1.6 0 1.2.5 1.2 1.1 0 .6-.5 1.1-1.2 1.1-.6 0-1.1-.5-1.1-1.1zM158.8 147.9c0-.8.6-1.5 1.4-1.5.8 0 1.5.6 1.5 1.5 0 .8-.6 1.5-1.5 1.5-.7 0-1.4-.7-1.4-1.5zM159.1 128.5c0-.6.5-1.2 1.2-1.2s1.2.5 1.2 1.2-.5 1.2-1.2 1.2c-.6 0-1.2-.6-1.2-1.2zM158.9 109c0-.8.6-1.4 1.4-1.4.8 0 1.4.6 1.4 1.4 0 .8-.6 1.4-1.4 1.4-.8 0-1.4-.6-1.4-1.4zM158.6 89.6c0-.9.8-1.7 1.7-1.7 1 0 1.7.8 1.7 1.7 0 1-.8 1.7-1.7 1.7-1 0-1.7-.8-1.7-1.7zM158.2 70.1c0-1.2.9-2.1 2.1-2.1 1.2 0 2.1.9 2.1 2.1s-.9 2.1-2.1 2.1c-1.2 0-2.1-.9-2.1-2.1zM155.9 50.7c0-2.4 2-4.4 4.4-4.4 2.4 0 4.4 2 4.4 4.4 0 2.4-2 4.4-4.4 4.4-2.4 0-4.4-2-4.4-4.4zM156.1 31.3c0-2.3 1.9-4.2 4.2-4.2 2.3 0 4.2 1.9 4.2 4.2 0 2.3-1.9 4.2-4.2 4.2-2.3 0-4.2-1.9-4.2-4.2zM157 11.8c0-1.8 1.5-3.3 3.3-3.3 1.9 0 3.4 1.5 3.4 3.3 0 1.8-1.5 3.3-3.4 3.3-1.8.1-3.3-1.4-3.3-3.3zM140.7 245.1c0-.1.1-.2.2-.2s.2.1.2.2-.1.2-.2.2c-.2 0-.2-.1-.2-.2zM140.7 225.7c0-.1.1-.2.2-.2s.2.1.2.2-.1.2-.2.2c-.2 0-.2-.1-.2-.2zM140.4 206.2c0-.2.2-.4.4-.4s.4.2.4.4-.2.4-.4.4c-.2.1-.4-.1-.4-.4zM140.1 186.8c0-.4.4-.8.8-.8s.8.3.8.8c0 .4-.3.8-.8.8s-.8-.4-.8-.8zM140.2 167.4c0-.4.3-.7.7-.7.4 0 .7.3.7.7 0 .4-.3.7-.7.7-.4 0-.7-.4-.7-.7zM139.7 147.9c0-.6.5-1.1 1.1-1.1.6 0 1.1.5 1.1 1.1 0 .6-.5 1.1-1.1 1.1-.6 0-1.1-.5-1.1-1.1zM139.5 128.5c0-.8.6-1.4 1.4-1.4.8 0 1.4.6 1.4 1.4 0 .8-.6 1.4-1.4 1.4-.8 0-1.4-.7-1.4-1.4zM139.1 109c0-1 .8-1.7 1.7-1.7.9 0 1.7.8 1.7 1.7 0 .9-.8 1.7-1.7 1.7-.9.1-1.7-.7-1.7-1.7zM138.8 89.6c0-1.2.9-2.1 2.1-2.1 1.2 0 2.1.9 2.1 2.1 0 1.2-.9 2.1-2.1 2.1-1.2 0-2.1-1-2.1-2.1z"/>
    <circle cx="140.9" cy="70.1" r="2.5"/>
    <path d="M137.9 50.7c0-1.6 1.3-3 3-3 1.6 0 3 1.3 3 3 0 1.6-1.3 3-3 3s-3-1.4-3-3zM138.3 31.3c0-1.4 1.2-2.6 2.6-2.6 1.4 0 2.6 1.2 2.6 2.6 0 1.4-1.2 2.6-2.6 2.6-1.5-.1-2.6-1.2-2.6-2.6zM139 11.8c0-1 .8-1.8 1.8-1.8s1.8.8 1.8 1.8-.8 1.8-1.8 1.8-1.8-.8-1.8-1.8zM121.3 245.1c0-.1 0-.1.1-.1s.1.1.1.1c0 .1 0 .1-.1.1 0 0-.1 0-.1-.1zM121.3 225.7c0-.1.1-.2.2-.2s.2.1.2.2-.1.2-.2.2c-.2-.1-.2-.1-.2-.2zM120.9 206.2c0-.3.2-.5.5-.5s.5.2.5.5-.2.5-.5.5c-.3.1-.5-.2-.5-.5zM121 186.8c0-.2.2-.4.4-.4s.4.2.4.4-.2.4-.4.4-.4-.2-.4-.4zM120.8 167.4c0-.4.3-.7.6-.7.4 0 .6.3.6.7 0 .4-.3.6-.6.6s-.6-.3-.6-.6zM120 147.9c0-.8.6-1.4 1.4-1.4.8 0 1.4.6 1.4 1.4 0 .8-.6 1.4-1.4 1.4-.8 0-1.4-.6-1.4-1.4zM119.7 128.5c0-.9.8-1.7 1.7-1.7.9 0 1.7.8 1.7 1.7 0 1-.8 1.7-1.7 1.7-.9 0-1.7-.8-1.7-1.7zM119.4 109c0-1.1.9-2 2-2s2 .9 2 2-.9 2-2 2-2-.9-2-2zM119 89.6c0-1.3 1.1-2.4 2.4-2.4 1.3 0 2.4 1.1 2.4 2.4 0 1.3-1.1 2.4-2.4 2.4-1.3 0-2.4-1.1-2.4-2.4zM118.3 70.1c0-1.7 1.4-3.1 3.1-3.1 1.7 0 3.1 1.4 3.1 3.1 0 1.7-1.4 3.1-3.1 3.1-1.7.1-3.1-1.3-3.1-3.1zM117.8 50.7c0-2 1.6-3.6 3.6-3.6s3.6 1.6 3.6 3.6-1.6 3.6-3.6 3.6-3.6-1.6-3.6-3.6zM119.9 31.3c0-.8.7-1.5 1.5-1.5s1.5.7 1.5 1.5-.7 1.5-1.5 1.5-1.5-.7-1.5-1.5zM120.3 11.8c0-.6.5-1.1 1.1-1.1.6 0 1.1.5 1.1 1.1 0 .6-.5 1.1-1.1 1.1-.6 0-1.1-.5-1.1-1.1zM101.9 245.1c0-.1 0-.1.1-.1s.1.1.1.1c0 .1 0 .1-.1.1s-.1 0-.1-.1zM101.8 225.7c0-.1.1-.2.2-.2s.2.1.2.2-.1.2-.2.2c-.2 0-.2-.1-.2-.2zM101.7 206.2c0-.1.1-.3.3-.3.1 0 .3.1.3.3 0 .1-.1.3-.3.3-.2 0-.3-.1-.3-.3zM101.6 186.8c0-.2.2-.4.4-.4s.4.2.4.4-.2.4-.4.4-.4-.2-.4-.4zM101 167.4c0-.5.4-1 1-1 .5 0 1 .4 1 1 0 .5-.4 1-1 1-.6-.1-1-.5-1-1zM100.7 147.9c0-.7.6-1.2 1.2-1.2.7 0 1.2.6 1.2 1.2 0 .7-.6 1.2-1.2 1.2s-1.2-.5-1.2-1.2zM99.9 128.5c0-1.2.9-2.1 2.1-2.1 1.2 0 2.1.9 2.1 2.1 0 1.2-.9 2.1-2.1 2.1-1.2 0-2.1-1-2.1-2.1zM99.5 109c0-1.4 1.1-2.5 2.5-2.5s2.5 1.1 2.5 2.5-1.1 2.5-2.5 2.5c-1.4.1-2.5-1.1-2.5-2.5zM99 89.6c0-1.6 1.3-3 3-3 1.6 0 3 1.3 3 3 0 1.6-1.3 3-3 3-1.7-.1-3-1.4-3-3zM98.5 70.1c0-1.9 1.5-3.5 3.4-3.5s3.4 1.5 3.4 3.5-1.5 3.5-3.4 3.5c-1.8 0-3.4-1.6-3.4-3.5zM97.8 50.7c0-2.3 1.9-4.2 4.2-4.2 2.3 0 4.2 1.9 4.2 4.2 0 2.3-1.9 4.2-4.2 4.2-2.3 0-4.2-1.9-4.2-4.2zM99.2 31.3c0-1.5 1.3-2.8 2.8-2.8 1.5 0 2.8 1.3 2.8 2.8 0 1.6-1.3 2.8-2.8 2.8-1.6 0-2.8-1.3-2.8-2.8zM100.4 11.8c0-.9.7-1.6 1.6-1.6.9 0 1.6.7 1.6 1.6 0 .9-.7 1.6-1.6 1.6-.9 0-1.6-.7-1.6-1.6zM82.4 245.1c0-.1.1-.2.2-.2s.2.1.2.2-.1.2-.2.2-.2-.1-.2-.2zM82.3 225.7c0-.1.1-.3.3-.3.2 0 .3.1.3.3 0 .2-.1.3-.3.3-.2-.1-.3-.2-.3-.3zM82.3 206.2c0-.1.1-.2.2-.2s.2.1.2.2-.1.2-.2.2c-.1.1-.2 0-.2-.2zM82.2 186.8c0-.2.2-.4.4-.4s.4.2.4.4-.2.4-.4.4c-.3 0-.4-.2-.4-.4zM81.7 167.4c0-.5.4-.8.8-.8.5 0 .8.4.8.8s-.4.8-.8.8-.8-.4-.8-.8zM81 147.9c0-.9.7-1.6 1.6-1.6.9 0 1.6.7 1.6 1.6 0 .9-.7 1.6-1.6 1.6-.9 0-1.6-.7-1.6-1.6zM80.6 128.5c0-1.1.9-1.9 1.9-1.9 1.1 0 1.9.9 1.9 1.9 0 1.1-.9 1.9-1.9 1.9-1 0-1.9-.9-1.9-1.9zM80.2 109c0-1.3 1.1-2.4 2.4-2.4 1.3 0 2.4 1.1 2.4 2.4 0 1.3-1.1 2.4-2.4 2.4-1.4 0-2.4-1.1-2.4-2.4zM79.6 89.6c0-1.6 1.3-2.9 2.9-2.9 1.6 0 2.9 1.3 2.9 2.9 0 1.6-1.3 2.9-2.9 2.9-1.6 0-2.9-1.3-2.9-2.9zM78.2 70.1c0-2.4 2-4.4 4.4-4.4 2.4 0 4.4 2 4.4 4.4 0 2.4-1.9 4.4-4.4 4.4-2.5 0-4.4-1.9-4.4-4.4zM79.4 50.7c0-1.7 1.4-3.1 3.1-3.1 1.7 0 3.1 1.4 3.1 3.1 0 1.7-1.4 3.1-3.1 3.1-1.7 0-3.1-1.4-3.1-3.1zM78.3 31.3c0-2.3 1.9-4.3 4.2-4.3 2.4 0 4.3 1.9 4.3 4.3s-1.9 4.3-4.3 4.3c-2.3-.1-4.2-2-4.2-4.3zM81.3 11.8c0-.6.5-1.2 1.2-1.2s1.2.5 1.2 1.2-.5 1.2-1.2 1.2c-.6 0-1.2-.5-1.2-1.2zM62.9 245.1c0-.1.1-.2.2-.2s.2.1.2.2-.1.2-.2.2-.2-.1-.2-.2zM62.9 225.7c0-.1.1-.2.2-.2s.2.1.2.2-.1.2-.2.2-.2-.1-.2-.2zM62.8 206.2c0-.2.1-.3.3-.3.2 0 .3.1.3.3 0 .2-.1.3-.3.3-.2.1-.3-.1-.3-.3zM62.5 186.8c0-.3.3-.6.6-.6s.6.3.6.6-.3.6-.6.6-.6-.3-.6-.6zM62.2 167.4c0-.5.4-.9.9-.9s.9.4.9.9-.4.9-.9.9-.9-.4-.9-.9zM61.9 147.9c0-.7.5-1.2 1.2-1.2s1.2.5 1.2 1.2c0 .6-.5 1.2-1.2 1.2s-1.2-.5-1.2-1.2zM61.7 128.5c0-.8.6-1.4 1.4-1.4.8 0 1.4.6 1.4 1.4 0 .8-.6 1.4-1.4 1.4-.8 0-1.4-.7-1.4-1.4zM61.5 109c0-.9.7-1.6 1.6-1.6.9 0 1.6.7 1.6 1.6 0 .9-.7 1.6-1.6 1.6-.9 0-1.6-.7-1.6-1.6zM59.2 89.6c0-2.1 1.7-3.9 3.9-3.9 2.1 0 3.9 1.7 3.9 3.9 0 2.1-1.7 3.9-3.9 3.9s-3.9-1.8-3.9-3.9zM58.2 70.1c0-2.7 2.2-4.9 4.8-4.9 2.7 0 4.8 2.2 4.8 4.9s-2 4.9-4.7 4.9-4.9-2.2-4.9-4.9zM61 50.7c0-1.2.9-2.1 2.1-2.1s2.1.9 2.1 2.1c0 1.2-1 2.1-2.1 2.1s-2.1-.9-2.1-2.1zM61.8 31.3c0-.7.6-1.2 1.2-1.2s1.2.5 1.2 1.2-.6 1.2-1.2 1.2-1.2-.6-1.2-1.2zM61.5 11.8c0-.9.7-1.6 1.6-1.6.9 0 1.6.7 1.6 1.6 0 .9-.7 1.6-1.6 1.6-.9 0-1.6-.7-1.6-1.6zM43.1 245.1c0-.3.3-.6.6-.6s.6.3.6.6-.3.6-.6.6c-.4 0-.6-.3-.6-.6zM43.2 225.7c0-.2.2-.4.4-.4s.4.2.4.4-.2.4-.4.4-.4-.2-.4-.4zM42.8 206.2c0-.4.4-.8.8-.8s.8.4.8.8-.4.8-.8.8-.8-.3-.8-.8zM41.7 147.9c0-1.1.9-1.9 1.9-1.9 1.1 0 1.9.9 1.9 1.9 0 1.1-.9 1.9-1.9 1.9-1 .1-1.9-.8-1.9-1.9zM41.4 128.5c0-1.2 1-2.2 2.2-2.2 1.2 0 2.2 1 2.2 2.2 0 1.2-1 2.2-2.2 2.2-1.2 0-2.2-1-2.2-2.2zM41.1 109c0-1.4 1.2-2.6 2.6-2.6 1.4 0 2.6 1.2 2.6 2.6s-1.2 2.6-2.6 2.6c-1.5 0-2.6-1.1-2.6-2.6zM40.8 89.6c0-1.6 1.3-2.9 2.9-2.9 1.6 0 2.9 1.3 2.9 2.9 0 1.6-1.3 2.9-2.9 2.9-1.6-.1-2.9-1.3-2.9-2.9zM40.4 70.1c0-1.8 1.5-3.3 3.3-3.3 1.8 0 3.3 1.5 3.3 3.3 0 1.8-1.5 3.3-3.3 3.3-1.9 0-3.3-1.4-3.3-3.3zM42.1 50.7c0-.8.7-1.5 1.5-1.5s1.5.7 1.5 1.5-.7 1.5-1.5 1.5-1.5-.7-1.5-1.5zM40.3 31.3c0-1.8 1.5-3.3 3.3-3.3 1.8 0 3.3 1.5 3.3 3.3 0 1.9-1.5 3.3-3.3 3.3-1.8 0-3.3-1.5-3.3-3.3zM37.8 11.8c0-3.2 2.6-5.9 5.9-5.9 3.3 0 5.9 2.6 5.9 5.9 0 3.2-2.6 5.9-5.9 5.9-3.3 0-5.9-2.6-5.9-5.9zM23.7 245.1c0-.3.2-.5.5-.5s.5.2.5.5-.2.5-.5.5-.5-.2-.5-.5zM23.8 225.7c0-.2.2-.4.4-.4s.4.2.4.4-.2.4-.4.4-.4-.2-.4-.4zM23.8 206.2c0-.2.2-.4.4-.4s.4.2.4.4-.2.4-.4.4c-.2.1-.4-.1-.4-.4zM22.8 147.9c0-.8.6-1.4 1.4-1.4.8 0 1.4.6 1.4 1.4 0 .8-.6 1.4-1.4 1.4-.8 0-1.4-.6-1.4-1.4zM22.6 128.5c0-.9.7-1.6 1.6-1.6.9 0 1.6.7 1.6 1.6 0 .9-.7 1.6-1.6 1.6-.9 0-1.6-.7-1.6-1.6zM22.3 109c0-1 .8-1.9 1.9-1.9 1 0 1.9.8 1.9 1.9 0 1-.8 1.9-1.9 1.9-1 0-1.9-.8-1.9-1.9zM22.1 89.6c0-1.2.9-2.1 2.1-2.1 1.2 0 2.1.9 2.1 2.1 0 1.2-.9 2.1-2.1 2.1-1.2 0-2.1-1-2.1-2.1zM23.1 70.1c0-.6.5-1.1 1.1-1.1.6 0 1.1.5 1.1 1.1s-.5 1.1-1.1 1.1c-.6.1-1.1-.4-1.1-1.1zM21.9 50.7c0-1.3 1-2.3 2.3-2.3 1.3 0 2.3 1 2.3 2.3 0 1.2-1 2.3-2.3 2.3-1.2 0-2.3-1-2.3-2.3zM21.9 31.3c0-1.3 1-2.3 2.3-2.3 1.3 0 2.3 1 2.3 2.3 0 1.3-1.1 2.3-2.3 2.3-1.3 0-2.3-1.1-2.3-2.3zM22.7 11.8c0-.9.7-1.6 1.6-1.6.9 0 1.6.7 1.6 1.6 0 .9-.7 1.6-1.6 1.6-.9 0-1.6-.7-1.6-1.6zM3 128.5c0-.9.8-1.7 1.7-1.7.9 0 1.7.8 1.7 1.7 0 1-.8 1.7-1.7 1.7-.9 0-1.7-.8-1.7-1.7zM2.7 109c0-1.1.9-2.1 2.1-2.1 1.1 0 2 .9 2 2.1 0 1.1-.9 2.1-2 2.1-1.2 0-2.1-.9-2.1-2.1zM2.3 89.6c0-1.3 1.1-2.4 2.4-2.4 1.3 0 2.4 1.1 2.4 2.4C7.1 90.9 6 92 4.7 92c-1.3 0-2.4-1.1-2.4-2.4zM2.8 50.7c0-1.1.9-2 2-2s2 .9 2 2-.9 2-2 2-2-.9-2-2zM3.1 31.3c0-.9.7-1.6 1.6-1.6.9 0 1.6.7 1.6 1.6 0 .9-.7 1.6-1.6 1.6-.8 0-1.6-.8-1.6-1.6z"/>
  </g>
  <path d="M397.4 500.5c0-.1-.1-.2-.2-.2s-.2.1-.2.2.1.2.2.2.2-.1.2-.2zM397.4 481c0-.1-.1-.2-.2-.2s-.2.1-.2.2.1.2.2.2.2-.1.2-.2zM416.7 500.5c0-.1 0-.1-.1-.1s-.1.1-.1.1c0 .1 0 .1.1.1s.1-.1.1-.1zM416.8 481c0-.1-.1-.2-.2-.2s-.2.1-.2.2.1.2.2.2.2-.1.2-.2zM436.1 500.5c0-.1 0-.1-.1-.1s-.1.1-.1.1c0 .1 0 .1.1.1s.1-.1.1-.1zM436.3 481c0-.1-.1-.2-.2-.2s-.2.1-.2.2.1.2.2.2.2-.1.2-.2zM455.7 500.5c0-.1-.1-.2-.2-.2s-.2.1-.2.2.1.2.2.2c.1-.1.2-.1.2-.2zM455.8 481c0-.1-.1-.3-.3-.3-.2 0-.3.1-.3.3 0 .2.1.3.3.3.1 0 .3-.1.3-.3zM475.1 500.5c0-.1-.1-.2-.2-.2s-.2.1-.2.2.1.2.2.2c.1-.1.2-.1.2-.2zM475.1 481c0-.1-.1-.2-.2-.2s-.2.1-.2.2.1.2.2.2.2-.1.2-.2zM495 500.5c0-.3-.3-.6-.6-.6s-.6.3-.6.6.3.6.6.6.6-.3.6-.6zM494.8 481c0-.2-.2-.4-.4-.4s-.4.2-.4.4.2.4.4.4c.2.1.4-.1.4-.4zM514.3 500.5c0-.3-.2-.5-.5-.5s-.5.2-.5.5.2.5.5.5c.3-.1.5-.3.5-.5zM514.2 481c0-.2-.2-.4-.4-.4s-.4.2-.4.4.2.4.4.4.4-.2.4-.4z"/>
  <path fill="none" stroke="#05282D" stroke-miterlimit="10" d="M394.4 498.1c0-.1-.1-.2-.2-.2s-.2.1-.2.2.1.2.2.2.2-.1.2-.2zM394.4 478.6c0-.1-.1-.2-.2-.2s-.2.1-.2.2.1.2.2.2c.1.1.2 0 .2-.2zM413.7 498.1c0-.1 0-.1-.1-.1s-.1.1-.1.1c0 .1 0 .1.1.1s.1 0 .1-.1zM413.8 478.6c0-.1-.1-.2-.2-.2s-.2.1-.2.2.1.2.2.2.2-.1.2-.2zM433.1 498.1c0-.1 0-.1-.1-.1s-.1.1-.1.1c0 .1 0 .1.1.1s.1 0 .1-.1zM433.3 478.6c0-.1-.1-.2-.2-.2s-.2.1-.2.2.1.2.2.2c.1.1.2 0 .2-.2zM452.6 498.1c0-.1-.1-.2-.2-.2s-.2.1-.2.2.1.2.2.2c.2 0 .2-.1.2-.2zM452.7 478.6c0-.1-.1-.3-.3-.3-.2 0-.3.1-.3.3 0 .2.1.3.3.3.2 0 .3-.1.3-.3zM472.1 498.1c0-.1-.1-.2-.2-.2s-.2.1-.2.2.1.2.2.2.2-.1.2-.2zM472.1 478.6c0-.1-.1-.2-.2-.2s-.2.1-.2.2.1.2.2.2c.1.1.2 0 .2-.2zM492 498.1c0-.3-.3-.6-.6-.6s-.6.3-.6.6.3.6.6.6.6-.3.6-.6zM491.8 478.6c0-.2-.2-.4-.4-.4s-.4.2-.4.4.2.4.4.4c.2.1.4-.1.4-.4zM511.3 498.1c0-.3-.2-.5-.5-.5s-.5.2-.5.5.2.5.5.5.5-.2.5-.5zM511.2 478.6c0-.2-.2-.4-.4-.4s-.4.2-.4.4.2.4.4.4.4-.1.4-.4z"/>
</svg>
