<?xml version="1.0" encoding="utf-8"?>
<!-- Generator: Adobe Illustrator 19.0.0, SVG Export Plug-In . SVG Version: 6.00 Build 0)  -->
<svg version="1.1" id="Слой_1" xmlns="http://www.w3.org/2000/svg" xmlns:xlink="http://www.w3.org/1999/xlink" x="0px" y="0px"
	 viewBox="0 0 271.9 170.5" enable-background="new 0 0 271.9 170.5" xml:space="preserve">
<g id="XMLID_3954_">
	<path id="XMLID_4543_" opacity="0.1" fill="#FFFFFF" d="M264.6,166.8c0-2,1.6-3.6,3.6-3.6c2,0,3.6,1.6,3.6,3.6c0,2-1.6,3.6-3.6,3.6
		C266.2,170.5,264.6,168.8,264.6,166.8z"/>
	<path id="XMLID_4542_" opacity="0.1" fill="#FFFFFF" d="M265.9,149.1c0-1.3,1.1-2.4,2.4-2.4s2.4,1.1,2.4,2.4c0,1.3-1.1,2.4-2.4,2.4
		S265.9,150.4,265.9,149.1z"/>
	<path id="XMLID_4541_" opacity="0.1" fill="#FFFFFF" d="M266,131.4c0-1.2,1-2.2,2.2-2.2c1.2,0,2.2,1,2.2,2.2c0,1.2-1,2.2-2.2,2.2
		C267,133.6,266,132.6,266,131.4z"/>
	<path id="XMLID_4540_" opacity="0.1" fill="#FFFFFF" d="M266.8,95.9c0-0.8,0.6-1.4,1.4-1.4c0.8,0,1.4,0.6,1.4,1.4
		c0,0.8-0.6,1.4-1.4,1.4C267.5,97.3,266.8,96.7,266.8,95.9z"/>
	<path id="XMLID_4539_" opacity="0.1" fill="#FFFFFF" d="M266.2,78.2c0-1.1,0.9-2,2-2c1.1,0,2,0.9,2,2s-0.9,2-2,2
		C267.1,80.1,266.2,79.3,266.2,78.2z"/>
	<path id="XMLID_4538_" opacity="0.1" fill="#FFFFFF" d="M265.8,60.4c0-1.3,1.1-2.4,2.4-2.4s2.4,1.1,2.4,2.4c0,1.3-1.1,2.4-2.4,2.4
		S265.8,61.8,265.8,60.4z"/>
	<path id="XMLID_4537_" opacity="0.1" fill="#FFFFFF" d="M265.3,42.7c0-1.6,1.3-2.9,2.9-2.9c1.6,0,3,1.3,3,2.9c0,1.6-1.3,3-3,3
		C266.6,45.6,265.3,44.3,265.3,42.7z"/>
	<path id="XMLID_4536_" opacity="0.1" fill="#FFFFFF" d="M265.6,25c0-1.5,1.2-2.7,2.7-2.7c1.5,0,2.6,1.2,2.6,2.7
		c0,1.5-1.2,2.7-2.6,2.7C266.8,27.6,265.6,26.4,265.6,25z"/>
	<path id="XMLID_4535_" opacity="0.1" fill="#FFFFFF" d="M265.1,7.2c0-1.7,1.4-3.1,3.2-3.1c1.7,0,3.2,1.4,3.2,3.1
		c0,1.7-1.4,3.1-3.2,3.1C266.5,10.4,265.1,9,265.1,7.2z"/>
	<path id="XMLID_4529_" opacity="0.1" fill="#FFFFFF" d="M249.2,166.8c0-0.7,0.6-1.3,1.3-1.3c0.7,0,1.3,0.6,1.3,1.3
		c0,0.7-0.6,1.3-1.3,1.3C249.8,168.2,249.2,167.6,249.2,166.8z"/>
	<path id="XMLID_4528_" opacity="0.1" fill="#FFFFFF" d="M249.7,149.1c0-0.5,0.4-0.8,0.8-0.8c0.5,0,0.8,0.4,0.8,0.8
		c0,0.5-0.4,0.8-0.8,0.8C250,149.9,249.7,149.6,249.7,149.1z"/>
	<path id="XMLID_4527_" opacity="0.1" fill="#FFFFFF" d="M249.8,131.4c0-0.4,0.3-0.7,0.7-0.7c0.4,0,0.7,0.3,0.7,0.7
		c0,0.4-0.3,0.7-0.7,0.7C250.1,132.1,249.8,131.8,249.8,131.4z"/>
	<path id="XMLID_4526_" opacity="0.1" fill="#FFFFFF" d="M250.1,113.6c0-0.2,0.2-0.4,0.4-0.4c0.2,0,0.4,0.2,0.4,0.4
		c0,0.2-0.2,0.4-0.4,0.4C250.3,114.1,250.1,113.9,250.1,113.6z"/>
	<path id="XMLID_4525_" opacity="0.1" fill="#FFFFFF" d="M249.3,95.9c0-0.6,0.5-1.2,1.2-1.2s1.2,0.5,1.2,1.2c0,0.7-0.5,1.2-1.2,1.2
		S249.3,96.5,249.3,95.9z"/>
	<path id="XMLID_4524_" opacity="0.1" fill="#FFFFFF" d="M249.1,78.2c0-0.8,0.6-1.4,1.4-1.4c0.8,0,1.4,0.6,1.4,1.4
		c0,0.8-0.6,1.4-1.4,1.4C249.7,79.6,249.1,79,249.1,78.2z"/>
	<path id="XMLID_4523_" opacity="0.1" fill="#FFFFFF" d="M248.8,60.4c0-0.9,0.7-1.7,1.7-1.7c0.9,0,1.7,0.8,1.7,1.7
		c0,0.9-0.7,1.7-1.7,1.7C249.6,62.1,248.8,61.4,248.8,60.4z"/>
	<path id="XMLID_4522_" opacity="0.1" fill="#FFFFFF" d="M248.5,42.7c0-1.1,0.9-2,2-2c1.1,0,2,0.9,2,2c0,1.1-0.9,2-2,2
		C249.4,44.7,248.5,43.8,248.5,42.7z"/>
	<path id="XMLID_4521_" opacity="0.1" fill="#FFFFFF" d="M248,25c0-1.4,1.1-2.5,2.5-2.5s2.5,1.1,2.5,2.5c0,1.4-1.1,2.5-2.5,2.5
		S248,26.3,248,25z"/>
	<path id="XMLID_4520_" opacity="0.1" fill="#FFFFFF" d="M248.5,7.2c0-1.1,0.9-2,2-2c1.1,0,2,0.9,2,2c0,1.1-0.9,2-2,2
		C249.4,9.2,248.5,8.3,248.5,7.2z"/>
	<path id="XMLID_4514_" opacity="0.1" fill="#FFFFFF" d="M232.1,149.1c0-0.4,0.3-0.6,0.6-0.6c0.4,0,0.7,0.3,0.7,0.6
		c0,0.3-0.3,0.6-0.7,0.6C232.4,149.7,232.1,149.5,232.1,149.1z"/>
	<path id="XMLID_4513_" opacity="0.1" fill="#FFFFFF" d="M232,131.4c0-0.4,0.3-0.7,0.7-0.7c0.4,0,0.7,0.3,0.7,0.7
		c0,0.4-0.3,0.7-0.7,0.7C232.3,132.1,232,131.8,232,131.4z"/>
	<path id="XMLID_4512_" opacity="0.1" fill="#FFFFFF" d="M231.1,113.6c0-0.9,0.7-1.6,1.6-1.6c0.9,0,1.6,0.7,1.6,1.6
		c0,0.9-0.7,1.6-1.6,1.6C231.9,115.3,231.1,114.5,231.1,113.6z"/>
	<path id="XMLID_4511_" opacity="0.1" fill="#FFFFFF" d="M230.7,95.9c0-1.1,0.9-2,2-2c1.1,0,2,0.9,2,2c0,1.1-0.9,2-2,2
		C231.6,97.9,230.7,97,230.7,95.9z"/>
	<path id="XMLID_4510_" opacity="0.1" fill="#FFFFFF" d="M230.2,78.2c0-1.4,1.1-2.5,2.5-2.5c1.4,0,2.5,1.1,2.5,2.5
		c0,1.4-1.1,2.5-2.5,2.5C231.4,80.7,230.2,79.6,230.2,78.2z"/>
	<path id="XMLID_4509_" opacity="0.1" fill="#FFFFFF" d="M228.2,60.4c0-2.5,2-4.6,4.6-4.6c2.5,0,4.6,2,4.6,4.6c0,2.5-2,4.6-4.6,4.6
		C230.2,65,228.2,63,228.2,60.4z"/>
	<path id="XMLID_4508_" opacity="0.1" fill="#FFFFFF" d="M227.6,42.7c0-2.8,2.3-5.2,5.2-5.2c2.9,0,5.2,2.3,5.2,5.2
		c0,2.9-2.3,5.2-5.2,5.2C229.9,47.9,227.6,45.5,227.6,42.7z"/>
	<path id="XMLID_4507_" opacity="0.1" fill="#FFFFFF" d="M226.9,25c0-3.3,2.6-5.9,5.9-5.9c3.3,0,5.9,2.6,5.9,5.9s-2.6,5.9-5.9,5.9
		C229.5,30.9,226.9,28.2,226.9,25z"/>
	<path id="XMLID_4506_" opacity="0.1" fill="#FFFFFF" d="M228,7.2c0-2.6,2.1-4.7,4.7-4.7c2.6,0,4.7,2.1,4.7,4.7
		c0,2.6-2.1,4.7-4.7,4.7C230.2,12,228,9.8,228,7.2z"/>
	<path id="XMLID_4500_" opacity="0.1" fill="#FFFFFF" d="M214.3,149.1c0-0.4,0.3-0.7,0.7-0.7c0.4,0,0.7,0.3,0.7,0.7
		c0,0.4-0.3,0.7-0.7,0.7C214.6,149.8,214.3,149.5,214.3,149.1z"/>
	<path id="XMLID_4499_" opacity="0.1" fill="#FFFFFF" d="M213.2,131.4c0-1,0.8-1.8,1.8-1.8c1,0,1.8,0.8,1.8,1.8c0,1-0.8,1.8-1.8,1.8
		C214,133.2,213.2,132.4,213.2,131.4z"/>
	<path id="XMLID_4498_" opacity="0.1" fill="#FFFFFF" d="M212.4,113.6c0-1.5,1.2-2.7,2.6-2.7c1.5,0,2.7,1.2,2.7,2.7
		c0,1.5-1.2,2.7-2.7,2.7C213.6,116.3,212.4,115.1,212.4,113.6z"/>
	<path id="XMLID_4497_" opacity="0.1" fill="#FFFFFF" d="M211.7,95.9c0-1.8,1.5-3.3,3.3-3.3c1.8,0,3.3,1.5,3.3,3.3
		c0,1.8-1.5,3.3-3.3,3.3C213.2,99.2,211.7,97.7,211.7,95.9z"/>
	<path id="XMLID_4496_" opacity="0.1" fill="#FFFFFF" d="M211,78.2c0-2.2,1.8-4,4-4c2.2,0,4,1.8,4,4c0,2.2-1.8,4-4,4
		C212.8,82.1,211,80.4,211,78.2z"/>
	<path id="XMLID_4495_" opacity="0.1" fill="#FFFFFF" d="M210.5,60.4c0-2.5,2-4.6,4.6-4.6c2.5,0,4.6,2,4.6,4.6c0,2.5-2,4.6-4.6,4.6
		C212.5,65,210.5,63,210.5,60.4z"/>
	<path id="XMLID_4494_" opacity="0.1" fill="#FFFFFF" d="M209.1,42.7c0-3.3,2.6-5.9,5.9-5.9c3.3,0,5.9,2.6,5.9,5.9
		c0,3.3-2.6,5.9-5.9,5.9C211.8,48.6,209.1,46,209.1,42.7z"/>
	<path id="XMLID_4493_" opacity="0.1" fill="#FFFFFF" d="M208.7,25c0-3.5,2.8-6.3,6.3-6.3c3.5,0,6.3,2.8,6.3,6.3
		c0,3.5-2.8,6.3-6.3,6.3C211.5,31.3,208.7,28.5,208.7,25z"/>
	<path id="XMLID_4492_" opacity="0.1" fill="#FFFFFF" d="M208.3,7.2c0-3.7,3-6.7,6.7-6.7c3.7,0,6.7,3,6.7,6.7c0,3.7-3,6.7-6.7,6.7
		C211.3,14,208.3,10.9,208.3,7.2z"/>
	<path id="XMLID_4486_" opacity="0.1" fill="#FFFFFF" d="M196.4,166.8c0-0.5,0.4-0.9,0.9-0.9s0.9,0.4,0.9,0.9c0,0.5-0.4,0.9-0.9,0.9
		S196.4,167.3,196.4,166.8z"/>
	<path id="XMLID_4485_" opacity="0.1" fill="#FFFFFF" d="M195.6,149.1c0-0.9,0.8-1.7,1.7-1.7c0.9,0,1.7,0.8,1.7,1.7
		c0,0.9-0.7,1.7-1.7,1.7C196.4,150.8,195.6,150,195.6,149.1z"/>
	<path id="XMLID_4484_" opacity="0.1" fill="#FFFFFF" d="M195.4,131.4c0-1.1,0.9-1.9,1.9-1.9c1.1,0,1.9,0.9,1.9,1.9
		c0,1.1-0.9,1.9-1.9,1.9C196.2,133.3,195.4,132.4,195.4,131.4z"/>
	<path id="XMLID_4483_" opacity="0.1" fill="#FFFFFF" d="M194,113.6c0-1.8,1.5-3.3,3.3-3.3c1.8,0,3.3,1.5,3.3,3.3
		c0,1.8-1.5,3.3-3.3,3.3C195.5,116.9,194,115.4,194,113.6z"/>
	<path id="XMLID_4482_" opacity="0.1" fill="#FFFFFF" d="M192.4,95.9c0-2.7,2.2-4.9,4.9-4.9c2.7,0,4.9,2.2,4.9,4.9
		c0,2.7-2.2,4.9-4.9,4.9C194.6,100.8,192.4,98.6,192.4,95.9z"/>
	<path id="XMLID_4481_" opacity="0.1" fill="#FFFFFF" d="M191.7,78.2c0-3.1,2.5-5.6,5.6-5.6c3.1,0,5.6,2.5,5.6,5.6s-2.5,5.6-5.6,5.6
		C194.2,83.7,191.7,81.2,191.7,78.2z"/>
	<path id="XMLID_4480_" opacity="0.1" fill="#FFFFFF" d="M190.9,60.4c0-3.5,2.8-6.3,6.3-6.3c3.5,0,6.3,2.8,6.3,6.3
		c0,3.5-2.8,6.3-6.3,6.3C193.8,66.8,190.9,63.9,190.9,60.4z"/>
	<path id="XMLID_4479_" opacity="0.1" fill="#FFFFFF" d="M190.3,42.7c0-3.9,3.1-7,7-7c3.9,0,7,3.1,7,7c0,3.9-3.2,7-7,7
		C193.4,49.7,190.3,46.6,190.3,42.7z"/>
	<path id="XMLID_4478_" opacity="0.1" fill="#FFFFFF" d="M190.6,25c0-3.7,3-6.7,6.7-6.7c3.7,0,6.7,3,6.7,6.7s-3,6.7-6.7,6.7
		C193.6,31.7,190.6,28.7,190.6,25z"/>
	<path id="XMLID_4477_" opacity="0.1" fill="#FFFFFF" d="M190.1,7.2c0-4,3.2-7.2,7.2-7.2c4,0,7.2,3.2,7.2,7.2c0,4-3.2,7.2-7.2,7.2
		C193.3,14.5,190.1,11.2,190.1,7.2z"/>
	<path id="XMLID_4471_" opacity="0.1" fill="#FFFFFF" d="M176.8,166.8c0-1.5,1.2-2.8,2.8-2.8c1.5,0,2.8,1.2,2.8,2.8
		c0,1.5-1.2,2.8-2.8,2.8C178,169.6,176.8,168.4,176.8,166.8z"/>
	<path id="XMLID_4470_" opacity="0.1" fill="#FFFFFF" d="M176.4,149.1c0-1.8,1.4-3.2,3.2-3.2c1.8,0,3.2,1.4,3.2,3.2
		c0,1.8-1.4,3.2-3.2,3.2C177.8,152.3,176.4,150.9,176.4,149.1z"/>
	<path id="XMLID_4469_" opacity="0.1" fill="#FFFFFF" d="M175.7,131.4c0-2.1,1.7-3.8,3.8-3.8c2.1,0,3.8,1.7,3.8,3.8
		c0,2.1-1.7,3.8-3.8,3.8C177.4,135.2,175.7,133.5,175.7,131.4z"/>
	<path id="XMLID_4468_" opacity="0.1" fill="#FFFFFF" d="M175.9,113.6c0-2,1.7-3.7,3.7-3.7c2,0,3.7,1.6,3.7,3.7c0,2-1.6,3.7-3.7,3.7
		C177.5,117.3,175.9,115.7,175.9,113.6z"/>
	<path id="XMLID_4467_" opacity="0.1" fill="#FFFFFF" d="M174,95.9c0-3.1,2.5-5.6,5.6-5.6c3.1,0,5.6,2.5,5.6,5.6
		c0,3.1-2.5,5.6-5.6,5.6C176.5,101.5,174,99,174,95.9z"/>
	<path id="XMLID_4466_" opacity="0.1" fill="#FFFFFF" d="M173.2,78.2c0-3.5,2.8-6.3,6.3-6.3c3.5,0,6.3,2.8,6.3,6.3
		c0,3.5-2.8,6.3-6.3,6.3C176,84.5,173.2,81.7,173.2,78.2z"/>
	<path id="XMLID_4465_" opacity="0.1" fill="#FFFFFF" d="M172.4,60.4c0-3.9,3.2-7.1,7.1-7.1c4,0,7.1,3.2,7.1,7.1
		c0,3.9-3.2,7.1-7.1,7.1C175.6,67.6,172.4,64.4,172.4,60.4z"/>
	<path id="XMLID_4464_" opacity="0.1" fill="#FFFFFF" d="M171.7,42.7c0-4.3,3.5-7.8,7.8-7.8c4.3,0,7.8,3.5,7.8,7.8s-3.5,7.8-7.8,7.8
		C175.2,50.5,171.7,47,171.7,42.7z"/>
	<path id="XMLID_4463_" opacity="0.1" fill="#FFFFFF" d="M171,25c0-4.7,3.8-8.5,8.5-8.5c4.7,0,8.5,3.8,8.5,8.5
		c0,4.7-3.8,8.5-8.5,8.5C174.8,33.5,171,29.7,171,25z"/>
	<path id="XMLID_4462_" opacity="0.1" fill="#FFFFFF" d="M174.7,7.2c0-2.7,2.2-4.8,4.8-4.8c2.7,0,4.8,2.2,4.8,4.8s-2.2,4.8-4.8,4.8
		C176.9,12,174.7,9.9,174.7,7.2z"/>
	<path id="XMLID_4456_" opacity="0.1" fill="#FFFFFF" d="M159,166.8c0-1.6,1.3-2.9,2.8-2.9c1.6,0,2.9,1.3,2.9,2.9
		c0,1.6-1.3,2.9-2.9,2.9C160.2,169.7,159,168.4,159,166.8z"/>
	<path id="XMLID_4455_" opacity="0.1" fill="#FFFFFF" d="M158.2,149.1c0-2,1.6-3.6,3.6-3.6c2,0,3.6,1.6,3.6,3.6c0,2-1.6,3.6-3.6,3.6
		C159.8,152.7,158.2,151.1,158.2,149.1z"/>
	<path id="XMLID_4454_" opacity="0.1" fill="#FFFFFF" d="M157.7,131.4c0-2.3,1.9-4.1,4.1-4.1c2.3,0,4.1,1.9,4.1,4.1
		c0,2.3-1.9,4.1-4.1,4.1C159.5,135.5,157.7,133.7,157.7,131.4z"/>
	<path id="XMLID_4453_" opacity="0.1" fill="#FFFFFF" d="M157.7,113.6c0-2.3,1.8-4.1,4.1-4.1c2.3,0,4.1,1.8,4.1,4.1
		c0,2.2-1.8,4.1-4.1,4.1C159.6,117.7,157.7,115.9,157.7,113.6z"/>
	<path id="XMLID_4452_" opacity="0.1" fill="#FFFFFF" d="M156.9,95.9c0-2.7,2.2-4.9,4.9-4.9c2.7,0,4.9,2.2,4.9,4.9
		c0,2.7-2.2,4.9-4.9,4.9C159.1,100.8,156.9,98.6,156.9,95.9z"/>
	<path id="XMLID_4451_" opacity="0.1" fill="#FFFFFF" d="M154.4,78.2c0-4.1,3.3-7.4,7.4-7.4c4.1,0,7.4,3.3,7.4,7.4
		c0,4.1-3.3,7.4-7.4,7.4C157.7,85.5,154.4,82.2,154.4,78.2z"/>
	<path id="XMLID_4450_" opacity="0.1" fill="#FFFFFF" d="M153.4,60.4c0-4.7,3.8-8.4,8.4-8.4c4.6,0,8.4,3.8,8.4,8.4
		c0,4.6-3.8,8.4-8.4,8.4C157.2,68.8,153.4,65.1,153.4,60.4z"/>
	<path id="XMLID_4449_" opacity="0.1" fill="#FFFFFF" d="M152.6,42.7c0-5.1,4.1-9.2,9.2-9.2c5.1,0,9.2,4.1,9.2,9.2
		c0,5.1-4.1,9.2-9.2,9.2C156.7,51.9,152.6,47.8,152.6,42.7z"/>
	<path id="XMLID_4448_" opacity="0.1" fill="#FFFFFF" d="M152,25c0-5.4,4.4-9.8,9.8-9.8s9.8,4.4,9.8,9.8c0,5.4-4.4,9.8-9.8,9.8
		S152,30.4,152,25z"/>
	<path id="XMLID_4447_" opacity="0.1" fill="#FFFFFF" d="M154.9,7.2c0-3.8,3.1-6.9,6.9-6.9c3.8,0,6.9,3.1,6.9,6.9
		c0,3.8-3.1,6.9-6.9,6.9C158,14.1,154.9,11,154.9,7.2z"/>
	<path id="XMLID_4441_" opacity="0.1" fill="#FFFFFF" d="M142.3,166.8c0-1,0.8-1.8,1.8-1.8c1,0,1.8,0.8,1.8,1.8c0,1-0.8,1.8-1.8,1.8
		C143.1,168.6,142.3,167.8,142.3,166.8z"/>
	<path id="XMLID_4440_" opacity="0.1" fill="#FFFFFF" d="M141.9,149.1c0-1.2,1-2.2,2.2-2.2c1.2,0,2.2,1,2.2,2.2c0,1.2-1,2.2-2.2,2.2
		C142.9,151.3,141.9,150.3,141.9,149.1z"/>
	<path id="XMLID_4439_" opacity="0.1" fill="#FFFFFF" d="M141.4,131.4c0-1.5,1.2-2.7,2.7-2.7c1.5,0,2.6,1.2,2.6,2.7
		c0,1.5-1.2,2.7-2.6,2.7C142.6,134,141.4,132.8,141.4,131.4z"/>
	<path id="XMLID_4438_" opacity="0.1" fill="#FFFFFF" d="M140.9,113.6c0-1.8,1.4-3.2,3.2-3.2c1.8,0,3.2,1.4,3.2,3.2
		c0,1.8-1.4,3.2-3.2,3.2C142.3,116.8,140.9,115.4,140.9,113.6z"/>
	<path id="XMLID_4437_" opacity="0.1" fill="#FFFFFF" d="M141.2,95.9c0-1.6,1.3-2.9,2.9-2.9c1.6,0,2.9,1.3,2.9,2.9
		c0,1.6-1.3,2.9-2.9,2.9C142.5,98.8,141.2,97.5,141.2,95.9z"/>
	<path id="XMLID_4436_" opacity="0.1" fill="#FFFFFF" d="M139.1,78.2c0-2.8,2.2-5,5-5c2.8,0,5,2.2,5,5c0,2.8-2.2,5-5,5
		C141.3,83.2,139.1,80.9,139.1,78.2z"/>
	<path id="XMLID_4435_" opacity="0.1" fill="#FFFFFF" d="M138,60.4c0-3.3,2.7-6.1,6.1-6.1c3.3,0,6.1,2.7,6.1,6.1c0,3.3-2.7,6-6.1,6
		C140.7,66.5,138,63.8,138,60.4z"/>
	<path id="XMLID_4434_" opacity="0.1" fill="#FFFFFF" d="M137.1,42.7c0-3.9,3.1-7,7-7c3.9,0,7,3.1,7,7c0,3.9-3.1,7-7,7
		C140.2,49.7,137.1,46.6,137.1,42.7z"/>
	<path id="XMLID_4433_" opacity="0.1" fill="#FFFFFF" d="M136.1,25c0-4.4,3.6-8,8-8c4.4,0,8,3.6,8,8c0,4.4-3.6,8-8,8
		C139.7,32.9,136.1,29.4,136.1,25z"/>
	<path id="XMLID_4432_" opacity="0.1" fill="#FFFFFF" d="M139.7,7.2c0-2.4,2-4.4,4.4-4.4c2.4,0,4.4,2,4.4,4.4c0,2.4-2,4.4-4.4,4.4
		C141.6,11.7,139.7,9.7,139.7,7.2z"/>
	<path id="XMLID_4426_" opacity="0.1" fill="#FFFFFF" d="M124.6,166.8c0-1,0.8-1.7,1.7-1.7c0.9,0,1.7,0.8,1.7,1.7
		c0,1-0.8,1.7-1.7,1.7C125.4,168.6,124.6,167.8,124.6,166.8z"/>
	<path id="XMLID_4425_" opacity="0.1" fill="#FFFFFF" d="M124.2,149.1c0-1.2,0.9-2.1,2.1-2.1c1.2,0,2.1,1,2.1,2.1
		c0,1.2-1,2.1-2.1,2.1C125.2,151.2,124.2,150.3,124.2,149.1z"/>
	<path id="XMLID_4424_" opacity="0.1" fill="#FFFFFF" d="M123.8,131.4c0-1.4,1.1-2.5,2.6-2.5c1.4,0,2.6,1.1,2.6,2.5
		c0,1.4-1.1,2.6-2.6,2.6C124.9,133.9,123.8,132.8,123.8,131.4z"/>
	<path id="XMLID_4423_" opacity="0.1" fill="#FFFFFF" d="M123.3,113.6c0-1.7,1.4-3.1,3.1-3.1c1.7,0,3.1,1.4,3.1,3.1
		c0,1.7-1.4,3.1-3.1,3.1C124.6,116.7,123.3,115.3,123.3,113.6z"/>
	<path id="XMLID_4422_" opacity="0.1" fill="#FFFFFF" d="M123.6,95.9c0-1.5,1.2-2.7,2.8-2.7c1.5,0,2.7,1.2,2.7,2.7
		c0,1.5-1.2,2.8-2.7,2.8C124.8,98.7,123.6,97.4,123.6,95.9z"/>
	<path id="XMLID_4421_" opacity="0.1" fill="#FFFFFF" d="M123,78.2c0-1.9,1.5-3.4,3.4-3.4c1.9,0,3.4,1.5,3.4,3.4s-1.5,3.4-3.4,3.4
		C124.5,81.6,123,80,123,78.2z"/>
	<path id="XMLID_4420_" opacity="0.1" fill="#FFFFFF" d="M120.4,60.4c0-3.3,2.7-6,6-6c3.3,0,6,2.7,6,6c0,3.3-2.7,6-6,6
		C123,66.4,120.4,63.7,120.4,60.4z"/>
	<path id="XMLID_4419_" opacity="0.1" fill="#FFFFFF" d="M119.5,42.7c0-3.8,3.1-6.9,6.9-6.9c3.8,0,6.9,3.1,6.9,6.9
		c0,3.8-3.1,6.9-6.9,6.9C122.5,49.6,119.5,46.5,119.5,42.7z"/>
	<path id="XMLID_4418_" opacity="0.1" fill="#FFFFFF" d="M118.5,25c0-4.3,3.5-7.9,7.9-7.9c4.4,0,7.9,3.5,7.9,7.9s-3.5,7.9-7.9,7.9
		C122,32.8,118.5,29.3,118.5,25z"/>
	<path id="XMLID_4417_" opacity="0.1" fill="#FFFFFF" d="M120.8,7.2c0-3.1,2.5-5.6,5.6-5.6c3.1,0,5.6,2.5,5.6,5.6
		c0,3.1-2.5,5.6-5.6,5.6C123.3,12.8,120.8,10.3,120.8,7.2z"/>
	<path id="XMLID_4411_" opacity="0.1" fill="#FFFFFF" d="M106.6,149.1c0-1.1,0.9-2.1,2.1-2.1c1.1,0,2,0.9,2,2.1c0,1.1-0.9,2.1-2,2.1
		C107.5,151.2,106.6,150.2,106.6,149.1z"/>
	<path id="XMLID_4410_" opacity="0.1" fill="#FFFFFF" d="M106.1,131.4c0-1.4,1.1-2.5,2.6-2.5c1.4,0,2.6,1.1,2.6,2.5
		c0,1.4-1.1,2.6-2.6,2.6C107.2,133.9,106.1,132.8,106.1,131.4z"/>
	<path id="XMLID_4409_" opacity="0.1" fill="#FFFFFF" d="M105.5,113.6c0-1.7,1.4-3.1,3.2-3.1c1.7,0,3.1,1.4,3.1,3.1
		c0,1.7-1.4,3.1-3.1,3.1C106.9,116.8,105.5,115.4,105.5,113.6z"/>
	<path id="XMLID_4408_" opacity="0.1" fill="#FFFFFF" d="M104.7,95.9c0-2.2,1.8-3.9,3.9-3.9c2.2,0,3.9,1.8,3.9,3.9
		c0,2.2-1.8,3.9-3.9,3.9C106.4,99.8,104.7,98.1,104.7,95.9z"/>
	<path id="XMLID_4407_" opacity="0.1" fill="#FFFFFF" d="M105.5,78.2c0-1.7,1.4-3.1,3.1-3.1c1.7,0,3.1,1.4,3.1,3.1
		c0,1.7-1.4,3.1-3.1,3.1C106.9,81.3,105.5,79.9,105.5,78.2z"/>
	<path id="XMLID_4406_" opacity="0.1" fill="#FFFFFF" d="M104.9,60.4c0-2.1,1.7-3.7,3.8-3.7c2,0,3.7,1.7,3.7,3.7
		c0,2.1-1.7,3.7-3.7,3.7C106.6,64.2,104.9,62.5,104.9,60.4z"/>
	<path id="XMLID_4405_" opacity="0.1" fill="#FFFFFF" d="M101.6,42.7c0-3.9,3.1-7,7-7c3.8,0,7,3.1,7,7c0,3.9-3.1,7-7,7
		C104.8,49.7,101.6,46.6,101.6,42.7z"/>
	<path id="XMLID_4404_" opacity="0.1" fill="#FFFFFF" d="M103.2,25c0-3,2.4-5.4,5.4-5.4c3,0,5.4,2.4,5.4,5.4c0,3-2.4,5.4-5.4,5.4
		C105.6,30.4,103.2,28,103.2,25z"/>
	<path id="XMLID_4403_" opacity="0.1" fill="#FFFFFF" d="M101.8,7.2c0-3.7,3-6.8,6.8-6.8c3.7,0,6.8,3,6.8,6.8c0,3.8-3,6.8-6.8,6.8
		C104.9,14,101.8,11,101.8,7.2z"/>
	<path id="XMLID_4397_" opacity="0.1" fill="#FFFFFF" d="M88.9,149.1c0-1.1,0.9-2,2-2c1.1,0,2,0.9,2,2c0,1.1-0.9,2-2,2
		C89.8,151.1,88.9,150.2,88.9,149.1z"/>
	<path id="XMLID_4396_" opacity="0.1" fill="#FFFFFF" d="M88.3,131.4c0-1.4,1.2-2.6,2.6-2.6s2.6,1.2,2.6,2.6c0,1.4-1.2,2.6-2.6,2.6
		S88.3,132.8,88.3,131.4z"/>
	<path id="XMLID_4395_" opacity="0.1" fill="#FFFFFF" d="M87.7,113.6c0-1.7,1.4-3.1,3.2-3.1c1.7,0,3.2,1.4,3.2,3.1
		c0,1.7-1.4,3.1-3.2,3.1C89.2,116.8,87.7,115.4,87.7,113.6z"/>
	<path id="XMLID_4394_" opacity="0.1" fill="#FFFFFF" d="M87,95.9c0-2.1,1.7-3.9,3.9-3.9c2.2,0,3.9,1.7,3.9,3.9
		c0,2.2-1.7,3.9-3.9,3.9C88.7,99.8,87,98,87,95.9z"/>
	<path id="XMLID_4393_" opacity="0.1" fill="#FFFFFF" d="M86.2,78.2c0-2.6,2.1-4.7,4.7-4.7c2.6,0,4.7,2.1,4.7,4.7s-2.1,4.7-4.7,4.7
		C88.3,82.9,86.2,80.8,86.2,78.2z"/>
	<path id="XMLID_4392_" opacity="0.1" fill="#FFFFFF" d="M87.3,60.4c0-2,1.6-3.6,3.6-3.6c2,0,3.6,1.6,3.6,3.6c0,2-1.6,3.6-3.6,3.6
		C88.9,64.1,87.3,62.4,87.3,60.4z"/>
	<path id="XMLID_4391_" opacity="0.1" fill="#FFFFFF" d="M85.2,42.7c0-3.1,2.5-5.7,5.7-5.7s5.7,2.6,5.7,5.7c0,3.2-2.6,5.7-5.7,5.7
		S85.2,45.8,85.2,42.7z"/>
	<path id="XMLID_4390_" opacity="0.1" fill="#FFFFFF" d="M84.4,25c0-3.6,2.9-6.5,6.5-6.5c3.6,0,6.5,2.9,6.5,6.5
		c0,3.6-2.9,6.5-6.5,6.5C87.3,31.5,84.4,28.6,84.4,25z"/>
	<path id="XMLID_4389_" opacity="0.1" fill="#FFFFFF" d="M89,7.2c0-1,0.8-1.9,1.9-1.9c1,0,1.9,0.8,1.9,1.9c0,1-0.8,1.9-1.9,1.9
		C89.9,9.1,89,8.3,89,7.2z"/>
	<path id="XMLID_4383_" opacity="0.1" fill="#FFFFFF" d="M70.6,131.4c0-1.4,1.1-2.5,2.5-2.5c1.4,0,2.5,1.1,2.5,2.5
		c0,1.4-1.1,2.5-2.5,2.5C71.8,133.9,70.6,132.8,70.6,131.4z"/>
	<path id="XMLID_4382_" opacity="0.1" fill="#FFFFFF" d="M70.1,113.6c0-1.7,1.4-3.1,3.1-3.1c1.7,0,3.1,1.4,3.1,3.1
		c0,1.7-1.4,3.1-3.1,3.1C71.4,116.7,70.1,115.3,70.1,113.6z"/>
	<path id="XMLID_4381_" opacity="0.1" fill="#FFFFFF" d="M69.2,95.9c0-2.2,1.8-3.9,3.9-3.9c2.2,0,3.9,1.8,3.9,3.9
		c0,2.2-1.8,3.9-3.9,3.9C71,99.8,69.2,98.1,69.2,95.9z"/>
	<path id="XMLID_4380_" opacity="0.1" fill="#FFFFFF" d="M68.4,78.2c0-2.6,2.1-4.8,4.8-4.8c2.6,0,4.8,2.1,4.8,4.8s-2.1,4.8-4.8,4.8
		C70.5,82.9,68.4,80.8,68.4,78.2z"/>
	<path id="XMLID_4379_" opacity="0.1" fill="#FFFFFF" d="M69.8,60.4c0-1.9,1.5-3.4,3.4-3.4c1.9,0,3.4,1.5,3.4,3.4
		c0,1.9-1.5,3.4-3.4,3.4C71.3,63.8,69.8,62.3,69.8,60.4z"/>
	<path id="XMLID_4378_" opacity="0.1" fill="#FFFFFF" d="M69.8,42.7c0-1.9,1.5-3.4,3.4-3.4c1.9,0,3.4,1.5,3.4,3.4
		c0,1.9-1.5,3.4-3.4,3.4C71.3,46.1,69.8,44.6,69.8,42.7z"/>
	<path id="XMLID_4377_" opacity="0.1" fill="#FFFFFF" d="M69.6,25c0-2,1.6-3.5,3.5-3.5c2,0,3.6,1.6,3.6,3.5c0,2-1.6,3.5-3.6,3.5
		C71.2,28.5,69.6,26.9,69.6,25z"/>
	<path id="XMLID_4376_" opacity="0.1" fill="#FFFFFF" d="M70.9,7.2c0-1.2,1-2.3,2.2-2.3c1.3,0,2.3,1,2.3,2.3c0,1.3-1,2.3-2.3,2.3
		C71.9,9.5,70.9,8.5,70.9,7.2z"/>
	<path id="XMLID_4370_" opacity="0.1" fill="#FFFFFF" d="M52.9,131.4c0-1.4,1.1-2.5,2.5-2.5c1.4,0,2.5,1.1,2.5,2.5
		c0,1.4-1.1,2.5-2.5,2.5C54,133.9,52.9,132.8,52.9,131.4z"/>
	<path id="XMLID_4369_" opacity="0.1" fill="#FFFFFF" d="M52.4,113.6c0-1.7,1.4-3,3-3c1.7,0,3,1.4,3,3c0,1.7-1.4,3-3,3
		C53.7,116.7,52.4,115.3,52.4,113.6z"/>
	<path id="XMLID_4368_" opacity="0.1" fill="#FFFFFF" d="M51.5,95.9c0-2.1,1.7-3.9,3.9-3.9c2.2,0,3.9,1.7,3.9,3.9
		c0,2.2-1.7,3.9-3.9,3.9C53.3,99.8,51.5,98,51.5,95.9z"/>
	<path id="XMLID_4367_" opacity="0.1" fill="#FFFFFF" d="M50.8,78.2c0-2.5,2-4.6,4.6-4.6c2.5,0,4.6,2,4.6,4.6c0,2.5-2,4.6-4.6,4.6
		C52.9,82.7,50.8,80.7,50.8,78.2z"/>
	<path id="XMLID_4366_" opacity="0.1" fill="#FFFFFF" d="M50.4,60.4c0-2.7,2.2-5,5-5c2.7,0,5,2.2,5,5c0,2.7-2.2,5-5,5
		C52.7,65.4,50.4,63.2,50.4,60.4z"/>
	<path id="XMLID_4365_" opacity="0.1" fill="#FFFFFF" d="M52.9,42.7c0-1.4,1.1-2.5,2.5-2.5c1.4,0,2.5,1.1,2.5,2.5
		c0,1.4-1.1,2.5-2.5,2.5C54.1,45.2,52.9,44.1,52.9,42.7z"/>
	<path id="XMLID_4364_" opacity="0.1" fill="#FFFFFF" d="M51.3,25c0-2.3,1.8-4.1,4.1-4.1c2.3,0,4.1,1.9,4.1,4.1
		c0,2.3-1.9,4.1-4.1,4.1C53.1,29.1,51.3,27.2,51.3,25z"/>
	<path id="XMLID_4363_" opacity="0.1" fill="#FFFFFF" d="M54.6,7.2c0-0.5,0.4-0.8,0.8-0.8c0.5,0,0.8,0.4,0.8,0.8
		c0,0.5-0.4,0.8-0.8,0.8C55,8.1,54.6,7.7,54.6,7.2z"/>
	<path id="XMLID_4360_" opacity="0.1" fill="#FFFFFF" d="M36.6,149.1c0-0.6,0.5-1.1,1.1-1.1c0.6,0,1.1,0.5,1.1,1.1
		c0,0.6-0.5,1.1-1.1,1.1C37.1,150.2,36.6,149.7,36.6,149.1z"/>
	<path id="XMLID_4359_" opacity="0.1" fill="#FFFFFF" d="M35.2,131.4c0-1.4,1.1-2.5,2.5-2.5c1.4,0,2.5,1.1,2.5,2.5
		c0,1.4-1.1,2.5-2.5,2.5C36.3,133.9,35.2,132.8,35.2,131.4z"/>
	<path id="XMLID_4358_" opacity="0.1" fill="#FFFFFF" d="M34.7,113.6c0-1.7,1.3-3,3-3c1.7,0,3,1.3,3,3c0,1.7-1.4,3-3,3
		C36,116.6,34.7,115.3,34.7,113.6z"/>
	<path id="XMLID_4357_" opacity="0.1" fill="#FFFFFF" d="M33.8,95.9c0-2.1,1.7-3.9,3.9-3.9c2.2,0,3.9,1.7,3.9,3.9
		c0,2.2-1.7,3.9-3.9,3.9C35.5,99.8,33.8,98,33.8,95.9z"/>
	<ellipse id="XMLID_4356_" opacity="0.1" fill="#FFFFFF" cx="37.7" cy="78.2" rx="4.7" ry="4.7"/>
	<path id="XMLID_4355_" opacity="0.1" fill="#FFFFFF" d="M35.1,60.4c0-1.4,1.2-2.6,2.6-2.6c1.4,0,2.6,1.2,2.6,2.6
		c0,1.4-1.2,2.6-2.6,2.6C36.2,63,35.1,61.9,35.1,60.4z"/>
	<path id="XMLID_4354_" opacity="0.1" fill="#FFFFFF" d="M36.1,42.7c0-0.9,0.7-1.6,1.6-1.6c0.9,0,1.6,0.7,1.6,1.6
		c0,0.9-0.7,1.6-1.6,1.6C36.8,44.3,36.1,43.6,36.1,42.7z"/>
	<path id="XMLID_4353_" opacity="0.1" fill="#FFFFFF" d="M37,25c0-0.4,0.3-0.6,0.6-0.6c0.4,0,0.6,0.3,0.6,0.6c0,0.4-0.3,0.6-0.6,0.6
		C37.3,25.6,37,25.3,37,25z"/>
	<path id="XMLID_4352_" opacity="0.1" fill="#FFFFFF" d="M36.7,7.2c0-0.5,0.4-0.9,0.9-0.9c0.5,0,0.9,0.4,0.9,0.9
		c0,0.5-0.4,0.9-0.9,0.9C37.2,8.2,36.7,7.7,36.7,7.2z"/>
	<path id="XMLID_4351_" opacity="0.1" fill="#FFFFFF" d="M18.4,166.8c0-0.9,0.7-1.6,1.6-1.6c0.9,0,1.6,0.7,1.6,1.6
		c0,0.9-0.7,1.6-1.6,1.6C19.1,168.4,18.4,167.7,18.4,166.8z"/>
	<path id="XMLID_4350_" opacity="0.1" fill="#FFFFFF" d="M18.8,149.1c0-0.6,0.5-1.1,1.1-1.1s1.1,0.5,1.1,1.1c0,0.6-0.5,1.1-1.1,1.1
		S18.8,149.7,18.8,149.1z"/>
	<path id="XMLID_4349_" opacity="0.1" fill="#FFFFFF" d="M18.6,131.4c0-0.7,0.6-1.3,1.3-1.3c0.7,0,1.3,0.6,1.3,1.3
		c0,0.7-0.6,1.3-1.3,1.3C19.2,132.7,18.6,132.1,18.6,131.4z"/>
	<path id="XMLID_4348_" opacity="0.1" fill="#FFFFFF" d="M17,113.6c0-1.7,1.3-3,3-3c1.7,0,3,1.3,3,3c0,1.7-1.4,3-3,3
		C18.3,116.6,17,115.3,17,113.6z"/>
	<path id="XMLID_4347_" opacity="0.1" fill="#FFFFFF" d="M16.2,95.9c0-2.1,1.7-3.7,3.7-3.7s3.7,1.7,3.7,3.7c0,2.1-1.7,3.7-3.7,3.7
		S16.2,98,16.2,95.9z"/>
	<path id="XMLID_4346_" opacity="0.1" fill="#FFFFFF" d="M18,78.2c0-1.1,0.9-1.9,1.9-1.9c1.1,0,1.9,0.9,1.9,1.9
		c0,1.1-0.9,1.9-1.9,1.9C18.9,80.1,18,79.2,18,78.2z"/>
	<path id="XMLID_4345_" opacity="0.1" fill="#FFFFFF" d="M17.5,60.4c0-1.4,1.1-2.5,2.5-2.5s2.4,1.1,2.4,2.5c0,1.4-1.1,2.5-2.4,2.5
		S17.5,61.8,17.5,60.4z"/>
	<path id="XMLID_4344_" opacity="0.1" fill="#FFFFFF" d="M19.6,42.7c0-0.2,0.2-0.3,0.3-0.3c0.2,0,0.3,0.2,0.3,0.3
		c0,0.2-0.1,0.4-0.3,0.4C19.8,43,19.6,42.9,19.6,42.7z"/>
	<path id="XMLID_4343_" opacity="0.1" fill="#FFFFFF" d="M18.6,25c0-0.7,0.6-1.3,1.3-1.3c0.7,0,1.3,0.6,1.3,1.3
		c0,0.7-0.6,1.3-1.3,1.3C19.2,26.3,18.6,25.7,18.6,25z"/>
	<path id="XMLID_4342_" opacity="0.1" fill="#FFFFFF" d="M2.1,166.8c0-0.1,0.1-0.1,0.1-0.1c0.1,0,0.1,0.1,0.1,0.1
		c0,0.1,0,0.1-0.1,0.1C2.2,166.9,2.1,166.9,2.1,166.8z"/>
	<path id="XMLID_4341_" opacity="0.1" fill="#FFFFFF" d="M1.5,149.1c0-0.4,0.3-0.7,0.7-0.7c0.4,0,0.7,0.3,0.7,0.7
		c0,0.4-0.3,0.7-0.7,0.7C1.8,149.8,1.5,149.5,1.5,149.1z"/>
	<path id="XMLID_4340_" opacity="0.1" fill="#FFFFFF" d="M1.1,131.4c0-0.6,0.5-1.1,1.1-1.1c0.6,0,1.1,0.5,1.1,1.1
		c0,0.6-0.5,1.1-1.1,1.1C1.6,132.4,1.1,132,1.1,131.4z"/>
	<path id="XMLID_4339_" opacity="0.1" fill="#FFFFFF" d="M0,113.6c0-1.2,1-2.2,2.2-2.2c1.2,0,2.2,1,2.2,2.2c0,1.2-1,2.2-2.2,2.2
		C1,115.8,0,114.9,0,113.6z"/>
	<path id="XMLID_4338_" opacity="0.1" fill="#FFFFFF" d="M1.7,95.9c0-0.3,0.2-0.5,0.5-0.5c0.3,0,0.5,0.2,0.5,0.5
		c0,0.3-0.2,0.5-0.5,0.5C1.9,96.4,1.7,96.2,1.7,95.9z"/>
	<path id="XMLID_4337_" opacity="0.1" fill="#FFFFFF" d="M1.6,78.2c0-0.3,0.3-0.6,0.6-0.6c0.3,0,0.6,0.3,0.6,0.6
		c0,0.3-0.3,0.6-0.6,0.6C1.9,78.8,1.6,78.5,1.6,78.2z"/>
	<path id="XMLID_4336_" opacity="0.1" fill="#FFFFFF" d="M1.9,60.4c0-0.2,0.2-0.4,0.3-0.4c0.2,0,0.3,0.2,0.3,0.4
		c0,0.2-0.1,0.3-0.3,0.3C2,60.8,1.9,60.6,1.9,60.4z"/>
	<path id="XMLID_4335_" opacity="0.1" fill="#FFFFFF" d="M1.9,42.7c0-0.2,0.1-0.3,0.3-0.3c0.2,0,0.3,0.1,0.3,0.3
		c0,0.2-0.1,0.3-0.3,0.3C2.1,43,1.9,42.9,1.9,42.7z"/>
</g>
</svg>
