<svg xmlns="http://www.w3.org/2000/svg" viewBox="0 0 101.8 123.6">
  <path fill="none" stroke="#04282D" stroke-miterlimit="10" d="M21.8 60.4l-2.6 1c-1 .1-4.9.5-8.9 2.5-4.6 2.3-7.7 5.7-9.3 10.2-.1.2-.1.5 0 .7l1.4 2.9c.2.5.8.7 1.3.4l4.8-2.4 1.3 2.5c-.6.8-.7 1.8-.3 2.8l.8 1.6-.3.3c-1.2 1.7-1 4.6-.6 6.8.5 2.9 1.7 6.2 3.3 9.5l8.2 16.4 1.5 3c.6 1.2 1.9 1.9 3.2 1.9l.3.6c.7 1.3 2.2 1.8 3.6 1.2l11.9-5.9c1.3-.7 1.8-2.2 1.2-3.6l-.3-.6c.8-1 1-2.5.4-3.7l-1.5-3-8.1-16.4a7.52 7.52 0 0 0-7.8-4l-2.4-4.8c-.5-1-1.5-1.7-2.5-1.9l-1.1-2.2c-.5-.9-1.4-1.5-2.3-1.5l-1.2-2.5.9-.8 3.8 2.5c.8.5 1.7.6 2.6.2.4-.2.7-.5 1-.9.4-.6.5-1.3.4-1.9-.1-.7-.5-1.3-1.1-1.6l-2.8-1.9 1.5-1.5 2.2-1.4c.7-.4 1-1.2.6-1.9l-1-2c-.5-.6-1.4-.9-2.1-.6z"/>
  <path fill="#04282D" d="M40.9 113.8c.2.4 0 .8-.3 1l-11.9 5.9c-.4.2-.8 0-1-.3l-.2-.4 13.3-6.6.1.4z"/>
  <path fill="#1A8689" stroke="#05282D" stroke-miterlimit="10" d="M19.8 80.4c.6 0 1.1.3 1.4.8l2.7 5.4c.2.4.7.6 1.1.5 2.2-.6 4.5.2 5.9 2l-16.8 8.3c-.4-.8-.7-1.5-1-2.2l2.2-1.1c.5-.2.7-.8.4-1.3-.2-.5-.8-.7-1.3-.4l-2 1c-.2-.5-.3-.9-.4-1.4l2.4-1.2c.5-.2.7-.8.4-1.3-.2-.5-.8-.7-1.3-.4l-2 1c-.1-.5-.2-1-.3-1.4l2.3-1.1c.5-.2.7-.8.4-1.3-.2-.5-.8-.7-1.3-.4l-1.6.8c0-1 .2-1.9.4-2.4l.6-.3 6.9-3.5s.1 0 .2-.1h.7z"/>
  <path fill="#04282D" d="M22.1 71.4c.1.1.2.2.3.4 0 .2 0 .3-.1.5-.1.1-.1.2-.2.2-.2.1-.5.1-.6 0l-3.4-2.3 1-.9 3 2.1zM20 65.6l-1.9 1.8-2.4 2.3-2 1.9c-.3.3-.4.7-.2 1.1l1.4 2.8-3.6 1.8-1.6-3.1c-.2-.5-.8-.7-1.3-.4l-4.8 2.4-.8-1.7c1.5-3.8 4.2-6.8 8.2-8.8 3.3-1.6 6.5-2.1 7.8-2.3l1.2 2.2zM22.8 63.6l-1.2.8-.8-1.5 1.4-.6zM29.6 107.7c2.9-1.4 4.1-4.9 2.6-7.8a5.72 5.72 0 0 0-7.8-2.6 5.72 5.72 0 0 0-2.6 7.8c1.4 2.8 4.9 4 7.8 2.6zm-4.4-8.8c1.9-1 4.3-.2 5.2 1.8 1 1.9.2 4.3-1.8 5.2-1.9 1-4.3.2-5.2-1.8s-.1-4.2 1.8-5.2zM41 111.2L25.4 119c-.3.2-.7 0-.9-.3l-1.5-3c-.2-.3 0-.7.3-.9l15.6-7.8c.3-.2.7 0 .9.3l1.5 3c.2.3.1.7-.3.9z"/>
  <circle cx="27" cy="102.4" r="3.1" fill="#FFD366"/>
  <g>
    <g fill="none" stroke="#FFF" stroke-linecap="round" stroke-miterlimit="10" stroke-width="3">
      <path d="M56.1 4.2l-.9 1.7"/>
      <path stroke-dasharray="3.7188,6.5078" d="M52.1 11.6L29.3 53.8"/>
      <path d="M27.7 56.6l-.9 1.8 1.9-.5"/>
      <path stroke-dasharray="4.1058,7.1852" d="M35.7 56.3l51.5-12.1"/>
      <path d="M90.7 43.3l1.9-.4"/>
    </g>
  </g>
  <path fill="none" stroke="#FFF" stroke-dasharray="4,7" stroke-linecap="round" stroke-miterlimit="10" stroke-width="3" d="M39.6 47.4l57-43.2M53.1 26.4L71.4 1M65.1 40.3l35.6-14.1" clip-rule="evenodd"/>
</svg>
