<?xml version="1.0" encoding="utf-8"?>
<!-- Generator: Adobe Illustrator 19.0.0, SVG Export Plug-In . SVG Version: 6.00 Build 0)  -->
<svg version="1.1" id="Слой_1" xmlns="http://www.w3.org/2000/svg" xmlns:xlink="http://www.w3.org/1999/xlink" x="0px" y="0px"
	 viewBox="0 0 152.6 28.5" enable-background="new 0 0 152.6 28.5" xml:space="preserve">
<g id="XMLID_3980_">
	<path id="XMLID_3958_" fill="#FFFFFF" d="M13.4,0c0,0,1.8,6.1,4.5,9c3.4,3.9,9,5.5,9,5.5s-5.4,1.9-8.5,5.3
		c-3.1,3.4-4.9,8.7-4.9,8.7c0,0-1.8-5.3-4.9-8.7C5.4,16.5,0,14.5,0,14.5S5.6,12.9,9,9C11.6,6.1,13.4,0,13.4,0z"/>
	<path id="XMLID_3962_" fill="#FFFFFF" d="M44.8,0c0,0,1.8,6.1,4.5,9c3.4,3.9,9,5.5,9,5.5s-5.4,1.9-8.5,5.3
		c-3.1,3.4-4.9,8.7-4.9,8.7c0,0-1.8-5.3-4.9-8.7c-3.1-3.4-8.5-5.3-8.5-5.3s5.6-1.6,9-5.5C43,6.1,44.8,0,44.8,0z"/>
	<path id="XMLID_3963_" fill="#FFFFFF" d="M76.2,0c0,0,1.8,6.1,4.5,9c3.4,3.9,9,5.5,9,5.5s-5.4,1.9-8.5,5.3
		c-3.1,3.4-4.9,8.7-4.9,8.7c0,0-1.8-5.3-4.9-8.7c-3.1-3.4-8.5-5.3-8.5-5.3s5.6-1.6,9-5.5C74.3,6.1,76.2,0,76.2,0z"/>
	<path id="XMLID_3966_" fill="#FFFFFF" d="M107.8,0c0,0,1.8,6.1,4.5,9c3.4,3.9,9,5.5,9,5.5s-5.4,1.9-8.5,5.3
		c-3.1,3.4-4.9,8.7-4.9,8.7c0,0-1.8-5.3-4.9-8.7c-3.1-3.4-8.5-5.3-8.5-5.3s5.6-1.6,9-5.5C106,6.1,107.8,0,107.8,0z"/>
	<path id="XMLID_3964_" fill="#FFFFFF" d="M139.2,0c0,0,1.8,6.1,4.5,9c3.4,3.9,9,5.5,9,5.5s-5.4,1.9-8.5,5.3
		c-3.1,3.4-4.9,8.7-4.9,8.7c0,0-1.8-5.3-4.9-8.7c-3.1-3.4-8.5-5.3-8.5-5.3s5.6-1.6,9-5.5C137.3,6.1,139.2,0,139.2,0z"/>
</g>
</svg>
