<?xml version="1.0" encoding="utf-8"?>
<!-- Generator: Adobe Illustrator 19.0.0, SVG Export Plug-In . SVG Version: 6.00 Build 0)  -->
<svg version="1.1" id="Слой_1" xmlns="http://www.w3.org/2000/svg" xmlns:xlink="http://www.w3.org/1999/xlink" x="0px" y="0px"
	 viewBox="0 0 82.1 62.4" enable-background="new 0 0 82.1 62.4" xml:space="preserve">
<g id="XMLID_5039_">
	<polygon id="XMLID_5074_" fill="#FCAF32" points="-0.2,27.9 82.1,27.9 74,34.9 82.1,41.9 -0.2,41.9 7,34.9 	"/>
	<polygon id="XMLID_1872_" fill="#04282D" points="40.7,3 42.1,-0.1 43.2,3.1 44.9,0.1 45.7,3.4 47.6,0.6 48.2,4 50.4,1.4 50.6,4.8 
		53,2.4 52.9,5.8 55.5,3.6 55.1,7 57.9,5 57.2,8.4 60.2,6.7 59.2,9.9 62.3,8.5 61,11.7 64.2,10.6 62.7,13.6 66,12.7 64.2,15.6 
		67.5,15.1 65.5,17.8 68.9,17.6 66.6,20.1 70,20.1 67.5,22.4 70.9,22.8 68.1,24.9 71.5,25.6 68.6,27.4 71.9,28.3 68.8,29.9 72,31.1 
		68.8,32.4 71.9,34 68.6,34.9 71.5,36.7 68.1,37.4 70.9,39.5 67.5,39.9 70,42.1 66.6,42.2 68.9,44.7 65.5,44.5 67.5,47.2 64.2,46.7 
		66,49.5 62.7,48.7 64.2,51.7 61,50.6 62.3,53.8 59.2,52.4 60.2,55.6 57.2,53.9 57.9,57.3 55.1,55.3 55.5,58.7 52.9,56.5 53,59.9 
		50.6,57.5 50.4,60.9 48.2,58.3 47.6,61.7 45.7,58.9 44.9,62.2 43.2,59.2 42.1,62.4 40.7,59.3 39.3,62.4 38.2,59.2 36.5,62.2 
		35.7,58.9 33.7,61.7 33.2,58.3 31,60.9 30.8,57.5 28.4,59.9 28.5,56.5 25.8,58.7 26.2,55.3 23.4,57.3 24.1,53.9 21.2,55.6 
		22.1,52.4 19.1,53.8 20.3,50.6 17.1,51.7 18.7,48.7 15.4,49.5 17.2,46.7 13.8,47.2 15.9,44.5 12.5,44.7 14.8,42.2 11.4,42.1 
		13.9,39.9 10.5,39.5 13.2,37.4 9.9,36.7 12.8,34.9 9.5,34 12.5,32.4 9.4,31.1 12.5,29.9 9.5,28.3 12.8,27.4 9.9,25.6 13.2,24.9 
		10.5,22.8 13.9,22.4 11.4,20.1 14.8,20.1 12.5,17.6 15.9,17.8 13.8,15.1 17.2,15.6 15.4,12.7 18.7,13.6 17.1,10.6 20.3,11.7 
		19.1,8.5 22.1,9.9 21.2,6.7 24.1,8.4 23.4,5 26.2,7 25.8,3.6 28.5,5.8 28.4,2.4 30.8,4.8 31,1.4 33.2,4 33.7,0.6 35.7,3.4 
		36.5,0.1 38.2,3.1 39.3,-0.1 	"/>
	<ellipse id="XMLID_1866_" fill="#FFFFFF" cx="40.6" cy="31" rx="23" ry="22.7"/>
	<rect id="XMLID_5065_" x="9.1" y="23.9" fill="#FFD366" width="63" height="16"/>
	<g id="XMLID_274_">
		<g id="XMLID_453_">
			<path id="XMLID_472_" fill="#04282D" d="M26,33.4V31c0-1.1,0.6-1.8,1.6-1.8c1,0,1.6,0.6,1.7,1.7h-0.8c0-0.7-0.3-1-0.9-1
				c-0.5,0-0.8,0.3-0.8,1v2.3c0,0.7,0.3,1,0.8,1c0.5,0,0.8-0.3,0.9-0.9h0.8c-0.1,1.1-0.7,1.7-1.7,1.7C26.6,35.1,26,34.5,26,33.4z"/>
			<path id="XMLID_470_" fill="#04282D" d="M32.9,34.2V35h-2.8v-5.6h2.7v0.8h-1.9v1.6h1.8v0.7h-1.8v1.7H32.9z"/>
			<path id="XMLID_467_" fill="#04282D" d="M35.1,33h-0.5v2h-0.8v-5.6h1.4c1.1,0,1.7,0.6,1.7,1.8c0,0.9-0.4,1.5-1,1.7l1.2,2.1h-0.9
				L35.1,33z M34.6,32.2h0.6c0.6,0,0.9-0.4,0.9-1c0-0.7-0.3-1-0.9-1h-0.6V32.2z"/>
			<path id="XMLID_465_" fill="#04282D" d="M40.5,30.2h-1.2V35h-0.8v-4.8h-1.2v-0.8h3.2V30.2z"/>
			<path id="XMLID_463_" fill="#04282D" d="M42,29.4V35h-0.8v-5.6H42z"/>
			<path id="XMLID_461_" fill="#04282D" d="M43.9,30.2v1.7h1.7v0.7h-1.7V35h-0.8v-5.6h2.6v0.8H43.9z"/>
			<path id="XMLID_459_" fill="#04282D" d="M47.3,29.4V35h-0.8v-5.6H47.3z"/>
			<path id="XMLID_457_" fill="#04282D" d="M51.3,34.2V35h-2.8v-5.6h2.7v0.8h-1.9v1.6H51v0.7h-1.8v1.7H51.3z"/>
			<path id="XMLID_454_" fill="#04282D" d="M52.1,29.4h1.4c1.1,0,1.7,0.6,1.7,1.7v2.1c0,1.1-0.6,1.8-1.7,1.8h-1.4V29.4z M53.5,34.2
				c0.6,0,0.9-0.3,0.9-1v-2.1c0-0.7-0.3-1-0.9-1h-0.6v4.1H53.5z"/>
		</g>
	</g>
	<g id="XMLID_2363_">
		<polygon id="XMLID_5046_" fill="#04282D" points="40.6,12.9 41.1,12 41.6,13 42.6,13.1 41.8,13.9 42,15 41.1,14.4 40.1,14.9 
			40.3,13.9 39.5,13.1 		"/>
		<polygon id="XMLID_5045_" fill="#04282D" points="40.6,18.6 41.1,17.7 41.6,18.6 42.6,18.8 41.8,19.6 42,20.6 41.1,20.1 
			40.1,20.6 40.3,19.5 39.5,18.8 		"/>
		<polygon id="XMLID_5043_" fill="#04282D" points="45.9,15.1 46.4,14.1 46.9,15.1 48,15.3 47.2,16 47.3,17.1 46.4,16.6 45.4,17.1 
			45.6,16 44.9,15.2 		"/>
		<polygon id="XMLID_5042_" fill="#04282D" points="35.3,15.1 35.8,14.1 36.2,15.1 37.3,15.3 36.5,16 36.7,17.1 35.7,16.6 
			34.8,17.1 35,16 34.2,15.2 		"/>
	</g>
	<path id="XMLID_5057_" fill="none" stroke="#FFFFFF" stroke-miterlimit="10" d="M24.9,19.5"/>
	<path id="XMLID_5054_" fill="none" stroke="#FFFFFF" stroke-miterlimit="10" d="M20.9,19.5"/>
	<path id="XMLID_5058_" fill="none" stroke="#FFFFFF" stroke-miterlimit="10" d="M56.9,19.5"/>
	<path id="XMLID_5041_" fill="none" stroke="#FFFFFF" stroke-miterlimit="10" d="M52.9,19.5"/>
</g>
</svg>
