<?xml version="1.0" encoding="utf-8"?>
<!-- Generator: Adobe Illustrator 19.0.0, SVG Export Plug-In . SVG Version: 6.00 Build 0)  -->
<svg version="1.1" id="Слой_1" xmlns="http://www.w3.org/2000/svg" xmlns:xlink="http://www.w3.org/1999/xlink" x="0px" y="0px"
	 viewBox="0 0 75.7 71.7" enable-background="new 0 0 75.7 71.7" xml:space="preserve">
<g id="XMLID_274_">
	<g id="XMLID_2269_">
		<g id="XMLID_349_">
			<path id="XMLID_352_" fill="#1A8689" d="M28.6,37.3c0,0-1-9.6-8.8-13S6.6,24.2,4.5,24.2c-2,0-3.9-0.4-4.4,0.3
				c-0.6,0.8,0.9,6.2,2.5,8.7c1.6,2.5,7.2,8,15.7,7.5C26.7,40.4,28.6,37.3,28.6,37.3z"/>
			<g id="XMLID_350_">
				<path id="XMLID_351_" fill="#04282D" d="M26.6,36.5c0,0-0.3-0.3-0.8-0.8c-0.2-0.3-0.5-0.5-0.9-0.9c-0.4-0.3-0.8-0.7-1.2-1
					c-0.2-0.2-0.5-0.4-0.7-0.6c-0.3-0.2-0.5-0.4-0.8-0.5c-0.5-0.4-1.2-0.7-1.8-1.1c-0.7-0.3-1.3-0.7-2-1c-0.7-0.3-1.4-0.6-2.2-0.8
					c-0.7-0.2-1.5-0.5-2.2-0.7c-0.7-0.2-1.5-0.4-2.2-0.6c-0.7-0.1-1.4-0.3-2.1-0.5c-0.7-0.1-1.3-0.3-1.9-0.4
					c-2.4-0.4-3.9-0.7-3.9-0.7s0.4,0,1.1,0c0.7,0,1.7,0,2.9,0.1c1.2,0.1,2.6,0.2,4.1,0.5c0.7,0.2,1.5,0.3,2.3,0.5
					c0.8,0.2,1.5,0.4,2.3,0.7c0.8,0.3,1.5,0.6,2.2,0.9c0.7,0.3,1.4,0.7,2.1,1.1c0.6,0.4,1.3,0.8,1.8,1.2c0.3,0.2,0.5,0.4,0.8,0.6
					c0.2,0.2,0.5,0.4,0.7,0.6c0.5,0.4,0.8,0.8,1.2,1.2c0.3,0.4,0.6,0.7,0.8,1C26.4,36.2,26.6,36.5,26.6,36.5z"/>
			</g>
		</g>
	</g>
	<g id="XMLID_2251_">
		<g id="XMLID_344_">
			<path id="XMLID_347_" fill="#1A8689" d="M50.4,33.4c0,0-2.9-10.3,3.7-17.1s13.6-5.5,15.7-6.3c2.1-0.8,3.8-2,4.7-1.5
				c0.9,0.6,1.6,6.7,1,10c-0.6,3.3-4.2,11.2-13.1,14.2C53.6,35.8,50.4,33.4,50.4,33.4z"/>
			<g id="XMLID_345_">
				<path id="XMLID_346_" fill="#04282D" d="M52.1,31.8c0,0,0.1-0.4,0.3-1.2c0.1-0.4,0.2-0.8,0.4-1.3c0.2-0.5,0.4-1.1,0.7-1.7
					c0.1-0.3,0.3-0.6,0.5-0.9c0.2-0.3,0.4-0.6,0.6-1c0.4-0.7,0.9-1.3,1.4-2c0.5-0.6,1.1-1.3,1.7-2c0.6-0.7,1.3-1.2,1.9-1.9
					c0.7-0.6,1.4-1.1,2.1-1.7c0.7-0.5,1.4-1,2.1-1.5c1.4-0.9,2.8-1.6,4-2.2c1.2-0.6,2.2-1,2.9-1.3c0.7-0.3,1.1-0.4,1.1-0.4
					s-1.5,0.9-3.8,2.3c-0.6,0.4-1.2,0.7-1.8,1.1c-0.6,0.4-1.3,0.9-2,1.3c-0.7,0.5-1.4,1-2,1.5c-0.7,0.5-1.4,1.1-2,1.6
					c-0.6,0.6-1.3,1.1-1.9,1.8c-0.6,0.6-1.2,1.2-1.7,1.8c-0.5,0.6-1,1.2-1.4,1.9c-0.2,0.3-0.4,0.6-0.6,0.9c-0.2,0.3-0.4,0.6-0.5,0.9
					c-0.4,0.6-0.6,1.1-0.9,1.6c-0.3,0.5-0.5,0.9-0.6,1.3C52.3,31.4,52.1,31.8,52.1,31.8z"/>
			</g>
		</g>
	</g>
	<g id="XMLID_2250_">
		<circle id="XMLID_2345_" fill="#04282D" cx="41.8" cy="38" r="30.5"/>
	</g>
	<g id="XMLID_2237_">
		<g id="XMLID_339_">
			<path id="XMLID_342_" fill="#1A8689" d="M27.9,30.9c0,0,4.9-12.2-1.2-19.8c-5.2-6.5-10.4-7.3-12.9-8.5C12,1.8,10.6-0.6,9.4,0.2
				C8.1,1,5.8,8.7,6.2,14.2c0.5,5.3,1.6,12.3,9.3,15.8C20.9,32.5,27.9,30.9,27.9,30.9z"/>
			<g id="XMLID_340_">
				<path id="XMLID_341_" fill="#04282D" d="M26.6,28.9c0,0,0-0.1,0-0.4c0-0.2-0.1-0.6-0.2-1c-0.1-0.4-0.3-0.9-0.5-1.5
					c-0.1-0.3-0.3-0.6-0.4-0.9c-0.2-0.3-0.3-0.6-0.5-0.9c-0.4-0.6-0.8-1.3-1.4-1.9c-0.5-0.7-1.1-1.3-1.7-2c-1.3-1.4-2.7-2.7-4.2-4
					c-0.4-0.3-0.8-0.6-1.2-0.9c-0.4-0.3-0.8-0.6-1.2-0.9c-0.8-0.7-1.4-1.5-2-2.3c-0.5-0.8-1-1.6-1.3-2.4c-0.4-0.8-0.6-1.6-0.8-2.3
					c-0.4-1.5-0.6-2.7-0.7-3.6c-0.1-0.9-0.1-1.4-0.1-1.4s0.1,0.5,0.3,1.3c0.2,0.9,0.5,2,1,3.4c0.3,0.7,0.6,1.4,1,2.2
					c0.2,0.4,0.4,0.7,0.6,1.1c0.2,0.4,0.5,0.7,0.7,1.1c0.2,0.4,0.6,0.7,0.9,1.1c0.3,0.3,0.6,0.6,1,1c0.4,0.3,0.8,0.6,1.1,0.9
					c0.4,0.3,0.8,0.6,1.2,0.9c0.8,0.6,1.5,1.3,2.2,2c0.7,0.7,1.4,1.4,2,2.1c0.6,0.7,1.2,1.5,1.7,2.2c0.5,0.7,0.9,1.4,1.3,2.1
					c0.2,0.3,0.3,0.7,0.5,1c0.1,0.3,0.2,0.6,0.3,0.9c0.2,0.6,0.3,1.1,0.4,1.6c0.1,0.4,0.1,0.8,0,1C26.6,28.8,26.6,28.9,26.6,28.9z"
					/>
			</g>
		</g>
	</g>
	<g id="XMLID_2232_">
		<path id="XMLID_2298_" fill="#FFFFFF" d="M41.8,64.5c-14.6,0-26.5-11.9-26.5-26.5c0-14.6,11.9-26.5,26.5-26.5
			c14.6,0,26.5,11.9,26.5,26.5C68.3,52.6,56.4,64.5,41.8,64.5z"/>
	</g>
	<g id="XMLID_2173_">
		<g id="XMLID_2329_">
			
				<line id="XMLID_2334_" fill="none" stroke="#04282D" stroke-width="0.7878" stroke-linecap="round" stroke-miterlimit="10" x1="22.1" y1="48.8" x2="22.1" y2="48.8"/>
			
				<path id="XMLID_2333_" fill="none" stroke="#04282D" stroke-width="0.7878" stroke-linecap="round" stroke-miterlimit="10" stroke-dasharray="0,2.3183" d="
				M21.1,46.7c-1.1-2.6-1.7-5.5-1.7-8.6c0-3.8,0.9-7.4,2.6-10.5"/>
			
				<line id="XMLID_2332_" fill="none" stroke="#04282D" stroke-width="0.7878" stroke-linecap="round" stroke-miterlimit="10" x1="22.6" y1="26.7" x2="22.6" y2="26.7"/>
		</g>
	</g>
	<g id="XMLID_2172_">
		<g id="XMLID_2318_">
			
				<line id="XMLID_2327_" fill="none" stroke="#04282D" stroke-width="0.7878" stroke-linecap="round" stroke-miterlimit="10" x1="61.8" y1="28.1" x2="61.8" y2="28.1"/>
			
				<path id="XMLID_2320_" fill="none" stroke="#04282D" stroke-width="0.7878" stroke-linecap="round" stroke-miterlimit="10" stroke-dasharray="0,2.4801" d="
				M62.8,30.3c0.9,2.4,1.4,5.1,1.4,7.8c0,3.7-0.9,7.2-2.5,10.2"/>
			
				<line id="XMLID_2319_" fill="none" stroke="#04282D" stroke-width="0.7878" stroke-linecap="round" stroke-miterlimit="10" x1="61.1" y1="49.5" x2="61.1" y2="49.5"/>
		</g>
	</g>
	<g id="XMLID_2171_">
		<g id="XMLID_2300_">
			
				<line id="XMLID_2309_" fill="none" stroke="#04282D" stroke-width="0.7878" stroke-linecap="round" stroke-miterlimit="10" x1="34.4" y1="17" x2="34.4" y2="17"/>
			
				<path id="XMLID_2306_" fill="none" stroke="#04282D" stroke-width="0.7878" stroke-linecap="round" stroke-miterlimit="10" stroke-dasharray="0,2.4156" d="
				M36.8,16.3c1.6-0.4,3.3-0.6,5.1-0.6c2,0,3.9,0.3,5.7,0.7"/>
			
				<line id="XMLID_2303_" fill="none" stroke="#04282D" stroke-width="0.7878" stroke-linecap="round" stroke-miterlimit="10" x1="48.7" y1="16.8" x2="48.7" y2="16.8"/>
		</g>
	</g>
	<g id="XMLID_364_">
		<g id="XMLID_427_">
			<path id="XMLID_433_" fill="#04282D" d="M30.8,29.8H35v2.8h-4.2v5.7h5.3v2.8h-8.3V21.6h8.3v2.8h-5.3V29.8z"/>
			<path id="XMLID_431_" fill="#04282D" d="M46.9,33.8v2.6c0,3.1-1.6,4.9-4.6,4.9s-4.6-1.8-4.6-4.9V26.3c0-3.1,1.6-4.9,4.6-4.9
				s4.6,1.8,4.6,4.9v1.9H44v-2.1c0-1.4-0.6-1.9-1.6-1.9s-1.6,0.5-1.6,1.9v10.5c0,1.4,0.6,1.9,1.6,1.9S44,38,44,36.6v-2.8H46.9z"/>
			<path id="XMLID_428_" fill="#04282D" d="M48.5,26.3c0-3.1,1.6-4.9,4.6-4.9c3,0,4.6,1.8,4.6,4.9v10.1c0,3.1-1.6,4.9-4.6,4.9
				c-3,0-4.6-1.8-4.6-4.9V26.3z M51.6,36.6c0,1.4,0.6,1.9,1.6,1.9s1.6-0.5,1.6-1.9V26.1c0-1.4-0.6-1.9-1.6-1.9s-1.6,0.5-1.6,1.9
				V36.6z"/>
		</g>
	</g>
	<g id="XMLID_294_">
		<g id="XMLID_511_">
			<path id="XMLID_529_" fill="#04282D" d="M27.7,51.8c-0.2,0-0.4,0-0.5-0.1v-0.6c0.2,0.1,0.3,0.1,0.5,0.1c0.2,0,0.4-0.1,0.5-0.3
				c0.1-0.2,0.2-0.4,0.3-0.7l1-4.5h-0.8l0.1-0.3l0.9-0.3l0.1-0.4c0.1-0.6,0.3-1,0.5-1.2s0.6-0.3,1-0.3c0.1,0,0.2,0,0.4,0
				c0.2,0,0.3,0.1,0.4,0.1l-0.2,0.5c-0.2-0.1-0.4-0.1-0.6-0.1c-0.2,0-0.4,0.1-0.6,0.2c-0.1,0.1-0.2,0.4-0.3,0.7l-0.1,0.5h1l-0.1,0.5
				h-1l-1,4.6c-0.1,0.5-0.3,0.9-0.5,1.2C28.4,51.6,28.1,51.8,27.7,51.8z"/>
			<path id="XMLID_527_" fill="#04282D" d="M34,45c0.2,0,0.4,0,0.5,0.1l-0.2,0.6c-0.1,0-0.3-0.1-0.4-0.1c-0.3,0-0.5,0.1-0.7,0.3
				c-0.2,0.2-0.4,0.4-0.6,0.7s-0.3,0.6-0.4,1l-0.4,2.1h-0.7l1-4.6h0.6L32.6,46h0c0.2-0.3,0.4-0.5,0.5-0.6c0.1-0.1,0.3-0.2,0.4-0.3
				C33.7,45.1,33.8,45,34,45z"/>
			<path id="XMLID_524_" fill="#04282D" d="M35.2,49.7h-0.7l1-4.6h0.7L35.2,49.7z M35.7,43.9c0-0.2,0-0.3,0.1-0.4
				c0.1-0.1,0.2-0.1,0.3-0.1c0.2,0,0.4,0.1,0.4,0.4c0,0.2,0,0.3-0.1,0.4s-0.2,0.2-0.3,0.2c-0.1,0-0.2,0-0.3-0.1S35.7,44.1,35.7,43.9
				z"/>
			<path id="XMLID_521_" fill="#04282D" d="M38.5,49.8c-0.5,0-0.9-0.2-1.2-0.5c-0.3-0.3-0.4-0.7-0.4-1.3c0-0.5,0.1-1,0.3-1.5
				c0.2-0.5,0.5-0.9,0.8-1.1s0.7-0.4,1.1-0.4c0.4,0,0.8,0.1,1,0.3c0.2,0.2,0.3,0.4,0.3,0.8c0,0.5-0.2,0.9-0.7,1.2
				c-0.5,0.3-1.1,0.4-2,0.4h-0.1l0,0.3c0,0.4,0.1,0.7,0.3,0.9c0.2,0.2,0.4,0.3,0.8,0.3c0.2,0,0.4,0,0.5-0.1c0.2,0,0.4-0.1,0.7-0.3
				v0.6c-0.3,0.1-0.5,0.2-0.7,0.3C39,49.8,38.8,49.8,38.5,49.8z M39.1,45.6c-0.3,0-0.6,0.1-0.8,0.4c-0.3,0.3-0.4,0.6-0.6,1.1h0.1
				c0.6,0,1.1-0.1,1.5-0.3c0.3-0.2,0.5-0.4,0.5-0.7c0-0.1-0.1-0.3-0.2-0.4C39.5,45.7,39.3,45.6,39.1,45.6z"/>
			<path id="XMLID_519_" fill="#04282D" d="M43.7,49.7l0.6-2.9c0.1-0.3,0.1-0.5,0.1-0.6c0-0.2,0-0.3-0.1-0.4
				c-0.1-0.1-0.3-0.2-0.5-0.2c-0.2,0-0.5,0.1-0.7,0.3c-0.2,0.2-0.4,0.4-0.6,0.7c-0.2,0.3-0.3,0.7-0.4,1.1l-0.4,2h-0.7l1-4.6h0.6
				L42.4,46h0c0.3-0.3,0.5-0.6,0.8-0.7c0.3-0.1,0.5-0.2,0.8-0.2c0.4,0,0.6,0.1,0.8,0.3s0.3,0.5,0.3,0.8c0,0.2,0,0.5-0.1,0.8
				l-0.6,2.8H43.7z"/>
			<path id="XMLID_516_" fill="#04282D" d="M48.3,45c0.5,0,0.9,0.3,1.2,0.8h0c0-0.4,0.1-0.8,0.2-1.2l0.3-1.5h0.7l-1.4,6.5h-0.6
				l0.1-0.9h0c-0.3,0.4-0.5,0.6-0.8,0.7c-0.2,0.1-0.5,0.2-0.8,0.2c-0.4,0-0.7-0.1-0.9-0.4s-0.3-0.7-0.3-1.1c0-0.6,0.1-1.1,0.3-1.6
				c0.2-0.5,0.5-0.9,0.8-1.2S47.9,45,48.3,45z M47.5,49.2c0.3,0,0.5-0.1,0.8-0.4c0.3-0.3,0.5-0.6,0.7-1c0.2-0.4,0.2-0.8,0.2-1.2
				c0-0.3-0.1-0.5-0.2-0.7c-0.2-0.2-0.4-0.2-0.7-0.2c-0.3,0-0.5,0.1-0.8,0.3s-0.4,0.6-0.6,1c-0.1,0.4-0.2,0.9-0.2,1.3
				C46.8,48.9,47,49.2,47.5,49.2z"/>
			<path id="XMLID_514_" fill="#04282D" d="M51.6,49.7h-0.7l1.4-6.5H53L51.6,49.7z"/>
			<path id="XMLID_512_" fill="#04282D" d="M53.2,45.1h0.7l0.3,2.3c0,0.2,0.1,0.5,0.1,0.9c0,0.4,0,0.7,0,0.9h0
				c0.1-0.2,0.2-0.5,0.4-0.8s0.3-0.5,0.3-0.7l1.4-2.6h0.7l-2.9,5.4c-0.3,0.5-0.5,0.8-0.8,1c-0.3,0.2-0.6,0.3-0.9,0.3
				c-0.2,0-0.4,0-0.6-0.1v-0.6c0.2,0.1,0.4,0.1,0.6,0.1c0.2,0,0.4-0.1,0.6-0.2c0.2-0.1,0.3-0.4,0.5-0.6l0.3-0.6L53.2,45.1z"/>
		</g>
	</g>
	<g id="XMLID_1999_">
		<g id="XMLID_330_">
			<path id="XMLID_333_" fill="#1A8689" d="M41.8,68.5c0,0-0.7-8.3,5.4-12.5c6.1-4.2,11.2-2.2,13-2.5c1.7-0.3,3.2-1,3.8-0.4
				c0.6,0.6,0.2,5.4-0.7,7.8c-1,2.4-4.8,7.9-12.1,8.9C43.8,70.8,41.8,68.5,41.8,68.5z"/>
			<g id="XMLID_331_">
				<path id="XMLID_332_" fill="#04282D" d="M43.3,67.5c0,0,0.1-0.3,0.4-0.9c0.1-0.3,0.3-0.6,0.5-1c0.2-0.4,0.5-0.8,0.8-1.2
					c0.2-0.2,0.3-0.4,0.5-0.7c0.2-0.2,0.4-0.4,0.6-0.7c0.4-0.5,0.9-0.9,1.3-1.3c0.5-0.4,1-0.9,1.6-1.2c0.6-0.4,1.2-0.8,1.8-1.1
					c0.6-0.3,1.2-0.7,1.9-1c0.6-0.3,1.3-0.5,1.9-0.8c1.2-0.5,2.4-0.8,3.4-1.1c1-0.3,1.9-0.4,2.4-0.6c0.6-0.1,0.9-0.2,0.9-0.2
					S60,56.4,58,57.1c-1,0.4-2.1,0.8-3.3,1.3c-1.2,0.5-2.4,1.1-3.6,1.8c-1.2,0.7-2.3,1.4-3.3,2.2c-0.5,0.4-1,0.8-1.4,1.2
					c-0.4,0.4-0.8,0.8-1.1,1.2c-0.4,0.4-0.6,0.7-0.9,1.1c-0.3,0.3-0.5,0.6-0.6,0.9C43.5,67.2,43.3,67.5,43.3,67.5z"/>
			</g>
		</g>
	</g>
	<g id="XMLID_1862_">
		<g id="XMLID_300_">
			<path id="XMLID_304_" fill="#1A8689" d="M44.5,67.9c0,0-1-9.6-8.8-13s-13.2-0.1-15.2-0.1c-2,0-3.9-0.4-4.4,0.3s0.9,6.2,2.5,8.7
				c1.6,2.5,7.2,8,15.7,7.5C42.6,70.9,44.5,67.9,44.5,67.9z"/>
			<g id="XMLID_302_">
				<path id="XMLID_303_" fill="#D1DD77" d="M42.6,67.1c0,0-0.3-0.3-0.8-0.8c-0.2-0.3-0.5-0.5-0.9-0.9c-0.4-0.3-0.8-0.7-1.2-1
					c-0.2-0.2-0.5-0.4-0.7-0.6c-0.3-0.2-0.5-0.4-0.8-0.5c-0.5-0.4-1.2-0.7-1.8-1.1c-0.7-0.3-1.3-0.7-2-1c-0.7-0.3-1.4-0.6-2.2-0.8
					c-0.7-0.2-1.5-0.5-2.2-0.7c-0.7-0.2-1.5-0.4-2.2-0.6c-0.7-0.1-1.4-0.3-2.1-0.5c-0.7-0.1-1.3-0.3-1.9-0.4
					c-2.4-0.4-3.9-0.7-3.9-0.7s0.4,0,1.1,0c0.7,0,1.7,0,2.9,0.1c1.2,0.1,2.6,0.2,4.1,0.5c0.7,0.2,1.5,0.3,2.3,0.5
					c0.8,0.2,1.5,0.4,2.3,0.7c0.8,0.3,1.5,0.6,2.2,0.9c0.7,0.3,1.4,0.7,2.1,1.1c0.6,0.4,1.3,0.8,1.8,1.2c0.3,0.2,0.5,0.4,0.8,0.6
					c0.2,0.2,0.5,0.4,0.7,0.6c0.5,0.4,0.8,0.8,1.2,1.2c0.3,0.4,0.6,0.7,0.8,1C42.3,66.7,42.6,67.1,42.6,67.1z"/>
			</g>
		</g>
	</g>
	<g id="XMLID_276_">
		<g id="XMLID_1853_">
			<path id="XMLID_2015_" fill="#04282D" d="M42.6,67.1c0,0-0.3-0.3-0.8-0.8c-0.2-0.3-0.5-0.5-0.9-0.9c-0.4-0.3-0.8-0.7-1.2-1
				c-0.2-0.2-0.5-0.4-0.7-0.6c-0.3-0.2-0.5-0.4-0.8-0.5c-0.5-0.4-1.2-0.7-1.8-1.1c-0.7-0.3-1.3-0.7-2-1c-0.7-0.3-1.4-0.6-2.2-0.8
				c-0.7-0.2-1.5-0.5-2.2-0.7c-0.7-0.2-1.5-0.4-2.2-0.6c-0.7-0.1-1.4-0.3-2.1-0.5c-0.7-0.1-1.3-0.3-1.9-0.4
				c-2.4-0.4-3.9-0.7-3.9-0.7s0.4,0,1.1,0c0.7,0,1.7,0,2.9,0.1c1.2,0.1,2.6,0.2,4.1,0.5c0.7,0.2,1.5,0.3,2.3,0.5
				c0.8,0.2,1.5,0.4,2.3,0.7c0.8,0.3,1.5,0.6,2.2,0.9c0.7,0.3,1.4,0.7,2.1,1.1c0.6,0.4,1.3,0.8,1.8,1.2c0.3,0.2,0.5,0.4,0.8,0.6
				c0.2,0.2,0.5,0.4,0.7,0.6c0.5,0.4,0.8,0.8,1.2,1.2c0.3,0.4,0.6,0.7,0.8,1C42.3,66.7,42.6,67.1,42.6,67.1z"/>
		</g>
	</g>
</g>
</svg>
