<?xml version="1.0" encoding="utf-8"?>
<!-- Generator: Adobe Illustrator 19.0.0, SVG Export Plug-In . SVG Version: 6.00 Build 0)  -->
<svg version="1.1" id="Слой_1" xmlns="http://www.w3.org/2000/svg" xmlns:xlink="http://www.w3.org/1999/xlink" x="0px" y="0px"
	 viewBox="0 0 63.4 77.6" enable-background="new 0 0 63.4 77.6" xml:space="preserve">
<g id="XMLID_1962_">
	<polygon id="XMLID_2420_" fill="#FFD366" points="17.2,16.1 17.2,77.6 32.3,65.6 46.5,77.5 46.4,16.1 	"/>
	<polygon id="XMLID_2419_" fill="#FCAF32" points="23.1,73 23.1,46.1 40.1,46.1 40.1,72.2 32.2,65.7 	"/>
	<polygon id="XMLID_2418_" fill="#485560" points="31.7,4.8 33,1.9 34.1,5 35.6,2.2 36.4,5.3 38.2,2.6 38.7,5.8 40.8,3.3 41,6.5 
		43.3,4.3 43.2,7.5 45.6,5.4 45.3,8.6 47.9,6.8 47.3,9.9 50.1,8.3 49.1,11.4 52,10.1 50.8,13 53.9,12 52.4,14.8 55.5,14 53.8,16.8 
		57,16.3 55,18.8 58.2,18.6 56.1,20.9 59.3,21 56.9,23.2 60.1,23.5 57.5,25.5 60.7,26.1 58,27.8 61,28.7 58.2,30.2 61.1,31.4 
		58.2,32.6 61,34 58,34.9 60.7,36.6 57.5,37.3 60.1,39.2 56.9,39.6 59.3,41.7 56.1,41.8 58.2,44.1 55,43.9 57,46.5 53.8,46 
		55.5,48.7 52.4,47.9 53.9,50.8 50.8,49.7 52,52.7 49.1,51.3 50.1,54.4 47.3,52.8 47.9,56 45.3,54.1 45.6,57.3 43.2,55.3 43.3,58.5 
		41,56.2 40.8,59.4 38.7,56.9 38.2,60.1 36.4,57.5 35.6,60.6 34.1,57.8 33,60.8 31.7,57.9 30.4,60.8 29.3,57.8 27.7,60.6 26.9,57.5 
		25.1,60.1 24.6,56.9 22.6,59.4 22.4,56.2 20.1,58.5 20.2,55.3 17.7,57.3 18.1,54.1 15.4,56 16.1,52.8 13.3,54.4 14.2,51.3 
		11.3,52.7 12.5,49.7 9.5,50.8 10.9,47.9 7.8,48.7 9.5,46 6.4,46.5 8.3,43.9 5.1,44.1 7.3,41.8 4.1,41.7 6.5,39.6 3.3,39.2 
		5.8,37.3 2.7,36.6 5.4,34.9 2.3,34 5.2,32.6 2.2,31.4 5.2,30.2 2.3,28.7 5.4,27.8 2.7,26.1 5.8,25.5 3.3,23.5 6.5,23.2 4.1,21 
		7.3,20.9 5.1,18.6 8.3,18.8 6.4,16.3 9.5,16.8 7.8,14 10.9,14.8 9.5,12 12.5,13 11.3,10.1 14.2,11.4 13.3,8.3 16.1,9.9 15.4,6.8 
		18.1,8.6 17.7,5.4 20.2,7.5 20.1,4.3 22.4,6.5 22.6,3.3 24.6,5.8 25.1,2.6 26.9,5.3 27.7,2.2 29.3,5 30.4,1.9 	"/>
	<polygon id="XMLID_2417_" fill="#04282D" points="31.7,3.2 33.1,0.1 34.2,3.3 35.9,0.3 36.7,3.6 38.6,0.9 39.2,4.2 41.4,1.6 
		41.6,5 44,2.6 43.9,6 46.5,3.8 46.1,7.2 48.9,5.2 48.2,8.6 51.2,6.9 50.2,10.2 53.3,8.7 52,11.9 55.2,10.8 53.7,13.8 57,13 
		55.2,15.8 58.5,15.3 56.5,18 59.9,17.8 57.6,20.3 61,20.4 58.5,22.7 61.9,23 59.1,25.1 62.5,25.8 59.6,27.6 62.9,28.6 59.8,30.1 
		63,31.4 59.8,32.6 62.9,34.2 59.6,35.1 62.5,37 59.1,37.6 61.9,39.7 58.5,40.1 61,42.4 57.6,42.4 59.9,44.9 56.5,44.7 58.5,47.4 
		55.2,46.9 57,49.8 53.7,48.9 55.2,52 52,50.8 53.3,54 50.2,52.6 51.2,55.8 48.2,54.2 48.9,57.5 46.1,55.5 46.5,58.9 43.9,56.7 
		44,60.1 41.6,57.7 41.4,61.1 39.2,58.5 38.6,61.9 36.7,59.1 35.9,62.4 34.2,59.4 33.1,62.6 31.7,59.5 30.3,62.6 29.2,59.4 
		27.5,62.4 26.7,59.1 24.7,61.9 24.2,58.5 22,61.1 21.8,57.7 19.4,60.1 19.5,56.7 16.8,58.9 17.2,55.5 14.4,57.5 15.1,54.2 
		12.2,55.8 13.1,52.6 10.1,54 11.3,50.8 8.1,52 9.7,48.9 6.4,49.8 8.2,46.9 4.8,47.4 6.9,44.7 3.5,44.9 5.8,42.4 2.4,42.4 4.9,40.1 
		1.5,39.7 4.2,37.6 0.9,37 3.8,35.1 0.5,34.2 3.5,32.6 0.4,31.4 3.5,30.1 0.5,28.6 3.8,27.6 0.9,25.8 4.2,25.1 1.5,23 4.9,22.7 
		2.4,20.4 5.8,20.3 3.5,17.8 6.9,18 4.8,15.3 8.2,15.8 6.4,13 9.7,13.8 8.1,10.8 11.3,11.9 10.1,8.7 13.1,10.2 12.2,6.9 15.1,8.6 
		14.4,5.2 17.2,7.2 16.8,3.8 19.5,6 19.4,2.6 21.8,5 22,1.6 24.2,4.2 24.7,0.9 26.7,3.6 27.5,0.3 29.2,3.3 30.3,0.1 	"/>
	<ellipse id="XMLID_2415_" fill="#FFFFFF" cx="31.6" cy="31.2" rx="23" ry="22.7"/>
	
		<ellipse id="XMLID_2414_" fill="none" stroke="#1A8689" stroke-width="1.3275" stroke-miterlimit="10" cx="31.6" cy="31.2" rx="26" ry="25.7"/>
	<g id="XMLID_2398_">
		<path id="XMLID_2399_" fill="#04282D" d="M36.3,38.3c-0.2,0.6-1,2-2.2,3.8c0.3,0.1,0.7,0.2,1,0.2c0.6,0.1,1.2,0.2,1.9,0.3
			c0.2,0,0.3,0,0.4-0.2c1.2-1.8,2.2-3.8,3.1-5.8c0.3-0.8,0.6-1.6,0.9-2.4c0-0.1,0.1-0.2,0.1-0.3c0.7,0.2,1.3,0.4,2,0.7
			c-0.1,0.4-0.2,0.7-0.4,1c-1,2.8-2.3,5.5-4,8c-0.1,0.2-0.3,0.4-0.4,0.6c-0.3,0.5-0.8,0.6-1.3,0.6c-2.2-0.2-4.2-0.7-6.3-1.4
			c-3.7-1.4-6.9-3.5-9.4-6.5c-0.3-0.4-0.4-0.8-0.2-1.2c0.2-0.4,0.6-0.6,1-0.6c1.9,0,3.8-0.4,5.5-1.1c1.6-0.6,3.1-1.4,4.2-2.8
			c0.3-0.4,0.6-0.8,0.9-1.3c0.6,0.3,1.2,0.7,1.8,1c-0.3,0.5-0.6,1-1,1.4c-0.9,1.1-2,1.9-3.2,2.6c-1.8,1-3.8,1.6-5.9,1.9
			c0,0-0.1,0-0.2,0c0.3,0.3,0.5,0.5,0.8,0.7c0.5,0.4,1,0.8,1.6,1.2c0.1,0.1,0.3,0.1,0.4,0.1c1.1-0.2,2-0.7,2.9-1.4
			C30.3,38,29.6,39,28.7,40c0.6,0.3,1.2,0.6,1.8,0.9c0.7,0.4,1.4,0.3,2.1,0c1.2-0.5,2.2-1.3,3.2-2.1C35.9,38.6,36.1,38.5,36.3,38.3z
			 M44.1,32.9c-3.4-1.5-6.7-3-10.1-4.5c0.3-0.6,0.7-1.1,1.3-1.5c1-0.6,2-0.6,3.1-0.2c1.3,0.6,2.7,1.2,4,1.8c1.6,0.7,2.3,2.3,1.8,4
			C44.2,32.6,44.1,32.7,44.1,32.9z M42.6,27.1c-1.1-0.5-2.1-0.9-3.2-1.4c0,0,0,0-0.1-0.1c0-0.1,0.1-0.2,0.1-0.2
			c1.3-2.4,2.6-4.9,3.9-7.3c0.2-0.4,0.5-0.5,0.9-0.5c0.4,0.1,0.8,0.2,1.1,0.6c0.2,0.2,0.2,0.5,0.1,0.7c-1,2.7-2,5.4-2.9,8
			C42.6,27,42.6,27,42.6,27.1z M26.5,29.6c0,1.5-1.3,2.6-2.7,2.6c-1.5,0-2.6-1.3-2.6-2.7c0-1.4,1.3-2.6,2.7-2.6
			C25.4,27,26.6,28.2,26.5,29.6z M19.7,21.7c0.9,0,1.6,0.7,1.6,1.6c0,0.9-0.7,1.6-1.6,1.6c-0.9,0-1.6-0.7-1.6-1.6
			C18.1,22.4,18.8,21.7,19.7,21.7z M23.4,23.8c0-0.6,0.5-1.1,1.1-1c0.6,0,1.1,0.5,1.1,1.1c0,0.6-0.5,1-1.1,1
			C23.9,24.9,23.4,24.4,23.4,23.8z"/>
	</g>
</g>
</svg>
