<?xml version="1.0" encoding="utf-8"?>
<!-- Generator: Adobe Illustrator 19.0.0, SVG Export Plug-In . SVG Version: 6.00 Build 0)  -->
<svg version="1.1" id="Слой_1" xmlns="http://www.w3.org/2000/svg" xmlns:xlink="http://www.w3.org/1999/xlink" x="0px" y="0px"
	 viewBox="-265 390 63.4 62.9" enable-background="new -265 390 63.4 62.9" xml:space="preserve">
<polygon id="XMLID_2418_" fill="#485560" points="-233.2,394.7 -231.8,391.8 -230.7,394.9 -229.2,392.1 -228.4,395.2 -226.6,392.5 
	-226.1,395.7 -224,393.2 -223.8,396.4 -221.5,394.2 -221.6,397.4 -219.2,395.3 -219.5,398.5 -216.9,396.7 -217.5,399.8 
	-214.7,398.2 -215.7,401.3 -212.8,400 -214,403 -210.8,401.9 -212.4,404.8 -209.2,404 -210.9,406.8 -207.7,406.3 -209.7,408.8 
	-206.5,408.6 -208.6,410.9 -205.4,411 -207.8,413.2 -204.6,413.5 -207.2,415.5 -204,416.1 -206.7,417.8 -203.7,418.7 -206.5,420.2 
	-203.6,421.4 -206.5,422.6 -203.7,424.1 -206.7,425 -204,426.7 -207.2,427.4 -204.6,429.3 -207.8,429.7 -205.4,431.8 -208.6,431.9 
	-206.5,434.2 -209.7,434 -207.7,436.6 -210.9,436.1 -209.2,438.8 -212.4,438 -210.8,440.9 -214,439.8 -212.8,442.8 -215.7,441.4 
	-214.7,444.6 -217.5,442.9 -216.9,446.2 -219.5,444.3 -219.2,447.5 -221.6,445.5 -221.5,448.7 -223.8,446.4 -224,449.6 
	-226.1,447.1 -226.6,450.3 -228.4,447.7 -229.2,450.8 -230.7,448 -231.8,451 -233.2,448.1 -234.5,451 -235.6,448 -237.2,450.8 
	-238,447.7 -239.8,450.3 -240.3,447.1 -242.3,449.6 -242.5,446.4 -244.8,448.7 -244.7,445.5 -247.2,447.5 -246.8,444.3 
	-249.5,446.2 -248.8,442.9 -251.6,444.6 -250.7,441.4 -253.6,442.8 -252.4,439.8 -255.5,440.9 -254.1,438 -257.2,438.8 
	-255.5,436.1 -258.6,436.6 -256.7,434 -259.9,434.2 -257.7,431.9 -260.9,431.8 -258.5,429.7 -261.7,429.3 -259.2,427.4 
	-262.3,426.7 -259.6,425 -262.7,424.1 -259.8,422.6 -262.8,421.4 -259.8,420.2 -262.7,418.7 -259.6,417.8 -262.3,416.1 
	-259.2,415.5 -261.7,413.5 -258.5,413.2 -260.9,411 -257.7,410.9 -259.9,408.6 -256.7,408.8 -258.6,406.3 -255.5,406.8 -257.2,404 
	-254.1,404.8 -255.5,401.9 -252.4,403 -253.6,400 -250.7,401.3 -251.6,398.2 -248.8,399.8 -249.5,396.7 -246.8,398.5 -247.2,395.3 
	-244.7,397.4 -244.8,394.2 -242.5,396.4 -242.3,393.2 -240.3,395.7 -239.8,392.5 -238,395.2 -237.2,392.1 -235.6,394.9 
	-234.5,391.8 "/>
<polygon id="XMLID_2417_" fill="#04282D" points="-233.2,393.1 -231.7,390 -230.6,393.2 -228.9,390.2 -228.1,393.5 -226.2,390.8 
	-225.6,394.1 -223.4,391.5 -223.2,394.9 -220.8,392.5 -220.9,395.9 -218.3,393.7 -218.7,397.1 -215.9,395.1 -216.6,398.5 
	-213.6,396.8 -214.6,400.1 -211.4,398.6 -212.8,401.8 -209.5,400.7 -211,403.8 -207.7,403 -209.5,405.8 -206.2,405.3 -208.2,408 
	-204.8,407.8 -207.1,410.3 -203.7,410.4 -206.2,412.7 -202.8,413 -205.6,415.1 -202.2,415.8 -205.1,417.6 -201.8,418.6 
	-204.9,420.1 -201.7,421.4 -204.9,422.6 -201.8,424.3 -205.1,425.2 -202.2,427.1 -205.6,427.7 -202.8,429.8 -206.2,430.2 
	-203.7,432.5 -207.1,432.5 -204.8,435 -208.2,434.8 -206.2,437.5 -209.5,437 -207.7,439.9 -211,439 -209.5,442.1 -212.8,440.9 
	-211.4,444.1 -214.6,442.7 -213.6,446 -216.6,444.4 -215.9,447.7 -218.7,445.7 -218.3,449.1 -220.9,446.9 -220.8,450.3 
	-223.2,447.9 -223.4,451.3 -225.6,448.7 -226.2,452.1 -228.1,449.3 -228.9,452.6 -230.6,449.6 -231.7,452.8 -233.2,449.7 
	-234.6,452.8 -235.7,449.6 -237.4,452.6 -238.2,449.3 -240.2,452.1 -240.7,448.7 -242.9,451.3 -243.1,447.9 -245.5,450.3 
	-245.4,446.9 -248.1,449.1 -247.7,445.7 -250.5,447.7 -249.8,444.4 -252.7,446 -251.8,442.7 -254.9,444.1 -253.6,440.9 
	-256.9,442.1 -255.3,439 -258.6,439.9 -256.8,437 -260.2,437.5 -258.1,434.8 -261.5,435 -259.2,432.5 -262.6,432.5 -260.1,430.2 
	-263.5,429.8 -260.8,427.7 -264.1,427.1 -261.2,425.2 -264.5,424.3 -261.5,422.6 -264.6,421.4 -261.5,420.1 -264.5,418.6 
	-261.2,417.6 -264.1,415.8 -260.8,415.1 -263.5,413 -260.1,412.7 -262.6,410.4 -259.2,410.3 -261.5,407.8 -258.1,408 -260.2,405.3 
	-256.8,405.8 -258.6,403 -255.3,403.8 -256.9,400.7 -253.6,401.8 -254.9,398.6 -251.8,400.1 -252.7,396.8 -249.8,398.5 
	-250.5,395.1 -247.7,397.1 -248.1,393.7 -245.4,395.9 -245.5,392.5 -243.1,394.9 -242.9,391.5 -240.7,394.1 -240.2,390.8 
	-238.2,393.5 -237.4,390.2 -235.7,393.2 -234.6,390 "/>
<ellipse id="XMLID_2415_" fill="#FFFFFF" stroke="#FFD366" stroke-miterlimit="10" cx="-233.3" cy="421.2" rx="23.1" ry="22.8"/>
<ellipse id="XMLID_2414_" fill="none" stroke="#1A8689" stroke-width="1.3339" stroke-miterlimit="10" cx="-233.3" cy="421.2" rx="26.1" ry="25.8"/>
<g id="XMLID_2398_">
	<path id="XMLID_2399_" fill="#04282D" d="M-229.4,427.1c-0.2,0.6-1,2-2.2,3.8c0.3,0.1,0.7,0.2,1,0.2c0.6,0.1,1.2,0.2,1.9,0.3
		c0.2,0,0.3,0,0.4-0.2c1.2-1.8,2.2-3.8,3.1-5.8c0.3-0.8,0.6-1.6,0.9-2.4c0-0.1,0.1-0.2,0.1-0.3c0.7,0.2,1.3,0.4,2,0.7
		c-0.1,0.4-0.2,0.7-0.4,1c-1,2.8-2.3,5.5-4,8c-0.1,0.2-0.3,0.4-0.4,0.6c-0.3,0.5-0.8,0.6-1.3,0.6c-2.2-0.2-4.2-0.7-6.3-1.4
		c-3.7-1.4-6.9-3.5-9.4-6.5c-0.3-0.4-0.4-0.8-0.2-1.2c0.2-0.4,0.6-0.6,1-0.6c1.9,0,3.8-0.4,5.5-1.1c1.6-0.6,3.1-1.4,4.2-2.8
		c0.3-0.4,0.6-0.8,0.9-1.3c0.6,0.3,1.2,0.7,1.8,1c-0.3,0.5-0.6,1-1,1.4c-0.9,1.1-2,1.9-3.2,2.6c-1.8,1-3.8,1.6-5.9,1.9
		c0,0-0.1,0-0.2,0c0.3,0.3,0.5,0.5,0.8,0.7c0.5,0.4,1,0.8,1.6,1.2c0.1,0.1,0.3,0.1,0.4,0.1c1.1-0.2,2-0.7,2.9-1.4
		c0,0.6-0.7,1.6-1.6,2.6c0.6,0.3,1.2,0.6,1.8,0.9c0.7,0.4,1.4,0.3,2.1,0c1.2-0.5,2.2-1.3,3.2-2.1
		C-229.9,427.4-229.6,427.3-229.4,427.1z M-221.6,421.6c-3.4-1.5-6.7-3-10.1-4.5c0.3-0.6,0.7-1.1,1.3-1.5c1-0.6,2-0.6,3.1-0.2
		c1.3,0.6,2.7,1.2,4,1.8c1.6,0.7,2.3,2.3,1.8,4C-221.5,421.3-221.6,421.4-221.6,421.6z M-223.1,415.8c-1.1-0.5-2.1-0.9-3.2-1.4
		c0,0,0,0-0.1-0.1c0-0.1,0.1-0.2,0.1-0.2c1.3-2.4,2.6-4.9,3.9-7.3c0.2-0.4,0.5-0.5,0.9-0.5c0.4,0.1,0.8,0.2,1.1,0.6
		c0.2,0.2,0.2,0.5,0.1,0.7c-1,2.7-2,5.4-2.9,8C-223.1,415.7-223.1,415.7-223.1,415.8z M-239.3,418.3c0,1.5-1.3,2.6-2.7,2.6
		c-1.5,0-2.6-1.3-2.6-2.7s1.3-2.6,2.7-2.6C-240.4,415.7-239.2,416.9-239.3,418.3z M-246.1,410.4c0.9,0,1.6,0.7,1.6,1.6
		c0,0.9-0.7,1.6-1.6,1.6c-0.9,0-1.6-0.7-1.6-1.6C-247.7,411.1-247,410.4-246.1,410.4z M-242.4,412.5c0-0.6,0.5-1.1,1.1-1
		c0.6,0,1.1,0.5,1.1,1.1c0,0.6-0.5,1-1.1,1S-242.4,413.1-242.4,412.5z"/>
</g>
<polygon id="XMLID_5045_" fill="#FCAF32" points="-233.6,438.6 -233.1,437.6 -232.7,438.6 -231.6,438.8 -232.4,439.5 -232.2,440.6 
	-233.2,440.1 -234.1,440.5 -233.9,439.5 -234.7,438.7 "/>
<polygon id="XMLID_5043_" fill="#FCAF32" points="-228.3,435 -227.8,434 -227.3,435 -226.3,435.2 -227.1,436 -226.9,437 
	-227.8,436.5 -228.8,437 -228.6,435.9 -229.4,435.2 "/>
<polygon id="XMLID_5042_" fill="#FCAF32" points="-239,435 -238.5,434 -238,435 -236.9,435.2 -237.7,436 -237.5,437 -238.5,436.5 
	-239.5,437 -239.3,435.9 -240,435.2 "/>
</svg>
