<svg xmlns="http://www.w3.org/2000/svg" viewBox="0 0 459.1 266.8">
  <path d="M16.7 263.2c0-2-1.6-3.6-3.6-3.6s-3.6 1.6-3.6 3.6 1.6 3.6 3.6 3.6 3.6-1.6 3.6-3.6zM15.4 245.4c0-1.3-1.1-2.4-2.4-2.4s-2.4 1.1-2.4 2.4c0 1.3 1.1 2.4 2.4 2.4s2.4-1.1 2.4-2.4zM15.3 227.7c0-1.2-1-2.2-2.2-2.2-1.2 0-2.2 1-2.2 2.2 0 1.2 1 2.2 2.2 2.2 1.2 0 2.2-1 2.2-2.2zM14.4 192.2c0-.8-.6-1.4-1.4-1.4-.8 0-1.4.6-1.4 1.4 0 .8.6 1.4 1.4 1.4.8 0 1.4-.6 1.4-1.4zM15 174.5c0-1.1-.9-2-2-2s-2 .9-2 2 .9 2 2 2c1.1-.1 2-.9 2-2zM15.5 156.8c0-1.3-1.1-2.4-2.4-2.4s-2.4 1.1-2.4 2.4c0 1.3 1.1 2.4 2.4 2.4s2.4-1.1 2.4-2.4zM16 139c0-1.6-1.3-2.9-2.9-2.9-1.6 0-3 1.3-3 2.9 0 1.6 1.3 3 3 3 1.6 0 2.9-1.3 2.9-3zM15.7 121.3c0-1.5-1.2-2.7-2.7-2.7-1.5 0-2.6 1.2-2.6 2.7 0 1.5 1.2 2.7 2.6 2.7 1.5-.1 2.7-1.3 2.7-2.7zM16.2 103.5c0-1.7-1.4-3.1-3.2-3.1-1.7 0-3.2 1.4-3.2 3.1 0 1.7 1.4 3.1 3.2 3.1 1.8.1 3.2-1.3 3.2-3.1zM16.8 85.8c0-2.1-1.7-3.8-3.8-3.8s-3.8 1.7-3.8 3.8c0 2.1 1.7 3.8 3.8 3.8s3.8-1.7 3.8-3.8zM17.4 68.1c0-2.4-1.9-4.4-4.4-4.4s-4.4 2-4.4 4.4c0 2.4 2 4.4 4.4 4.4s4.4-2 4.4-4.4zM18.1 50.3c0-2.8-2.3-5.1-5.1-5.1s-5.1 2.3-5.1 5.1 2.3 5.1 5.1 5.1c2.9 0 5.1-2.3 5.1-5.1zM18.9 32.6c0-3.2-2.6-5.9-5.9-5.9s-5.9 2.6-5.9 5.9c0 3.2 2.6 5.8 5.9 5.8s5.9-2.6 5.9-5.8zM23.7 14.9c0-5.9-4.8-10.6-10.6-10.6C7.2 4.3 2.4 9 2.4 14.9c0 5.9 4.8 10.6 10.6 10.6 5.9 0 10.7-4.8 10.7-10.6zM32.1 263.2c0-.7-.6-1.3-1.3-1.3-.7 0-1.3.6-1.3 1.3 0 .7.6 1.3 1.3 1.3.7 0 1.3-.6 1.3-1.3zM31.6 245.4c0-.5-.4-.8-.8-.8-.5 0-.8.4-.8.8 0 .5.4.8.8.8.5.1.8-.3.8-.8zM31.5 227.7c0-.4-.3-.7-.7-.7-.4 0-.7.3-.7.7 0 .4.3.7.7.7.4 0 .7-.3.7-.7zM31.2 210c0-.2-.2-.4-.4-.4s-.4.2-.4.4.2.4.4.4.4-.2.4-.4zM32 192.2c0-.6-.5-1.2-1.2-1.2s-1.2.5-1.2 1.2.5 1.2 1.2 1.2 1.2-.5 1.2-1.2zM32.2 174.5c0-.8-.6-1.4-1.4-1.4-.8 0-1.4.6-1.4 1.4 0 .8.6 1.4 1.4 1.4.8 0 1.4-.6 1.4-1.4zM32.5 156.8c0-.9-.7-1.7-1.7-1.7-.9 0-1.7.8-1.7 1.7 0 .9.7 1.7 1.7 1.7.9-.1 1.7-.8 1.7-1.7zM32.8 139c0-1.1-.9-2-2-2s-2 .9-2 2 .9 2 2 2 2-.9 2-2zM33.3 121.3c0-1.4-1.1-2.5-2.5-2.5s-2.5 1.1-2.5 2.5 1.1 2.5 2.5 2.5c1.3-.1 2.5-1.2 2.5-2.5zM32.8 103.5c0-1.1-.9-2-2-2s-2 .9-2 2 .9 2 2 2c1.1.1 2-.8 2-2zM35 85.8c0-2.3-1.9-4.2-4.2-4.2-2.3 0-4.2 1.9-4.2 4.2 0 2.3 1.9 4.2 4.2 4.2 2.3 0 4.2-1.9 4.2-4.2zM35.6 68.1c0-2.6-2.1-4.8-4.8-4.8-2.6 0-4.8 2.1-4.8 4.8 0 2.6 2.1 4.8 4.8 4.8 2.6 0 4.8-2.2 4.8-4.8zM36.5 50.3c0-3.1-2.6-5.7-5.7-5.7s-5.7 2.6-5.7 5.7c0 3.2 2.5 5.7 5.7 5.7s5.7-2.5 5.7-5.7zM37.3 32.6c0-3.6-2.9-6.5-6.5-6.5s-6.5 2.9-6.5 6.5 2.9 6.5 6.5 6.5 6.5-2.9 6.5-6.5z" opacity=".1"/>
  <path d="M38.9 14.9c0-4.5-3.6-8.1-8.1-8.1-4.4 0-8.1 3.6-8.1 8.1s3.6 8.1 8.1 8.1c4.5-.1 8.1-3.7 8.1-8.1zM49.2 245.4c0-.4-.3-.6-.6-.6-.4 0-.7.3-.7.6s.3.6.7.6c.3.1.6-.2.6-.6zM49.3 227.7c0-.4-.3-.7-.7-.7-.4 0-.7.3-.7.7 0 .4.3.7.7.7.3 0 .7-.3.7-.7zM50.2 210c0-.9-.7-1.6-1.6-1.6-.9 0-1.6.7-1.6 1.6 0 .9.7 1.6 1.6 1.6.8 0 1.6-.8 1.6-1.6zM50.5 192.2c0-1.1-.9-2-2-2s-2 .9-2 2 .9 2 2 2 2-.9 2-2zM51 174.5c0-1.4-1.1-2.5-2.5-2.5s-2.5 1.1-2.5 2.5 1.1 2.5 2.5 2.5 2.5-1.1 2.5-2.5zM53.1 156.8c0-2.5-2-4.6-4.6-4.6-2.5 0-4.6 2-4.6 4.6 0 2.5 2 4.6 4.6 4.6 2.5-.1 4.6-2.1 4.6-4.6zM53.7 139c0-2.8-2.3-5.2-5.2-5.2-2.9 0-5.2 2.3-5.2 5.2 0 2.9 2.3 5.2 5.2 5.2 2.9 0 5.2-2.3 5.2-5.2zM54.4 121.3c0-3.3-2.6-5.9-5.9-5.9-3.3 0-5.9 2.6-5.9 5.9s2.6 5.9 5.9 5.9c3.3 0 5.9-2.7 5.9-5.9zM53.3 103.5c0-2.6-2.1-4.7-4.7-4.7s-4.7 2.1-4.7 4.7 2.1 4.7 4.7 4.7c2.5.1 4.7-2 4.7-4.7zM53.8 85.8c0-2.9-2.4-5.3-5.3-5.3s-5.3 2.4-5.3 5.3 2.4 5.3 5.3 5.3 5.3-2.4 5.3-5.3zM53.6 68.1c0-2.8-2.3-5.1-5.1-5.1s-5.1 2.3-5.1 5.1 2.3 5.1 5.1 5.1 5.1-2.3 5.1-5.1zM53.9 50.3c0-3-2.4-5.4-5.4-5.4-3 0-5.4 2.4-5.4 5.4 0 3 2.4 5.4 5.4 5.4 3 .1 5.4-2.4 5.4-5.4zM54.3 32.6c0-3.2-2.6-5.8-5.7-5.8-3.2 0-5.8 2.6-5.8 5.8 0 3.2 2.6 5.8 5.8 5.8 3.1 0 5.7-2.6 5.7-5.8zM54.8 14.9c0-3.5-2.8-6.3-6.3-6.3s-6.3 2.8-6.3 6.3 2.8 6.3 6.3 6.3 6.3-2.8 6.3-6.3zM67 245.4c0-.4-.3-.7-.7-.7-.4 0-.7.3-.7.7 0 .4.3.7.7.7.4 0 .7-.3.7-.7zM68.1 227.7c0-1-.8-1.8-1.8-1.8s-1.8.8-1.8 1.8.8 1.8 1.8 1.8 1.8-.8 1.8-1.8zM68.9 210c0-1.5-1.2-2.7-2.6-2.7-1.5 0-2.7 1.2-2.7 2.7 0 1.5 1.2 2.7 2.7 2.7 1.4-.1 2.6-1.3 2.6-2.7zM69.6 192.2c0-1.8-1.5-3.3-3.3-3.3-1.8 0-3.3 1.5-3.3 3.3 0 1.8 1.5 3.3 3.3 3.3 1.8 0 3.3-1.5 3.3-3.3zM70.2 174.5c0-2.2-1.8-4-4-4s-4 1.8-4 4 1.8 4 4 4c2.3 0 4-1.8 4-4zM70.8 156.8c0-2.5-2-4.6-4.6-4.6-2.5 0-4.6 2-4.6 4.6 0 2.5 2 4.6 4.6 4.6 2.6-.1 4.6-2.1 4.6-4.6zM72.2 139c0-3.3-2.6-5.9-5.9-5.9-3.3 0-5.9 2.6-5.9 5.9 0 3.3 2.6 5.9 5.9 5.9 3.2 0 5.9-2.6 5.9-5.9zM72.6 121.3c0-3.5-2.8-6.3-6.3-6.3s-6.3 2.8-6.3 6.3 2.8 6.3 6.3 6.3 6.3-2.8 6.3-6.3zM73 103.5a6.7 6.7 0 1 0-6.7 6.7c3.7.1 6.7-2.9 6.7-6.7zM71.4 85.8c0-2.9-2.3-5.2-5.2-5.2-2.8 0-5.2 2.3-5.2 5.2 0 2.9 2.3 5.2 5.2 5.2 2.9 0 5.2-2.3 5.2-5.2zM71.7 68.1c0-3-2.4-5.4-5.4-5.4-3 0-5.4 2.4-5.4 5.4 0 3 2.4 5.4 5.4 5.4 2.9 0 5.4-2.4 5.4-5.4zM72.1 50.3c0-3.2-2.6-5.8-5.8-5.8-3.2 0-5.9 2.6-5.9 5.8 0 3.2 2.6 5.9 5.9 5.9 3.2 0 5.8-2.6 5.8-5.9zM72.5 32.6c0-3.4-2.8-6.2-6.2-6.2-3.4 0-6.2 2.8-6.2 6.2 0 3.4 2.8 6.2 6.2 6.2 3.4 0 6.2-2.8 6.2-6.2zM72.9 14.9c0-3.6-2.9-6.6-6.6-6.6-3.6 0-6.6 3-6.6 6.6 0 3.6 3 6.6 6.6 6.6 3.6 0 6.6-3 6.6-6.6zM84.9 263.2c0-.5-.4-.9-.9-.9s-.9.4-.9.9.4.9.9.9.9-.4.9-.9zM85.7 245.4c0-.9-.8-1.7-1.7-1.7-.9 0-1.7.8-1.7 1.7 0 .9.7 1.7 1.7 1.7.9 0 1.7-.8 1.7-1.7zM85.9 227.7c0-1.1-.9-1.9-1.9-1.9-1.1 0-1.9.9-1.9 1.9 0 1.1.9 1.9 1.9 1.9 1 0 1.9-.9 1.9-1.9zM87.3 210c0-1.8-1.5-3.3-3.3-3.3-1.8 0-3.3 1.5-3.3 3.3 0 1.8 1.5 3.3 3.3 3.3 1.8-.1 3.3-1.5 3.3-3.3zM88.9 192.2c0-2.7-2.2-4.9-4.9-4.9s-4.9 2.2-4.9 4.9 2.2 4.9 4.9 4.9 4.9-2.2 4.9-4.9zM89.6 174.5c0-3.1-2.5-5.6-5.6-5.6s-5.6 2.5-5.6 5.6c0 3.1 2.5 5.6 5.6 5.6s5.6-2.5 5.6-5.6zM90.3 156.8c0-3.5-2.8-6.3-6.3-6.3s-6.3 2.8-6.3 6.3 2.8 6.3 6.3 6.3 6.3-2.8 6.3-6.3zM91 139c0-3.9-3.1-7-7-7s-7 3.1-7 7 3.2 7 7 7 7-3.1 7-7zM90.7 121.3a6.7 6.7 0 1 0-13.4 0 6.7 6.7 0 0 0 13.4 0zM91.2 103.5c0-4-3.2-7.2-7.2-7.2s-7.2 3.2-7.2 7.2 3.2 7.2 7.2 7.2c4 .1 7.2-3.2 7.2-7.2zM87.8 85.8c0-2.1-1.7-3.8-3.8-3.8-2.1 0-3.8 1.7-3.8 3.8 0 2.1 1.7 3.8 3.8 3.8 2.1 0 3.8-1.7 3.8-3.8zM89.7 68.1c0-3.2-2.6-5.8-5.8-5.8s-5.7 2.6-5.7 5.8c0 3.2 2.6 5.7 5.7 5.7s5.8-2.5 5.8-5.7zM90 50.3c0-3.3-2.7-6-6-6s-6 2.7-6 6 2.7 6.1 6 6.1 6-2.7 6-6.1zM90.4 32.6c0-3.6-2.9-6.4-6.4-6.4-3.6 0-6.4 2.9-6.4 6.4S80.5 39 84 39c3.5.1 6.4-2.8 6.4-6.4zM90.9 14.9c0-3.8-3.1-6.9-6.9-6.9-3.8 0-6.9 3.1-6.9 6.9 0 3.8 3.1 6.9 6.9 6.9 3.8 0 6.9-3.1 6.9-6.9zM104.5 263.2c0-1.5-1.2-2.8-2.8-2.8-1.5 0-2.8 1.2-2.8 2.8 0 1.5 1.2 2.8 2.8 2.8 1.6-.1 2.8-1.3 2.8-2.8zM104.9 245.4c0-1.8-1.4-3.2-3.2-3.2-1.8 0-3.2 1.4-3.2 3.2 0 1.8 1.4 3.2 3.2 3.2 1.8 0 3.2-1.4 3.2-3.2zM105.6 227.7c0-2.1-1.7-3.8-3.8-3.8-2.1 0-3.8 1.7-3.8 3.8 0 2.1 1.7 3.8 3.8 3.8 2.1 0 3.8-1.7 3.8-3.8zM105.4 210c0-2-1.7-3.7-3.7-3.7S98 207.9 98 210c0 2 1.6 3.7 3.7 3.7 2.1-.1 3.7-1.7 3.7-3.7zM107.3 192.2c0-3.1-2.5-5.6-5.6-5.6-3.1 0-5.6 2.5-5.6 5.6 0 3.1 2.5 5.6 5.6 5.6 3.1 0 5.6-2.5 5.6-5.6zM108.1 174.5c0-3.5-2.8-6.3-6.3-6.3s-6.3 2.8-6.3 6.3 2.8 6.3 6.3 6.3c3.4 0 6.3-2.8 6.3-6.3zM108.9 156.8c0-3.9-3.2-7.1-7.1-7.1-4 0-7.1 3.2-7.1 7.1 0 3.9 3.2 7.1 7.1 7.1 3.9 0 7.1-3.2 7.1-7.1zM109.5 139c0-4.3-3.5-7.8-7.8-7.8s-7.8 3.5-7.8 7.8 3.5 7.8 7.8 7.8 7.8-3.5 7.8-7.8zM110.2 121.3c0-4.7-3.8-8.5-8.5-8.5s-8.5 3.8-8.5 8.5 3.8 8.5 8.5 8.5 8.5-3.8 8.5-8.5zM106.5 103.5c0-2.7-2.2-4.8-4.8-4.8-2.7 0-4.8 2.2-4.8 4.8s2.2 4.8 4.8 4.8c2.7.1 4.8-2.1 4.8-4.8zM105.8 85.8c0-2.3-1.8-4.1-4.1-4.1s-4.1 1.8-4.1 4.1 1.8 4.1 4.1 4.1 4.1-1.8 4.1-4.1zM107.8 68.1c0-3.3-2.7-6.1-6-6.1-3.4 0-6.1 2.7-6.1 6.1 0 3.3 2.7 6 6.1 6 3.3 0 6-2.7 6-6zM108.2 50.3c0-3.6-2.9-6.4-6.4-6.4-3.6 0-6.5 2.9-6.5 6.4 0 3.6 2.9 6.4 6.5 6.4 3.5.1 6.4-2.8 6.4-6.4zM108.5 32.6c0-3.8-3-6.8-6.8-6.8s-6.8 3-6.8 6.8c0 3.7 3 6.8 6.8 6.8s6.8-3 6.8-6.8zM108.3 14.9c0-3.6-2.9-6.6-6.6-6.6-3.6 0-6.6 3-6.6 6.6 0 3.6 3 6.6 6.6 6.6 3.7 0 6.6-3 6.6-6.6zM122.3 263.2c0-1.6-1.3-2.9-2.8-2.9-1.6 0-2.9 1.3-2.9 2.9 0 1.6 1.3 2.9 2.9 2.9 1.5-.1 2.8-1.4 2.8-2.9zM123.1 245.4c0-2-1.6-3.6-3.6-3.6s-3.6 1.6-3.6 3.6 1.6 3.6 3.6 3.6 3.6-1.6 3.6-3.6zM123.6 227.7c0-2.3-1.9-4.1-4.1-4.1s-4.1 1.9-4.1 4.1c0 2.3 1.9 4.1 4.1 4.1s4.1-1.8 4.1-4.1zM123.5 210c0-2.3-1.8-4.1-4.1-4.1s-4.1 1.8-4.1 4.1c0 2.2 1.8 4.1 4.1 4.1 2.3-.1 4.1-1.9 4.1-4.1zM124.4 192.2c0-2.7-2.2-4.9-4.9-4.9s-4.9 2.2-4.9 4.9 2.2 4.9 4.9 4.9 4.9-2.2 4.9-4.9zM126.8 174.5c0-4.1-3.3-7.4-7.4-7.4-4.1 0-7.4 3.3-7.4 7.4 0 4.1 3.3 7.4 7.4 7.4 4.1 0 7.4-3.3 7.4-7.4zM127.9 156.8c0-4.7-3.8-8.4-8.4-8.4-4.6 0-8.4 3.8-8.4 8.4 0 4.6 3.8 8.4 8.4 8.4 4.6 0 8.4-3.8 8.4-8.4zM128.7 139c0-5.1-4.1-9.2-9.2-9.2s-9.2 4.1-9.2 9.2 4.1 9.2 9.2 9.2 9.2-4.1 9.2-9.2z" opacity=".1"/>
  <path d="M129.3 121.3c0-5.4-4.4-9.8-9.8-9.8s-9.8 4.4-9.8 9.8 4.4 9.8 9.8 9.8 9.8-4.4 9.8-9.8zM126.3 103.5c0-3.8-3.1-6.9-6.9-6.9-3.8 0-6.9 3.1-6.9 6.9 0 3.8 3.1 6.9 6.9 6.9 3.9 0 6.9-3 6.9-6.9zM123.2 85.8c0-2.1-1.7-3.8-3.8-3.8-2.1 0-3.8 1.7-3.8 3.8 0 2.1 1.7 3.8 3.8 3.8 2.2 0 3.8-1.7 3.8-3.8zM122.8 68.1c0-1.8-1.5-3.3-3.3-3.3s-3.3 1.5-3.3 3.3c0 1.8 1.5 3.3 3.3 3.3s3.3-1.5 3.3-3.3zM128 50.3c0-4.7-3.8-8.5-8.5-8.5s-8.5 3.8-8.5 8.5 3.8 8.5 8.5 8.5c4.7.1 8.5-3.7 8.5-8.5zM127.6 32.6c0-4.5-3.6-8.2-8.2-8.2-4.5 0-8.2 3.6-8.2 8.2 0 4.5 3.7 8.2 8.2 8.2 4.6 0 8.2-3.7 8.2-8.2zM128.4 14.9c0-4.9-4-8.9-8.9-8.9-5 0-9 4-9 8.9s4 9 9 9c4.9-.1 8.9-4.1 8.9-9zM139 263.2c0-1-.8-1.8-1.8-1.8s-1.8.8-1.8 1.8.8 1.8 1.8 1.8c1-.1 1.8-.9 1.8-1.8zM139.4 245.4c0-1.2-1-2.2-2.2-2.2-1.2 0-2.2 1-2.2 2.2 0 1.2 1 2.2 2.2 2.2 1.2 0 2.2-1 2.2-2.2zM139.9 227.7c0-1.5-1.2-2.7-2.7-2.7-1.5 0-2.6 1.2-2.6 2.7 0 1.5 1.2 2.7 2.6 2.7 1.5-.1 2.7-1.2 2.7-2.7zM140.4 210c0-1.8-1.4-3.2-3.2-3.2-1.8 0-3.2 1.4-3.2 3.2s1.4 3.2 3.2 3.2c1.8-.1 3.2-1.5 3.2-3.2zM140.1 192.2c0-1.6-1.3-2.9-2.9-2.9-1.6 0-2.9 1.3-2.9 2.9 0 1.6 1.3 2.9 2.9 2.9 1.6 0 2.9-1.3 2.9-2.9zM142.2 174.5c0-2.8-2.2-5-5-5s-5 2.2-5 5 2.2 5 5 5 5-2.2 5-5zM143.3 156.8c0-3.3-2.7-6.1-6.1-6.1-3.3 0-6.1 2.7-6.1 6.1 0 3.3 2.7 6 6.1 6 3.3 0 6.1-2.7 6.1-6zM144.2 139c0-3.9-3.1-7-7-7s-7 3.1-7 7 3.1 7 7 7 7-3.1 7-7z" opacity=".1"/>
  <path d="M145.2 121.3c0-4.4-3.6-8-8-8s-8 3.6-8 8 3.6 8 8 8 8-3.6 8-8zM141.6 103.5c0-2.4-2-4.4-4.4-4.4-2.4 0-4.4 2-4.4 4.4 0 2.4 2 4.4 4.4 4.4 2.4.1 4.4-1.9 4.4-4.4zM140.5 85.8c0-1.8-1.5-3.3-3.3-3.3-1.8 0-3.3 1.5-3.3 3.3 0 1.8 1.5 3.3 3.3 3.3 1.8 0 3.3-1.5 3.3-3.3zM139.9 68.1c0-1.5-1.2-2.7-2.7-2.7-1.5 0-2.6 1.2-2.6 2.7 0 1.5 1.2 2.6 2.6 2.6 1.5 0 2.7-1.1 2.7-2.6zM140.3 50.3c0-1.7-1.4-3.1-3.1-3.1-1.7 0-3.1 1.4-3.1 3.1 0 1.7 1.4 3.1 3.1 3.1 1.7 0 3.1-1.3 3.1-3.1zM142.6 32.6c0-3-2.4-5.4-5.4-5.4-3 0-5.4 2.4-5.4 5.4s2.4 5.4 5.4 5.4c3 0 5.4-2.4 5.4-5.4zM140.3 14.9c0-1.7-1.4-3.1-3.1-3.1-1.7 0-3.1 1.4-3.1 3.1 0 1.7 1.4 3.2 3.1 3.2 1.7-.1 3.1-1.5 3.1-3.2zM156.6 263.2c0-1-.8-1.7-1.7-1.7-.9 0-1.7.8-1.7 1.7 0 1 .8 1.7 1.7 1.7 1 0 1.7-.8 1.7-1.7zM157 245.4c0-1.2-.9-2.1-2.1-2.1-1.2 0-2.1 1-2.1 2.1 0 1.2 1 2.1 2.1 2.1 1.2 0 2.1-.9 2.1-2.1zM157.5 227.7c0-1.4-1.1-2.5-2.6-2.5-1.4 0-2.6 1.1-2.6 2.5s1.1 2.6 2.6 2.6c1.4-.1 2.6-1.2 2.6-2.6zM158 210c0-1.7-1.4-3.1-3.1-3.1-1.7 0-3.1 1.4-3.1 3.1 0 1.7 1.4 3.1 3.1 3.1 1.7 0 3.1-1.4 3.1-3.1zM157.7 192.2c0-1.5-1.2-2.7-2.8-2.7-1.5 0-2.7 1.2-2.7 2.7 0 1.5 1.2 2.8 2.7 2.8 1.6 0 2.8-1.3 2.8-2.8zM158.3 174.5c0-1.9-1.5-3.4-3.4-3.4s-3.4 1.5-3.4 3.4 1.5 3.4 3.4 3.4 3.4-1.5 3.4-3.4zM160.9 156.8c0-3.3-2.7-6-6-6s-6 2.7-6 6 2.7 6 6 6c3.4 0 6-2.7 6-6zM161.8 139c0-3.8-3.1-6.9-6.9-6.9-3.8 0-6.9 3.1-6.9 6.9 0 3.8 3.1 6.9 6.9 6.9 3.8 0 6.9-3.1 6.9-6.9zM162.8 121.3c0-4.3-3.5-7.9-7.9-7.9s-7.9 3.5-7.9 7.9 3.5 7.9 7.9 7.9 7.9-3.6 7.9-7.9zM160.5 103.5c0-3.1-2.5-5.6-5.6-5.6-3.1 0-5.6 2.5-5.6 5.6 0 3.1 2.5 5.6 5.6 5.6 3.1 0 5.6-2.5 5.6-5.6zM157.6 85.8c0-1.5-1.2-2.7-2.7-2.7-1.5 0-2.6 1.2-2.6 2.7 0 1.5 1.2 2.7 2.6 2.7 1.5 0 2.7-1.2 2.7-2.7zM157.3 68.1c0-1.3-1.1-2.4-2.4-2.4-1.3 0-2.4 1.1-2.4 2.4 0 1.3 1.1 2.4 2.4 2.4 1.3-.1 2.4-1.1 2.4-2.4zM158.1 50.3c0-1.7-1.4-3.1-3.2-3.1-1.7 0-3.1 1.4-3.1 3.1 0 1.7 1.4 3.1 3.1 3.1 1.8.1 3.2-1.3 3.2-3.1zM156.5 32.6c0-.9-.7-1.6-1.6-1.6-.9 0-1.6.7-1.6 1.6 0 .9.7 1.6 1.6 1.6.9 0 1.6-.7 1.6-1.6zM156.8 14.9c0-1-.8-1.9-1.9-1.9-1 0-1.9.8-1.9 1.9 0 1 .8 1.9 1.9 1.9 1.1-.1 1.9-.9 1.9-1.9zM174.7 245.4c0-1.1-.9-2.1-2.1-2.1-1.1 0-2 .9-2 2.1 0 1.1.9 2.1 2 2.1 1.2 0 2.1-.9 2.1-2.1zM175.2 227.7c0-1.4-1.1-2.5-2.6-2.5-1.4 0-2.6 1.1-2.6 2.5s1.1 2.6 2.6 2.6c1.5-.1 2.6-1.2 2.6-2.6zM175.8 210c0-1.7-1.4-3.1-3.2-3.1-1.7 0-3.1 1.4-3.1 3.1 0 1.7 1.4 3.1 3.1 3.1 1.8 0 3.2-1.4 3.2-3.1zM176.6 192.2c0-2.2-1.8-3.9-3.9-3.9-2.2 0-3.9 1.8-3.9 3.9 0 2.2 1.8 3.9 3.9 3.9 2.1 0 3.9-1.7 3.9-3.9zM175.8 174.5c0-1.7-1.4-3.1-3.1-3.1-1.7 0-3.1 1.4-3.1 3.1 0 1.7 1.4 3.1 3.1 3.1 1.7 0 3.1-1.4 3.1-3.1zM176.4 156.8c0-2.1-1.7-3.7-3.8-3.7-2 0-3.7 1.7-3.7 3.7 0 2.1 1.7 3.7 3.7 3.7 2.1 0 3.8-1.7 3.8-3.7zM179.6 139c0-3.9-3.1-7-7-7-3.8 0-7 3.1-7 7s3.1 7 7 7 7-3.1 7-7zM178.1 121.3c0-3-2.4-5.4-5.4-5.4-3 0-5.4 2.4-5.4 5.4 0 3 2.4 5.4 5.4 5.4 2.9 0 5.4-2.4 5.4-5.4zM179.5 103.5c0-3.7-3-6.8-6.8-6.8-3.7 0-6.8 3-6.8 6.8s3 6.8 6.8 6.8c3.7 0 6.8-3 6.8-6.8zM174.8 85.8c0-1.2-.9-2.1-2.1-2.1-1.2 0-2.1.9-2.1 2.1 0 1.2 1 2.1 2.1 2.1s2.1-.9 2.1-2.1zM175.4 68.1c0-1.5-1.2-2.8-2.8-2.8-1.5 0-2.7 1.2-2.7 2.8 0 1.5 1.2 2.7 2.7 2.7 1.6 0 2.8-1.2 2.8-2.7zM174.3 50.3c0-.9-.7-1.7-1.7-1.7-.9 0-1.7.7-1.7 1.7 0 .9.7 1.7 1.7 1.7s1.7-.7 1.7-1.7z" opacity=".1"/>
  <circle cx="172.7" cy="32.6" r="2.3" opacity=".1"/>
  <path d="M176.7 14.9c0-2.2-1.8-4-4-4s-4 1.8-4 4 1.8 4 4 4 4-1.8 4-4zM192.4 245.4c0-1.1-.9-2-2-2s-2 .9-2 2 .9 2 2 2 2-.9 2-2zM193 227.7c0-1.4-1.2-2.6-2.6-2.6-1.4 0-2.6 1.2-2.6 2.6 0 1.4 1.2 2.6 2.6 2.6 1.4 0 2.6-1.2 2.6-2.6zM193.6 210c0-1.7-1.4-3.1-3.2-3.1-1.7 0-3.2 1.4-3.2 3.1 0 1.7 1.4 3.1 3.2 3.1 1.7 0 3.2-1.4 3.2-3.1zM194.3 192.2c0-2.1-1.7-3.9-3.9-3.9s-3.9 1.7-3.9 3.9 1.7 3.9 3.9 3.9c2.1 0 3.9-1.7 3.9-3.9zM195.1 174.5c0-2.6-2.1-4.7-4.7-4.7s-4.7 2.1-4.7 4.7 2.1 4.7 4.7 4.7 4.7-2.1 4.7-4.7zM194 156.8c0-2-1.6-3.6-3.6-3.6s-3.6 1.6-3.6 3.6 1.6 3.6 3.6 3.6 3.6-1.6 3.6-3.6zM196.1 139c0-3.1-2.5-5.7-5.7-5.7s-5.7 2.6-5.7 5.7c0 3.2 2.6 5.7 5.7 5.7 3.2 0 5.7-2.5 5.7-5.7zM196.9 121.3c0-3.6-2.9-6.5-6.5-6.5s-6.5 2.9-6.5 6.5 2.9 6.5 6.5 6.5 6.5-2.9 6.5-6.5zM192.3 103.5c0-1-.8-1.9-1.9-1.9-1 0-1.9.8-1.9 1.9 0 1 .8 1.9 1.9 1.9 1 0 1.9-.8 1.9-1.9zM193 85.8c0-1.4-1.1-2.6-2.6-2.6s-2.6 1.1-2.6 2.6c0 1.4 1.1 2.6 2.6 2.6s2.6-1.2 2.6-2.6zM191.9 68.1c0-.8-.7-1.5-1.5-1.5s-1.5.7-1.5 1.5.7 1.5 1.5 1.5 1.5-.7 1.5-1.5zM192.3 50.3c0-1.1-.9-1.9-1.9-1.9-1.1 0-1.9.9-1.9 1.9 0 1.1.9 1.9 1.9 1.9 1.1.1 1.9-.8 1.9-1.9z" opacity=".1"/>
  <ellipse cx="190.4" cy="32.6" opacity=".1" rx="2.5" ry="2.5"/>
  <path d="M194.2 14.9c0-2.1-1.7-3.8-3.8-3.8-2.1 0-3.8 1.7-3.8 3.8 0 2.1 1.7 3.8 3.8 3.8 2.1 0 3.8-1.7 3.8-3.8zM210.6 227.7c0-1.4-1.1-2.5-2.5-2.5s-2.5 1.1-2.5 2.5 1.1 2.5 2.5 2.5 2.5-1.1 2.5-2.5zM211.2 210c0-1.7-1.4-3.1-3.1-3.1-1.7 0-3.1 1.4-3.1 3.1 0 1.7 1.4 3.1 3.1 3.1 1.7 0 3.1-1.4 3.1-3.1zM212.1 192.2c0-2.2-1.8-3.9-3.9-3.9-2.2 0-3.9 1.8-3.9 3.9 0 2.2 1.8 3.9 3.9 3.9 2.1 0 3.9-1.7 3.9-3.9zM212.9 174.5c0-2.6-2.1-4.8-4.8-4.8-2.6 0-4.8 2.1-4.8 4.8s2.1 4.8 4.8 4.8c2.7 0 4.8-2.2 4.8-4.8zM211.5 156.8c0-1.9-1.5-3.4-3.4-3.4s-3.4 1.5-3.4 3.4 1.5 3.4 3.4 3.4c1.9-.1 3.4-1.6 3.4-3.4zM211.5 139c0-1.9-1.5-3.4-3.4-3.4s-3.4 1.5-3.4 3.4 1.5 3.4 3.4 3.4 3.4-1.5 3.4-3.4zM211.7 121.3c0-2-1.6-3.5-3.5-3.5-2 0-3.6 1.6-3.6 3.5 0 2 1.6 3.5 3.6 3.5 1.9 0 3.5-1.6 3.5-3.5zM210.4 103.5c0-1.2-1-2.3-2.2-2.3-1.3 0-2.3 1-2.3 2.3 0 1.3 1 2.3 2.3 2.3 1.2 0 2.2-1 2.2-2.3zM209.3 85.8c0-.6-.5-1.1-1.1-1.1-.6 0-1.1.5-1.1 1.1 0 .6.5 1.1 1.1 1.1.6 0 1.1-.5 1.1-1.1zM209.7 68.1c0-.8-.7-1.5-1.5-1.5-.9 0-1.5.7-1.5 1.5s.7 1.5 1.5 1.5 1.5-.7 1.5-1.5zM210.2 50.3c0-1.2-.9-2.1-2.1-2.1-1.2 0-2.1.9-2.1 2.1 0 1.2.9 2.1 2.1 2.1 1.2.1 2.1-.9 2.1-2.1zM211 32.6c0-1.6-1.3-2.9-2.9-2.9-1.6 0-2.9 1.3-2.9 2.9 0 1.6 1.3 2.9 2.9 2.9 1.6 0 2.9-1.3 2.9-2.9zM211.4 14.9c0-1.8-1.5-3.2-3.2-3.2-1.8 0-3.3 1.5-3.3 3.2 0 1.8 1.5 3.2 3.3 3.2 1.7 0 3.2-1.4 3.2-3.2zM228.4 227.7c0-1.4-1.1-2.5-2.5-2.5s-2.5 1.1-2.5 2.5 1.1 2.5 2.5 2.5 2.5-1.1 2.5-2.5zM228.9 210c0-1.7-1.4-3-3-3-1.7 0-3 1.4-3 3 0 1.7 1.4 3 3 3s3-1.4 3-3zM229.8 192.2c0-2.1-1.7-3.9-3.9-3.9s-3.9 1.7-3.9 3.9 1.7 3.9 3.9 3.9c2.1 0 3.9-1.7 3.9-3.9zM230.4 174.5c0-2.5-2-4.6-4.6-4.6-2.5 0-4.6 2-4.6 4.6 0 2.5 2 4.6 4.6 4.6 2.6 0 4.6-2.1 4.6-4.6zM230.8 156.8c0-2.7-2.2-5-5-5-2.7 0-5 2.2-5 5 0 2.7 2.2 5 5 5 2.8-.1 5-2.3 5-5zM228.3 139c0-1.4-1.1-2.5-2.5-2.5s-2.5 1.1-2.5 2.5 1.1 2.5 2.5 2.5 2.5-1.1 2.5-2.5zM230 121.3c0-2.3-1.8-4.1-4.1-4.1s-4.1 1.9-4.1 4.1c0 2.3 1.9 4.1 4.1 4.1 2.2 0 4.1-1.8 4.1-4.1zM226.7 103.5c0-.5-.4-.8-.8-.8-.5 0-.8.4-.8.8s.4.8.8.8c.4.1.8-.3.8-.8zM227.1 85.8c0-.7-.6-1.2-1.2-1.2-.7 0-1.2.6-1.2 1.2 0 .7.5 1.2 1.2 1.2.6 0 1.2-.5 1.2-1.2zM227.6 68.1c0-1-.8-1.8-1.8-1.8s-1.8.8-1.8 1.8.8 1.8 1.8 1.8 1.8-.8 1.8-1.8zM244.7 245.4c0-.6-.5-1.1-1.1-1.1-.6 0-1.1.5-1.1 1.1 0 .6.5 1.1 1.1 1.1.6 0 1.1-.5 1.1-1.1zM246.1 227.7c0-1.4-1.1-2.5-2.5-2.5s-2.5 1.1-2.5 2.5 1.1 2.5 2.5 2.5 2.5-1.1 2.5-2.5zM246.6 210c0-1.7-1.3-3-3-3s-3 1.3-3 3 1.4 3 3 3c1.7 0 3-1.4 3-3zM247.5 192.2c0-2.1-1.7-3.9-3.9-3.9s-3.9 1.7-3.9 3.9 1.7 3.9 3.9 3.9c2.1 0 3.9-1.7 3.9-3.9z" opacity=".1"/>
  <ellipse cx="243.6" cy="174.5" opacity=".1" rx="4.7" ry="4.7"/>
  <path d="M246.2 156.8c0-1.4-1.2-2.6-2.6-2.6-1.4 0-2.6 1.2-2.6 2.6 0 1.4 1.2 2.6 2.6 2.6 1.4 0 2.6-1.2 2.6-2.6zM245.2 139c0-.9-.7-1.6-1.6-1.6-.9 0-1.6.7-1.6 1.6 0 .9.7 1.6 1.6 1.6.9 0 1.6-.7 1.6-1.6zM244.2 121.3c0-.4-.3-.6-.6-.6-.4 0-.6.3-.6.6 0 .4.3.6.6.6s.6-.3.6-.6zM244.5 103.5c0-.5-.4-.9-.9-.9s-.9.4-.9.9.4.9.9.9c.5.1.9-.3.9-.9zM262.9 263.2c0-.9-.7-1.6-1.6-1.6-.9 0-1.6.7-1.6 1.6 0 .9.7 1.6 1.6 1.6.9-.1 1.6-.8 1.6-1.6zM262.5 245.4c0-.6-.5-1.1-1.1-1.1s-1.1.5-1.1 1.1c0 .6.5 1.1 1.1 1.1s1.1-.5 1.1-1.1zM262.7 227.7c0-.7-.6-1.3-1.3-1.3-.7 0-1.3.6-1.3 1.3 0 .7.6 1.3 1.3 1.3.7 0 1.3-.6 1.3-1.3zM264.3 210c0-1.7-1.3-3-3-3s-3 1.3-3 3 1.4 3 3 3 3-1.4 3-3zM265.1 192.2c0-2.1-1.7-3.7-3.7-3.7s-3.7 1.7-3.7 3.7c0 2.1 1.7 3.7 3.7 3.7s3.7-1.6 3.7-3.7zM263.2 174.5c0-1.1-.9-1.9-1.9-1.9-1.1 0-1.9.9-1.9 1.9 0 1.1.9 1.9 1.9 1.9 1.1 0 1.9-.9 1.9-1.9zM263.8 156.8c0-1.4-1.1-2.5-2.5-2.5s-2.4 1.1-2.4 2.5 1.1 2.5 2.4 2.5 2.5-1.2 2.5-2.5zM261.7 139c0-.2-.2-.3-.3-.3-.2 0-.3.2-.3.3 0 .2.1.4.3.4.1 0 .3-.2.3-.4zM262.7 121.3c0-.7-.6-1.3-1.3-1.3-.7 0-1.3.6-1.3 1.3 0 .7.6 1.3 1.3 1.3.7 0 1.3-.6 1.3-1.3zM279.2 263.2c0-.1-.1-.1-.1-.1-.1 0-.1.1-.1.1 0 .1 0 .1.1.1l.1-.1zM279.8 245.4c0-.4-.3-.7-.7-.7-.4 0-.7.3-.7.7 0 .4.3.7.7.7.4.1.7-.3.7-.7zM280.2 227.7c0-.6-.5-1.1-1.1-1.1-.6 0-1.1.5-1.1 1.1 0 .6.5 1.1 1.1 1.1.6 0 1.1-.5 1.1-1.1zM281.3 210c0-1.2-1-2.2-2.2-2.2-1.2 0-2.2 1-2.2 2.2s1 2.2 2.2 2.2c1.2 0 2.2-1 2.2-2.2zM279.6 192.2c0-.3-.2-.5-.5-.5s-.5.2-.5.5.2.5.5.5c.2 0 .5-.2.5-.5zM279.7 174.5c0-.3-.3-.6-.6-.6s-.6.3-.6.6.3.6.6.6.6-.3.6-.6zM279.4 156.8c0-.2-.2-.4-.3-.4-.2 0-.3.2-.3.4s.1.3.3.3c.1 0 .3-.2.3-.3zM279.4 139c0-.2-.1-.3-.3-.3-.2 0-.3.1-.3.3 0 .2.1.3.3.3.1 0 .3-.1.3-.3z" opacity=".1"/>
  <g fill="none" stroke="#05282D" stroke-miterlimit="10">
    <path d="M14.9 259.6c0-2-1.6-3.6-3.6-3.6s-3.6 1.6-3.6 3.6 1.6 3.6 3.6 3.6 3.6-1.6 3.6-3.6zM13.7 241.8c0-1.3-1.1-2.4-2.4-2.4s-2.4 1.1-2.4 2.4c0 1.3 1.1 2.4 2.4 2.4s2.4-1.1 2.4-2.4zM13.5 224.1c0-1.2-1-2.2-2.2-2.2-1.2 0-2.2 1-2.2 2.2 0 1.2 1 2.2 2.2 2.2 1.2 0 2.2-1 2.2-2.2zM12.7 188.6c0-.8-.6-1.4-1.4-1.4-.8 0-1.4.6-1.4 1.4 0 .8.6 1.4 1.4 1.4.8 0 1.4-.6 1.4-1.4zM13.3 170.9c0-1.1-.9-2-2-2s-2 .9-2 2 .9 2 2 2 2-.9 2-2zM13.7 153.2c0-1.3-1.1-2.4-2.4-2.4s-2.4 1.1-2.4 2.4c0 1.3 1.1 2.4 2.4 2.4s2.4-1.1 2.4-2.4zM14.2 135.4c0-1.6-1.3-2.9-2.9-2.9-1.6 0-3 1.3-3 2.9 0 1.6 1.3 3 3 3 1.6 0 2.9-1.3 2.9-3zM14 117.7c0-1.5-1.2-2.7-2.7-2.7-1.5 0-2.6 1.2-2.6 2.7 0 1.5 1.2 2.7 2.6 2.7 1.5-.1 2.7-1.2 2.7-2.7zM14.5 100c0-1.7-1.4-3.1-3.2-3.1-1.7 0-3.2 1.4-3.2 3.1 0 1.7 1.4 3.1 3.2 3.1 1.7 0 3.2-1.4 3.2-3.1zM15.1 82.2c0-2.1-1.7-3.8-3.8-3.8s-3.8 1.7-3.8 3.8c0 2.1 1.7 3.8 3.8 3.8s3.8-1.7 3.8-3.8zM15.7 64.5c0-2.4-1.9-4.4-4.4-4.4s-4.4 2-4.4 4.4c0 2.4 2 4.4 4.4 4.4s4.4-2 4.4-4.4zM16.4 46.8c0-2.8-2.3-5.1-5.1-5.1S6.2 44 6.2 46.8s2.3 5.1 5.1 5.1c2.8-.1 5.1-2.3 5.1-5.1zM17.2 29c0-3.2-2.6-5.9-5.9-5.9S5.4 25.8 5.4 29s2.6 5.8 5.9 5.8 5.9-2.5 5.9-5.8zM21.9 11.3C21.9 5.4 17.1.7 11.3.7 5.4.7.7 5.4.7 11.3c0 5.9 4.8 10.6 10.6 10.6 5.9 0 10.6-4.7 10.6-10.6zM30.4 259.6c0-.7-.6-1.3-1.3-1.3-.7 0-1.3.6-1.3 1.3 0 .7.6 1.3 1.3 1.3.7 0 1.3-.6 1.3-1.3zM29.9 241.8c0-.5-.4-.8-.8-.8-.5 0-.8.4-.8.8 0 .5.4.8.8.8.4.1.8-.3.8-.8zM29.8 224.1c0-.4-.3-.7-.7-.7-.4 0-.7.3-.7.7 0 .4.3.7.7.7.3 0 .7-.3.7-.7zM29.5 206.4c0-.2-.2-.4-.4-.4s-.4.2-.4.4.2.4.4.4.4-.2.4-.4zM30.2 188.6c0-.6-.5-1.2-1.2-1.2s-1.2.5-1.2 1.2.5 1.2 1.2 1.2 1.2-.5 1.2-1.2zM30.5 170.9c0-.8-.6-1.4-1.4-1.4-.8 0-1.4.6-1.4 1.4 0 .8.6 1.4 1.4 1.4.7 0 1.4-.6 1.4-1.4zM30.7 153.2c0-.9-.7-1.7-1.7-1.7-.9 0-1.7.8-1.7 1.7 0 .9.7 1.7 1.7 1.7 1-.1 1.7-.8 1.7-1.7zM31 135.4c0-1.1-.9-2-2-2s-2 .9-2 2 .9 2 2 2c1.2 0 2-.9 2-2zM31.5 117.7c0-1.4-1.1-2.5-2.5-2.5s-2.5 1.1-2.5 2.5 1.1 2.5 2.5 2.5 2.5-1.2 2.5-2.5zM31 100c0-1.1-.9-2-2-2s-2 .9-2 2 .9 2 2 2c1.2 0 2-.9 2-2zM33.2 82.2c0-2.3-1.9-4.2-4.2-4.2-2.3 0-4.2 1.9-4.2 4.2 0 2.3 1.9 4.2 4.2 4.2 2.4 0 4.2-1.9 4.2-4.2zM33.8 64.5c0-2.6-2.1-4.8-4.8-4.8-2.6 0-4.8 2.1-4.8 4.8 0 2.6 2.1 4.8 4.8 4.8 2.7 0 4.8-2.2 4.8-4.8zM34.7 46.8c0-3.1-2.6-5.7-5.7-5.7s-5.7 2.6-5.7 5.7c0 3.2 2.5 5.7 5.7 5.7s5.7-2.6 5.7-5.7zM35.5 29c0-3.6-2.9-6.5-6.5-6.5s-6.5 2.9-6.5 6.5 2.9 6.5 6.5 6.5 6.5-2.9 6.5-6.5z"/>
    <path d="M37.1 11.3c0-4.5-3.6-8.1-8.1-8.1-4.4 0-8.1 3.6-8.1 8.1s3.6 8.1 8.1 8.1 8.1-3.7 8.1-8.1zM47.4 241.8c0-.4-.3-.6-.6-.6-.4 0-.7.3-.7.6s.3.6.7.6c.3.1.6-.2.6-.6zM47.5 224.1c0-.4-.3-.7-.7-.7-.4 0-.7.3-.7.7 0 .4.3.7.7.7.4 0 .7-.3.7-.7zM48.4 206.4c0-.9-.7-1.6-1.6-1.6-.9 0-1.6.7-1.6 1.6 0 .9.7 1.6 1.6 1.6.9 0 1.6-.7 1.6-1.6zM48.8 188.6c0-1.1-.9-2-2-2s-2 .9-2 2 .9 2 2 2 2-.9 2-2zM49.3 170.9c0-1.4-1.1-2.5-2.5-2.5s-2.5 1.1-2.5 2.5 1.1 2.5 2.5 2.5 2.5-1.1 2.5-2.5zM51.3 153.2c0-2.5-2-4.6-4.6-4.6-2.5 0-4.6 2-4.6 4.6 0 2.5 2 4.6 4.6 4.6 2.6-.1 4.6-2.1 4.6-4.6zM51.9 135.4c0-2.8-2.3-5.2-5.2-5.2-2.9 0-5.2 2.3-5.2 5.2 0 2.9 2.3 5.2 5.2 5.2 2.9 0 5.2-2.3 5.2-5.2zM52.7 117.7c0-3.3-2.6-5.9-5.9-5.9-3.3 0-5.9 2.6-5.9 5.9s2.6 5.9 5.9 5.9c3.2 0 5.9-2.6 5.9-5.9zM51.5 100c0-2.6-2.1-4.7-4.7-4.7s-4.7 2.1-4.7 4.7 2.1 4.7 4.7 4.7 4.7-2.1 4.7-4.7zM52 82.2c0-2.9-2.4-5.3-5.3-5.3s-5.3 2.4-5.3 5.3 2.4 5.3 5.3 5.3c3 0 5.3-2.4 5.3-5.3zM51.8 64.5c0-2.8-2.3-5.1-5.1-5.1s-5.1 2.3-5.1 5.1 2.3 5.1 5.1 5.1c2.9 0 5.1-2.3 5.1-5.1zM52.2 46.8c0-3-2.4-5.4-5.4-5.4-3 0-5.4 2.4-5.4 5.4 0 3 2.4 5.4 5.4 5.4 3 0 5.4-2.5 5.4-5.4zM52.5 29c0-3.2-2.6-5.8-5.7-5.8-3.2 0-5.8 2.6-5.8 5.8 0 3.2 2.6 5.8 5.8 5.8 3.1 0 5.7-2.6 5.7-5.8zM53.1 11.3c0-3.5-2.8-6.3-6.3-6.3s-6.3 2.8-6.3 6.3 2.8 6.3 6.3 6.3c3.4 0 6.3-2.8 6.3-6.3zM65.2 241.8c0-.4-.3-.7-.7-.7-.4 0-.7.3-.7.7 0 .4.3.7.7.7.4 0 .7-.3.7-.7zM66.3 224.1c0-1-.8-1.8-1.8-1.8s-1.8.8-1.8 1.8.8 1.8 1.8 1.8 1.8-.8 1.8-1.8zM67.2 206.4c0-1.5-1.2-2.7-2.6-2.7-1.5 0-2.7 1.2-2.7 2.7 0 1.5 1.2 2.7 2.7 2.7 1.4-.1 2.6-1.3 2.6-2.7zM67.8 188.6c0-1.8-1.5-3.3-3.3-3.3-1.8 0-3.3 1.5-3.3 3.3 0 1.8 1.5 3.3 3.3 3.3 1.8 0 3.3-1.5 3.3-3.3zM68.5 170.9c0-2.2-1.8-4-4-4s-4 1.8-4 4 1.8 4 4 4 4-1.8 4-4zM69.1 153.2c0-2.5-2-4.6-4.6-4.6-2.5 0-4.6 2-4.6 4.6 0 2.5 2 4.6 4.6 4.6 2.5-.1 4.6-2.1 4.6-4.6zM70.4 135.4c0-3.3-2.6-5.9-5.9-5.9-3.3 0-5.9 2.6-5.9 5.9 0 3.3 2.6 5.9 5.9 5.9 3.3 0 5.9-2.6 5.9-5.9zM70.8 117.7c0-3.5-2.8-6.3-6.3-6.3s-6.3 2.8-6.3 6.3 2.8 6.3 6.3 6.3 6.3-2.8 6.3-6.3zM71.2 100a6.7 6.7 0 1 0-13.4 0 6.7 6.7 0 0 0 13.4 0zM69.7 82.2c0-2.9-2.3-5.2-5.2-5.2-2.8 0-5.2 2.3-5.2 5.2 0 2.9 2.3 5.2 5.2 5.2 2.9 0 5.2-2.3 5.2-5.2zM69.9 64.5c0-3-2.4-5.4-5.4-5.4-3 0-5.4 2.4-5.4 5.4 0 3 2.4 5.4 5.4 5.4 3 0 5.4-2.4 5.4-5.4zM70.4 46.8c0-3.2-2.6-5.8-5.8-5.8-3.2 0-5.9 2.6-5.9 5.8 0 3.2 2.6 5.9 5.9 5.9 3.1-.1 5.8-2.7 5.8-5.9zM70.7 29c0-3.4-2.8-6.2-6.2-6.2-3.4 0-6.2 2.8-6.2 6.2 0 3.4 2.8 6.2 6.2 6.2 3.4 0 6.2-2.8 6.2-6.2zM71.1 11.3c0-3.6-2.9-6.6-6.6-6.6-3.6 0-6.6 3-6.6 6.6 0 3.6 3 6.6 6.6 6.6 3.7 0 6.6-3 6.6-6.6zM83.2 259.6c0-.5-.4-.9-.9-.9s-.9.4-.9.9.4.9.9.9.9-.4.9-.9zM83.9 241.8c0-.9-.8-1.7-1.7-1.7-.9 0-1.7.8-1.7 1.7 0 .9.7 1.7 1.7 1.7s1.7-.8 1.7-1.7zM84.2 224.1c0-1.1-.9-1.9-1.9-1.9-1.1 0-1.9.9-1.9 1.9 0 1.1.9 1.9 1.9 1.9 1 0 1.9-.9 1.9-1.9zM85.5 206.4c0-1.8-1.5-3.3-3.3-3.3-1.8 0-3.3 1.5-3.3 3.3 0 1.8 1.5 3.3 3.3 3.3 1.8 0 3.3-1.5 3.3-3.3zM87.1 188.6c0-2.7-2.2-4.9-4.9-4.9s-4.9 2.2-4.9 4.9 2.2 4.9 4.9 4.9c2.8 0 4.9-2.2 4.9-4.9zM87.8 170.9c0-3.1-2.5-5.6-5.6-5.6-3.1 0-5.6 2.5-5.6 5.6 0 3.1 2.5 5.6 5.6 5.6 3.1-.1 5.6-2.5 5.6-5.6zM88.6 153.2c0-3.5-2.8-6.3-6.3-6.3s-6.3 2.8-6.3 6.3 2.8 6.3 6.3 6.3c3.4 0 6.3-2.8 6.3-6.3zM89.3 135.4c0-3.9-3.1-7-7-7s-7 3.1-7 7 3.2 7 7 7c3.8.1 7-3.1 7-7zM89 117.7a6.7 6.7 0 1 0-13.4 0 6.7 6.7 0 0 0 13.4 0zM89.5 100c0-4-3.2-7.2-7.2-7.2s-7.2 3.2-7.2 7.2 3.2 7.2 7.2 7.2c3.9 0 7.2-3.2 7.2-7.2zM86 82.2c0-2.1-1.7-3.8-3.8-3.8-2.1 0-3.8 1.7-3.8 3.8 0 2.1 1.7 3.8 3.8 3.8 2.1 0 3.8-1.7 3.8-3.8zM88 64.5c0-3.2-2.6-5.8-5.8-5.8-3.2 0-5.7 2.6-5.7 5.8 0 3.2 2.6 5.7 5.7 5.7 3.2 0 5.8-2.5 5.8-5.7zM88.3 46.8c0-3.3-2.7-6-6-6s-6 2.7-6 6 2.7 6.1 6 6.1c3.3-.1 6-2.8 6-6.1zM88.7 29c0-3.6-2.9-6.4-6.4-6.4-3.6 0-6.4 2.9-6.4 6.4s2.9 6.4 6.4 6.4c3.5.1 6.4-2.8 6.4-6.4zM89.1 11.3c0-3.8-3.1-6.9-6.9-6.9-3.8 0-6.9 3.1-6.9 6.9 0 3.8 3.1 6.9 6.9 6.9 3.8 0 6.9-3.1 6.9-6.9zM102.7 259.6c0-1.5-1.2-2.8-2.8-2.8-1.5 0-2.8 1.2-2.8 2.8 0 1.5 1.2 2.8 2.8 2.8 1.6-.1 2.8-1.3 2.8-2.8zM103.2 241.8c0-1.8-1.4-3.2-3.2-3.2-1.8 0-3.2 1.4-3.2 3.2 0 1.8 1.4 3.2 3.2 3.2 1.7 0 3.2-1.4 3.2-3.2zM103.8 224.1c0-2.1-1.7-3.8-3.8-3.8-2.1 0-3.8 1.7-3.8 3.8 0 2.1 1.7 3.8 3.8 3.8 2.1 0 3.8-1.7 3.8-3.8zM103.7 206.4c0-2-1.7-3.7-3.7-3.7s-3.7 1.6-3.7 3.7c0 2 1.6 3.7 3.7 3.7 2-.1 3.7-1.7 3.7-3.7zM105.5 188.6c0-3.1-2.5-5.6-5.6-5.6-3.1 0-5.6 2.5-5.6 5.6 0 3.1 2.5 5.6 5.6 5.6 3.1 0 5.6-2.5 5.6-5.6zM106.3 170.9c0-3.5-2.8-6.3-6.3-6.3s-6.3 2.8-6.3 6.3 2.8 6.3 6.3 6.3 6.3-2.8 6.3-6.3zM107.1 153.2c0-3.9-3.2-7.1-7.1-7.1-4 0-7.1 3.2-7.1 7.1 0 3.9 3.2 7.1 7.1 7.1 3.9 0 7.1-3.2 7.1-7.1zM107.8 135.4c0-4.3-3.5-7.8-7.8-7.8s-7.8 3.5-7.8 7.8 3.5 7.8 7.8 7.8 7.8-3.5 7.8-7.8zM108.5 117.7c0-4.7-3.8-8.5-8.5-8.5s-8.5 3.8-8.5 8.5 3.8 8.5 8.5 8.5 8.5-3.8 8.5-8.5zM104.8 100c0-2.7-2.2-4.8-4.8-4.8-2.7 0-4.8 2.2-4.8 4.8s2.2 4.8 4.8 4.8c2.6 0 4.8-2.2 4.8-4.8zM104.1 82.2c0-2.3-1.8-4.1-4.1-4.1s-4.1 1.8-4.1 4.1 1.8 4.1 4.1 4.1c2.2 0 4.1-1.8 4.1-4.1zM106 64.5c0-3.3-2.7-6.1-6-6.1-3.4 0-6.1 2.7-6.1 6.1 0 3.3 2.7 6 6.1 6 3.3 0 6-2.7 6-6zM106.4 46.8c0-3.6-2.9-6.4-6.4-6.4-3.6 0-6.5 2.9-6.5 6.4 0 3.6 2.9 6.4 6.5 6.4 3.5 0 6.4-2.9 6.4-6.4zM106.8 29c0-3.8-3-6.8-6.8-6.8s-6.8 3-6.8 6.8c0 3.7 3 6.8 6.8 6.8 3.7 0 6.8-3 6.8-6.8zM106.6 11.3c0-3.6-2.9-6.6-6.6-6.6-3.6 0-6.6 3-6.6 6.6 0 3.6 3 6.6 6.6 6.6 3.6 0 6.6-3 6.6-6.6zM120.6 259.6c0-1.6-1.3-2.9-2.8-2.9-1.6 0-2.9 1.3-2.9 2.9 0 1.6 1.3 2.9 2.9 2.9 1.5-.1 2.8-1.4 2.8-2.9zM121.3 241.8c0-2-1.6-3.6-3.6-3.6s-3.6 1.6-3.6 3.6 1.6 3.6 3.6 3.6 3.6-1.6 3.6-3.6zM121.8 224.1c0-2.3-1.9-4.1-4.1-4.1s-4.1 1.9-4.1 4.1c0 2.3 1.9 4.1 4.1 4.1s4.1-1.8 4.1-4.1zM121.8 206.4c0-2.3-1.8-4.1-4.1-4.1s-4.1 1.8-4.1 4.1c0 2.2 1.8 4.1 4.1 4.1 2.3-.1 4.1-1.9 4.1-4.1zM122.6 188.6c0-2.7-2.2-4.9-4.9-4.9s-4.9 2.2-4.9 4.9 2.2 4.9 4.9 4.9 4.9-2.2 4.9-4.9zM125.1 170.9c0-4.1-3.3-7.4-7.4-7.4-4.1 0-7.4 3.3-7.4 7.4 0 4.1 3.3 7.4 7.4 7.4 4.1 0 7.4-3.3 7.4-7.4zM126.1 153.2c0-4.7-3.8-8.4-8.4-8.4-4.6 0-8.4 3.8-8.4 8.4 0 4.6 3.8 8.4 8.4 8.4 4.7 0 8.4-3.8 8.4-8.4zM126.9 135.4c0-5.1-4.1-9.2-9.2-9.2s-9.2 4.1-9.2 9.2 4.1 9.2 9.2 9.2 9.2-4.1 9.2-9.2z"/>
    <path d="M127.5 117.7c0-5.4-4.4-9.8-9.8-9.8s-9.8 4.4-9.8 9.8 4.4 9.8 9.8 9.8 9.8-4.4 9.8-9.8zM124.6 100c0-3.8-3.1-6.9-6.9-6.9-3.8 0-6.9 3.1-6.9 6.9 0 3.8 3.1 6.9 6.9 6.9 3.8-.1 6.9-3.1 6.9-6.9zM121.5 82.2c0-2.1-1.7-3.8-3.8-3.8-2.1 0-3.8 1.7-3.8 3.8 0 2.1 1.7 3.8 3.8 3.8 2.1 0 3.8-1.7 3.8-3.8zM121 64.5c0-1.8-1.5-3.3-3.3-3.3s-3.3 1.5-3.3 3.3c0 1.8 1.5 3.3 3.3 3.3s3.3-1.5 3.3-3.3zM126.2 46.8c0-4.7-3.8-8.5-8.5-8.5s-8.5 3.8-8.5 8.5 3.8 8.5 8.5 8.5 8.5-3.8 8.5-8.5zM125.9 29c0-4.5-3.6-8.2-8.2-8.2-4.5 0-8.2 3.6-8.2 8.2 0 4.5 3.7 8.2 8.2 8.2 4.5 0 8.2-3.7 8.2-8.2zM126.7 11.3c0-4.9-4-8.9-8.9-8.9-5 0-9 4-9 8.9s4 9 9 9c4.8-.1 8.9-4.1 8.9-9zM137.2 259.6c0-1-.8-1.8-1.8-1.8s-1.8.8-1.8 1.8.8 1.8 1.8 1.8c1-.1 1.8-.9 1.8-1.8zM137.6 241.8c0-1.2-1-2.2-2.2-2.2-1.2 0-2.2 1-2.2 2.2 0 1.2 1 2.2 2.2 2.2 1.2 0 2.2-1 2.2-2.2zM138.1 224.1c0-1.5-1.2-2.7-2.7-2.7-1.5 0-2.6 1.2-2.6 2.7 0 1.5 1.2 2.7 2.6 2.7 1.5-.1 2.7-1.2 2.7-2.7zM138.6 206.4c0-1.8-1.4-3.2-3.2-3.2-1.8 0-3.2 1.4-3.2 3.2s1.4 3.2 3.2 3.2c1.8 0 3.2-1.5 3.2-3.2zM138.3 188.6c0-1.6-1.3-2.9-2.9-2.9-1.6 0-2.9 1.3-2.9 2.9 0 1.6 1.3 2.9 2.9 2.9 1.6 0 2.9-1.3 2.9-2.9zM140.5 170.9c0-2.8-2.2-5-5-5s-5 2.2-5 5 2.2 5 5 5c2.7 0 5-2.2 5-5zM141.5 153.2c0-3.3-2.7-6.1-6.1-6.1-3.3 0-6.1 2.7-6.1 6.1 0 3.3 2.7 6 6.1 6 3.4 0 6.1-2.7 6.1-6zM142.4 135.4c0-3.9-3.1-7-7-7s-7 3.1-7 7 3.1 7 7 7 7-3.1 7-7z"/>
    <path d="M143.4 117.7c0-4.4-3.6-8-8-8s-8 3.6-8 8 3.6 8 8 8 8-3.6 8-8zM139.9 100c0-2.4-2-4.4-4.4-4.4-2.4 0-4.4 2-4.4 4.4 0 2.4 2 4.4 4.4 4.4 2.4 0 4.4-2 4.4-4.4zM138.7 82.2c0-1.8-1.5-3.3-3.3-3.3-1.8 0-3.3 1.5-3.3 3.3 0 1.8 1.5 3.3 3.3 3.3 1.9 0 3.3-1.5 3.3-3.3zM138.1 64.5c0-1.5-1.2-2.7-2.7-2.7-1.5 0-2.6 1.2-2.6 2.7 0 1.5 1.2 2.6 2.6 2.6 1.5 0 2.7-1.1 2.7-2.6zM138.5 46.8c0-1.7-1.4-3.1-3.1-3.1-1.7 0-3.1 1.4-3.1 3.1 0 1.7 1.4 3.1 3.1 3.1 1.8 0 3.1-1.4 3.1-3.1zM140.8 29c0-3-2.4-5.4-5.4-5.4-3 0-5.4 2.4-5.4 5.4s2.4 5.4 5.4 5.4c3 0 5.4-2.4 5.4-5.4zM138.6 11.3c0-1.7-1.4-3.1-3.1-3.1-1.7 0-3.1 1.4-3.1 3.1 0 1.7 1.4 3.2 3.1 3.2 1.7-.1 3.1-1.5 3.1-3.2zM154.9 259.6c0-1-.8-1.7-1.7-1.7-.9 0-1.7.8-1.7 1.7 0 1 .8 1.7 1.7 1.7.9 0 1.7-.8 1.7-1.7zM155.3 241.8c0-1.2-.9-2.1-2.1-2.1-1.2 0-2.1 1-2.1 2.1 0 1.2 1 2.1 2.1 2.1s2.1-.9 2.1-2.1zM155.7 224.1c0-1.4-1.1-2.5-2.6-2.5s-2.6 1.1-2.6 2.5 1.1 2.6 2.6 2.6 2.6-1.2 2.6-2.6zM156.3 206.4c0-1.7-1.4-3.1-3.1-3.1-1.7 0-3.1 1.4-3.1 3.1 0 1.7 1.4 3.1 3.1 3.1 1.7 0 3.1-1.4 3.1-3.1zM155.9 188.6c0-1.5-1.2-2.7-2.8-2.7-1.5 0-2.7 1.2-2.7 2.7 0 1.5 1.2 2.8 2.7 2.8 1.6 0 2.8-1.3 2.8-2.8zM156.6 170.9c0-1.9-1.5-3.4-3.4-3.4s-3.4 1.5-3.4 3.4 1.5 3.4 3.4 3.4 3.4-1.5 3.4-3.4zM159.2 153.2c0-3.3-2.7-6-6-6s-6 2.7-6 6 2.7 6 6 6 6-2.7 6-6zM160.1 135.4c0-3.8-3.1-6.9-6.9-6.9-3.8 0-6.9 3.1-6.9 6.9 0 3.8 3.1 6.9 6.9 6.9 3.8 0 6.9-3.1 6.9-6.9zM161 117.7c0-4.3-3.5-7.9-7.9-7.9s-7.9 3.5-7.9 7.9 3.5 7.9 7.9 7.9 7.9-3.6 7.9-7.9zM158.7 100c0-3.1-2.5-5.6-5.6-5.6-3.1 0-5.6 2.5-5.6 5.6 0 3.1 2.5 5.6 5.6 5.6 3.1-.1 5.6-2.6 5.6-5.6zM155.8 82.2c0-1.5-1.2-2.7-2.7-2.7-1.5 0-2.6 1.2-2.6 2.7 0 1.5 1.2 2.7 2.6 2.7 1.5 0 2.7-1.2 2.7-2.7zM155.5 64.5c0-1.3-1.1-2.4-2.4-2.4-1.3 0-2.4 1.1-2.4 2.4 0 1.3 1.1 2.4 2.4 2.4 1.4 0 2.4-1.1 2.4-2.4zM156.3 46.8c0-1.7-1.4-3.1-3.2-3.1-1.7 0-3.1 1.4-3.1 3.1 0 1.7 1.4 3.1 3.1 3.1 1.8 0 3.2-1.4 3.2-3.1zM154.8 29c0-.9-.7-1.6-1.6-1.6-.9 0-1.6.7-1.6 1.6 0 .9.7 1.6 1.6 1.6.8 0 1.6-.7 1.6-1.6zM155 11.3c0-1-.8-1.9-1.9-1.9s-1.9.8-1.9 1.9c0 1 .8 1.9 1.9 1.9s1.9-.9 1.9-1.9zM173 241.8c0-1.1-.9-2.1-2.1-2.1-1.1 0-2 .9-2 2.1 0 1.1.9 2.1 2 2.1s2.1-.9 2.1-2.1zM173.5 224.1c0-1.4-1.1-2.5-2.6-2.5-1.4 0-2.6 1.1-2.6 2.5s1.1 2.6 2.6 2.6c1.4-.1 2.6-1.2 2.6-2.6zM174.1 206.4c0-1.7-1.4-3.1-3.2-3.1-1.7 0-3.1 1.4-3.1 3.1 0 1.7 1.4 3.1 3.1 3.1 1.7 0 3.2-1.4 3.2-3.1zM174.8 188.6c0-2.2-1.8-3.9-3.9-3.9-2.2 0-3.9 1.8-3.9 3.9 0 2.2 1.8 3.9 3.9 3.9 2.2.1 3.9-1.7 3.9-3.9zM174 170.9c0-1.7-1.4-3.1-3.1-3.1-1.7 0-3.1 1.4-3.1 3.1 0 1.7 1.4 3.1 3.1 3.1 1.7 0 3.1-1.4 3.1-3.1zM174.7 153.2c0-2.1-1.7-3.7-3.8-3.7-2 0-3.7 1.7-3.7 3.7 0 2.1 1.7 3.7 3.7 3.7 2.1 0 3.8-1.7 3.8-3.7zM177.9 135.4c0-3.9-3.1-7-7-7-3.8 0-7 3.1-7 7s3.1 7 7 7 7-3.1 7-7zM176.3 117.7c0-3-2.4-5.4-5.4-5.4-3 0-5.4 2.4-5.4 5.4 0 3 2.4 5.4 5.4 5.4 3 0 5.4-2.4 5.4-5.4zM177.7 100c0-3.7-3-6.8-6.8-6.8-3.7 0-6.8 3-6.8 6.8s3 6.8 6.8 6.8c3.8-.1 6.8-3.1 6.8-6.8zM173 82.2c0-1.2-.9-2.1-2.1-2.1-1.2 0-2.1.9-2.1 2.1 0 1.2 1 2.1 2.1 2.1 1.2 0 2.1-.9 2.1-2.1zM173.7 64.5c0-1.5-1.2-2.8-2.8-2.8-1.5 0-2.7 1.2-2.7 2.8 0 1.5 1.2 2.7 2.7 2.7 1.5 0 2.8-1.2 2.8-2.7zM172.6 46.8c0-.9-.7-1.7-1.7-1.7-.9 0-1.7.7-1.7 1.7 0 .9.7 1.7 1.7 1.7.9-.1 1.7-.8 1.7-1.7z"/>
    <circle cx="170.9" cy="29" r="2.3"/>
    <path d="M174.9 11.3c0-2.2-1.8-4-4-4s-4 1.8-4 4 1.8 4 4 4 4-1.8 4-4zM190.7 241.8c0-1.1-.9-2-2-2s-2 .9-2 2 .9 2 2 2c1 0 2-.9 2-2zM191.2 224.1c0-1.4-1.2-2.6-2.6-2.6-1.4 0-2.6 1.2-2.6 2.6 0 1.4 1.2 2.6 2.6 2.6 1.5 0 2.6-1.2 2.6-2.6zM191.8 206.4c0-1.7-1.4-3.1-3.2-3.1-1.7 0-3.2 1.4-3.2 3.1 0 1.7 1.4 3.1 3.2 3.1 1.8 0 3.2-1.4 3.2-3.1zM192.5 188.6c0-2.1-1.7-3.9-3.9-3.9s-3.9 1.7-3.9 3.9 1.7 3.9 3.9 3.9 3.9-1.7 3.9-3.9zM193.4 170.9c0-2.6-2.1-4.7-4.7-4.7s-4.7 2.1-4.7 4.7 2.1 4.7 4.7 4.7c2.5 0 4.7-2.1 4.7-4.7zM192.3 153.2c0-2-1.6-3.6-3.6-3.6s-3.6 1.6-3.6 3.6 1.6 3.6 3.6 3.6c1.9 0 3.6-1.6 3.6-3.6zM194.3 135.4c0-3.1-2.5-5.7-5.7-5.7s-5.7 2.6-5.7 5.7c0 3.2 2.6 5.7 5.7 5.7 3.2 0 5.7-2.5 5.7-5.7zM195.1 117.7c0-3.6-2.9-6.5-6.5-6.5s-6.5 2.9-6.5 6.5 2.9 6.5 6.5 6.5 6.5-2.9 6.5-6.5zM190.5 100c0-1-.8-1.9-1.9-1.9-1 0-1.9.8-1.9 1.9 0 1 .8 1.9 1.9 1.9 1.1-.1 1.9-.9 1.9-1.9zM191.2 82.2c0-1.4-1.1-2.6-2.6-2.6s-2.6 1.1-2.6 2.6c0 1.4 1.1 2.6 2.6 2.6s2.6-1.2 2.6-2.6zM190.1 64.5c0-.8-.7-1.5-1.5-1.5s-1.5.7-1.5 1.5.7 1.5 1.5 1.5 1.5-.7 1.5-1.5zM190.6 46.8c0-1.1-.9-1.9-1.9-1.9-1.1 0-1.9.9-1.9 1.9 0 1.1.9 1.9 1.9 1.9 1 0 1.9-.9 1.9-1.9z"/>
    <ellipse cx="188.6" cy="29" rx="2.5" ry="2.5"/>
    <path d="M192.4 11.3c0-2.1-1.7-3.8-3.8-3.8-2.1 0-3.8 1.7-3.8 3.8 0 2.1 1.7 3.8 3.8 3.8 2.1 0 3.8-1.7 3.8-3.8zM208.9 224.1c0-1.4-1.1-2.5-2.5-2.5s-2.5 1.1-2.5 2.5 1.1 2.5 2.5 2.5 2.5-1.1 2.5-2.5zM209.5 206.4c0-1.7-1.4-3.1-3.1-3.1-1.7 0-3.1 1.4-3.1 3.1 0 1.7 1.4 3.1 3.1 3.1 1.7 0 3.1-1.4 3.1-3.1zM210.3 188.6c0-2.2-1.8-3.9-3.9-3.9-2.2 0-3.9 1.8-3.9 3.9 0 2.2 1.8 3.9 3.9 3.9 2.2.1 3.9-1.7 3.9-3.9zM211.1 170.9c0-2.6-2.1-4.8-4.8-4.8-2.6 0-4.8 2.1-4.8 4.8 0 2.6 2.1 4.8 4.8 4.8 2.7 0 4.8-2.2 4.8-4.8zM209.8 153.2c0-1.9-1.5-3.4-3.4-3.4s-3.4 1.5-3.4 3.4 1.5 3.4 3.4 3.4c1.8-.1 3.4-1.6 3.4-3.4zM209.8 135.4c0-1.9-1.5-3.4-3.4-3.4s-3.4 1.5-3.4 3.4 1.5 3.4 3.4 3.4c1.8 0 3.4-1.5 3.4-3.4zM209.9 117.7c0-2-1.6-3.5-3.5-3.5-2 0-3.6 1.6-3.6 3.5 0 2 1.6 3.5 3.6 3.5 1.9 0 3.5-1.6 3.5-3.5zM208.6 100c0-1.2-1-2.3-2.2-2.3-1.3 0-2.3 1-2.3 2.3 0 1.3 1 2.3 2.3 2.3 1.2-.1 2.2-1.1 2.2-2.3zM207.5 82.2c0-.6-.5-1.1-1.1-1.1-.6 0-1.1.5-1.1 1.1 0 .6.5 1.1 1.1 1.1.6.1 1.1-.5 1.1-1.1zM207.9 64.5c0-.8-.7-1.5-1.5-1.5-.9 0-1.5.7-1.5 1.5s.7 1.5 1.5 1.5 1.5-.7 1.5-1.5zM208.5 46.8c0-1.2-.9-2.1-2.1-2.1-1.2 0-2.1.9-2.1 2.1 0 1.2.9 2.1 2.1 2.1 1.1 0 2.1-1 2.1-2.1zM209.3 29c0-1.6-1.3-2.9-2.9-2.9-1.6 0-2.9 1.3-2.9 2.9 0 1.6 1.3 2.9 2.9 2.9 1.6 0 2.9-1.3 2.9-2.9zM209.6 11.3c0-1.8-1.5-3.2-3.2-3.2-1.8 0-3.3 1.5-3.3 3.2 0 1.8 1.5 3.2 3.3 3.2 1.8 0 3.2-1.4 3.2-3.2zM226.6 224.1c0-1.4-1.1-2.5-2.5-2.5s-2.5 1.1-2.5 2.5 1.1 2.5 2.5 2.5 2.5-1.1 2.5-2.5zM227.2 206.4c0-1.7-1.4-3-3-3-1.7 0-3 1.4-3 3 0 1.7 1.4 3 3 3s3-1.4 3-3zM228 188.6c0-2.1-1.7-3.9-3.9-3.9s-3.9 1.7-3.9 3.9 1.7 3.9 3.9 3.9 3.9-1.7 3.9-3.9zM228.7 170.9c0-2.5-2-4.6-4.6-4.6-2.5 0-4.6 2-4.6 4.6 0 2.5 2 4.6 4.6 4.6 2.5 0 4.6-2.1 4.6-4.6zM229.1 153.2c0-2.7-2.2-5-5-5-2.7 0-5 2.2-5 5 0 2.7 2.2 5 5 5 2.8-.1 5-2.3 5-5zM226.6 135.4c0-1.4-1.1-2.5-2.5-2.5s-2.5 1.1-2.5 2.5 1.1 2.5 2.5 2.5 2.5-1.1 2.5-2.5zM228.2 117.7c0-2.3-1.8-4.1-4.1-4.1s-4.1 1.9-4.1 4.1c0 2.3 1.9 4.1 4.1 4.1 2.3 0 4.1-1.8 4.1-4.1zM225 100c0-.5-.4-.8-.8-.8-.5 0-.8.4-.8.8s.4.8.8.8.8-.4.8-.8zM225.3 82.2c0-.7-.6-1.2-1.2-1.2-.7 0-1.2.6-1.2 1.2 0 .7.5 1.2 1.2 1.2.7.1 1.2-.5 1.2-1.2zM225.9 64.5c0-1-.8-1.8-1.8-1.8s-1.8.8-1.8 1.8.8 1.8 1.8 1.8 1.8-.8 1.8-1.8zM243 241.8c0-.6-.5-1.1-1.1-1.1-.6 0-1.1.5-1.1 1.1 0 .6.5 1.1 1.1 1.1.6.1 1.1-.5 1.1-1.1zM244.3 224.1c0-1.4-1.1-2.5-2.5-2.5s-2.5 1.1-2.5 2.5 1.1 2.5 2.5 2.5 2.5-1.1 2.5-2.5zM244.8 206.4c0-1.7-1.3-3-3-3s-3 1.3-3 3 1.4 3 3 3c1.7 0 3-1.4 3-3zM245.7 188.6c0-2.1-1.7-3.9-3.9-3.9s-3.9 1.7-3.9 3.9 1.7 3.9 3.9 3.9 3.9-1.7 3.9-3.9z"/>
    <ellipse cx="241.8" cy="170.9" rx="4.7" ry="4.7"/>
    <path d="M244.5 153.2c0-1.4-1.2-2.6-2.6-2.6-1.4 0-2.6 1.2-2.6 2.6 0 1.4 1.2 2.6 2.6 2.6 1.4 0 2.6-1.2 2.6-2.6zM243.5 135.4c0-.9-.7-1.6-1.6-1.6-.9 0-1.6.7-1.6 1.6 0 .9.7 1.6 1.6 1.6.8.1 1.6-.7 1.6-1.6zM242.5 117.7c0-.4-.3-.6-.6-.6-.4 0-.6.3-.6.6 0 .4.3.6.6.6s.6-.3.6-.6zM242.8 100c0-.5-.4-.9-.9-.9s-.9.4-.9.9.4.9.9.9.9-.4.9-.9zM261.1 259.6c0-.9-.7-1.6-1.6-1.6-.9 0-1.6.7-1.6 1.6 0 .9.7 1.6 1.6 1.6 1-.1 1.6-.8 1.6-1.6zM260.7 241.8c0-.6-.5-1.1-1.1-1.1s-1.1.5-1.1 1.1c0 .6.5 1.1 1.1 1.1s1.1-.5 1.1-1.1zM260.9 224.1c0-.7-.6-1.3-1.3-1.3-.7 0-1.3.6-1.3 1.3 0 .7.6 1.3 1.3 1.3.7 0 1.3-.6 1.3-1.3zM262.6 206.4c0-1.7-1.3-3-3-3s-3 1.3-3 3 1.4 3 3 3 3-1.4 3-3zM263.3 188.6c0-2.1-1.7-3.7-3.7-3.7s-3.7 1.7-3.7 3.7c0 2.1 1.7 3.7 3.7 3.7s3.7-1.6 3.7-3.7zM261.5 170.9c0-1.1-.9-1.9-1.9-1.9-1.1 0-1.9.9-1.9 1.9 0 1.1.9 1.9 1.9 1.9 1 0 1.9-.9 1.9-1.9zM262 153.2c0-1.4-1.1-2.5-2.5-2.5s-2.4 1.1-2.4 2.5 1.1 2.5 2.4 2.5 2.5-1.2 2.5-2.5zM259.9 135.4c0-.2-.2-.3-.3-.3-.2 0-.3.2-.3.3 0 .2.1.4.3.4.2 0 .3-.2.3-.4zM260.9 117.7c0-.7-.6-1.3-1.3-1.3-.7 0-1.3.6-1.3 1.3 0 .7.6 1.3 1.3 1.3.7 0 1.3-.6 1.3-1.3zM277.4 259.6c0-.1-.1-.1-.1-.1-.1 0-.1.1-.1.1s0 .1.1.1.1-.1.1-.1zM278 241.8c0-.4-.3-.7-.7-.7-.4 0-.7.3-.7.7 0 .4.3.7.7.7.4.1.7-.3.7-.7zM278.4 224.1c0-.6-.5-1.1-1.1-1.1-.6 0-1.1.5-1.1 1.1 0 .6.5 1.1 1.1 1.1.6 0 1.1-.5 1.1-1.1zM279.5 206.4c0-1.2-1-2.2-2.2-2.2-1.2 0-2.2 1-2.2 2.2s1 2.2 2.2 2.2c1.2 0 2.2-1 2.2-2.2zM277.8 188.6c0-.3-.2-.5-.5-.5s-.5.2-.5.5.2.5.5.5.5-.2.5-.5zM277.9 170.9c0-.3-.3-.6-.6-.6s-.6.3-.6.6.3.6.6.6.6-.3.6-.6zM277.6 153.2c0-.2-.2-.4-.3-.4-.2 0-.3.2-.3.4s.1.3.3.3c.2 0 .3-.2.3-.3zM277.6 135.4c0-.2-.1-.3-.3-.3-.2 0-.3.1-.3.3 0 .2.1.3.3.3.2 0 .3-.1.3-.3z"/>
  </g>
  <g opacity=".1">
    <path d="M455.8 85.5c0-.1.1-.2.1-.2.1 0 .2.1.2.2s-.1.1-.2.1-.1 0-.1-.1zM455.7 67.8c0-.1.1-.2.2-.2s.2.1.2.2-.1.2-.2.2-.2-.1-.2-.2zM455.6 50.2c0-.2.1-.3.3-.3.2 0 .3.1.3.3 0 .2-.1.3-.3.3-.2 0-.3-.2-.3-.3zM455.4 32.5c0-.3.2-.5.5-.5s.5.2.5.5-.3.5-.5.5c-.3 0-.5-.2-.5-.5zM455.2 14.8c0-.4.3-.7.7-.7.4 0 .7.3.7.7 0 .4-.3.7-.7.7-.4.1-.7-.2-.7-.7zM438 103.1c0-.1.1-.2.2-.2s.3.1.3.2-.1.2-.3.2c-.1.1-.2 0-.2-.2zM437.9 85.5c0-.2.1-.3.3-.3.2 0 .3.2.3.3 0 .2-.2.3-.3.3-.2 0-.3-.1-.3-.3zM437.8 67.8c0-.2.2-.4.4-.4s.4.2.4.4-.2.4-.4.4-.4-.2-.4-.4zM437.7 50.2c0-.3.2-.5.5-.5s.5.2.5.5-.2.5-.5.5-.5-.2-.5-.5zM437.2 32.5c0-.6.5-1.1 1.1-1.1s1.1.5 1.1 1.1c0 .6-.5 1.1-1.1 1.1s-1.1-.5-1.1-1.1zM437.4 14.8c0-.5.4-.8.8-.8.5 0 .8.4.8.8 0 .5-.4.8-.8.8-.4.1-.8-.3-.8-.8zM420.3 103.1c0-.2.1-.3.3-.3.2 0 .3.1.3.3 0 .2-.1.3-.3.3-.2 0-.3-.1-.3-.3zM420.2 85.5c0-.2.2-.4.4-.4s.4.2.4.4-.2.4-.4.4-.4-.2-.4-.4zM420.1 67.8c0-.2.2-.4.5-.4.2 0 .4.2.4.4s-.2.4-.4.4c-.3.1-.5-.1-.5-.4zM419.6 50.2c0-.6.5-1 1-1 .6 0 1 .5 1 1 0 .6-.5 1-1 1-.6 0-1-.5-1-1zM419.3 32.5c0-.7.6-1.3 1.3-1.3s1.3.6 1.3 1.3c0 .7-.6 1.3-1.3 1.3s-1.3-.6-1.3-1.3zM419.4 14.8c0-.6.5-1.1 1.1-1.1s1.1.5 1.1 1.1c0 .6-.5 1.1-1.1 1.1s-1.1-.4-1.1-1.1zM402.6 103.1c0-.2.1-.3.3-.3.2 0 .3.2.3.3 0 .2-.2.3-.3.3-.2.1-.3-.1-.3-.3zM402.5 85.5c0-.2.2-.4.4-.4s.4.2.4.4-.2.4-.4.4-.4-.2-.4-.4zM401.9 67.8c0-.5.4-1 1-1 .5 0 1 .4 1 1 0 .5-.4 1-1 1-.5 0-1-.4-1-1zM401.6 50.2c0-.7.6-1.3 1.3-1.3.7 0 1.3.6 1.3 1.3 0 .7-.6 1.3-1.3 1.3-.7-.1-1.3-.6-1.3-1.3zM402 32.5c0-.5.4-.9.9-.9s.9.4.9.9-.4.9-.9.9-.9-.4-.9-.9zM401.8 14.8c0-.6.5-1.1 1.1-1.1.6 0 1.1.5 1.1 1.1 0 .6-.5 1.1-1.1 1.1-.6.1-1.1-.4-1.1-1.1zM384.5 103.1c0-.4.3-.7.7-.7.4 0 .7.3.7.7 0 .4-.3.7-.7.7-.4.1-.7-.2-.7-.7zM384.8 85.5c0-.2.2-.4.5-.4.2 0 .4.2.4.4s-.2.4-.4.4c-.3 0-.5-.2-.5-.4zM384.2 67.8c0-.6.5-1.1 1.1-1.1s1.1.5 1.1 1.1c0 .6-.5 1.1-1.1 1.1s-1.1-.5-1.1-1.1zM384.3 50.2c0-.5.4-.9.9-.9s.9.4.9.9-.4.9-.9.9-.9-.4-.9-.9zM384.2 32.5c0-.6.5-1.1 1.1-1.1s1.1.5 1.1 1.1c0 .6-.5 1.1-1.1 1.1s-1.1-.5-1.1-1.1zM384 14.8c0-.7.6-1.3 1.3-1.3.7 0 1.3.6 1.3 1.3s-.6 1.3-1.3 1.3c-.7 0-1.3-.6-1.3-1.3zM367.2 103.1c0-.2.2-.4.4-.4s.4.2.4.4-.2.4-.4.4-.4-.1-.4-.4zM366.6 85.5c0-.6.5-1 1-1 .6 0 1 .5 1 1 0 .6-.5 1-1 1-.6 0-1-.4-1-1zM366.3 67.8c0-.7.6-1.3 1.3-1.3.7 0 1.3.6 1.3 1.3 0 .7-.6 1.3-1.3 1.3-.7.1-1.3-.5-1.3-1.3zM366.5 50.2c0-.6.5-1.1 1.1-1.1.6 0 1.1.5 1.1 1.1 0 .6-.5 1.1-1.1 1.1-.6-.1-1.1-.5-1.1-1.1zM366.3 32.5c0-.7.6-1.3 1.3-1.3.7 0 1.3.6 1.3 1.3 0 .7-.6 1.3-1.3 1.3-.7 0-1.3-.6-1.3-1.3zM366 14.8c0-.9.7-1.6 1.6-1.6.9 0 1.6.7 1.6 1.6 0 .9-.7 1.6-1.6 1.6-.9 0-1.6-.7-1.6-1.6zM349.7 156.1c0-.1.1-.2.2-.2s.2.1.2.2-.1.2-.2.2-.2-.1-.2-.2zM349.7 138.5c0-.1.1-.2.2-.2s.2.1.2.2-.1.2-.2.2-.2-.1-.2-.2zM349.5 120.8c0-.2.2-.4.4-.4s.4.2.4.4-.2.4-.4.4-.4-.2-.4-.4zM349.2 103.1c0-.4.3-.7.7-.7.4 0 .7.3.7.7 0 .4-.3.7-.7.7-.3 0-.7-.3-.7-.7zM349.3 85.5c0-.4.3-.6.6-.6.4 0 .6.3.6.6 0 .4-.3.6-.6.6s-.6-.3-.6-.6zM348.9 67.8c0-.6.5-1 1-1 .6 0 1 .5 1 1 0 .6-.5 1-1 1-.5.1-1-.4-1-1zM348.7 50.2c0-.7.6-1.3 1.3-1.3.7 0 1.3.6 1.3 1.3 0 .7-.6 1.3-1.3 1.3-.8-.1-1.3-.6-1.3-1.3zM348.4 32.5c0-.9.7-1.6 1.6-1.6.9 0 1.6.7 1.6 1.6 0 .9-.7 1.6-1.6 1.6-.9 0-1.6-.7-1.6-1.6zM348 14.8c0-1.1.8-1.9 1.9-1.9 1.1 0 1.9.9 1.9 1.9 0 1.1-.9 1.9-1.9 1.9-1 .1-1.9-.8-1.9-1.9zM332.2 156.1c0-.1 0-.1.1-.1s.1 0 .1.1-.1.1-.2 0c0 .1 0 .1 0 0zM332.1 138.5c0-.1.1-.1.1-.1.1 0 .1.1.1.1 0 .1-.1.2-.1.2 0-.1-.1-.1-.1-.2zM331.8 120.8c0-.3.2-.5.5-.5s.5.2.5.5-.2.5-.5.5-.5-.2-.5-.5zM331.9 103.1c0-.2.2-.4.4-.4s.4.2.4.4-.2.4-.4.4-.4-.1-.4-.4zM331.7 85.5c0-.3.3-.6.6-.6s.6.3.6.6-.3.6-.6.6-.6-.3-.6-.6zM331 67.8c0-.7.6-1.3 1.3-1.3.7 0 1.3.6 1.3 1.3 0 .7-.6 1.3-1.3 1.3-.7 0-1.3-.6-1.3-1.3zM330.7 50.2c0-.9.7-1.6 1.6-1.6.9 0 1.6.7 1.6 1.6 0 .9-.7 1.6-1.6 1.6-.9-.1-1.6-.8-1.6-1.6zM330.5 32.5c0-1 .8-1.8 1.8-1.8s1.8.8 1.8 1.8-.8 1.8-1.8 1.8-1.8-.8-1.8-1.8zM330.1 14.8c0-1.2 1-2.2 2.2-2.2 1.2 0 2.2 1 2.2 2.2 0 1.2-1 2.2-2.2 2.2-1.2.1-2.2-.9-2.2-2.2zM314.5 156.1c0-.1 0-.1.1-.1s.1 0 .1.1 0 .1-.2 0c.1.1 0 .1 0 0zM314.4 138.5c0-.1.1-.2.2-.2s.2.1.2.2-.1.2-.2.2-.2-.1-.2-.2zM314.4 120.8c0-.1.1-.2.3-.2.1 0 .2.1.2.2s-.1.2-.2.2c-.2.1-.3-.1-.3-.2zM314.3 103.1c0-.2.1-.3.3-.3s.3.2.3.3c0 .2-.1.3-.3.3s-.3-.1-.3-.3zM313.7 85.5c0-.5.4-.9.9-.9s.9.4.9.9-.4.9-.9.9-.9-.4-.9-.9zM313.5 67.8c0-.6.5-1.1 1.1-1.1.6 0 1.1.5 1.1 1.1 0 .6-.5 1.1-1.1 1.1-.6.1-1.1-.4-1.1-1.1zM312.7 50.2c0-1.1.9-1.9 1.9-1.9 1 0 1.9.8 1.9 1.9 0 1.1-.9 1.9-1.9 1.9-1 0-1.9-.9-1.9-1.9zM312.3 32.5c0-1.3 1-2.3 2.3-2.3s2.3 1 2.3 2.3c0 1.3-1 2.3-2.3 2.3s-2.3-1-2.3-2.3zM311.9 14.8c0-1.5 1.2-2.7 2.7-2.7 1.5 0 2.7 1.2 2.7 2.7 0 1.5-1.2 2.7-2.7 2.7-1.5 0-2.7-1.2-2.7-2.7zM296.8 156.1c0-.1.1-.2.1-.2.1 0 .2.1.2.2s-.1.1-.2.1c0 .1-.1 0-.1-.1zM296.7 138.5c0-.1.1-.2.2-.2s.3.1.3.2-.1.2-.3.2c-.1 0-.2-.1-.2-.2zM296.8 120.8c0-.1.1-.2.2-.2s.2.1.2.2-.1.2-.2.2c-.2 0-.2-.1-.2-.2zM296.6 103.1c0-.2.1-.3.3-.3.2 0 .3.2.3.3 0 .2-.1.3-.3.3-.1.1-.3-.1-.3-.3zM296.2 85.5c0-.4.3-.7.7-.7.4 0 .7.3.7.7 0 .4-.3.7-.7.7-.3 0-.7-.3-.7-.7zM295.5 67.8c0-.8.6-1.4 1.4-1.4.8 0 1.4.6 1.4 1.4 0 .8-.6 1.4-1.4 1.4-.7 0-1.4-.6-1.4-1.4zM295.2 50.2c0-1 .8-1.8 1.8-1.8s1.8.8 1.8 1.8S298 52 297 52c-1-.1-1.8-.9-1.8-1.8zM294.8 32.5c0-1.2 1-2.2 2.1-2.2 1.2 0 2.2 1 2.2 2.2 0 1.2-1 2.2-2.2 2.2-1.1 0-2.1-1-2.1-2.2zM294.3 14.8c0-1.5 1.2-2.6 2.6-2.6 1.5 0 2.7 1.2 2.7 2.6 0 1.5-1.2 2.7-2.7 2.7-1.4 0-2.6-1.2-2.6-2.7zM279 120.8c0-.2.1-.3.3-.3.2 0 .3.1.3.3 0 .2-.1.3-.3.3-.2 0-.3-.1-.3-.3zM278.8 103.1c0-.3.2-.5.5-.5s.5.2.5.5-.3.5-.5.5c-.3.1-.5-.1-.5-.5zM278.5 85.5c0-.5.4-.8.8-.8.5 0 .8.4.8.8 0 .5-.4.8-.8.8-.5 0-.8-.4-.8-.8zM278.2 67.8c0-.6.5-1.1 1.1-1.1.6 0 1.1.5 1.1 1.1 0 .6-.5 1.1-1.1 1.1-.6 0-1.1-.5-1.1-1.1zM278 50.2c0-.7.6-1.3 1.3-1.3.7 0 1.3.6 1.3 1.3 0 .7-.6 1.3-1.3 1.3-.7-.1-1.3-.6-1.3-1.3zM277.8 32.5c0-.8.6-1.5 1.5-1.5.8 0 1.5.7 1.5 1.5s-.7 1.5-1.5 1.5-1.5-.7-1.5-1.5zM275.8 14.8c0-1.9 1.6-3.5 3.5-3.5s3.5 1.6 3.5 3.5-1.6 3.5-3.5 3.5c-2 .1-3.5-1.5-3.5-3.5zM259.9 67.8c0-1 .8-1.8 1.8-1.8s1.8.8 1.8 1.8-.8 1.8-1.8 1.8-1.8-.8-1.8-1.8zM259.6 50.2c0-1.1.9-2 2-2s2 .9 2 2-.9 2-2 2-2-.9-2-2zM259.3 32.5c0-1.3 1-2.4 2.3-2.4s2.4 1.1 2.4 2.4c0 1.3-1.1 2.3-2.4 2.3s-2.3-1-2.3-2.3zM259 14.8c0-1.4 1.2-2.6 2.6-2.6 1.4 0 2.6 1.2 2.6 2.6 0 1.4-1.2 2.6-2.6 2.6-1.4 0-2.6-1.1-2.6-2.6zM242.7 67.8c0-.7.6-1.3 1.3-1.3.7 0 1.3.6 1.3 1.3 0 .7-.6 1.3-1.3 1.3-.7 0-1.3-.6-1.3-1.3zM242.5 50.2c0-.8.6-1.5 1.5-1.5.8 0 1.5.7 1.5 1.5s-.6 1.5-1.5 1.5c-.8-.1-1.5-.7-1.5-1.5zM242.3 32.5c0-.9.8-1.7 1.7-1.7.9 0 1.7.8 1.7 1.7 0 .9-.8 1.7-1.7 1.7-1 0-1.7-.7-1.7-1.7zM242.1 14.8c0-1.1.8-1.9 1.9-1.9 1 0 1.9.9 1.9 1.9 0 1.1-.8 1.9-1.9 1.9-1.1.1-1.9-.8-1.9-1.9zM224.7 50.2c0-.9.7-1.6 1.6-1.6.9 0 1.6.7 1.6 1.6 0 .9-.7 1.6-1.6 1.6-.8-.1-1.6-.8-1.6-1.6zM224.5 32.5c0-1 .8-1.9 1.9-1.9 1 0 1.9.8 1.9 1.9 0 1-.8 1.9-1.9 1.9-1.1 0-1.9-.9-1.9-1.9zM224.1 14.8c0-1.2 1-2.2 2.2-2.2 1.2 0 2.2 1 2.2 2.2 0 1.2-1 2.2-2.2 2.2-1.2.1-2.2-.9-2.2-2.2z"/>
  </g>
</svg>
