<svg xmlns="http://www.w3.org/2000/svg" viewBox="0 0 369.7 59.3">
  <g fill="none" stroke="#05282D" stroke-miterlimit="10" stroke-width="2.186">
    <path d="M367.8 22.3c0 .2.1.3.3.3.2 0 .3-.1.3-.3 0-.2-.1-.3-.3-.3-.2.1-.3.2-.3.3zM367.7 39.8c0 .2.1.3.3.3.2 0 .3-.2.3-.3 0-.2-.1-.3-.3-.3-.1-.1-.3.1-.3.3zM367.7 57.2c0 .2.1.3.3.3.2 0 .3-.2.3-.3 0-.2-.1-.3-.3-.3-.1-.1-.3.1-.3.3zM350.4 22.3c0 .1.1.2.2.2s.2-.1.2-.2-.1-.2-.2-.2-.2.1-.2.2zM350.3 39.8c0 .2.1.3.3.3.2 0 .3-.1.3-.3s-.1-.3-.3-.3c-.1 0-.3.1-.3.3zM350.4 57.2c0 .1.1.2.2.2s.2-.1.2-.2-.1-.2-.2-.2c-.1-.1-.2 0-.2.2zM333.1 22.3c0 .1.1.1.1.1.1 0 .1-.1.1-.1 0-.1-.1-.1-.1-.1-.1 0-.1.1-.1.1zM333 39.8c0 .1.1.2.2.2s.2-.1.2-.2-.1-.2-.2-.2-.2 0-.2.2zM333 57.2c0 .1.1.2.2.2s.2-.1.2-.2-.1-.2-.2-.2c-.1-.1-.2 0-.2.2zM315.6 22.3c0 .1.1.2.2.2s.2-.1.2-.2-.1-.2-.2-.2-.2.1-.2.2zM315.6 39.8c0 .1.1.2.2.2s.2-.1.2-.2-.1-.2-.2-.2c-.1-.1-.2 0-.2.2zM315.4 57.2c0 .2.2.4.4.4s.4-.2.4-.4-.2-.4-.4-.4-.4.2-.4.4zM298.1 22.3c0 .2.1.3.3.3.2 0 .3-.1.3-.3 0-.2-.1-.3-.3-.3-.2.1-.3.2-.3.3zM298 39.8c0 .2.2.3.3.3.2 0 .3-.2.3-.3 0-.2-.2-.3-.3-.3-.1-.1-.3.1-.3.3zM298 57.2c0 .2.2.4.4.4s.4-.2.4-.4-.2-.4-.4-.4-.4.2-.4.4zM280.6 39.8c0 .2.2.3.3.3.2 0 .4-.2.4-.3 0-.2-.2-.3-.4-.3-.1-.1-.3.1-.3.3zM280.7 57.2c0 .2.1.3.3.3.2 0 .3-.1.3-.3 0-.2-.1-.3-.3-.3-.2 0-.3.1-.3.3zM263.2 39.8c0 .2.2.4.4.4s.4-.2.4-.4-.2-.4-.4-.4-.4.1-.4.4zM263.2 57.2c0 .2.1.3.3.3.2 0 .4-.2.4-.3 0-.2-.2-.3-.4-.3-.1-.1-.3.1-.3.3zM246 39.8c0 .1.1.2.1.2s.1-.1.1-.2-.1-.1-.1-.1-.1 0-.1.1zM246 57.2c0 .1.1.1.1.1l.1-.1c0-.1-.1-.1-.1-.1s-.1 0-.1.1z"/>
    <ellipse cx="228.7" cy="39.8" rx=".1" ry=".1"/>
    <path d="M228.5 57.2c0 .1.1.2.2.2s.2-.1.2-.2-.1-.2-.2-.2-.2.1-.2.2zM211.1 39.8c0 .1.1.2.2.2s.2-.1.2-.2-.1-.2-.2-.2-.2 0-.2.2zM211.1 57.2c0 .1.1.2.2.2s.2-.1.2-.2-.1-.2-.2-.2-.2.1-.2.2zM193.7 39.8c0 .1.1.2.2.2s.2-.1.2-.2-.1-.2-.2-.2c-.1-.1-.2 0-.2.2zM193.7 57.2c0 .1.1.2.2.2s.2-.1.2-.2-.1-.2-.2-.2c-.1-.1-.2 0-.2.2zM176 39.8c0 .3.2.5.5.5s.5-.2.5-.5-.2-.5-.5-.5-.5.2-.5.5zM175.7 57.2c0 .5.4.8.8.8.5 0 .8-.4.8-.8 0-.5-.4-.8-.8-.8-.5-.1-.8.3-.8.8zM159 22.3c0 .1 0 .1 0 0 .1.1.2.1.2 0h-.2zM158.9 39.8c0 .1.1.2.2.2s.2-.1.2-.2-.1-.2-.2-.2-.2 0-.2.2zM158.6 57.2c0 .3.2.5.5.5s.5-.2.5-.5-.2-.5-.5-.5c-.3-.1-.5.2-.5.5zM141.6 4.9c0 .1 0 .1.1.1 0 0 .1 0 .1-.1s-.1-.1-.1-.1c-.1 0-.1.1-.1.1zM141.4 22.3c0 .1.1.2.2.2s.2-.1.2-.2-.1-.2-.2-.2-.2.1-.2.2zM141.6 39.8c0 .1 0 .1.1.1 0 0 .1 0 .1-.1s-.1-.1-.1-.1c-.1 0-.1 0-.1.1zM141.5 57.2c0 .1.1.2.2.2s.2-.1.2-.2-.1-.2-.2-.2-.2.1-.2.2zM124.1 4.9c0 .1.1.1.1.1.1 0 .1-.1.1-.1 0-.1-.1-.1-.1-.1s-.1 0-.1.1zM124.1 22.3c0 .1.1.2.2.2s.2-.1.2-.2-.1-.2-.2-.2c-.1.1-.2.1-.2.2zM124 39.8c0 .2.1.3.3.3.2 0 .3-.1.3-.3s-.1-.3-.3-.3c-.2 0-.3.1-.3.3zM124.2 57.2c0 .1 0 .1.1.1s.1 0 .1-.1-.1-.1-.2 0c0-.1 0-.1 0 0zM106.7 4.9c0 .1.1.1.1.1.1 0 .2-.1.2-.1 0-.1-.1-.1-.2-.1 0 0-.1 0-.1.1zM106.6 22.3c0 .1.1.2.2.2s.2-.1.2-.2-.1-.2-.2-.2-.2.1-.2.2zM106.7 39.8s.1.1 0 0c.2.1.2.1.2 0s0-.1-.2 0c.1-.1 0-.1 0 0zM106.7 57.2c0 .1.1.1.1.1.1 0 .2-.1.2-.1 0-.1-.1-.1-.2-.1 0-.1-.1 0-.1.1zM89.2 4.9c0 .1.1.2.2.2s.2-.1.2-.2-.1-.2-.2-.2-.2.1-.2.2zM89.2 22.3c0 .1.1.2.2.2s.2-.1.2-.2-.1-.2-.2-.2c-.1.1-.2.1-.2.2zM89.3 39.8c0 .1.1.2.1.2.1 0 .2-.1.2-.2s-.1-.1-.2-.1c0-.1-.1 0-.1.1zM89.2 57.2c0 .1.1.2.2.2s.2-.1.2-.2-.1-.2-.2-.2-.2.1-.2.2zM71.9 4.9c0 .1.1.1.1.1.1 0 .1-.1.1-.1 0-.1-.1-.1-.1-.1-.1 0-.1 0-.1.1zM71.8 22.3c0 .1.1.2.2.2s.2-.1.2-.2-.1-.2-.2-.2c-.1.1-.2.1-.2.2z"/>
    <ellipse cx="72" cy="39.8" rx=".1" ry=".1"/>
    <path d="M71.9 57.2c0 .1 0 .1.1.1s.1 0 .1-.1 0-.1-.2 0c.1-.1 0-.1 0 0z"/>
    <ellipse cx="54.6" cy="4.9" rx=".1" ry=".1"/>
    <path d="M54.5 22.3c0 .1.1.1.2.1s.1-.1.1-.1c0-.1-.1-.1-.1-.1-.2 0-.2.1-.2.1z"/>
    <ellipse cx="54.6" cy="39.8" rx=".1" ry=".1"/>
    <path d="M54.5 57.2c0 .1 0 .1.1.1s.1 0 .1-.1 0-.1-.2 0c.1-.1 0-.1 0 0zM37.1 4.9c0 .1 0 .1 0 0 .2.1.2.1.2 0 0 0 0-.1-.2 0 0-.1 0 0 0 0zM37 22.3c0 .1.1.1.1.1.1 0 .2-.1.2-.1 0-.1-.1-.1-.2-.1l-.1.1zM37 39.8c0 .1.1.2.2.2s.2-.1.2-.2-.1-.2-.2-.2-.2 0-.2.2zM37 57.2c0 .1.1.1.1.1.1 0 .2-.1.2-.1 0-.1-.1-.1-.2-.1 0-.1-.1 0-.1.1zM19.6 4.9c0 .1.1.1.1.1.1 0 .2-.1.2-.1 0-.1-.1-.1-.2-.1 0 0-.1 0-.1.1zM19.6 22.3c0 .1.1.2.2.2s.2-.1.2-.2-.1-.2-.2-.2c-.1.1-.2.1-.2.2zM19.5 39.8c0 .1.1.2.2.2s.2-.1.2-.2-.1-.2-.2-.2c-.1-.1-.2 0-.2.2zM19.6 57.2c0 .1.1.1.1.1.1 0 .2-.1.2-.1 0-.1-.1-.1-.2-.1 0-.1-.1 0-.1.1zM2.1 4.9c0 .2.1.3.3.3.2 0 .3-.1.3-.3 0-.2-.1-.3-.3-.3-.2 0-.3.2-.3.3zM2 22.3c0 .2.2.4.4.4s.4-.2.4-.4-.2-.4-.4-.4c-.2.1-.4.2-.4.4zM1.9 39.8c0 .2.2.4.4.4s.4-.2.4-.4-.2-.4-.4-.4c-.2-.1-.4.1-.4.4zM1.8 57.2c0 .3.2.5.5.5s.5-.2.5-.5-.2-.5-.5-.5c-.2-.1-.5.2-.5.5z"/>
  </g>
</svg>
