<svg xmlns="http://www.w3.org/2000/svg" viewBox="0 0 74.1 74.9">
  <path fill="#1A8689" d="M18.5 58.3l.9 12.2-1.3 1.7 2.1 2h30l1.6-2-1.2-1.7 1.2-12.2z"/>
  <path fill="#FFD366" d="M17.1 43.9l1.4 14.4h30.3l3-4.4 1.1-10zM51.4 54.9l-2.6 5.3 19.1 11.3 5.4-8.7L54 51.7z"/>
  <path fill="#04282D" d="M74.1 62.4c-.2-.6-.6-1.2-1.2-1.5l-2.8-1.6.6-1.1c.7-1.2.3-2.7-.9-3.4l-7.5-4.4c-.4-.2-.8-.3-1.2-.3-.9 0-1.7.5-2.2 1.2l-.6 1.1-2.8-1.6c-.7-.4-1.5-.4-2.2-.1l.6-6.7.9-10.3c1.1-.4 1.8-1.4 1.8-2.5 0-1.5-1.2-2.7-2.7-2.7H16.1c-1.5 0-2.7 1.2-2.7 2.7 0 1.2.8 2.2 1.8 2.5l.9 10.3.6 6.3c-.1.1-.2.2-.2.3-1.3 2.4-2.1 4.6-2.6 6.2-.2.8-.8 3.1.6 4.1.3.2.7.4 1.2.4.6 0 1.2-.2 1.9-.6l.8 9.5c-.6.5-1 1.2-1 2.1 0 1.5 1.2 2.7 2.7 2.7h29.7c1.5 0 2.7-1.2 2.7-2.7 0-.8-.4-1.6-1-2.1l.6-6.4 8 4.6 4.5 2.6 1.8 1c.4.2.8.3 1.2.3.2 0 .4 0 .6-.1.6-.2 1.2-.6 1.5-1.2l2.4-4.2 1.5-2.6c.5-.4.6-1.1.5-1.8zM60.5 52.3c.1-.2.3-.3.5-.3.1 0 .2 0 .3.1l7.5 4.4c.3.2.4.5.2.8l-.6 1.1-6.4-3.8-2.1-1.2.6-1.1zM16.1 31.9c-.4 0-.8-.4-.8-.8s.4-.8.8-.8h37.8c.4 0 .8.4.8.8s-.4.8-.8.8h-3.7c-.5 0-1 .4-1 1s.4 1 1 1h2.7l-.9 9H33.7c1-1.6 2-3.1 2.8-4.6h.3c1.7 0 3-1.3 3-3v-1.6h7c.5 0 1-.4 1-1 0-.5-.4-1-1-1H16.1zm12.4 27.4h19.4v1.4s0 .1.1.1v.2c.1.2.3.4.5.6l.1.1h.1c.1 0 .1.1.2.1l1.3.7-.6 6.8H20.3l-.9-10c.1-.1.2-.2.4-.3h5.5c.5 0 1-.4 1-1s-.4-1-1-1H22c2.9-2.7 6.1-6.5 9.2-10.8.4-.6.8-1.1 1.2-1.7h19.5l-.8 8.6-.6 1-1.7 2.9H28.5c-.5 0-1 .4-1 1 0 .8.4 1.3 1 1.3zm7.2-23.9v-1.5h2.2v1.5c0 .6-.5 1.1-1.1 1.1-.6 0-1.1-.5-1.1-1.1zM15.6 59.3c-.2-.2-.3-1.7 1.4-5.4l.4 4.7c-1.1.7-1.6.8-1.8.7zm1.5-25.5h16.7v1.6c0 .9.4 1.6.9 2.2-1 1.7-2.1 3.6-3.4 5.4H17.9l-.8-9.2zM18.6 50l-.5-5.1H30c-.1.2-.3.4-.4.5-3.1 4.2-6.3 8-9.1 10.6-.5.5-.9.9-1.4 1.2l-.5-7.2zm31.2 23H20.1c-.4 0-.8-.4-.8-.8s.4-.8.8-.8h29.7c.4 0 .8.4.8.8 0 .5-.4.8-.8.8zm2.4-11.3l-.8-.5-.8-.5c.2-.2.4-.3.7-.3.2 0 .3 0 .5.1.3.3.5.8.4 1.2zM64.9 69l-3.1-1.8c.3-.5.9-.9 1.6-.9.3 0 .6.1.9.2.4.2.7.6.8 1.1.1.5 0 1-.2 1.4zm7.2-5.6l-1 1.8-4.9-2.8c-.5-.3-1-.1-1.3.4-.3.5-.1 1 .4 1.3l4.9 2.8-2 3.4-.3.3c-.1 0-.3 0-.4-.1l-.8-.5c.5-.9.6-1.9.4-2.8-.3-1-.9-1.8-1.7-2.3-.6-.3-1.2-.5-1.9-.5-1.3 0-2.6.7-3.2 1.8l-6.2-3.6c.6-1.3.1-3-1.2-3.7-.4-.3-.9-.4-1.5-.4-.4 0-.7.1-1 .2l.7-1.2.8-1.3 4.3 2.5c-.3.6-.4 1.3-.2 2s.6 1.3 1.3 1.7c.4.2.9.4 1.4.4 1 0 1.9-.5 2.3-1.3l1.7 1c.5.3 1 .1 1.3-.4.3-.5.1-1-.4-1.3l-4.1-2.4-1.5-.8-5.3-3.1.2-.3.8-1.5c.2-.3.5-.4.8-.2l3.6 2.1 13.8 8 .3.3c0 .2 0 .3-.1.5zm-14.4-3.8l1.4.8h.1c-.2.2-.4.4-.7.4-.1 0-.3 0-.4-.1-.2-.1-.3-.3-.4-.5-.1-.2-.1-.4 0-.6z"/>
  <g fill="#FFF" fill-rule="evenodd" stroke="#04282D" stroke-miterlimit="10" clip-rule="evenodd">
    <path d="M10.4 22.6c.4-.1.8-.1 1.3 0 .3 0 .6.1.9.1.5-.5 1.1-1 1.7-1.3.7-.4 1.5-.7 2.4-.8.3 0 .6-.1 1-.1h.6c.4-.6.9-1.2 1.5-1.6.7-.5 1.5-.8 2.4-.9.6-.1 1.2 0 1.7.1h.2c-.1-.2-.2-.3-.3-.5-.3-.5-.5-1.1-.6-1.7-.2-1.3.2-2.5.9-3.4.7-.9 1.8-1.6 3.1-1.8.8-.1 1.5 0 2.2.3.6.2 1.2.6 1.6 1h.2c.2 0 .4-.1.5-.1 1.5-.2 2.9 0 4.2.5 1.2.5 2.2 1.2 3.1 2.2.2-.1.4-.2.7-.3l1.2-.3c1.4-.2 2.7.2 3.8 1 .9.7 1.6 1.7 1.9 2.8.4 0 .8.1 1.2.2.5.1.9.3 1.3.6l.9-.3c.4-.1.8-.2 1.2-.2.3 0 .6-.1 1-.1h.6c.2-.3.5-.6.8-.8.4-.3.9-.5 1.4-.6.8-.1 1.6.1 2.2.6.6.5 1.1 1.2 1.2 2v.8c0 .2-.1.3-.1.5.2.2.4.5.6.7l.6.9c.6.1 1.1.4 1.6.8.5.5.8 1.1.9 1.8.1.7-.1 1.3-.4 1.9-.3.5-.7.9-1.1 1.2-.3 1.7-1.2 3.2-2.4 4.4-1.2 1.2-2.9 2.1-4.7 2.3-1.1.1-2.3.1-3.3-.2-.9-.3-1.7-.7-2.5-1.2-.6.8-1.4 1.5-2.2 2.1-1 .6-2.2 1.1-3.4 1.2-1.8.2-3.5-.1-4.9-.9-1.2-.7-2.3-1.6-3.1-2.8-.5.6-1 1.2-1.6 1.6-.9.6-1.9 1-3 1.1-1.5.2-3-.1-4.2-.8-1-.6-1.9-1.4-2.5-2.4-.4.5-.9.9-1.5 1.2-.8.4-1.6.8-2.6.9-.4.1-.8.1-1.3 0-.3 0-.6-.1-.9-.1-.5.5-1.1 1-1.7 1.3-.7.4-1.5.7-2.4.8-1.1.1-2.1 0-3.1-.3-.9-.3-1.7-.8-2.4-1.4-.1 0-.2 0-.3.1-.8.1-1.6-.1-2.2-.6-.6-.5-1.1-1.2-1.2-2-.1-.7.1-1.4.4-1.9.3-.5.7-.9 1.2-1.1.1-1.5.8-2.9 1.8-4 .8-1.4 2.2-2.2 3.9-2.5z"/>
    <path d="M49.7 8.8c1.1-.1 2.1.2 2.8.8.8.6 1.3 1.5 1.5 2.6.1 1.1-.2 2.1-.8 2.8-.6.8-1.5 1.3-2.6 1.5-1.1.1-2.1-.2-2.8-.8-.8-.6-1.3-1.5-1.5-2.6-.1-1.1.2-2.1.8-2.8.6-.8 1.5-1.3 2.6-1.5zM15.8 15.5c1.1-.1 2.1.2 2.8.8.8.6 1.3 1.5 1.5 2.6.1 1.1-.2 2.1-.8 2.8-.6.8-1.5 1.3-2.6 1.5-1.1.1-2.1-.2-2.8-.8-.8-.6-1.3-1.5-1.5-2.6-.1-1.1.2-2.1.8-2.8.7-.8 1.6-1.3 2.6-1.5zM39.5 7.1c.7-.1 1.5.1 2 .5.6.4 1 1.1 1.1 1.9.1.8-.1 1.5-.6 2.1-.4.6-1.1 1-1.9 1.1-.8.1-1.5-.1-2.1-.6-.6-.4-1-1.1-1.1-1.9-.1-.8.1-1.5.6-2.1.6-.5 1.2-.9 2-1zM30 4.5c.6-.1 1.3.1 1.7.5.5.4.8.9.9 1.6.1.6-.1 1.3-.5 1.7-.4.5-.9.8-1.6.9-.6.1-1.3-.1-1.7-.5-.4-.4-.8-.9-.8-1.5-.1-.6.1-1.3.5-1.7.3-.5.8-.9 1.5-1zM35 2.2c.4-.1.8.1 1.1.3.3.2.5.6.6 1 .1.4-.1.8-.3 1.1-.2.3-.6.5-1 .6-.4.1-.8-.1-1.1-.3-.3-.2-.5-.6-.6-1-.1-.5 0-.9.3-1.2.2-.3.6-.5 1-.5z"/>
    <circle cx="2.7" cy="24.4" r="2.1"/>
    <path d="M20.2 10.6c.6-.1 1.1.1 1.5.4.4.3.7.8.8 1.4.1.6-.1 1.1-.4 1.5-.3.4-.8.7-1.4.8-.6.1-1.1-.1-1.5-.4-.4-.3-.7-.8-.8-1.4-.1-.6.1-1.1.4-1.5.4-.5.9-.8 1.4-.8zM8.3 17.7c.6-.1 1.1.1 1.5.4.4.3.7.8.8 1.4.1.6-.1 1.1-.4 1.5-.3.4-.8.7-1.4.8-.6.1-1.1-.1-1.5-.4-.4-.3-.7-.8-.8-1.4-.1-.6.1-1.1.4-1.5.3-.4.8-.7 1.4-.8zM46.4 6.4c1.5-.2 2.6-1.6 2.4-3.1-.2-1.5-1.6-2.6-3.1-2.4-1.5.2-2.6 1.6-2.4 3.1s1.6 2.6 3.1 2.4z"/>
  </g>
</svg>
