<svg xmlns="http://www.w3.org/2000/svg" viewBox="0 0 202.1 229.9">
  <path fill="#FFD366" d="M143.4 177.6c26.5-.4 45.1-18 45.3-34.9.1-14.3-25-26.5-26.2-39.6-.8-9 7.2-20.2 21.2-20.9-1.7 1.1-10.9 7.8-11.8 16.4-.9 9 19.2 20.2 24.1 27.4 5.1 7.3 6.4 16.8 5.9 22.3-2.1 22.3-22 35.3-26.5 38-20 12.2-48.1 7.4-52.8 6.3"/>
  <path fill="none" stroke="#05282D" stroke-linejoin="round" stroke-miterlimit="10" d="M139.4 177c26.5-.4 47.2-17.9 47.4-34.8.1-14.3-25-26.5-26.2-39.6-.8-9 7.2-20.2 21.2-20.9-1.8 1-11 7.7-11.8 16.3-.9 9 19.2 20.2 24.1 27.4 5.1 7.3 6.4 16.8 5.9 22.3-2.1 22.3-22 35.3-26.5 38-20 12.2-49.5 6.6-54.3 5.4"/>
  <path fill="#FFD366" d="M89.3 45.8c-8.2 8.1-36.6 29.9-11.6 56.8-14 10-26.3 38.8-26.3 48 0 13.7-1.6 21.3 17.6 35.6 11.8 8.8 25.9 9 33 8.9 7.1.1 21.2 0 33-8.9 19.2-14.3 15.5-30.4 15.5-44.1 0-8.6-10.8-32.8-25.8-38.3 24.9-21.3-1.5-49.8-9.9-58"/>
  <path fill="none" stroke="#E29F27" stroke-miterlimit="10" d="M101.9 74.3v7.6" clip-rule="evenodd"/>
  <path fill="#FFF" d="M101.9 181.1c-2.7-.1-5.5-3.1-4.8-6.7.4 3.8-2.7 6.9-5.8 6.7-2.9-.1-5.5-3-5.2-6.4-.4 3.6-3.3 6.3-6.7 6.4-3.7.2-7-2.8-7.3-6.7-1 4.1-4.7 6.8-8.8 6.7-3.8-.1-7.1-2.8-8.1-6.6-1.2-4.9-5.7-26.3 6.9-47 7.4-12.1 17.3-18.6 22.7-21.6-2.8-5.6-6.9-15.7-7.3-28.8-.3-9.1 1.4-16.7 3-21.9l2.6-3c-4.5 8-3.5 17.7 2.1 23.8 6.3 6.8 15.7 5.7 16.8 5.8 1.1-.1 10.5.9 16.8-5.8 5.6-6.1 6.6-15.7 2.1-23.8l2.6 3c1.6 5.2 3.2 12.7 3 21.9-.4 13.1-4.4 23.1-7.3 28.8 5.4 3 15.3 9.5 22.7 21.6 12.6 20.7 8.1 42.1 6.9 47-1 3.8-4.3 6.5-8.1 6.6-4.1.2-7.8-2.6-8.8-6.7-.3 3.9-3.6 6.9-7.3 6.7-3.4-.2-6.3-2.9-6.7-6.4.2 3.5-2.4 6.3-5.2 6.4-3.1.2-6.2-2.9-5.8-6.7.6 3.6-2.3 6.6-5 6.7z"/>
  <path fill="none" stroke="#05282D" stroke-linejoin="round" stroke-miterlimit="10" d="M99.9 179c-2.7-.1-5.5-3.1-4.8-6.7.4 3.8-2.7 6.9-5.8 6.7-2.9-.1-5.5-3-5.2-6.4-.4 3.6-3.3 6.3-6.7 6.4-3.7.2-7-2.8-7.3-6.7-1 4.1-4.7 6.8-8.8 6.7-3.8-.1-7.1-2.8-8.1-6.6-1.2-4.9-5.7-26.3 6.9-47 7.4-12.1 17.5-17.3 22.8-20.3-2.8-5.6-7.1-17-7.4-30-.3-9.1 1.4-16.7 3-21.9l2.6-3c-4.5 8-3.5 17.7 2.1 23.8 6.3 6.8 15.7 5.7 16.8 5.8 1.1-.1 10.5.9 16.8-5.8 5.6-6.1 6.6-15.7 2.1-23.8l2.6 3c1.6 5.2 3.2 12.7 3 21.9-.4 13.1-4.8 24.8-7.7 30.4 5.4 3 15.7 7.8 23.1 19.9 12.6 20.7 8.1 42.1 6.9 47-1 3.8-4.3 6.5-8.1 6.6-4.1.2-7.8-2.6-8.8-6.7-.3 3.9-3.6 6.9-7.3 6.7-3.4-.2-6.3-2.9-6.7-6.4.2 3.5-2.4 6.3-5.2 6.4-3.1.2-6.2-2.9-5.8-6.7.5 3.6-2.4 6.6-5 6.7z"/>
  <path fill="#FFD366" d="M117.6 193.8l-3.5 36.1h-6.5V195M86.3 193.8l3.5 36.1h6.5V195"/>
  <path fill="#05282D" d="M104.3 229.9s4.1-8.7 6.9-8.7c2.9 0 7.4 8.7 7.4 8.7h-14.3zM99.6 229.9s-4.1-8.7-6.9-8.7c-2.9 0-7.4 8.7-7.4 8.7h14.3z"/>
  <path fill="#FCAF32" d="M114.7 45.8c4.1 4.2-5.6 13.2-12.8 13.2-7.2 0-16.3-8.2-12.7-13.8 4.2-6.6 5.6-14.6 12.7-14.6 7.2 0 7.3 9.6 12.8 15.2z"/>
  <path fill="none" stroke="#05282D" stroke-linejoin="round" stroke-miterlimit="10" d="M115.7 192.2l-3.5 36.2h-6.5v-34.9M84.2 192.7l3.5 36.2h6.5V194"/>
  <path fill="#FFD366" d="M127.3 65.2c3.5 11.1 8.1 13.9 18.4 14.6 9.3.7 16.1-4.7 17.8-6.2l2.7 3.2c-1.6 1.6-10.9 11.1-22.9 9.5-2.5-.3-7.5-2.2-9.5-3.2M73.1 67C69.6 78.1 66 79.1 55.7 79.9c-9.3.7-16.1-4.7-17.8-6.2l-2.7 3.2c1.6 1.6 10.9 11.1 22.9 9.5 2.5-.3 11-2.9 12.9-3.8"/>
  <path fill="#FFD366" stroke="#05282D" stroke-miterlimit="10" d="M62.3 181.9c3.6 3 17.1 13.6 37.4 13.8 20.9.1 34.9-11 38.4-14"/>
  <path fill="#FFD366" fill-rule="evenodd" stroke="#05282D" stroke-miterlimit="10" d="M96.7 118.6c-5.5 7.9-6.3 10.2-6.3 20.6 0 6.9-20.5.3-16.9-5.1 5.2-7.8 5.9-10.3 6.3-20.6.2-6.6 20.8-.5 16.9 5.1zm-12.3-4.9c-.6-.2-1.3.2-1.5.8-.2.6.2 1.3.8 1.5.6.2 1.3-.2 1.5-.8.2-.6-.2-1.3-.8-1.5zm-.2 5.8c-.3-.1-.6.1-.7.4-.1.3.1.6.4.7.3.1.6-.1.7-.4.1-.3-.1-.6-.4-.7zm3.8-.5c-.3-.1-.6.1-.7.4-.1.3.1.6.4.7.3.1.6-.1.7-.4 0-.3-.1-.6-.4-.7zm6.2-1.5c-.3-.1-.6.1-.7.4-.1.3.1.6.4.7.3.1.6-.1.7-.4.1-.3-.1-.6-.4-.7zm-2.8 2.7c-.5-.2-1 .1-1.2.6-.2.5.1 1 .6 1.2.5.2 1-.1 1.2-.6.2-.5-.1-1-.6-1.2zM87.6 131c-.4-.1-.9.1-1 .5-.1.4.1.9.5 1 .4.1.9-.1 1-.5.2-.4-.1-.9-.5-1zm-3.6-7.1c-.4-.1-.9.1-1 .5-.1.4.1.9.5 1 .4.1.9-.1 1-.5.2-.4 0-.8-.5-1zm5.5-10.1c-.4-.1-.9.1-1 .5-.1.4.1.9.5 1 .4.1.9-.1 1-.5.1-.4-.1-.8-.5-1zm-12.2 17.7c-.3-.1-.6.1-.7.4-.1.3.1.6.4.7.3.1.6-.1.7-.4 0-.3-.1-.6-.4-.7zm4.5 3.5c-.4-.1-.9.1-1 .5-.1.4.1.9.5 1 .4.1.9-.1 1-.5.2-.4-.1-.9-.5-1zm5.7 3c-.4-.1-.9.1-1 .5-.1.4.1.9.5 1 .4.1.9-.1 1-.5.2-.5-.1-.9-.5-1z" clip-rule="evenodd"/>
  <path fill="#C6E8EE" d="M101.9 170.1c-4.2 0-12.9-1-20.7-7.5-10.9-9.2-14.4-26.8-9.6-41.9 11 10.9 30.3 11.1 30.3 11.1s19.3-.1 30.2-11.1c4.8 15.1 1.3 32.6-9.6 41.9-7.6 6.4-16.4 7.5-20.6 7.5z"/>
  <path fill="none" stroke="#05282D" stroke-linejoin="round" stroke-miterlimit="10" d="M99.7 168.5c-4.2 0-12.9-1-20.7-7.5-10.9-9.2-14.4-26.8-9.6-41.9 11 10.9 30.3 11.1 30.3 11.1s19.3-.1 30.3-11.1c4.8 15.1 1.3 32.6-9.6 41.9-7.7 6.5-16.5 7.5-20.7 7.5z"/>
  <g fill="#FFD366" fill-rule="evenodd" stroke="#05282D" stroke-miterlimit="10" clip-rule="evenodd">
    <path d="M119 124.9c2.2 8.2.3 5.1 5.3 13 .7 1.1 3.5 4.9 2 5.7-1.2.7-3.6-3.6-4.5-4.8.7 2.4 2.1 5.7 2.3 8 .1 1.8-1.2 1.7-2 .4-.9-1.4-1.8-5.2-2.7-6.9-.1 1.7 1.7 6.1 2 8.4.2 1.3-.6 1.7-1.3 1.4-.5-.2-.9-.9-1.2-1.7-.9-2.7-1.6-4.8-2.8-7.5 0 1.8 2 8.6-.2 8.7-1.5.1-1.8-2-1.9-3.6-.1-1-.2-2-.4-3 .3.2.6.3 1 .3h.1c.1 0 .2 0 .3-.1.6-.2.9-1.1 1-2.2.1-1-.1-2.4-.3-3.8-.5-2.6-1.3-5.3-1.9-6.4-6.6-.2-4.9-4.3-4.9-4.3.4-.9 10.1-1.6 10.1-1.6z"/>
    <path d="M113.6 126.3l-9.6 1.4c-2.2 8.4-.3 2.9-5.4 10.9-.7 1.2-3.5 4.9-2 5.8 1.2.7 3.6-3.7 4.6-4.9-.7 2.4-2.1 5.8-2.3 8.2-.1 1.8 1.2 1.7 2 .4.9-1.4 1.8-5.3 2.7-7 .1 1.7-1.7 6.2-2 8.5-.2 1.3.6 1.7 1.3 1.4.5-.2.9-.9 1.2-1.8.9-2.7 1.6-4.9 2.8-7.6 0 1.8-2 8.7.2 8.9 1.5.1 1.8-2.1 2-3.6.3-3.3 1.3-6.9 2.7-9.9 0 1.6.3 5.9 2.7 5.9 2.4-.1.1-9.8-1.1-12 .1-3.4.2-2.9.2-4.6z"/>
  </g>
  <path fill="#04282D" d="M76.3 101c13.9 7.7 39.4 5.3 50.2 1.1l.3 2.7c-5.8 3.9-36.2 7.9-50.7-1l.2-2.8z"/>
  <g>
    <path fill="#FFF" d="M101.9 3.3c-6.1 0-14.5 7-14.5 7l4.1 10.5h20.8l4.1-10.5s-8.9-7-14.5-7z"/>
    <path fill="#FFD366" d="M101.9 55.7c-2.3-1-10.1-4.6-14.8-12.8-3.8-6.6-3.9-12.9-3.8-15.6-2-.6-7.4-2.4-11.4-7.6-5.9-7.6-4.6-16.4-4.3-17.9 2.1.3 7.3 1.3 11.8 5.6 7.2 6.8 6.6 16.3 6.5 17.7.6-1.1 6-7.7 16-7.7s15.4 6.6 16 7.7c-.1-1.4-.7-10.8 6.5-17.7 4.5-4.3 9.7-5.3 11.7-5.6.3 1.5 1.6 10.3-4.3 17.9-4.1 5.2-9.4 7.1-11.4 7.6.1 2.7 0 9-3.8 15.6-4.6 8.2-12.3 11.9-14.7 12.8z"/>
    <path fill="none" stroke="#05282D" stroke-linejoin="round" stroke-miterlimit="10" d="M81.2 26.5c-2-.6-7.4-2.4-11.4-7.6-5.9-7.6-4.6-16.4-4.3-17.9 2.1.3 7.3 1.3 11.8 5.6 7.2 6.8 6.6 16.3 6.5 17.7.6-1.1 6-7.7 16-7.7s15.4 6.6 16 7.7c-.1-1.4-.7-10.8 6.5-17.7 4.5-4.3 9.7-5.3 11.8-5.6.3 1.5 1.6 10.3-4.3 17.9-4.1 5.2-9.4 7.1-11.4 7.6"/>
    <path fill="none" stroke="#05282D" stroke-linejoin="round" stroke-miterlimit="10" d="M111 19.8l4.1-10.5s-8.9-7-14.5-7c-6.1 0-14.5 7-14.5 7l3.8 9.7"/>
    <path fill="#05282D" d="M101.9 47.9c-3-1.5-4.4-3.7-3.9-4.8.4-.9 2.1-.2 3.9 0 1.8-.2 3.5-.9 3.9 0 .5 1.1-.9 3.3-3.9 4.8zM107.2 30.6s2.8-3 5.1-1.9c1.3.6 2.2 2.2 2.1 4-1 .1-2.5.1-4.2-.4-1.1-.4-3-1.7-3-1.7z"/>
    <ellipse cx="109.9" cy="29.3" fill="#FFF" rx=".8" ry=".9" transform="rotate(17.687 109.862 29.315)"/>
    <path fill="#05282D" d="M96.7 30.6s-2.8-3-5.1-1.9c-1.3.6-2.2 2.2-2.1 4 1 .1 2.5.1 4.2-.4 1.1-.4 3-1.7 3-1.7z"/>
    <ellipse cx="91" cy="29.3" fill="#FFF" rx=".8" ry=".9" transform="rotate(17.687 91.048 29.315)"/>
    <g fill="#BF4070">
      <ellipse cx="92.5" cy="37.8" opacity=".35" rx="4.2" ry="3.3" transform="rotate(-18.402 92.446 37.803)"/>
      <ellipse cx="111.5" cy="37.8" opacity=".35" rx="4.2" ry="3.3" transform="scale(-1) rotate(18.402 233.375 -688.029)"/>
    </g>
    <path fill="#BF4070" d="M131.9 7.6s.4 6.2-2.5 9.4c-2.3 2.6-5.2 3.4-6.7 3.7-.1-1.5-.3-5.6 2.4-9.1 2-2.6 6.8-4 6.8-4zM71.8 7.6s-.4 6.2 2.5 9.4c2.3 2.6 5.2 3.4 6.7 3.7.1-1.5.3-5.6-2.4-9.1-1.9-2.6-6.8-4-6.8-4z" opacity=".35"/>
    <g fill="none" stroke="#05282D" stroke-linejoin="round" stroke-miterlimit="10">
      <path d="M96.6 48.1c1.1 2 3.3 3.2 5.5 3.1 3.1-.2 4.6-2.9 4.7-3.1M105.9 47.1l2 2.1M97.5 47.1l-2 2.1"/>
    </g>
  </g>
  <g fill-rule="evenodd" stroke="#05282D" stroke-miterlimit="10" clip-rule="evenodd">
    <path fill="#C6E8EE" d="M105.9 207.3l1.1.2-2.2 8.5-3.8-.7zM109.9 208l1.1.2-1.9 8.5-3.8-.6zM113.9 208.8l1.1.1-1.6 8.6-3.8-.7zM117.9 209.5l1.1.2-1.3 8.6-3.8-.7zM121.7 210.1l1 .2-.8 8.8-3.7-.7zM125.9 210.9l1.1.2-.8 8.7-3.8-.6zM129.9 211.6l1.1.2-.5 8.8-3.8-.7zM134.2 212.4l1.1.2-.5 8.8-3.8-.7zM138.2 213.1l1.1.2-.2 8.9-3.8-.7zM142.5 213.9l1 .2-.1 8.8-3.8-.6zM146.5 214.6l1 .2.1 8.9-3.7-.7zM150.8 215.4l1 .2.1 8.9-3.7-.7zM154.8 216.1l1 .2.4 9-3.8-.7zM159.1 216.9l1 .2.4 8.9-3.8-.6zM162.8 217.6l1 .2 1 9-3.8-.7zM166.8 218.3l1 .2 1.3 9.1-3.8-.7zM170.8 219l1 .2 1.6 9.2-3.8-.7zM174.8 219.7l1 .2 1.8 9.2-3.7-.6z"/>
    <path fill="#1A8689" d="M165.5 85.3l-3-.5c-.6-.1-1.1-.7-.9-1.4l5-27.2c.1-.6.7-1.1 1.4-.9l3 .5c.6.1 1.1.7.9 1.4l-5 27.2c-.2.6-.8 1-1.4.9z"/>
    <path fill="#C6E8EE" d="M169 57.3c-.5-.1-1.2 1.4-1.5 3.3-.3 1.9-.2 3.5.3 3.6.5.1 1.2-1.4 1.5-3.3.3-1.9.2-3.5-.3-3.6zm-64.3 145.3l34.9 6.3 22.4-124c-.5-.3 4.5.6 3.9.7l-22.4 124 34.9 6.3c1.2.2 2.1 1.4 1.9 2.7-.2 1.2-1.4 2.1-2.7 1.9L104 207.2c-1.2-.2-2.1-1.4-1.9-2.7.2-1.3 1.4-2.1 2.6-1.9z"/>
  </g>
  <g>
    <path fill="#1A8689" fill-rule="evenodd" d="M39.1 87.2c-.6 0-1.2-.4-1.5-1l-8.1-19c-.2-.4-.2-.8 0-1.2s.5-.7.9-.9l2-.9c.2-.1.4-.1.6-.1.6 0 1.2.4 1.5 1l8.1 19c.2.4.2.8 0 1.2-.2.4-.5.7-.9.9l-2 .9c-.2.1-.4.1-.6.1zm-.8-6.4c.1.4.2 1 .5 1.7s.6 1.2.8 1.5c-.1-.4-.2-1-.5-1.7s-.6-1.1-.8-1.5z" clip-rule="evenodd"/>
    <path fill="#05282D" d="M33 64.7c.4 0 .8.3 1 .7l8.1 19c.2.6 0 1.2-.6 1.5l-2 .9c-.1.1-.3.1-.4.1-.4 0-.8-.3-1-.7l-8.1-19c-.2-.6 0-1.2.6-1.5l2-.9c.2-.1.3-.1.4-.1m6.9 20.2s.1 0 0 0c.4-.2.2-1.4-.3-2.7C39 80.9 38.4 80 38 80h-.1c-.3.1-.2 1.3.4 2.7.6 1.3 1.2 2.2 1.6 2.2M33 63.7c-.3 0-.6.1-.8.2l-2 .9c-.5.2-.9.6-1.1 1.2-.2.5-.2 1.1 0 1.6l8.1 19c.3.8 1.1 1.3 1.9 1.3.3 0 .6-.1.8-.2l2-.9c.5-.2.9-.6 1.1-1.2.2-.5.2-1.1 0-1.6l-8-19c-.3-.8-1.1-1.3-2-1.3z"/>
    <path fill="#C6E8EE" fill-rule="evenodd" d="M1.3 29.2l10.2-1.4.7 1.5-9.3 3.6z" clip-rule="evenodd"/>
    <path fill="#05282D" d="M11.2 28.3l.3.7-8.4 3.2L2 29.6l9.2-1.3m.6-1.1l-.8.1-9.2 1.3-1.3.2.6 1.2 1.1 2.6.4.9.9-.3 8.4-3.2 1-.4-.4-1-.3-.7-.4-.7z"/>
    <path fill="#C6E8EE" fill-rule="evenodd" d="M2.6 32.2l10-1.9.6 1.5-9.1 4.1z" clip-rule="evenodd"/>
    <path fill="#05282D" d="M12.3 30.8l.3.7-8.2 3.7-1.1-2.6 9-1.8m.6-1.1l-.8.2-9 1.8-1.2.2.5 1.1 1.1 2.6.4.9.9-.4 8.2-3.7.9-.4-.4-.9-.3-.7-.3-.7z"/>
    <path fill="#C6E8EE" fill-rule="evenodd" d="M3.9 35.2l9.9-2.1.7 1.6-9.1 4.2z" clip-rule="evenodd"/>
    <path fill="#05282D" d="M13.5 33.7l.3.7-8.1 3.8-1.1-2.6 8.9-1.9m.6-1.1l-.8.2-9 1.9-1.2.2.5 1.1 1.1 2.6.4.9.9-.4 8.1-3.8.9-.4-.4-.9-.3-.7-.2-.7z"/>
    <path fill="#C6E8EE" fill-rule="evenodd" d="M5.1 38.2l9.9-2.4.6 1.6-8.9 4.5z" clip-rule="evenodd"/>
    <path fill="#05282D" d="M14.7 36.4l.3.7-8 4.1-1.1-2.6 8.8-2.2m.6-1.2l-.8.2-8.8 2.2-1.1.3.3 1.1L6 41.6l.4 1 1-.5 8-4.1.8-.4-.4-.9-.2-.7-.3-.8z"/>
    <path fill="#C6E8EE" fill-rule="evenodd" d="M6.4 41.3l9.8-2.7.6 1.6L8 44.9z" clip-rule="evenodd"/>
    <path fill="#05282D" d="M15.9 39.2l.3.7-7.9 4.3-1.1-2.6 8.7-2.4m.5-1.2l-.8.2-8.8 2.4-1.1.3.5 1.1 1.1 2.6.4 1 1-.5 7.9-4.3.8-.4-.4-.8-.3-.7-.3-.9z"/>
    <path fill="#C6E8EE" fill-rule="evenodd" d="M7.7 44.3l9.6-2.9.7 1.6-8.7 5z" clip-rule="evenodd"/>
    <path fill="#05282D" d="M17.1 42l.3.7-7.8 4.5-1.1-2.6 8.6-2.6m.5-1.2l-.9.3L8 43.7 7 44l.4 1 1.1 2.6.4 1 1-.6 7.8-4.5.8-.4-.3-.8-.2-.7-.4-.8z"/>
    <path fill="#C6E8EE" fill-rule="evenodd" d="M9 47.3l9.6-2.9.7 1.6-8.7 5z" clip-rule="evenodd"/>
    <path fill="#05282D" d="M18.3 45l.3.7-7.8 4.5-1.1-2.6 8.6-2.6m.6-1.2l-.9.3-8.7 2.6-1 .3.4 1 1.1 2.6.4 1 1-.6 7.8-4.5.8-.4-.3-.8-.3-.7-.3-.8z"/>
    <g>
      <path fill="#C6E8EE" fill-rule="evenodd" d="M10.3 50.3l9.5-3.1.7 1.6-8.6 5.2z" clip-rule="evenodd"/>
      <path fill="#05282D" d="M19.5 47.8l.3.7-7.8 4.7-1-2.6 8.5-2.8m.6-1.2l-.9.3-8.6 2.8-1 .3.4 1 1.1 2.6.5 1.1 1-.6 7.8-4.7.7-.4-.3-.8-.3-.7-.4-.9z"/>
    </g>
    <g>
      <path fill="#C6E8EE" fill-rule="evenodd" d="M11.6 53.3L21 50l.7 1.6-8.6 5.4z" clip-rule="evenodd"/>
      <path fill="#05282D" d="M20.7 50.6l.3.7-7.7 4.9-1.1-2.6 8.5-3m.6-1.2l-.9.3-8.5 3-1 .4.4 1 1.1 2.6.5 1.1 1-.6 7.7-4.9.7-.5-.3-.8-.3-.7-.4-.9z"/>
    </g>
    <g>
      <path fill="#C6E8EE" fill-rule="evenodd" d="M12.9 56.3l9.3-3.6.6 1.5-8.4 5.8z" clip-rule="evenodd"/>
      <path fill="#05282D" d="M21.9 53.3l.3.7-7.6 5.2-1.1-2.6 8.4-3.3m.5-1.3l-.9.4-8.4 3.3-1 .4.4.9 1.1 2.6.5 1.1 1-.7 7.6-5.2.7-.5-.3-.8-.3-.7-.4-.8z"/>
    </g>
    <g>
      <path fill="#C6E8EE" fill-rule="evenodd" d="M14.1 59.3l9.3-3.7.7 1.5-8.4 5.9z" clip-rule="evenodd"/>
      <path fill="#05282D" d="M23.1 56.2l.3.7-7.5 5.3-1.1-2.6 8.3-3.4m.6-1.3l-.9.4-8.3 3.4-1 .3.4.9 1.1 2.6.5 1.1 1-.7 7.5-5.3.7-.5-.3-.7-.4-.6-.3-.9z"/>
    </g>
    <g>
      <path fill="#C6E8EE" fill-rule="evenodd" d="M15.4 62.3l9.1-4.3.6 1.6L17 66z" clip-rule="evenodd"/>
      <path fill="#05282D" d="M24.2 58.7l.3.7-7.3 5.8-1.1-2.6 8.1-3.9m.5-1.3l-.9.4-8.1 3.9-.9.4.4.9 1.1 2.6.5 1.2 1-.8 7.3-5.8.6-.5-.3-.7-.3-.7-.4-.9z"/>
    </g>
    <g>
      <path fill="#1A8689" fill-rule="evenodd" d="M26.2 62.9c-.9 0-1.7-.5-2.1-1.4L9.6 27.3c-.5-1.1 0-2.4 1.2-2.9.3-.1.6-.2.9-.2.9 0 1.7.5 2.1 1.4l14.6 34.2c.5 1.1 0 2.4-1.2 2.9-.4.1-.7.2-1 .2z" clip-rule="evenodd"/>
      <path fill="#05282D" d="M11.6 24.7c.7 0 1.3.4 1.6 1L27.8 60c.4.9 0 1.9-.9 2.3-.2.1-.4.1-.7.1-.7 0-1.3-.4-1.6-1L10 27.1c-.4-.9 0-1.9.9-2.3.3 0 .5-.1.7-.1m0-1c-.4 0-.7.1-1.1.2-.7.3-1.2.8-1.5 1.5-.3.7-.3 1.4 0 2.1l14.6 34.2c.4 1 1.4 1.7 2.5 1.7.4 0 .7-.1 1.1-.2 1.4-.6 2-2.2 1.4-3.6L14.1 25.4c-.4-1-1.4-1.7-2.5-1.7z"/>
    </g>
    <g>
      <path fill="#1A8689" fill-rule="evenodd" d="M32.4 68.4c-.6 0-1.1-.2-1.6-.6L25 62.6c-.6-.5-.9-1.4-.8-2.1.1-.5.4-.9.8-1.1.6-.2 1.1-.5 1.7-.5.5 0 .9.2 1.3.5l5.8 5.2c.9.8.9 2.2.1 3.1-.3.5-.9.7-1.5.7z" clip-rule="evenodd"/>
      <path fill="#05282D" d="M26.8 59.4c.3 0 .7.1.9.4l5.8 5.2c.7.6.7 1.7.1 2.4-.3.4-.7.5-1.2.5-.4 0-.9-.2-1.2-.5l-5.8-5.2c-.7-.6-.9-2.1-.1-2.4.5-.2 1-.4 1.5-.4m0-1c-.7 0-1.3.2-1.9.5-.6.3-1 .8-1.1 1.5-.2.9.2 2 .9 2.6l5.8 5.2c.5.5 1.2.7 1.9.7.8 0 1.5-.3 2-.9 1-1.2.9-2.9-.1-3.8L28.4 59c-.4-.4-1-.6-1.6-.6z"/>
    </g>
  </g>
  <path fill="#FFD366" d="M160.3 76c-.8-2.8.5-5.5 2.6-6.4 2.1-.8 4.1.4 4.4.6.1.2.4 1.1 0 1.9-.5 1-2.2 1.4-3.8.6l-1.5 2.2-1.7 1.1zM168.1 71.5c1.1-1 3-1.9 4.1-1.1 1.2.8.8 3.2.6 4.2-.1.4-1.1 5.9-4.9 6.6-1.9.3-4.2-.6-4.5-1.9-.2-1 1.2-1.4 2.7-4 1.2-2.1.9-2.8 2-3.8zM41.1 76c.8-2.8-.5-5.5-2.6-6.4-2.1-.8-4.1.4-4.4.6-.1.2-.4 1.1 0 1.9.5 1 2.2 1.4 3.8.6l1.5 2.2 1.7 1.1zM33.1 71.2c-1.1-1-3-1.9-4.1-1.1-1.2.8-.8 3.2-.6 4.2.1.4 1.1 5.9 4.9 6.6 1.9.3 4.2-.6 4.5-1.9.2-1-1.2-1.4-2.7-4-1.3-2.1-.9-2.8-2-3.8z"/>
</svg>
