<svg xmlns="http://www.w3.org/2000/svg" viewBox="-213 300.6 168.6 240.3">
  <path fill="#FCAF32" d="M-133.4 350.5l.4 6.3 5.3 2.2 2.3-8.9z"/>
  <path fill="#FFD366" d="M-102.5 346.8c-.5-7.1-4.8-19.8-15.3-24-1.8-.7-9.1-3.6-15.4 0-8.1 4.6-10.4 17.2-6.3 24.2 7 11.8 37-.2 37-.2z"/>
  <path fill="#FFD366" d="M-159.4 302.1s-.9 14.1 5.7 21.6c5.2 5.8 11.9 7.7 15.3 8.4.3-3.5.6-12.8-5.6-20.9-4.4-5.7-15.4-9.1-15.4-9.1z"/>
  <path fill="#05282D" d="M-123.5 333.9s-2.3-3.4-4.7-2.8c-1.4.4-2.5 1.8-2.8 3.6.9.3 2.4.5 4.2.3 1.2-.1 3.3-1.1 3.3-1.1z"/>
  <ellipse cx="-125.8" cy="332.2" fill="#FFF" rx=".9" ry=".8" transform="rotate(82.022 -125.84 332.231)"/>
  <ellipse cx="-122.9" cy="342.4" fill="#BF4070" opacity=".35" rx="3.3" ry="4.2" transform="scale(-1) rotate(71.598 474.713 170.412)"/>
  <path fill="none" stroke="#05282D" stroke-miterlimit="10" d="M-108.3 348.3s-3.8.9-4.6-2.4M-112.3 345.2l-1.6 2.2"/>
  <path fill="#BF4070" d="M-154.4 309.8s-.4 6.2 2.5 9.4c2.3 2.6 5.2 3.4 6.7 3.7.1-1.5.3-5.6-2.4-9.1-1.9-2.6-6.8-4-6.8-4z" opacity=".35"/>
  <path fill="#FFD366" d="M-162.5 446c2.5-4.8 21.5-33.4 23-40.2 3.4-15.8 1-27.4-.7-37.3-.8-4.4.9-8.9 4.3-11.7l.5-.4c3.3 0 6.6.3 9.8 1 14.8 3.4 7.9 10.7 26.2 22.6 5 3.3 5.6 10.5 1.1 14.5-.1.1-.3.2-.4.3-5.9 4.2-9 11.1-7.6 18.2 1.8 8.3 3 18.4 2.6 29.7-.5 14.6-.8 25.1-7.9 33.9-14.8 18.4-51.7 19.6-58.7 6.7-5-8.7 1.7-25.4 7.8-37.3z"/>
  <path fill="#FFD366" d="M-143 459.5c-14.9 9.1-33.4 7.1-44.2-3.9s-12-29.1-5.5-39.3c5.1-8.1 13.7-9 15.1-17.8.1-.9 1.2-8.3-4.1-13-4.9-4.4-11.5-3.1-12.3-3 5.8 3.4 9.6 6.7 6.9 12.8-1.8 4.1-7.5 4.9-12.2 7.6-12.4 7-14.9 28.2-13.3 39.7 3 21.6 25.2 40.6 54.7 43.9"/>
  <path fill="#E4F7F9" d="M-138.7 468.5c-1.5 1.3-3.8.4-4-1.5-.8-6.9-1.1-17.3 2.4-29.1 4.5-15.5 13.1-25.6 17.7-30.2-2.1-5.3-4.2-10.9-6.2-16.7-4.2-11.9-7.5-23.3-10.2-34.2h3.1c.3 1.5 3 12.8 13.9 18 7.2 3.5 15.2 2.1 17.6 1.6.7.2 9.8 2.9 10.9 9.3.6 3.3-1.2 6.2-3.8 10.3-3.1 4.9-6.7 8.3-9.2 10.3 2.7 8.3 5.7 20.3 5.7 35 0 10.4-1.5 19.3-3.2 26.2-.6 2.7-3.1 4.4-5.3 4-1.7-.3-3.1-1.8-3.5-3.7-.2 2-1.8 3.5-3.7 3.7-2 .2-3.9-1.1-4.5-3.1-1.2 2.2-3.5 3.4-5.7 3.1-2.5-.3-3.8-2.5-4-2.8-.9 2.2-3.2 3.4-5.2 2.8-2.1-.5-2.8-2.9-2.8-3z"/>
  <path fill="none" stroke="#05282D" stroke-linejoin="round" stroke-miterlimit="10" d="M-137 467.8c-1.5 1.3-3.8.4-4-1.5-.8-6.9-1.1-17.3 2.4-29.1 4.5-15.5 13.1-25.6 17.7-30.2-2.1-5.3-4.2-10.9-6.2-16.7-4.1-11.9-7.5-23.4-10.2-34.2h3.1c.3 1.5 3 12.8 13.9 18 7.2 3.5 15.2 2.1 17.6 1.6.7.2 9.8 2.9 10.9 9.3.6 3.3-1.2 6.2-3.8 10.3-3.1 4.9-6.7 8.3-9.2 10.3 2.7 8.3 5.7 20.3 5.7 35 0 10.4-1.5 19.3-3.2 26.2-.6 2.7-3.1 4.4-5.3 4-1.7-.3-3.1-1.8-3.5-3.7-.2 2-1.8 3.5-3.7 3.7-2 .2-3.9-1.1-4.5-3.1-1.2 2.2-3.5 3.4-5.7 3.1-2.5-.3-3.8-2.5-4-2.8-.9 2.2-3.2 3.4-5.2 2.8-2.1-.4-2.8-2.9-2.8-3zM-162.5 463.9c-5.7 2.1-18.9-4.9-23.2-8.9-11.3-10.5-12-29.1-5.5-39.3 5.1-8.1 13.7-9 15.1-17.8.1-.9 1.2-8.3-4.1-13-4.9-4.4-11.5-3.1-12.3-3 5.7 3.3 9.5 6.7 6.9 12.7-1.8 4.1-7.5 4.9-12.2 7.6-12.4 7.1-14.9 28.3-13.3 39.8 3.1 21.6 21.7 34.9 42.9 41.6"/>
  <path fill="#E4F7F9" d="M-122 321.5l2.7-12.8c-.9-.3-6.2-1.9-11.6 1-4.3 2.4-6.9 7.1-7.4 8.3l.9 9.5 15.4-6z"/>
  <path fill="none" stroke="#05282D" stroke-linejoin="round" stroke-miterlimit="10" d="M-136.9 331.3c-3.4-.7-10.1-2.6-15.3-8.4-6.7-7.5-5.7-21.6-5.7-21.6s11 3.4 15.4 9.1c6.2 8 5.1 17 5.1 17 4.1-5.4 10.6-8.2 17.1-7.3 7.4 1.1 13.5 6.9 15.2 14.5"/>
  <path fill="#FFD366" d="M-133.7 486l-4.3 54.9h-3.5l-5.6-51.1z"/>
  <path fill="none" stroke="#05282D" stroke-linejoin="round" stroke-miterlimit="10" d="M-144.4 489.4l4.2 50.8"/>
  <path fill="#05282D" d="M-103 343c-1.2-1.2-2.9-1.5-3.8-.9-1.2.8-.9 3.2.3 4.4 1.1 1.1 2.1 1 4 .2 0-1.6-.5-3.7-.5-3.7z"/>
  <path fill="#FFD366" d="M-126.2 486l-4.3 54.9h-3.5l-5.5-51.1z"/>
  <path fill="#05282D" d="M-134 540.9h19.8c-.7-1.1-2.4-3.2-5.3-4.4-5.6-2.3-10.9.9-11.5 1.3l-3 3.1z"/>
  <path fill="none" stroke="#05282D" stroke-linejoin="round" stroke-miterlimit="10" d="M-136.9 489.4l4.2 50.8M-124.9 485.6l-4 53.2M-120.2 320.1l2.7-12.8c-.9-.3-7.4-2.2-12.8.7-4.3 2.4-8.5 6.9-8.9 8.1"/>
  <path fill="#05282D" d="M-141.5 540.9c.8-.9 2.5-2.6 5.1-3.2.6-.1 1.1-.2 1.6-.2l.5 3.4h-7.2z"/>
  <path fill="#C6E8EE" d="M-101.3 431c-11.8.4-20.7-7-20.7-7-.2 3.6-.3 16.4 8.9 26.7 3.4 3.8 7.9 6.5 10.9 8 0-.1 2.5-15.1.9-27.7z"/>
  <path fill="none" stroke="#05282D" stroke-linejoin="round" stroke-miterlimit="10" d="M-99.2 431c-11.8.4-20.7-7-20.7-7-.2 3.6-.3 16.4 8.9 26.7 3.4 3.8 7.9 6.5 10.9 8"/>
  <path fill="#1A8689" stroke="#05282D" stroke-miterlimit="10" d="M-86.9 402.2v3.6c0 1.6 1.3 2.8 2.8 2.8h19.5c1.6 0 2.8-1.3 2.8-2.8v-3.6c0-1.6-1.3-2.8-2.8-2.8H-84c-1.6 0-2.9 1.2-2.9 2.8zm19.7.5c0-.8.7-1.5 1.5-1.5s1.5.7 1.5 1.5-.7 1.5-1.5 1.5-1.5-.7-1.5-1.5zm-1.8 3.4c0-.5.4-.9.9-.9s.9.4.9.9-.4.9-.9.9-.9-.4-.9-.9zm-6.4-3.4c0-.5.4-.9.9-.9s.9.4.9.9-.4.9-.9.9-.9-.4-.9-.9zm-3.6 3.1c0-.5.4-.9.9-.9s.9.4.9.9-.4.9-.9.9-.9-.4-.9-.9zm-4.7 0c0-.8.7-1.5 1.5-1.5s1.5.7 1.5 1.5-.7 1.5-1.5 1.5-1.5-.7-1.5-1.5z"/>
  <path fill="#FFD366" d="M-88.5 402.2c-8.2-.9-17.2-1.8-27.2-7.3-14.3-7.9-21.3-20-24.1-25.6l1.5-8.1c3.9 6.2 10.7 15.4 21.7 23.8 11.1 8.5 21.8 12.7 28.8 14.8 2.7-3.2 6.8-4.7 10.6-3.8 3.2.8 6.7 3.4 6.3 5-.9 3-14.4 1.5-17.6 1.2z"/>
  <path fill="none" stroke="#05282D" stroke-miterlimit="10" d="M-64.7 389.3s-.3 1.1-.8 1.7c-.6.7-1.7 1-1.7 1s1 .4 1.6 1c.6.6.9 1.6.9 1.6s.3-1 .9-1.6c.6-.6 1.6-1 1.6-1s-1-.3-1.7-1c-.5-.6-.8-1.7-.8-1.7zM-51.8 378.2s-.7 2.4-1.8 3.6c-1.3 1.5-3.5 2.2-3.5 2.2s2.1.8 3.4 2.1c1.2 1.3 1.9 3.4 1.9 3.4s.7-2.1 1.9-3.4c1.2-1.3 3.4-2.1 3.4-2.1s-2.2-.6-3.5-2.2c-1-1.2-1.8-3.6-1.8-3.6z"/>
</svg>
