<svg xmlns="http://www.w3.org/2000/svg" version="1" viewBox="0 0 271 1">
  <path fill="#989A99" d="M241 96s13 3 22 13l-11-5-11-8z"/>
  <path fill="#CAD3D0" d="M241 96l22 13s-5 8-11 14c-6 5-15 8-17 7-1-1-2-11-1-17l7-17z"/>
  <path fill="#B2B6B4" d="M257 91l4 2s-18 30-20 29c-1-1 16-31 16-31z"/>
  <path fill="#FCAF32" d="M263 76l-10 20 5 4 13-19s-2-6-8-5z"/>
  <path fill="#04282D" d="M147 132a449 449 0 0 0 1-82c-1-6-1-12-4-17-1-1-3 0-2 1 3 5 3 11 4 17l1 27a448 448 0 0 1 0 54z"/>
  <path fill="#A9D7DB" d="M124 11c-1 8 4 22 12 26 3 2 10 4 11 0 2-5-9-17-12-20l-11-7"/>
  <path fill="#A9D7DB" d="M146 36c-4-2-6-10-6-15 1-6 3-14 7-18 7 12 14 31-1 36"/>
  <path fill="#C6E8EE" d="M145 38c-10-7-17-23-9-33 13 8 18 21 11 35"/>
  <path fill="#04282D" d="M147 55c-7 9-18-2-21-10 6-1 20 3 21 11M149 73c6-14 18-16 18-15 2 6-5 20-12 19-2-1-7-1-6-5M147 92c-2 3-7 2-9 2-7-3-9-8-9-15 9 0 17 5 19 14M144 40l1 2 2 1h3l2-3-2-2h-5l-1 1v1l1 1 3-1h1s-1 0 0 0v1s-1 0 0 0h-1 1-1s1 0 0 0h-1s1 0 0 0v-1s-1 0 0 0h-1v-1h-2v1z"/>
  <path fill="#04282D" d="M144 40l-1 1c-1 1 0 0 0 0-1 1 0 0 0 0h-1 1c-1 0-1 0 0 0h-1c0 1 0 0 0 0 0-1 0 0 0 0s0-1 0 0c0-1 0 0 0 0v-1c0 1 0 0 0 0h1c-1 0-1 0 0 0h1l1-1v-1h-4l-1 3 1 2h2l3-2-1-1h-1z"/>
  <g>
    <path fill="#04282D" d="M222 125a282 282 0 0 1 0-54c0-4 1-9 3-12 0-2-2-3-2-1-2 3-3 7-3 11l-2 18 2 38c0 2 2 2 2 0z"/>
    <path fill="#A9D7DB" d="M238 42c1 6-3 16-9 19-2 1-7 3-9 0 0-4 7-13 9-15l9-5"/>
    <path fill="#A9D7DB" d="M221 60c3-1 5-7 5-11-1-4-2-10-5-13-6 9-10 22 0 26"/>
    <path fill="#C6E8EE" d="M223 62c7-6 12-17 5-25-9 6-13 16-7 26"/>
    <path fill="#04282D" d="M221 74c5 6 13-1 15-7-5-1-14 2-16 8M220 87c-5-10-14-11-14-11-1 5 4 15 9 14 2 0 5-1 5-3M221 101c1 2 5 2 7 1 5-1 6-5 6-11-7 0-12 5-14 11M221 62v1h-1c-1 1 0 0 0 0-1 0 0 1 0 0h-1l1 1-1-1c1 1 1 1 0 0 0 0 1 1 0 0 1 0 0 0 0 0s1 0 0 0h1l2 1 1-1v-1l-1-1h-4l-1 3 3 2 3-3v-1h-2z"/>
    <path fill="#04282D" d="M222 64l1 2 3-1v-1l-1-2-2-1-1 2h1v1h1s1 0 0 0c0 0 0-1 0 0 0-1 0-1 0 0v-1 1s0-1 0 0c0 0 0-1 0 0v-1c0 1 0 0 0 0h-1l-1-1v2z"/>
  </g>
  <g>
    <path fill="#04282D" d="M33 128a282 282 0 0 1-1-54l3-12c1-1-1-2-2-1l-3 11-1 18c0 13 0 26 2 38 0 2 2 2 2 0z"/>
    <path fill="#A9D7DB" d="M49 45c0 6-4 16-10 19-2 1-7 3-8 0s7-13 9-14c2-3 5-4 8-6"/>
    <path fill="#A9D7DB" d="M32 64c3-2 5-8 4-12 0-4-2-10-5-13-5 9-10 23 1 27"/>
    <path fill="#C6E8EE" d="M33 65c8-6 13-17 6-25-9 7-13 16-7 26"/>
    <path fill="#04282D" d="M31 78c5 6 14-2 16-8-5-1-15 2-16 8M30 90c-4-10-13-11-13-11-1 5 3 15 8 14 2 0 6-1 5-3M32 105l6 1c5-2 7-6 7-11-7 0-12 4-14 10M32 65v1h-1c1 0 0 0 0 0 1 0 0 0 0 0 0 1 0 0 0 0v1c-1 0-1 0 0 0h-1c1 0 0 0 0 0s1 0 0 0c0 0 1 0 0 0 0-1 0 0 0 0v-1 0c0 1 0 0 0 0h1s-1 0 0 0l1 1 2-1v-1h-1l-3-1h-1c-1 1-2 2-1 3l2 2c2 0 3-2 4-3l-1-1h-1z"/>
    <path fill="#04282D" d="M32 67l2 2h2l1-2-1-2h-3l-1 1 1 1h2c-1 0-1 0 0 0 0 0 0-1 0 0-1 0 0 0 0 0-1 0-1 0 0 0-1 0 0 0 0 0-1 0 0 0 0 0h-1 0v-1h-2v1z"/>
  </g>
  <g>
    <path fill="#1A8689" d="M61 57c-1 2-10 3-12 2-5 0-6-4-8-7 4-2 19-3 21 4"/>
    <path fill="#1A8689" d="M62 55c-5-3-11-17-9-23 4 2 8 10 9 14v9M63 58c-1-4 3-10 5-14 1-3 3-5 7-7 1 6 0 11-4 15-2 2-6 5-9 5"/>
    <path fill="#1A8689" d="M69 133l1-41-2-19c-1-6-1-13-5-18-1-1-3 0-2 1 4 5 4 12 5 18l1 19v40c0 2 2 2 2 0z"/>
    <path fill="#1A8689" d="M69 127c17-3 22-48 22-60-12 1-22 48-22 59"/>
    <path fill="#04282D" d="M87 74s-8 42-17 50l17-50z"/>
    <path fill="#1A8689" d="M68 127c-17-2-26-46-26-58 12 8 26 47 26 58"/>
    <path fill="#04282D" d="M45 76s14 44 22 49L45 76z"/>
    <path fill="#A9D7DB" d="M66 54c3-7 5-18 1-23-3 2-6 8-7 12l1 8c-3-7-10-10-18-12 3 12 10 15 16 17-7 0-13 5-16 12 7 3 18-2 20-9 5 3 16-2 18-7-4-1-11-1-15 2zm-4 2z"/>
  </g>
  <g>
    <path fill="#1A8689" d="M200 38c1 2 11 4 13 3 4 0 6-3 8-6-5-2-19-4-21 3z"/>
    <path fill="#1A8689" d="M199 37c6-2 12-17 10-23-4 2-8 10-10 14v9zM199 40c0-4-3-10-5-14l-7-7c-1 6-1 11 4 15l8 6z"/>
    <path fill="#1A8689" d="M195 133l-1-49 2-23 1-12 4-10c0-2-2-3-2-2-4 7-4 15-5 22l-2 24a863 863 0 0 0 3 50zM193 133c-17-2-22-47-22-59 12 0 22 48 22 59"/>
    <path fill="#04282D" d="M174 80s9 43 17 50l-17-50z"/>
    <path fill="#1A8689" d="M193 134c17-3 27-46 27-58-12 7-27 47-27 58"/>
    <path fill="#04282D" d="M217 82s-14 44-22 49l22-49z"/>
    <path fill="#A9D7DB" d="M181 34c2 5 12 10 17 7 2 7 14 12 20 9-2-7-9-12-15-12 6-2 13-5 16-17-8 2-15 5-18 12v-8c0-4-4-10-6-12-4 5-3 17 1 23-4-3-12-3-15-2z"/>
  </g>
  <g>
    <path fill="#1A8689" d="M121 67c1 2 8 3 10 2 4 0 5-3 7-6-4-1-16-2-18 3"/>
    <path fill="#1A8689" d="M120 65c4-2 9-14 8-19-4 2-7 8-8 12v8M119 68c1-4-2-9-4-12-1-2-3-4-6-5-1 4 0 8 3 12 2 1 5 4 8 4"/>
    <path fill="#1A8689" d="M116 132a538 538 0 0 1 1-50c1-5 1-11 4-15 1-1-1-3-2-1-3 4-3 9-4 14l-2 16a469 469 0 0 0 3 36zM114 126c-14-2-19-40-18-50 10 0 18 41 18 50"/>
    <path fill="#04282D" d="M99 82s7 35 14 42L99 82z"/>
    <path fill="#1A8689" d="M115 127c14-2 22-39 22-49-10 6-22 40-22 49"/>
    <path fill="#04282D" d="M135 83s-12 37-19 42l19-42z"/>
    <path fill="#C6E8EE" d="M104 63c2 4 11 8 15 5 2 6 11 11 17 8-2-5-8-10-13-10 5-2 10-4 13-15-6 3-13 5-15 11v-7c0-3-3-8-5-10-3 4-2 14 1 20-4-3-10-3-13-2zm16 3v0z"/>
  </g>
  <g>
    <path fill="#56C2AF" d="M95 46v60c0 2 2 2 2 0V46h-2z"/>
    <path fill="#56C2AF" d="M96 69c-7 5-13 0-14-7 7-1 11-1 14 6M96 79c12 13 17-5 17-5-7-2-12-2-18 5M96 94c-8 1-17-2-20-12 10-5 19 2 20 11"/>
    <path fill="#C6E8EE" d="M90 39c-9-7-15 11-2 9-9 9 6 17 8 4 3 13 16 3 8-4 5-1 8-7 5-10s-6-2-10 1c3-14-15-9-9 0"/>
    <circle cx="96" cy="46" r="5" fill="#FFD366"/>
  </g>
  <g>
    <path fill="#56C2AF" d="M178 42l-1 61h3V42h-2z"/>
    <path fill="#56C2AF" d="M178 65c-7 6-12 0-14-7 7-1 12-1 15 7M178 76c13 12 18-6 18-6-8-2-12-2-18 6M178 90c-8 1-16-2-19-12 10-5 19 2 20 11"/>
    <path fill="#C6E8EE" d="M173 36c-9-7-15 10-2 8-10 9 6 17 8 5 3 12 16 2 7-4 6-2 8-8 5-11-2-3-6-1-9 1 2-13-15-8-9 1"/>
    <circle cx="179" cy="42" r="5" fill="#FFD366"/>
  </g>
  <g>
    <path fill="#FFD366" d="M74 135l-1 1H41l-2-1v-15l2-2h32l1 2v15z"/>
    <path fill="#FCAF32" d="M110 135l-1 1H77l-2-1v-15l2-2h32l1 2v15z"/>
    <path fill="#FFD366" d="M146 135l-1 1h-32l-2-1v-15l2-2h32l1 2v15z"/>
    <path fill="#FCAF32" d="M183 135l-2 1h-32l-2-1v-15l2-2h32l2 2v15z"/>
    <path fill="#FFD366" d="M218 135l-1 1h-32l-2-1v-15l2-2h32l1 2v15z"/>
    <path fill="#FCAF32" d="M254 135l-1 1h-32l-2-1v-15l2-2h32l1 2v15z"/>
    <path fill="#FFD366" d="M56 116l-2 1H23l-2-1v-15l1-2h32l2 2v15z"/>
    <path fill="#FCAF32" d="M92 116l-2 1H59l-2-1v-15l2-2h32l1 2v15z"/>
    <path fill="#FFD366" d="M128 116l-2 1H96l-2-1v-15l2-2h31l2 2v15z"/>
    <path fill="#FCAF32" d="M164 116l-1 1h-32l-2-1v-15l2-2h32l1 2v15z"/>
    <path fill="#FFD366" d="M200 116l-2 1h-31l-2-1v-15l2-2h31l2 2v15z"/>
    <path fill="#FCAF32" d="M236 116l-2 1h-31l-2-1v-15l2-2h31l2 2v15zM38 135l-1 1H5l-2-1v-15l2-2h32l1 2v15z"/>
  </g>
  <path fill="none" stroke="#05282D" stroke-miterlimit="10" d="M122 8c-1 9 4 23 12 28 3 1 10 4 12-1 1-4-10-17-12-19-4-4-8-6-12-8z"/>
  <path fill="none" stroke="#05282D" stroke-miterlimit="10" d="M146 35c-5-2-8-11-7-16 0-5 2-14 7-18 7 12 13 31-1 36"/>
  <path fill="none" stroke="#05282D" stroke-miterlimit="10" d="M143 38c-10-8-17-24-8-35 12 9 18 21 10 35"/>
  <g>
    <path fill="none" stroke="#05282D" stroke-miterlimit="10" d="M64 53c4-7 5-19 1-24-2 3-6 9-6 12v8c-3-7-10-9-18-12 4 12 10 15 16 17-6 0-13 6-15 12 6 3 18-2 20-9 5 3 15-2 17-7-3-1-11 0-15 3zm-3 2l-1-1 1 1z"/>
  </g>
  <g>
    <path fill="none" stroke="#05282D" stroke-miterlimit="10" d="M197 39c2 7 13 12 20 9-2-5-6-9-11-11-2 0-2-2 0-3 4-2 9-6 11-15-6 2-11 2-15 5-1 2-2 1-2-1-1-3-4-9-7-12-3 4-3 14 0 21 0 1-1 10 4 7z"/>
  </g>
  <path fill="none" stroke="#05282D" stroke-miterlimit="10" d="M89 38c-9-7-15 10-2 8-10 9 5 17 7 5 4 12 16 2 8-4 6-2 8-8 5-11-2-3-6-1-9 1 2-13-16-8-9 1M171 34c-9-7-15 10-2 9-9 9 6 16 8 4 3 13 16 2 8-4 5-1 8-7 5-11-3-2-6-1-10 2 3-14-15-9-9 0M216 134l-2 1h-32l-1-2v-14l1-2h32l2 2v15zM53 114l-1 1H20l-2-1V99l2-2h32l1 2v15zM36 134l-2 1H2l-1-2v-14l1-2h32l2 2v15z"/>
</svg>
