<svg xmlns="http://www.w3.org/2000/svg" viewBox="0 0 236.4 321.6">
  <path fill="none" stroke="#05282D" stroke-miterlimit="10" d="M28.3 75.6l40.6-62.7C75.1 3.1 86.4-1 96.8 2.7l104 37-1 2.6-104-37c-9.1-3.3-19 .4-24.6 9L30.6 77.1c-6.5 10.1-10 21.9-10 34.3v209.3h-2.8V111.3c.1-12.9 3.7-25.2 10.5-35.7z"/>
  <path fill="#FFD366" d="M197.2 50.8h2.1c1.3 0 2.4-1.1 2.4-2.4V35c0-1.3-1.1-2.4-2.4-2.4h-2.1c-1.3 0-2.4 1.1-2.4 2.4v13.4c0 1.3 1.1 2.4 2.4 2.4z"/>
  <path fill="#1A8689" d="M198.7 44c16.8 0 31.3 9.7 37.7 23.7H161c6.4-14 20.9-23.7 37.7-23.7zM0 317.4h37.7v4.3H0z"/>
  <g>
    <path fill="none" stroke="#05282D" stroke-miterlimit="10" d="M196.7 42.9c16.8 0 31.3 9.7 37.7 23.7H159c6.4-14 20.9-23.7 37.7-23.7z"/>
  </g>
</svg>
