<?xml version="1.0" encoding="utf-8"?>
<!-- Generator: Adobe Illustrator 19.0.0, SVG Export Plug-In . SVG Version: 6.00 Build 0)  -->
<svg version="1.1" id="Слой_1" xmlns="http://www.w3.org/2000/svg" xmlns:xlink="http://www.w3.org/1999/xlink" x="0px" y="0px"
	 viewBox="0 0 40.3 40.3" enable-background="new 0 0 40.3 40.3" xml:space="preserve">
<g id="XMLID_4637_">
	<circle id="XMLID_4647_" fill="#F14336" cx="20.1" cy="20.1" r="20.1"/>
	<path id="XMLID_4646_" fill="#D32E2A" d="M2.7,20.1C2.7,9.5,11,0.7,21.5,0c-0.4,0-0.9,0-1.3,0C9,0,0,9,0,20.1s9,20.1,20.1,20.1
		c0.5,0,0.9,0,1.3,0C11,39.5,2.7,30.8,2.7,20.1z"/>
	<g id="XMLID_4638_">
		<g id="XMLID_4643_">
			<polygon id="XMLID_4645_" fill="#F2F2F2" points="29,15.1 27.8,27.5 13,27.5 12,15.4 20.4,20 			"/>
			<polygon id="XMLID_4644_" fill="#F2F2F2" points="28.6,12.8 20.4,20.5 12.2,12.8 20.4,12.8 			"/>
		</g>
		<path id="XMLID_4642_" fill="#05282D" d="M13,16.3v11.1h-1.3c-0.5,0-0.9-0.4-0.9-0.9V14.7l1.5,0L13,16.3z"/>
		<path id="XMLID_4641_" fill="#05282D" d="M30,14.7v11.8c0,0.5-0.4,0.9-0.9,0.9h-1.3V16.3l0.7-1.8L30,14.7z"/>
		<path id="XMLID_4640_" fill="#1A8689" d="M30,13.7v1l-2.2,1.6l-7.4,5.4L13,16.3l-2.2-1.6v-1c0-0.5,0.4-0.9,0.9-0.9h0.5l8.2,6
			l8.2-6h0.5C29.6,12.8,30,13.2,30,13.7z"/>
	</g>
</g>
</svg>
