<?xml version="1.0" encoding="utf-8"?>
<!-- Generator: Adobe Illustrator 19.0.0, SVG Export Plug-In . SVG Version: 6.00 Build 0)  -->
<svg version="1.1" id="Слой_1" xmlns="http://www.w3.org/2000/svg" xmlns:xlink="http://www.w3.org/1999/xlink" x="0px" y="0px"
	 viewBox="0 0 40.3 40.3" enable-background="new 0 0 40.3 40.3" xml:space="preserve">
<g id="XMLID_4624_">
	<circle id="XMLID_4639_" fill="#FFD366" cx="20.1" cy="20.1" r="20.1"/>
	<path id="XMLID_4636_" fill="#FCAF32" d="M2.7,20.1C2.7,9.5,11,0.7,21.5,0c-0.4,0-0.9,0-1.3,0C9,0,0,9,0,20.1s9,20.1,20.1,20.1
		c0.5,0,0.9,0,1.3,0C11,39.5,2.7,30.8,2.7,20.1z"/>
	<g id="XMLID_4626_">
		<path id="XMLID_4635_" fill="#05282D" d="M25.5,30.8h-9.2c-0.7,0-1.2-0.6-1.2-1.2V10.7c0-0.7,0.6-1.2,1.2-1.2h9.2
			c0.7,0,1.2,0.6,1.2,1.2v18.8C26.7,30.2,26.2,30.8,25.5,30.8z"/>
		<circle id="XMLID_4634_" fill="#FFFFFF" cx="20.9" cy="28.9" r="1.1"/>
		<path id="XMLID_4633_" fill="#FFFFFF" d="M20.9,11h-1.5c-0.2,0-0.4-0.2-0.4-0.4s0.2-0.4,0.4-0.4h1.5c0.2,0,0.4,0.2,0.4,0.4
			S21.1,11,20.9,11z"/>
		<path id="XMLID_4632_" fill="#FFFFFF" d="M22.3,11H22c-0.2,0-0.4-0.2-0.4-0.4s0.2-0.4,0.4-0.4h0.4c0.2,0,0.4,0.2,0.4,0.4
			S22.5,11,22.3,11z"/>
		<path id="XMLID_4631_" fill="#05282D" d="M30.4,16.9c-0.1,0-0.2,0-0.3-0.1c-0.1-0.1-0.1-0.4,0-0.5c1.4-1.4,1.4-3.6,0-5
			c-0.1-0.1-0.1-0.4,0-0.5c0.1-0.1,0.4-0.1,0.5,0c1.7,1.7,1.7,4.4,0,6C30.6,16.9,30.5,16.9,30.4,16.9z"/>
		<path id="XMLID_4630_" fill="#05282D" d="M28.8,16.2c-0.1,0-0.2,0-0.3-0.1c-0.1-0.1-0.1-0.4,0-0.5c0.5-0.5,0.7-1.1,0.7-1.7
			s-0.2-1.2-0.7-1.7c-0.1-0.1-0.1-0.4,0-0.5s0.4-0.1,0.5,0c0.6,0.6,0.9,1.4,0.9,2.2s-0.3,1.6-0.9,2.2C29,16.1,28.9,16.2,28.8,16.2z"
			/>
		<path id="XMLID_4629_" fill="#05282D" d="M11.4,16.9c-0.1,0-0.2,0-0.3-0.1c-1.7-1.7-1.7-4.4,0-6c0.1-0.1,0.4-0.1,0.5,0
			s0.1,0.4,0,0.5c-1.4,1.4-1.4,3.6,0,5c0.1,0.1,0.1,0.4,0,0.5C11.5,16.9,11.5,16.9,11.4,16.9z"/>
		<path id="XMLID_4628_" fill="#05282D" d="M12.9,16.1c-0.1,0-0.2,0-0.3-0.1c-0.6-0.6-0.9-1.4-0.9-2.2s0.3-1.6,0.9-2.2
			c0.1-0.1,0.4-0.1,0.5,0c0.1,0.1,0.1,0.4,0,0.5c-0.5,0.5-0.7,1.1-0.7,1.7c0,0.6,0.2,1.2,0.7,1.7c0.1,0.1,0.1,0.4,0,0.5
			C13.1,16,13,16.1,12.9,16.1z"/>
		<rect id="XMLID_4627_" x="15" y="11.7" fill="#FFFFFF" width="11.7" height="15.4"/>
	</g>
</g>
</svg>
