<?xml version="1.0" encoding="utf-8"?>
<!-- Generator: Adobe Illustrator 19.0.0, SVG Export Plug-In . SVG Version: 6.00 Build 0)  -->
<svg version="1.1" id="Слой_1" xmlns="http://www.w3.org/2000/svg" xmlns:xlink="http://www.w3.org/1999/xlink" x="0px" y="0px"
	 viewBox="0 0 269.8 183" enable-background="new 0 0 269.8 183" xml:space="preserve">
<g id="XMLID_3953_" opacity="0.1">
	<path id="XMLID_4323_" fill="#FFFFFF" d="M234.1,181.3c-0.1,0-0.2,0.1-0.2,0.1c0,0.1,0.1,0.2,0.2,0.2c0.1,0,0.1-0.1,0.1-0.2
		C234.3,181.3,234.2,181.3,234.1,181.3z"/>
	<path id="XMLID_4322_" fill="#FFFFFF" d="M216.5,181.2c-0.1,0-0.2,0.1-0.2,0.2c0,0.1,0.1,0.2,0.2,0.2c0.1,0,0.2-0.1,0.2-0.2
		C216.7,181.3,216.6,181.2,216.5,181.2z"/>
	<path id="XMLID_4321_" fill="#FFFFFF" d="M198.9,181.1c-0.2,0-0.3,0.1-0.3,0.3c0,0.2,0.1,0.3,0.3,0.3c0.2,0,0.3-0.1,0.3-0.3
		C199.2,181.3,199.1,181.1,198.9,181.1z"/>
	<path id="XMLID_4320_" fill="#FFFFFF" d="M181.3,180.9c-0.3,0-0.5,0.2-0.5,0.5c0,0.3,0.2,0.5,0.5,0.5c0.3,0,0.5-0.3,0.5-0.5
		C181.9,181.1,181.6,180.9,181.3,180.9z"/>
	<path id="XMLID_4319_" fill="#FFFFFF" d="M163.7,180.7c-0.4,0-0.7,0.3-0.7,0.7c0,0.4,0.3,0.7,0.7,0.7c0.4,0,0.7-0.3,0.7-0.7
		C164.5,181,164.1,180.7,163.7,180.7z"/>
	<path id="XMLID_4318_" fill="#FFFFFF" d="M146.1,180.7c-0.4,0-0.7,0.3-0.7,0.7c0,0.4,0.3,0.7,0.7,0.7c0.4,0,0.7-0.3,0.7-0.7
		C146.9,181,146.5,180.7,146.1,180.7z"/>
	<path id="XMLID_4317_" fill="#FFFFFF" d="M128.5,180.5c-0.5,0-0.9,0.4-0.9,0.9c0,0.5,0.4,0.9,0.9,0.9c0.5,0,0.9-0.4,0.9-0.9
		C129.5,180.9,129.1,180.5,128.5,180.5z"/>
	<path id="XMLID_4316_" fill="#FFFFFF" d="M110.9,180.2c-0.7,0-1.2,0.5-1.2,1.2c0,0.7,0.5,1.2,1.2,1.2c0.7,0,1.2-0.5,1.2-1.2
		C112.2,180.7,111.6,180.2,110.9,180.2z"/>
	<path id="XMLID_4315_" fill="#FFFFFF" d="M93.3,179.9c-0.9,0-1.6,0.7-1.6,1.6c0,0.9,0.7,1.6,1.6,1.6c0.9,0,1.6-0.7,1.6-1.6
		C94.9,180.6,94.2,179.9,93.3,179.9z"/>
	<path id="XMLID_4314_" fill="#FFFFFF" d="M75.7,180c-0.8,0-1.4,0.6-1.4,1.4c0,0.8,0.6,1.4,1.4,1.4c0.8,0,1.4-0.6,1.4-1.4
		C77.2,180.6,76.5,180,75.7,180z"/>
	<path id="XMLID_4313_" fill="#FFFFFF" d="M58.2,180.4c-0.6,0-1,0.4-1,1c0,0.6,0.5,1,1,1s1-0.5,1-1
		C59.2,180.8,58.7,180.4,58.2,180.4z"/>
	<path id="XMLID_4312_" fill="#FFFFFF" d="M40.6,180.2c-0.7,0-1.2,0.5-1.2,1.2c0,0.7,0.5,1.2,1.2,1.2c0.7,0,1.2-0.5,1.2-1.2
		C41.8,180.7,41.2,180.2,40.6,180.2z"/>
	<path id="XMLID_4311_" fill="#FFFFFF" d="M23,180c-0.8,0-1.4,0.6-1.4,1.4c0,0.8,0.6,1.4,1.4,1.4c0.8,0,1.4-0.6,1.4-1.4
		C24.4,180.6,23.7,180,23,180z"/>
	<path id="XMLID_4310_" fill="#FFFFFF" d="M5.4,180.2c-0.7,0-1.2,0.5-1.2,1.2c0,0.7,0.5,1.2,1.2,1.2s1.2-0.5,1.2-1.2
		C6.6,180.7,6,180.2,5.4,180.2z"/>
	<path id="XMLID_4308_" fill="#FFFFFF" d="M251.7,163.6c-0.1,0-0.2,0.1-0.2,0.2c0,0.1,0.1,0.3,0.2,0.3c0.1,0,0.2-0.1,0.2-0.3
		C252,163.7,251.8,163.6,251.7,163.6z"/>
	<path id="XMLID_4307_" fill="#FFFFFF" d="M234.1,163.5c-0.2,0-0.3,0.1-0.3,0.3c0,0.2,0.2,0.3,0.3,0.3c0.2,0,0.3-0.2,0.3-0.3
		C234.5,163.6,234.3,163.5,234.1,163.5z"/>
	<path id="XMLID_4306_" fill="#FFFFFF" d="M216.5,163.4c-0.2,0-0.4,0.2-0.4,0.4c0,0.2,0.2,0.4,0.4,0.4c0.2,0,0.4-0.2,0.4-0.4
		C216.9,163.6,216.7,163.4,216.5,163.4z"/>
	<path id="XMLID_4305_" fill="#FFFFFF" d="M198.9,163.3c-0.3,0-0.5,0.2-0.5,0.5c0,0.3,0.2,0.5,0.5,0.5c0.3,0,0.5-0.2,0.5-0.5
		C199.5,163.5,199.2,163.3,198.9,163.3z"/>
	<path id="XMLID_4304_" fill="#FFFFFF" d="M181.3,162.8c-0.6,0-1.1,0.5-1.1,1.1s0.5,1.1,1.1,1.1c0.6,0,1.1-0.5,1.1-1.1
		S181.9,162.8,181.3,162.8z"/>
	<path id="XMLID_4303_" fill="#FFFFFF" d="M163.7,163c-0.5,0-0.8,0.4-0.8,0.8c0,0.5,0.4,0.8,0.8,0.8c0.5,0,0.8-0.4,0.8-0.8
		C164.6,163.4,164.2,163,163.7,163z"/>
	<path id="XMLID_4302_" fill="#FFFFFF" d="M146.1,162.7c-0.6,0-1.1,0.5-1.1,1.1c0,0.6,0.5,1.1,1.1,1.1c0.6,0,1.1-0.5,1.1-1.1
		C147.3,163.2,146.8,162.7,146.1,162.7z"/>
	<path id="XMLID_4301_" fill="#FFFFFF" d="M128.5,162.6c-0.7,0-1.3,0.6-1.3,1.3c0,0.7,0.6,1.3,1.3,1.3c0.7,0,1.3-0.6,1.3-1.3
		C129.8,163.1,129.2,162.6,128.5,162.6z"/>
	<path id="XMLID_4300_" fill="#FFFFFF" d="M110.9,162.2c-0.9,0-1.6,0.7-1.6,1.6c0,0.9,0.7,1.6,1.6,1.6c0.9,0,1.6-0.7,1.6-1.6
		C112.5,163,111.8,162.2,110.9,162.2z"/>
	<circle id="XMLID_4299_" fill="#FFFFFF" cx="93.3" cy="163.8" r="1.3"/>
	<path id="XMLID_4298_" fill="#FFFFFF" d="M75.7,162.3c-0.8,0-1.5,0.7-1.5,1.5c0,0.8,0.7,1.5,1.5,1.5c0.8,0,1.5-0.7,1.5-1.5
		C77.3,163,76.6,162.3,75.7,162.3z"/>
	<path id="XMLID_4297_" fill="#FFFFFF" d="M58.2,162.6c-0.7,0-1.2,0.6-1.2,1.2s0.5,1.2,1.2,1.2s1.2-0.5,1.2-1.2
		S58.8,162.6,58.2,162.6z"/>
	<path id="XMLID_4296_" fill="#FFFFFF" d="M40.6,162.5c-0.7,0-1.3,0.6-1.3,1.3s0.6,1.3,1.3,1.3c0.7,0,1.3-0.6,1.3-1.3
		S41.3,162.5,40.6,162.5z"/>
	<path id="XMLID_4295_" fill="#FFFFFF" d="M23,162.3c-0.8,0-1.5,0.7-1.5,1.5c0,0.8,0.7,1.5,1.5,1.5c0.8,0,1.5-0.7,1.5-1.5
		C24.5,163,23.8,162.3,23,162.3z"/>
	<path id="XMLID_4294_" fill="#FFFFFF" d="M5.4,162.5c-0.7,0-1.3,0.6-1.3,1.3s0.6,1.3,1.3,1.3c0.7,0,1.3-0.6,1.3-1.3
		S6.1,162.5,5.4,162.5z"/>
	<path id="XMLID_4291_" fill="#FFFFFF" d="M251.7,145.9c-0.2,0-0.3,0.1-0.3,0.3c0,0.2,0.1,0.3,0.3,0.3c0.2,0,0.3-0.1,0.3-0.3
		C252,146.1,251.9,145.9,251.7,145.9z"/>
	<path id="XMLID_4290_" fill="#FFFFFF" d="M234.1,145.8c-0.2,0-0.4,0.2-0.4,0.4c0,0.2,0.2,0.4,0.4,0.4c0.2,0,0.4-0.2,0.4-0.4
		C234.5,146,234.3,145.8,234.1,145.8z"/>
	<path id="XMLID_4289_" fill="#FFFFFF" d="M216.5,145.8c-0.2,0-0.4,0.2-0.4,0.4c0,0.2,0.2,0.4,0.4,0.4c0.2,0,0.4-0.2,0.4-0.4
		C217,146,216.8,145.8,216.5,145.8z"/>
	<path id="XMLID_4288_" fill="#FFFFFF" d="M198.9,145.2c-0.6,0-1,0.5-1,1c0,0.6,0.5,1,1,1c0.6,0,1-0.5,1-1
		C199.9,145.7,199.5,145.2,198.9,145.2z"/>
	<path id="XMLID_4287_" fill="#FFFFFF" d="M181.3,144.9c-0.7,0-1.3,0.6-1.3,1.3c0,0.7,0.6,1.3,1.3,1.3s1.3-0.6,1.3-1.3
		C182.6,145.5,182.1,144.9,181.3,144.9z"/>
	<path id="XMLID_4286_" fill="#FFFFFF" d="M163.7,145.1c-0.6,0-1.1,0.5-1.1,1.1c0,0.6,0.5,1.1,1.1,1.1c0.6,0,1.1-0.5,1.1-1.1
		C164.9,145.6,164.3,145.1,163.7,145.1z"/>
	<path id="XMLID_4285_" fill="#FFFFFF" d="M146.1,144.9c-0.7,0-1.3,0.6-1.3,1.3c0,0.7,0.6,1.3,1.3,1.3c0.7,0,1.3-0.6,1.3-1.3
		C147.5,145.5,146.9,144.9,146.1,144.9z"/>
	<path id="XMLID_4284_" fill="#FFFFFF" d="M128.5,144.6c-0.9,0-1.6,0.7-1.6,1.6c0,0.9,0.7,1.6,1.6,1.6c0.9,0,1.6-0.7,1.6-1.6
		C130.1,145.3,129.4,144.6,128.5,144.6z"/>
	<path id="XMLID_4283_" fill="#FFFFFF" d="M110.9,144.3c-1.1,0-1.9,0.9-1.9,2c0,1.1,0.9,1.9,1.9,1.9c1.1,0,2-0.9,2-1.9
		C112.9,145.1,112,144.3,110.9,144.3z"/>
	<path id="XMLID_4282_" fill="#FFFFFF" d="M93.3,144.7c-0.9,0-1.6,0.7-1.6,1.6c0,0.9,0.7,1.6,1.6,1.6c0.9,0,1.6-0.7,1.6-1.6
		C94.9,145.4,94.2,144.7,93.3,144.7z"/>
	<path id="XMLID_4281_" fill="#FFFFFF" d="M75.7,145c-0.7,0-1.2,0.5-1.2,1.2c0,0.7,0.5,1.2,1.2,1.2c0.7,0,1.2-0.5,1.2-1.2
		C77,145.5,76.4,145,75.7,145z"/>
	<path id="XMLID_4280_" fill="#FFFFFF" d="M58.2,144.9c-0.8,0-1.4,0.6-1.4,1.4c0,0.8,0.6,1.4,1.4,1.4c0.8,0,1.4-0.6,1.4-1.4
		C59.5,145.5,58.9,144.9,58.2,144.9z"/>
	<path id="XMLID_4279_" fill="#FFFFFF" d="M40.6,144.7c-0.8,0-1.5,0.7-1.5,1.5c0,0.8,0.7,1.5,1.5,1.5c0.8,0,1.5-0.7,1.5-1.5
		C42.1,145.4,41.4,144.7,40.6,144.7z"/>
	<path id="XMLID_4278_" fill="#FFFFFF" d="M23,144.9c-0.7,0-1.3,0.6-1.3,1.3c0,0.7,0.6,1.3,1.3,1.3c0.7,0,1.3-0.6,1.3-1.3
		C24.2,145.5,23.7,144.9,23,144.9z"/>
	<path id="XMLID_4277_" fill="#FFFFFF" d="M5.4,144.8c-0.8,0-1.5,0.6-1.5,1.5c0,0.8,0.7,1.5,1.5,1.5c0.8,0,1.5-0.6,1.5-1.5
		C6.8,145.4,6.2,144.8,5.4,144.8z"/>
	<path id="XMLID_4274_" fill="#FFFFFF" d="M251.7,128.3c-0.2,0-0.3,0.1-0.3,0.3c0,0.2,0.2,0.3,0.3,0.3c0.2,0,0.3-0.2,0.3-0.3
		C252,128.4,251.9,128.3,251.7,128.3z"/>
	<path id="XMLID_4273_" fill="#FFFFFF" d="M234.1,128.2c-0.2,0-0.4,0.2-0.4,0.4c0,0.2,0.2,0.4,0.4,0.4c0.2,0,0.4-0.2,0.4-0.4
		C234.5,128.4,234.3,128.2,234.1,128.2z"/>
	<path id="XMLID_4272_" fill="#FFFFFF" d="M216.5,127.7c-0.5,0-1,0.4-1,1c0,0.5,0.4,1,1,1c0.5,0,1-0.4,1-1
		C217.5,128.1,217.1,127.7,216.5,127.7z"/>
	<path id="XMLID_4271_" fill="#FFFFFF" d="M198.9,127.4c-0.7,0-1.3,0.6-1.3,1.3c0,0.7,0.6,1.3,1.3,1.3c0.7,0,1.3-0.6,1.3-1.3
		C200.2,127.9,199.6,127.4,198.9,127.4z"/>
	<path id="XMLID_4270_" fill="#FFFFFF" d="M181.3,127.7c-0.5,0-0.9,0.4-0.9,0.9c0,0.5,0.4,0.9,0.9,0.9c0.5,0,0.9-0.4,0.9-0.9
		C182.3,128.1,181.8,127.7,181.3,127.7z"/>
	<path id="XMLID_4269_" fill="#FFFFFF" d="M163.7,127.5c-0.6,0-1.1,0.5-1.1,1.1c0,0.6,0.5,1.1,1.1,1.1c0.6,0,1.1-0.5,1.1-1.1
		C164.9,128,164.3,127.5,163.7,127.5z"/>
	<path id="XMLID_4268_" fill="#FFFFFF" d="M146.1,126.8c-1,0-1.8,0.8-1.8,1.8c0,1,0.8,1.8,1.8,1.8c1,0,1.8-0.8,1.8-1.8
		C147.9,127.6,147.1,126.8,146.1,126.8z"/>
	<path id="XMLID_4267_" fill="#FFFFFF" d="M128.5,126.7c-1.1,0-2,0.9-2,2c0,1.1,0.9,1.9,2,1.9c1.1,0,1.9-0.9,1.9-1.9
		C130.5,127.6,129.6,126.7,128.5,126.7z"/>
	<path id="XMLID_4266_" fill="#FFFFFF" d="M110.9,126.3c-1.3,0-2.3,1-2.3,2.4c0,1.3,1.1,2.3,2.3,2.3c1.3,0,2.3-1.1,2.3-2.3
		C113.3,127.3,112.2,126.3,110.9,126.3z"/>
	<path id="XMLID_4265_" fill="#FFFFFF" d="M93.3,126.7c-1.1,0-1.9,0.9-1.9,2c0,1.1,0.9,1.9,1.9,1.9c1.1,0,2-0.9,2-1.9
		C95.3,127.6,94.4,126.7,93.3,126.7z"/>
	<path id="XMLID_4264_" fill="#FFFFFF" d="M75.7,127.3c-0.7,0-1.3,0.6-1.3,1.3c0,0.7,0.6,1.3,1.3,1.3c0.7,0,1.3-0.6,1.3-1.3
		C77.1,127.9,76.5,127.3,75.7,127.3z"/>
	<path id="XMLID_4263_" fill="#FFFFFF" d="M58.2,127.1c-0.8,0-1.5,0.7-1.5,1.5c0,0.8,0.7,1.5,1.5,1.5c0.8,0,1.5-0.7,1.5-1.5
		C59.7,127.8,59,127.1,58.2,127.1z"/>
	<path id="XMLID_4262_" fill="#FFFFFF" d="M40.6,127c-0.9,0-1.7,0.7-1.7,1.7c0,0.9,0.7,1.7,1.7,1.7c0.9,0,1.7-0.7,1.7-1.7
		C42.2,127.7,41.5,127,40.6,127z"/>
	<path id="XMLID_4261_" fill="#FFFFFF" d="M23,127.3c-0.7,0-1.3,0.6-1.3,1.3c0,0.7,0.6,1.3,1.3,1.3c0.7,0,1.3-0.6,1.3-1.3
		C24.3,127.9,23.7,127.3,23,127.3z"/>
	<circle id="XMLID_4260_" fill="#FFFFFF" cx="5.4" cy="128.6" r="2.2"/>
	<path id="XMLID_4257_" fill="#FFFFFF" d="M251.7,110.3c-0.4,0-0.7,0.3-0.7,0.7c0,0.4,0.3,0.7,0.7,0.7c0.4,0,0.7-0.3,0.7-0.7
		C252.4,110.6,252.1,110.3,251.7,110.3z"/>
	<path id="XMLID_4256_" fill="#FFFFFF" d="M234.1,110.6c-0.2,0-0.4,0.2-0.4,0.4c0,0.2,0.2,0.4,0.4,0.4c0.2,0,0.4-0.2,0.4-0.4
		C234.6,110.8,234.4,110.6,234.1,110.6z"/>
	<path id="XMLID_4255_" fill="#FFFFFF" d="M216.5,110c-0.6,0-1.1,0.5-1.1,1.1c0,0.6,0.5,1.1,1.1,1.1c0.6,0,1.1-0.5,1.1-1.1
		C217.6,110.4,217.1,110,216.5,110z"/>
	<path id="XMLID_4254_" fill="#FFFFFF" d="M198.9,110.1c-0.5,0-0.9,0.4-0.9,0.9c0,0.5,0.4,0.9,0.9,0.9c0.5,0,0.9-0.4,0.9-0.9
		C199.8,110.5,199.4,110.1,198.9,110.1z"/>
	<path id="XMLID_4253_" fill="#FFFFFF" d="M181.3,110c-0.6,0-1.1,0.5-1.1,1.1c0,0.6,0.5,1.1,1.1,1.1c0.6,0,1.1-0.5,1.1-1.1
		C182.4,110.4,181.9,110,181.3,110z"/>
	<path id="XMLID_4252_" fill="#FFFFFF" d="M163.7,109.8c-0.7,0-1.3,0.6-1.3,1.3c0,0.7,0.6,1.3,1.3,1.3c0.7,0,1.3-0.6,1.3-1.3
		C165,110.3,164.4,109.8,163.7,109.8z"/>
	<circle id="XMLID_4251_" fill="#FFFFFF" cx="146.1" cy="111" r="2.4"/>
	<path id="XMLID_4250_" fill="#FFFFFF" d="M128.5,108c-1.7,0-3.1,1.4-3.1,3.1c0,1.7,1.4,3.1,3.1,3.1c1.7,0,3.1-1.4,3.1-3.1
		C131.6,109.3,130.2,108,128.5,108z"/>
	<path id="XMLID_4249_" fill="#FFFFFF" d="M110.9,108.2c-1.5,0-2.8,1.3-2.8,2.8c0,1.5,1.2,2.8,2.8,2.8c1.5,0,2.8-1.2,2.8-2.8
		C113.7,109.5,112.5,108.2,110.9,108.2z"/>
	<circle id="XMLID_4248_" fill="#FFFFFF" cx="93.3" cy="111" r="2.4"/>
	<path id="XMLID_4247_" fill="#FFFFFF" d="M75.7,109.5c-0.8,0-1.5,0.7-1.5,1.5c0,0.8,0.7,1.5,1.5,1.5c0.8,0,1.5-0.7,1.5-1.5
		C77.3,110.2,76.6,109.5,75.7,109.5z"/>
	<path id="XMLID_4246_" fill="#FFFFFF" d="M58.2,109.3c-0.9,0-1.7,0.8-1.7,1.7c0,0.9,0.8,1.7,1.7,1.7c0.9,0,1.7-0.8,1.7-1.7
		C59.9,110.1,59.1,109.3,58.2,109.3z"/>
	<path id="XMLID_4245_" fill="#FFFFFF" d="M40.6,109.8c-0.7,0-1.3,0.6-1.3,1.3c0,0.7,0.6,1.3,1.3,1.3c0.7,0,1.3-0.6,1.3-1.3
		C41.8,110.3,41.3,109.8,40.6,109.8z"/>
	<path id="XMLID_4244_" fill="#FFFFFF" d="M23,109.6c-0.8,0-1.5,0.7-1.5,1.5c0,0.8,0.7,1.5,1.5,1.5c0.8,0,1.5-0.7,1.5-1.5
		C24.4,110.2,23.8,109.6,23,109.6z"/>
	<circle id="XMLID_4243_" fill="#FFFFFF" cx="5.4" cy="111" r="2.5"/>
	<path id="XMLID_4240_" fill="#FFFFFF" d="M251.7,93c-0.2,0-0.4,0.2-0.4,0.4c0,0.2,0.2,0.4,0.4,0.4c0.2,0,0.4-0.2,0.4-0.4
		C252.1,93.2,251.9,93,251.7,93z"/>
	<path id="XMLID_4239_" fill="#FFFFFF" d="M234.1,92.4c-0.6,0-1,0.5-1,1c0,0.6,0.5,1,1,1c0.6,0,1-0.5,1-1
		C235.1,92.9,234.7,92.4,234.1,92.4z"/>
	<path id="XMLID_4238_" fill="#FFFFFF" d="M216.5,92.1c-0.7,0-1.3,0.6-1.3,1.3c0,0.7,0.6,1.3,1.3,1.3c0.7,0,1.3-0.6,1.3-1.3
		C217.8,92.7,217.2,92.1,216.5,92.1z"/>
	<path id="XMLID_4237_" fill="#FFFFFF" d="M198.9,92.4c-0.6,0-1.1,0.5-1.1,1.1c0,0.6,0.5,1.1,1.1,1.1c0.6,0,1.1-0.5,1.1-1.1
		C200,92.8,199.5,92.4,198.9,92.4z"/>
	<path id="XMLID_4236_" fill="#FFFFFF" d="M181.3,92.2c-0.7,0-1.3,0.6-1.3,1.3c0,0.7,0.6,1.3,1.3,1.3c0.7,0,1.3-0.6,1.3-1.3
		C182.6,92.7,182,92.2,181.3,92.2z"/>
	<path id="XMLID_4235_" fill="#FFFFFF" d="M163.7,91.9c-0.9,0-1.6,0.7-1.6,1.5c0,0.9,0.7,1.6,1.6,1.6c0.9,0,1.6-0.7,1.6-1.6
		C165.3,92.6,164.6,91.9,163.7,91.9z"/>
	<path id="XMLID_4234_" fill="#FFFFFF" d="M146.1,91.5c-1.1,0-1.9,0.8-1.9,1.9c0,1.1,0.9,1.9,1.9,1.9c1.1,0,1.9-0.9,1.9-1.9
		C148,92.4,147.2,91.5,146.1,91.5z"/>
	<path id="XMLID_4233_" fill="#FFFFFF" d="M128.5,89.5c-2.2,0-4,1.8-4,3.9c0,2.2,1.8,4,4,4c2.2,0,3.9-1.8,3.9-4
		C132.5,91.2,130.7,89.5,128.5,89.5z"/>
	<path id="XMLID_4232_" fill="#FFFFFF" d="M110.9,89.6c-2.1,0-3.8,1.7-3.8,3.8c0,2.1,1.7,3.8,3.8,3.8c2.1,0,3.8-1.7,3.8-3.8
		C114.7,91.3,113,89.6,110.9,89.6z"/>
	<path id="XMLID_4231_" fill="#FFFFFF" d="M93.3,90.4c-1.7,0-3,1.4-3,3c0,1.7,1.4,3,3,3c1.7,0,3-1.4,3-3
		C96.4,91.8,95,90.4,93.3,90.4z"/>
	<path id="XMLID_4230_" fill="#FFFFFF" d="M75.7,91.8c-0.9,0-1.7,0.7-1.7,1.7c0,0.9,0.7,1.7,1.7,1.7c0.9,0,1.7-0.7,1.7-1.7
		C77.4,92.5,76.7,91.8,75.7,91.8z"/>
	<path id="XMLID_4229_" fill="#FFFFFF" d="M58.2,91.5c-1.1,0-1.9,0.8-1.9,1.9c0,1.1,0.9,1.9,1.9,1.9c1,0,1.9-0.9,1.9-1.9
		C60.1,92.4,59.2,91.5,58.2,91.5z"/>
	<path id="XMLID_4228_" fill="#FFFFFF" d="M40.6,92.1c-0.7,0-1.3,0.6-1.3,1.3c0,0.7,0.6,1.3,1.3,1.3c0.7,0,1.3-0.6,1.3-1.3
		C41.9,92.7,41.3,92.1,40.6,92.1z"/>
	<path id="XMLID_4227_" fill="#FFFFFF" d="M23,90.9c-1.4,0-2.5,1.1-2.5,2.5c0,1.4,1.1,2.5,2.5,2.5c1.4,0,2.5-1.1,2.5-2.5
		C25.5,92.1,24.3,90.9,23,90.9z"/>
	<path id="XMLID_4226_" fill="#FFFFFF" d="M5.4,90.6c-1.6,0-2.9,1.3-2.9,2.9c0,1.6,1.3,2.9,2.9,2.9c1.6,0,2.9-1.3,2.9-2.9
		C8.2,91.9,7,90.6,5.4,90.6z"/>
	<path id="XMLID_4221_" fill="#FFFFFF" d="M269.3,75.5c-0.2,0-0.4,0.2-0.4,0.4c0,0.2,0.2,0.4,0.4,0.4c0.2,0,0.4-0.2,0.4-0.4
		C269.7,75.6,269.5,75.5,269.3,75.5z"/>
	<path id="XMLID_4220_" fill="#FFFFFF" d="M251.7,75.1c-0.4,0-0.7,0.3-0.7,0.7c0,0.4,0.3,0.7,0.7,0.7c0.4,0,0.7-0.3,0.7-0.7
		C252.4,75.5,252.1,75.1,251.7,75.1z"/>
	<path id="XMLID_4219_" fill="#FFFFFF" d="M234.1,75.2c-0.4,0-0.6,0.3-0.6,0.6c0,0.4,0.3,0.6,0.6,0.6c0.3,0,0.6-0.3,0.6-0.6
		C234.7,75.5,234.5,75.2,234.1,75.2z"/>
	<path id="XMLID_4218_" fill="#FFFFFF" d="M216.5,74.8c-0.6,0-1,0.5-1,1c0,0.6,0.5,1,1,1c0.6,0,1-0.5,1-1
		C217.5,75.3,217.1,74.8,216.5,74.8z"/>
	<path id="XMLID_4217_" fill="#FFFFFF" d="M198.9,74.6c-0.7,0-1.3,0.6-1.3,1.3c0,0.7,0.6,1.3,1.3,1.3c0.7,0,1.3-0.6,1.3-1.3
		C200.2,75.1,199.6,74.6,198.9,74.6z"/>
	<path id="XMLID_4216_" fill="#FFFFFF" d="M181.3,74.3c-0.9,0-1.6,0.7-1.6,1.6c0,0.9,0.7,1.6,1.6,1.6c0.9,0,1.6-0.7,1.6-1.6
		C182.9,75,182.2,74.3,181.3,74.3z"/>
	<path id="XMLID_4215_" fill="#FFFFFF" d="M163.7,73.9c-1.1,0-1.9,0.8-1.9,1.9c0,1.1,0.9,1.9,1.9,1.9c1.1,0,1.9-0.9,1.9-1.9
		C165.6,74.8,164.8,73.9,163.7,73.9z"/>
	<circle id="XMLID_4214_" fill="#FFFFFF" cx="146.1" cy="75.8" r="2.2"/>
	<path id="XMLID_4213_" fill="#FFFFFF" d="M128.5,73.2c-1.5,0-2.7,1.2-2.7,2.7c0,1.5,1.2,2.7,2.7,2.7c1.5,0,2.7-1.2,2.7-2.7
		C131.2,74.4,130,73.2,128.5,73.2z"/>
	<path id="XMLID_4212_" fill="#FFFFFF" d="M110.9,73.5c-1.3,0-2.3,1.1-2.3,2.3c0,1.3,1.1,2.4,2.3,2.4c1.3,0,2.3-1,2.3-2.4
		C113.3,74.6,112.2,73.5,110.9,73.5z"/>
	<path id="XMLID_4211_" fill="#FFFFFF" d="M93.3,74.2c-0.9,0-1.7,0.7-1.7,1.7c0,0.9,0.7,1.7,1.7,1.7c0.9,0,1.7-0.7,1.7-1.7
		C95,74.9,94.3,74.2,93.3,74.2z"/>
	<path id="XMLID_4210_" fill="#FFFFFF" d="M75.7,73.9c-1,0-1.9,0.8-1.9,1.9c0,1.1,0.8,1.9,1.9,1.9c1.1,0,1.9-0.9,1.9-1.9
		C77.7,74.8,76.8,73.9,75.7,73.9z"/>
	<path id="XMLID_4209_" fill="#FFFFFF" d="M58.2,74.6c-0.7,0-1.3,0.6-1.3,1.3c0,0.7,0.6,1.3,1.3,1.3c0.7,0,1.3-0.6,1.3-1.3
		C59.4,75.1,58.9,74.6,58.2,74.6z"/>
	<path id="XMLID_4208_" fill="#FFFFFF" d="M40.6,74.3c-0.9,0-1.6,0.7-1.6,1.6c0,0.9,0.7,1.6,1.6,1.6c0.9,0,1.6-0.7,1.6-1.6
		C42.1,75,41.4,74.3,40.6,74.3z"/>
	<path id="XMLID_4207_" fill="#FFFFFF" d="M23,73c-1.6,0-2.9,1.3-2.9,2.9c0,1.6,1.3,2.9,2.9,2.9c1.6,0,2.9-1.3,2.9-2.9
		C25.8,74.3,24.6,73,23,73z"/>
	<path id="XMLID_4206_" fill="#FFFFFF" d="M5.4,72.6c-1.8,0-3.3,1.5-3.3,3.3c0,1.8,1.5,3.3,3.3,3.3c1.8,0,3.3-1.5,3.3-3.3
		C8.6,74,7.2,72.6,5.4,72.6z"/>
	<path id="XMLID_4201_" fill="#FFFFFF" d="M269.3,57.8c-0.3,0-0.5,0.2-0.5,0.5c0,0.3,0.2,0.5,0.5,0.5c0.3,0,0.5-0.2,0.5-0.5
		C269.8,58,269.6,57.8,269.3,57.8z"/>
	<path id="XMLID_4200_" fill="#FFFFFF" d="M251.7,57.9c-0.2,0-0.4,0.2-0.4,0.4c0,0.2,0.2,0.4,0.4,0.4c0.2,0,0.4-0.2,0.4-0.4
		C252.1,58,251.9,57.9,251.7,57.9z"/>
	<path id="XMLID_4199_" fill="#FFFFFF" d="M234.1,57.7c-0.3,0-0.6,0.3-0.6,0.6c0,0.3,0.3,0.6,0.6,0.6c0.3,0,0.6-0.3,0.6-0.6
		C234.7,57.9,234.4,57.7,234.1,57.7z"/>
	<path id="XMLID_4198_" fill="#FFFFFF" d="M216.5,57c-0.7,0-1.3,0.6-1.3,1.3c0,0.7,0.6,1.3,1.3,1.3c0.7,0,1.3-0.6,1.3-1.3
		C217.8,57.5,217.2,57,216.5,57z"/>
	<path id="XMLID_4197_" fill="#FFFFFF" d="M198.9,56.7c-0.9,0-1.6,0.7-1.6,1.6c0,0.9,0.7,1.6,1.6,1.6c0.9,0,1.6-0.7,1.6-1.6
		C200.5,57.4,199.8,56.7,198.9,56.7z"/>
	<path id="XMLID_4196_" fill="#FFFFFF" d="M181.3,56.4c-1,0-1.8,0.8-1.8,1.8c0,1,0.8,1.8,1.8,1.8c1,0,1.8-0.8,1.8-1.8
		C183.1,57.2,182.3,56.4,181.3,56.4z"/>
	<path id="XMLID_4195_" fill="#FFFFFF" d="M163.7,56.1c-1.2,0-2.2,1-2.2,2.2c0,1.2,1,2.2,2.2,2.2c1.2,0,2.2-1,2.2-2.2
		C165.9,57,164.9,56.1,163.7,56.1z"/>
	<path id="XMLID_4194_" fill="#FFFFFF" d="M146.1,55.4c-1.6,0-2.8,1.3-2.8,2.8c0,1.6,1.3,2.8,2.8,2.8c1.6,0,2.8-1.3,2.8-2.8
		C149,56.7,147.7,55.4,146.1,55.4z"/>
	<path id="XMLID_4193_" fill="#FFFFFF" d="M128.5,55c-1.8,0-3.3,1.5-3.3,3.3c0,1.8,1.5,3.3,3.3,3.3c1.8,0,3.3-1.5,3.3-3.3
		C131.8,56.4,130.3,55,128.5,55z"/>
	<path id="XMLID_4192_" fill="#FFFFFF" d="M110.9,56.9c-0.8,0-1.4,0.6-1.4,1.4c0,0.8,0.6,1.4,1.4,1.4c0.8,0,1.4-0.6,1.4-1.4
		C112.3,57.5,111.7,56.9,110.9,56.9z"/>
	<path id="XMLID_4191_" fill="#FFFFFF" d="M93.3,57.3c-0.5,0-1,0.4-1,1c0,0.5,0.4,1,1,1c0.5,0,1-0.4,1-1
		C94.3,57.7,93.9,57.3,93.3,57.3z"/>
	<path id="XMLID_4190_" fill="#FFFFFF" d="M75.7,57c-0.7,0-1.2,0.5-1.2,1.2c0,0.7,0.5,1.2,1.2,1.2c0.7,0,1.2-0.6,1.2-1.2
		C77,57.6,76.4,57,75.7,57z"/>
	<path id="XMLID_4189_" fill="#FFFFFF" d="M58.2,56.8c-0.8,0-1.5,0.6-1.5,1.5c0,0.8,0.7,1.5,1.5,1.5c0.8,0,1.5-0.6,1.5-1.5
		C59.6,57.4,59,56.8,58.2,56.8z"/>
	<path id="XMLID_4188_" fill="#FFFFFF" d="M40.6,55.4c-1.6,0-2.9,1.3-2.9,2.9c0,1.6,1.3,2.9,2.9,2.9c1.6,0,2.9-1.3,2.9-2.9
		C43.4,56.7,42.2,55.4,40.6,55.4z"/>
	<path id="XMLID_4187_" fill="#FFFFFF" d="M23,55c-1.8,0-3.3,1.5-3.3,3.3c0,1.8,1.5,3.3,3.3,3.3c1.8,0,3.3-1.5,3.3-3.3
		C26.2,56.4,24.8,55,23,55z"/>
	<path id="XMLID_4186_" fill="#FFFFFF" d="M5.4,54.5c-2.1,0-3.8,1.7-3.8,3.8c0,2.1,1.7,3.8,3.8,3.8c2.1,0,3.8-1.7,3.8-3.8
		C9.1,56.2,7.4,54.5,5.4,54.5z"/>
	<path id="XMLID_4181_" fill="#FFFFFF" d="M269.3,40.4c-0.1,0-0.2,0.1-0.2,0.3c0,0.1,0.1,0.2,0.2,0.2c0.1,0,0.2-0.1,0.2-0.2
		C269.5,40.5,269.4,40.4,269.3,40.4z"/>
	<path id="XMLID_4180_" fill="#FFFFFF" d="M251.7,40.3c-0.2,0-0.3,0.1-0.3,0.3c0,0.2,0.2,0.3,0.3,0.3c0.2,0,0.3-0.1,0.3-0.3
		C252,40.5,251.9,40.3,251.7,40.3z"/>
	<path id="XMLID_4179_" fill="#FFFFFF" d="M234.1,39.8c-0.5,0-0.9,0.4-0.9,0.9c0,0.5,0.4,0.9,0.9,0.9c0.5,0,0.9-0.4,0.9-0.9
		C235,40.2,234.6,39.8,234.1,39.8z"/>
	<path id="XMLID_4178_" fill="#FFFFFF" d="M216.5,39.5c-0.6,0-1.1,0.5-1.1,1.1c0,0.6,0.5,1.1,1.1,1.1c0.6,0,1.1-0.5,1.1-1.1
		C217.6,40,217.1,39.5,216.5,39.5z"/>
	<path id="XMLID_4177_" fill="#FFFFFF" d="M198.9,38.7c-1.1,0-1.9,0.9-1.9,1.9s0.8,1.9,1.9,1.9c1.1,0,1.9-0.9,1.9-1.9
		S200,38.7,198.9,38.7z"/>
	<path id="XMLID_4176_" fill="#FFFFFF" d="M181.3,38.4c-1.3,0-2.3,1-2.3,2.3s1,2.3,2.3,2.3c1.3,0,2.3-1,2.3-2.3
		S182.6,38.4,181.3,38.4z"/>
	<path id="XMLID_4175_" fill="#FFFFFF" d="M163.7,38c-1.5,0-2.7,1.2-2.7,2.7c0,1.5,1.2,2.7,2.7,2.7c1.5,0,2.7-1.2,2.7-2.7
		C166.4,39.2,165.2,38,163.7,38z"/>
	<path id="XMLID_4174_" fill="#FFFFFF" d="M146.1,37.5c-1.7,0-3.1,1.4-3.1,3.1c0,1.7,1.4,3.1,3.1,3.1c1.7,0,3.1-1.4,3.1-3.1
		C149.3,38.9,147.9,37.5,146.1,37.5z"/>
	<path id="XMLID_4173_" fill="#FFFFFF" d="M128.5,36.8c-2.1,0-3.8,1.7-3.8,3.8c0,2.1,1.7,3.8,3.8,3.8c2.1,0,3.8-1.7,3.8-3.8
		C132.3,38.6,130.6,36.8,128.5,36.8z"/>
	<path id="XMLID_4172_" fill="#FFFFFF" d="M110.9,38.1c-1.4,0-2.5,1.1-2.5,2.5c0,1.4,1.1,2.5,2.5,2.5c1.4,0,2.5-1.1,2.5-2.5
		C113.5,39.3,112.3,38.1,110.9,38.1z"/>
	<path id="XMLID_4171_" fill="#FFFFFF" d="M93.3,39.2c-0.8,0-1.4,0.6-1.4,1.4c0,0.8,0.6,1.4,1.4,1.4c0.8,0,1.4-0.6,1.4-1.4
		C94.8,39.9,94.1,39.2,93.3,39.2z"/>
	<path id="XMLID_4170_" fill="#FFFFFF" d="M75.7,39.3c-0.7,0-1.3,0.6-1.3,1.3c0,0.7,0.6,1.3,1.3,1.3c0.7,0,1.3-0.6,1.3-1.3
		C77.1,39.9,76.5,39.3,75.7,39.3z"/>
	<path id="XMLID_4169_" fill="#FFFFFF" d="M58.2,37.8c-1.6,0-2.9,1.3-2.9,2.9c0,1.6,1.3,2.9,2.9,2.9c1.6,0,2.9-1.3,2.9-2.9
		C61,39.1,59.7,37.8,58.2,37.8z"/>
	<path id="XMLID_4168_" fill="#FFFFFF" d="M40.6,37.3c-1.9,0-3.4,1.5-3.4,3.4c0,1.9,1.5,3.4,3.4,3.4c1.9,0,3.4-1.5,3.4-3.4
		C43.9,38.8,42.4,37.3,40.6,37.3z"/>
	<path id="XMLID_4167_" fill="#FFFFFF" d="M23,36.9c-2,0-3.7,1.7-3.7,3.7c0,2,1.7,3.7,3.7,3.7s3.7-1.7,3.7-3.7
		C26.7,38.6,25,36.9,23,36.9z"/>
	<path id="XMLID_4166_" fill="#FFFFFF" d="M5.4,36.5c-2.3,0-4.1,1.9-4.1,4.1s1.9,4.1,4.1,4.1c2.3,0,4.1-1.9,4.1-4.1
		S7.7,36.5,5.4,36.5z"/>
	<path id="XMLID_4161_" fill="#FFFFFF" d="M269.3,22.9c-0.1,0-0.2,0.1-0.2,0.2c0,0.1,0.1,0.2,0.2,0.2c0.1,0,0.2-0.1,0.2-0.2
		C269.5,22.9,269.4,22.9,269.3,22.9z"/>
	<path id="XMLID_4160_" fill="#FFFFFF" d="M251.7,22.7c-0.2,0-0.3,0.1-0.3,0.3c0,0.2,0.2,0.3,0.3,0.3c0.2,0,0.3-0.1,0.3-0.3
		C252,22.9,251.9,22.7,251.7,22.7z"/>
	<path id="XMLID_4159_" fill="#FFFFFF" d="M234.1,22.3c-0.4,0-0.7,0.3-0.7,0.7c0,0.4,0.3,0.7,0.7,0.7c0.4,0,0.7-0.3,0.7-0.7
		C234.8,22.7,234.5,22.3,234.1,22.3z"/>
	<path id="XMLID_4158_" fill="#FFFFFF" d="M216.5,21.6c-0.8,0-1.4,0.6-1.4,1.4c0,0.8,0.6,1.4,1.4,1.4c0.8,0,1.4-0.6,1.4-1.4
		C217.9,22.3,217.3,21.6,216.5,21.6z"/>
	<path id="XMLID_4157_" fill="#FFFFFF" d="M198.9,21.3c-1,0-1.8,0.8-1.8,1.8c0,1,0.8,1.8,1.8,1.8c1,0,1.8-0.8,1.8-1.8
		C200.7,22.1,199.9,21.3,198.9,21.3z"/>
	<path id="XMLID_4156_" fill="#FFFFFF" d="M181.3,20.9c-1.2,0-2.1,1-2.1,2.1c0,1.2,1,2.2,2.1,2.2c1.2,0,2.2-1,2.2-2.2
		C183.5,21.9,182.5,20.9,181.3,20.9z"/>
	<path id="XMLID_4155_" fill="#FFFFFF" d="M163.7,20.4c-1.5,0-2.6,1.2-2.6,2.6c0,1.5,1.2,2.6,2.6,2.6c1.5,0,2.6-1.2,2.6-2.6
		C166.4,21.6,165.2,20.4,163.7,20.4z"/>
	<path id="XMLID_4154_" fill="#FFFFFF" d="M146.1,19.1c-2.2,0-3.9,1.8-3.9,3.9c0,2.2,1.8,3.9,3.9,3.9c2.2,0,3.9-1.8,3.9-3.9
		C150.1,20.9,148.3,19.1,146.1,19.1z"/>
	<path id="XMLID_4153_" fill="#FFFFFF" d="M128.5,20.2c-1.6,0-2.8,1.3-2.8,2.8c0,1.6,1.3,2.8,2.8,2.8c1.6,0,2.8-1.3,2.8-2.8
		C131.4,21.5,130.1,20.2,128.5,20.2z"/>
	<path id="XMLID_4152_" fill="#FFFFFF" d="M110.9,19.2c-2.1,0-3.8,1.7-3.8,3.8c0,2.1,1.7,3.9,3.8,3.9c2.1,0,3.9-1.7,3.9-3.9
		C114.8,20.9,113.1,19.2,110.9,19.2z"/>
	<path id="XMLID_4151_" fill="#FFFFFF" d="M93.3,22c-0.6,0-1.1,0.5-1.1,1.1c0,0.6,0.5,1.1,1.1,1.1c0.6,0,1.1-0.5,1.1-1.1
		C94.4,22.5,93.9,22,93.3,22z"/>
	<path id="XMLID_4150_" fill="#FFFFFF" d="M75.7,21.6c-0.8,0-1.4,0.6-1.4,1.4c0,0.8,0.6,1.4,1.4,1.4c0.8,0,1.4-0.6,1.4-1.4
		C77.2,22.3,76.5,21.6,75.7,21.6z"/>
	<path id="XMLID_4149_" fill="#FFFFFF" d="M58.2,19.8c-1.8,0-3.2,1.5-3.2,3.2c0,1.8,1.4,3.2,3.2,3.2c1.8,0,3.2-1.5,3.2-3.2
		C61.4,21.3,59.9,19.8,58.2,19.8z"/>
	<path id="XMLID_4148_" fill="#FFFFFF" d="M40.6,19.3c-2.1,0-3.8,1.7-3.8,3.8c0,2.1,1.7,3.8,3.8,3.8c2.1,0,3.8-1.7,3.8-3.8
		C44.4,20.9,42.7,19.3,40.6,19.3z"/>
	<path id="XMLID_4147_" fill="#FFFFFF" d="M23,18.9c-2.3,0-4.2,1.9-4.2,4.2c0,2.3,1.9,4.2,4.2,4.2c2.3,0,4.2-1.9,4.2-4.2
		C27.2,20.7,25.3,18.9,23,18.9z"/>
	<path id="XMLID_4146_" fill="#FFFFFF" d="M5.4,18.2c-2.7,0-4.9,2.2-4.9,4.9c0,2.7,2.2,4.9,4.9,4.9c2.7,0,4.9-2.2,4.9-4.9
		C10.2,20.4,8.1,18.2,5.4,18.2z"/>
	<path id="XMLID_4141_" fill="#FFFFFF" d="M269.3,5.2c-0.2,0-0.3,0.1-0.3,0.3c0,0.2,0.1,0.3,0.3,0.3c0.2,0,0.3-0.1,0.3-0.3
		C269.6,5.3,269.5,5.2,269.3,5.2z"/>
	<path id="XMLID_4140_" fill="#FFFFFF" d="M251.7,4.9c-0.3,0-0.5,0.2-0.5,0.5c0,0.3,0.2,0.5,0.5,0.5c0.3,0,0.5-0.3,0.5-0.5
		C252.2,5.2,252,4.9,251.7,4.9z"/>
	<path id="XMLID_4139_" fill="#FFFFFF" d="M234.1,4.6c-0.5,0-0.8,0.4-0.8,0.8c0,0.5,0.4,0.8,0.8,0.8c0.5,0,0.8-0.4,0.8-0.8
		C234.9,5,234.6,4.6,234.1,4.6z"/>
	<path id="XMLID_4138_" fill="#FFFFFF" d="M216.5,4.4c-0.6,0-1.1,0.5-1.1,1.1c0,0.6,0.5,1.1,1.1,1.1c0.6,0,1.1-0.5,1.1-1.1
		C217.6,4.9,217.1,4.4,216.5,4.4z"/>
	<path id="XMLID_4137_" fill="#FFFFFF" d="M198.9,4.2c-0.7,0-1.3,0.6-1.3,1.3c0,0.7,0.6,1.3,1.3,1.3c0.7,0,1.3-0.6,1.3-1.3
		C200.2,4.8,199.6,4.2,198.9,4.2z"/>
	<path id="XMLID_4136_" fill="#FFFFFF" d="M181.3,4c-0.8,0-1.5,0.6-1.5,1.5c0,0.8,0.7,1.5,1.5,1.5c0.8,0,1.5-0.7,1.5-1.5
		C182.8,4.6,182.1,4,181.3,4z"/>
	<path id="XMLID_4135_" fill="#FFFFFF" d="M163.7,1.9c-1.9,0-3.5,1.6-3.5,3.5c0,1.9,1.6,3.5,3.5,3.5c1.9,0,3.5-1.6,3.5-3.5
		C167.2,3.5,165.7,1.9,163.7,1.9z"/>
	<path id="XMLID_4134_" fill="#FFFFFF" d="M146.1,1.1c-2.4,0-4.4,2-4.4,4.4c0,2.4,2,4.4,4.4,4.4c2.4,0,4.4-2,4.4-4.4
		C150.5,3,148.6,1.1,146.1,1.1z"/>
	<path id="XMLID_4133_" fill="#FFFFFF" d="M128.5,3.6c-1.1,0-1.9,0.9-1.9,1.9s0.9,1.9,1.9,1.9c1,0,1.9-0.9,1.9-1.9
		S129.6,3.6,128.5,3.6z"/>
	<path id="XMLID_4132_" fill="#FFFFFF" d="M110.9,4.3c-0.6,0-1.1,0.5-1.1,1.1s0.5,1.1,1.1,1.1s1.1-0.5,1.1-1.1S111.6,4.3,110.9,4.3z
		"/>
	<path id="XMLID_4131_" fill="#FFFFFF" d="M93.3,4c-0.8,0-1.5,0.6-1.5,1.5c0,0.8,0.7,1.5,1.5,1.5c0.8,0,1.5-0.7,1.5-1.5
		C94.8,4.6,94.2,4,93.3,4z"/>
	<path id="XMLID_4130_" fill="#FFFFFF" d="M75.7,1.5c-2.2,0-4,1.8-4,3.9c0,2.2,1.8,3.9,4,3.9c2.2,0,4-1.8,4-3.9
		C79.7,3.3,77.9,1.5,75.7,1.5z"/>
	<path id="XMLID_4129_" fill="#FFFFFF" d="M58.2,0c-3,0-5.5,2.4-5.5,5.5c0,3,2.4,5.5,5.5,5.5c3,0,5.5-2.4,5.5-5.5
		C63.6,2.4,61.2,0,58.2,0z"/>
	<path id="XMLID_4128_" fill="#FFFFFF" d="M40.6,1.1c-2.4,0-4.3,1.9-4.3,4.3c0,2.4,1.9,4.3,4.3,4.3c2.4,0,4.3-2,4.3-4.3
		C44.9,3.1,43,1.1,40.6,1.1z"/>
	<path id="XMLID_4127_" fill="#FFFFFF" d="M23,0.7c-2.6,0-4.7,2.1-4.7,4.7c0,2.6,2.1,4.7,4.7,4.7c2.6,0,4.7-2.1,4.7-4.7
		C27.7,2.8,25.6,0.7,23,0.7z"/>
	<path id="XMLID_4126_" fill="#FFFFFF" d="M5.4,0.1C2.4,0.1,0,2.5,0,5.5c0,3,2.4,5.4,5.4,5.4c3,0,5.4-2.4,5.4-5.4
		C10.7,2.5,8.3,0.1,5.4,0.1z"/>
</g>
</svg>
