<?xml version="1.0" encoding="utf-8"?>
<!-- Generator: Adobe Illustrator 19.0.0, SVG Export Plug-In . SVG Version: 6.00 Build 0)  -->
<svg version="1.1" id="Слой_1" xmlns="http://www.w3.org/2000/svg" xmlns:xlink="http://www.w3.org/1999/xlink" x="0px" y="0px"
	 viewBox="0 0 152 240.6" enable-background="new 0 0 152 240.6" xml:space="preserve">
<g id="XMLID_3905_">
	<polygon id="XMLID_3941_" fill="#FCAF32" points="72.3,50.2 72,56.5 66.7,58.7 64.4,49.8 	"/>
	<path id="XMLID_3940_" fill="#FFD366" d="M41.5,46.5c0.5-7.1,4.8-19.8,15.3-24c1.8-0.7,9.1-3.6,15.4,0c8.1,4.6,10.4,17.2,6.3,24.3
		C71.5,58.4,41.5,46.5,41.5,46.5z"/>
	<path id="XMLID_3939_" fill="#FFD366" d="M98.4,1.8c0,0,0.9,14.1-5.7,21.6c-5.2,5.8-11.9,7.7-15.3,8.4c-0.3-3.5-0.6-12.8,5.6-20.9
		C87.4,5.1,98.4,1.8,98.4,1.8z"/>
	<path id="XMLID_3938_" fill="#05282D" d="M62.5,33.6c0,0,2.3-3.4,4.7-2.8c1.4,0.4,2.5,1.8,2.8,3.6c-0.9,0.3-2.4,0.5-4.2,0.3
		C64.6,34.6,62.5,33.6,62.5,33.6z"/>
	
		<ellipse id="XMLID_3937_" transform="matrix(0.9903 0.1388 -0.1388 0.9903 5.0567 -8.6925)" fill="#FFFFFF" cx="64.8" cy="31.9" rx="0.8" ry="0.9"/>
	
		<ellipse id="XMLID_3936_" transform="matrix(-0.9489 -0.3157 0.3157 -0.9489 107.376 101.5984)" opacity="0.35" fill="#BF4070" cx="61.9" cy="42.1" rx="4.2" ry="3.3"/>
	<path id="XMLID_3935_" fill="none" stroke="#05282D" stroke-miterlimit="10" d="M47.3,48c0,0,3.8,0.9,4.6-2.4"/>
	<line id="XMLID_3934_" fill="none" stroke="#05282D" stroke-miterlimit="10" x1="51.2" y1="44.9" x2="52.9" y2="47.1"/>
	<path id="XMLID_3933_" opacity="0.35" fill="#BF4070" d="M93.3,9.4c0,0,0.4,6.2-2.5,9.4c-2.3,2.6-5.2,3.4-6.7,3.7
		C84,21,83.9,17,86.6,13.4C88.5,10.9,93.3,9.4,93.3,9.4z"/>
	<path id="XMLID_3932_" fill="#FFD366" d="M101.5,145.7c-2.5-4.8-21.5-33.4-23-40.2c-3.4-15.8-1-27.4,0.7-37.3
		c0.8-4.4-0.9-8.9-4.3-11.7l-0.5-0.4c-3.3,0-6.6,0.3-9.8,1c-14.8,3.4-7.9,10.7-26.2,22.6c-5,3.3-5.6,10.5-1.1,14.5
		c0.1,0.1,0.3,0.2,0.4,0.3c5.9,4.2,9,11.1,7.6,18.2c-1.8,8.3-3,18.4-2.6,29.7c0.5,14.6,0.8,25.1,7.9,33.9
		c14.8,18.4,51.7,19.6,58.7,6.7C114.3,174.3,107.6,157.6,101.5,145.7z"/>
	<path id="XMLID_3931_" fill="#FFD366" d="M82,159.2c14.9,9.1,33.4,7.1,44.1-3.9c10.8-11,12-29.1,5.5-39.3
		c-5.1-8.1-13.7-9-15.1-17.8c-0.1-0.9-1.2-8.3,4.1-13c4.9-4.4,11.5-3.1,12.3-3c-5.8,3.4-9.6,6.7-6.9,12.8c1.8,4.1,7.5,4.9,12.2,7.6
		c12.4,7.1,14.9,28.3,13.3,39.8c-3,21.6-25.2,40.6-54.7,43.9"/>
	<path id="XMLID_3930_" fill="#E4F7F9" d="M77.7,168.2c1.5,1.3,3.8,0.4,4-1.5c0.8-6.9,1.1-17.3-2.4-29.1
		c-4.5-15.5-13.1-25.6-17.7-30.2c2.1-5.3,4.2-10.9,6.2-16.7c4.1-11.9,6-17.8,8.7-28.7l-3.5,1.7c-0.3,1.5-1.2,5.6-12.1,10.8
		c-7.2,3.5-15.2,2.1-17.6,1.6c-0.7,0.2-9.8,2.9-10.9,9.3c-0.6,3.3,1.2,6.2,3.8,10.3c3.1,4.9,6.7,8.3,9.2,10.3
		c-2.7,8.3-5.7,20.3-5.7,35c0,10.4,1.5,19.3,3.2,26.2c0.6,2.7,3.1,4.4,5.3,4c1.7-0.3,3.1-1.8,3.5-3.7c0.2,2,1.8,3.5,3.7,3.7
		c2,0.2,3.9-1.1,4.5-3.1c1.2,2.2,3.5,3.4,5.7,3.1c2.5-0.3,3.8-2.5,4-2.8c0.9,2.2,3.2,3.4,5.2,2.8C77,170.7,77.6,168.3,77.7,168.2
		L77.7,168.2z"/>
	<path id="XMLID_3929_" fill="none" stroke="#05282D" stroke-linejoin="round" stroke-miterlimit="10" d="M76,167.5
		c1.5,1.3,3.8,0.4,4-1.5c0.8-6.9,1.1-17.3-2.4-29.1c-4.5-15.5-13.1-25.6-17.7-30.2c2.1-5.3,4.2-10.9,6.2-16.7
		c4.1-11.9,7.5-23.4,10.2-34.2h-3.1c-0.3,1.5-3,12.8-13.9,18c-7.2,3.5-15.2,2.1-17.6,1.6c-0.7,0.2-9.8,2.9-10.9,9.3
		c-0.6,3.3,1.2,6.2,3.8,10.3c3.1,4.9,6.7,8.3,9.2,10.3c-2.7,8.3-5.7,20.3-5.7,35c0,10.4,1.5,19.3,3.2,26.2c0.6,2.7,3.1,4.4,5.3,4
		c1.7-0.3,3.1-1.8,3.5-3.7c0.2,2,1.8,3.5,3.7,3.7c2,0.2,3.9-1.1,4.5-3.1c1.2,2.2,3.5,3.4,5.7,3.1c2.5-0.3,3.8-2.5,4-2.8
		c0.9,2.2,3.2,3.4,5.2,2.8C75.3,170,75.9,167.6,76,167.5L76,167.5z"/>
	<path id="XMLID_3928_" fill="none" stroke="#05282D" stroke-linejoin="round" stroke-miterlimit="10" d="M101.5,163.5
		c5.7,2.1,18.9-4.9,23.2-8.9c11.3-10.5,12-29.1,5.5-39.3c-5.1-8.1-13.7-9-15.1-17.8c-0.1-0.9-1.2-8.3,4.1-13
		c4.9-4.4,11.5-3.1,12.3-3c-5.8,3.4-9.6,6.7-6.9,12.8c1.8,4.1,7.5,4.9,12.2,7.6c12.4,7.1,14.9,28.3,13.3,39.8
		c-3,21.6-21.6,34.9-42.9,41.7"/>
	<path id="XMLID_3927_" fill="#E4F7F9" d="M61,21.2L58.3,8.4c0.9-0.3,6.2-1.9,11.6,1c4.3,2.4,6.9,7.1,7.4,8.3l-0.9,9.5L61,21.2z"/>
	<path id="XMLID_3926_" fill="none" stroke="#05282D" stroke-linejoin="round" stroke-miterlimit="10" d="M75.9,31
		c3.4-0.7,10.1-2.6,15.3-8.4C97.8,15.1,96.9,1,96.9,1s-11,3.4-15.4,9.1c-6.2,8-5.1,17-5.1,17c-4.1-5.4-10.6-8.2-17.1-7.3
		C51.8,21,45.7,26.8,44,34.4"/>
	<polygon id="XMLID_3925_" fill="#FFD366" points="72.7,185.6 77,240.6 80.5,240.6 86,189.5 	"/>
	
		<line id="XMLID_3924_" fill="none" stroke="#05282D" stroke-linejoin="round" stroke-miterlimit="10" x1="83.4" y1="189.1" x2="79.2" y2="239.9"/>
	<path id="XMLID_3923_" fill="#05282D" d="M42,42.7c1.2-1.2,2.9-1.5,3.8-0.9c1.2,0.8,0.9,3.2-0.3,4.4c-1.1,1.1-2.1,1-4,0.2
		C41.5,44.8,42,42.7,42,42.7z"/>
	<polygon id="XMLID_3922_" fill="#FFD366" points="65.2,185.6 69.4,240.6 73,240.6 78.5,189.5 	"/>
	
		<line id="XMLID_3920_" fill="none" stroke="#05282D" stroke-linejoin="round" stroke-miterlimit="10" x1="75.8" y1="189.1" x2="71.7" y2="239.9"/>
	<path id="XMLID_3921_" fill="#1A8689" d="M73,240.6H53.1c0.7-1.1,2.4-3.2,5.3-4.4c5.6-2.3,10.9,0.9,11.5,1.3L73,240.6z"/>
	<path id="XMLID_3918_" fill="none" stroke="#05282D" stroke-linejoin="round" stroke-miterlimit="10" d="M59.2,19.8L56.5,7
		c0.9-0.3,7.4-2.2,12.8,0.7c4.3,2.4,8.5,6.9,8.9,8.1"/>
	<path id="XMLID_3917_" fill="#1A8689" d="M80.5,240.6c-0.8-0.9-2.5-2.6-5.1-3.2c-0.6-0.1-1.1-0.2-1.6-0.2l-0.5,3.4L80.5,240.6z"/>
	<path id="XMLID_3916_" fill="#C6E8EE" d="M40.3,130.6c11.8,0.4,20.7-7,20.7-7c0.2,3.6,0.3,16.4-8.9,26.7c-3.4,3.8-7.9,6.5-10.9,8
		C41.2,158.3,38.6,143.3,40.3,130.6z"/>
	<path id="XMLID_3915_" fill="none" stroke="#05282D" stroke-linejoin="round" stroke-miterlimit="10" d="M38.2,130.6
		c11.8,0.4,20.7-7,20.7-7c0.2,3.6,0.3,16.4-8.9,26.7c-3.4,3.8-7.9,6.5-10.9,8"/>
	<path id="XMLID_3904_" fill="#1A8689" d="M44.5,105.2c4.5,0.8,10.1,1.4,16.9,1.1c6.5-0.2,12.4-1.2,16.8-2.3l0.4,2.1
		c-4.8,1.2-11.2,2.2-18.6,2.2c-6,0-10.7-0.3-14.9-1.1"/>
	<path id="XMLID_3908_" fill="#1A8689" d="M0,63.2l0,19.5c0,1.6,1.3,2.8,2.8,2.8h3.6c1.6,0,2.8-1.3,2.8-2.8V63.2
		c0-1.6-1.3-2.8-2.8-2.8H2.8C1.3,60.3,0,61.6,0,63.2z M4.8,81.5c0,0.8-0.7,1.5-1.5,1.5s-1.5-0.7-1.5-1.5S2.5,80,3.3,80
		S4.8,80.7,4.8,81.5z M7.6,79.1c0,0.5-0.4,0.9-0.9,0.9s-0.9-0.4-0.9-0.9c0-0.5,0.4-0.9,0.9-0.9S7.6,78.6,7.6,79.1z M4.2,72.7
		c0,0.5-0.4,0.9-0.9,0.9s-0.9-0.4-0.9-0.9c0-0.5,0.4-0.9,0.9-0.9S4.2,72.2,4.2,72.7z M7.3,69c0,0.5-0.4,0.9-0.9,0.9
		c-0.5,0-0.9-0.4-0.9-0.9c0-0.5,0.4-0.9,0.9-0.9C6.9,68.1,7.3,68.5,7.3,69z M7.9,65c0,0.8-0.7,1.5-1.5,1.5S4.9,65.8,4.9,65
		s0.7-1.5,1.5-1.5S7.9,64.2,7.9,65z"/>
	<path id="XMLID_3907_" fill="#FFD366" d="M11.5,81.7c4.2,7.2,18.9,17,29.9,14.6c19.9-4.4,26.7-20.2,32.9-19.9l2.9-15
		c-7.2-1-16.3,20.5-33.9,26.2c-13.3,4.3-25.2-1.9-29.9-7.4c1.9-3.8,1.5-8.1-0.9-11.2c-2-2.6-5.8-4.7-7.1-3.7
		C3.1,67.1,9.9,78.9,11.5,81.7z"/>
</g>
</svg>
