<?xml version="1.0" encoding="utf-8"?>
<!-- Generator: Adobe Illustrator 19.0.0, SVG Export Plug-In . SVG Version: 6.00 Build 0)  -->
<svg version="1.1" id="Слой_1" xmlns="http://www.w3.org/2000/svg" xmlns:xlink="http://www.w3.org/1999/xlink" x="0px" y="0px"
	 viewBox="0 0 55.7 59.4" enable-background="new 0 0 55.7 59.4" xml:space="preserve">
<g id="XMLID_3863_">
	
		<rect id="XMLID_3888_" x="7.1" y="5.8" fill="#C6E8EE" stroke="#04282D" stroke-width="0.7677" stroke-linejoin="round" stroke-miterlimit="10" width="32.5" height="47.5"/>
	
		<polygon id="XMLID_3885_" fill="#A5D6DB" stroke="#05282D" stroke-width="0.7677" stroke-linejoin="round" stroke-miterlimit="10" points="
		31.1,0.5 39.5,5.8 7.1,5.8 0.5,0.5 	"/>
	
		<polygon id="XMLID_3882_" fill="#DFF5F7" stroke="#05282D" stroke-width="0.7677" stroke-linecap="round" stroke-linejoin="round" stroke-miterlimit="10" points="
		7.1,5.8 7.1,53.3 0.5,48 0.5,0.5 	"/>
	
		<rect id="XMLID_3877_" x="7.1" y="19.6" fill="#FCAF32" stroke="#04282D" stroke-width="0.7681" stroke-miterlimit="10" width="32.5" height="17.1"/>
	<polygon id="XMLID_3869_" fill="#FFD366" stroke="#05282D" stroke-width="0.7677" stroke-miterlimit="10" points="7.1,19.6 
		0.5,14.7 0.5,31.8 7.1,36.6 	"/>
	<path id="XMLID_3865_" fill="#FFD366" d="M40,59.4c8.4,0,15.6-2.5,15.6-2.5c0.2-0.4,0.2-0.8,0-1.1c-0.3-0.5-1-0.4-1.3-0.8
		c0.8-1.6-0.7-3.5-2.1-4c-1.5-0.5-3.1-0.4-4.4-1.4c0.8-1.1,0.5-3-0.5-3.7C46.2,45.2,45,45.5,44,45c-0.2-1.5-1.4-2.7-2.7-3.1
		c-1.3-0.4-2.7-0.1-4,0.2c-2.6-1.3-6.1,1-6.5,4.3c-1.2,0.1-2.5,0.3-3.4,1.3c-0.9,1-1.2,2.8-0.3,3.8c-2,0-3.6,3-2.6,5.1
		C24.6,56.6,31.6,59.4,40,59.4z"/>
	<g id="XMLID_3898_">
		<path id="XMLID_3862_" fill="#05282D" d="M35.3,45.7l1.7,2.4L35.3,45.7z"/>
		<path id="XMLID_3861_" fill="#05282D" d="M37,49.3c-0.4,0-0.8-0.2-1-0.5l-1.7-2.4c-0.4-0.6-0.3-1.3,0.3-1.7
			c0.6-0.4,1.3-0.3,1.7,0.3l1.7,2.4c0.4,0.6,0.3,1.3-0.3,1.7C37.5,49.2,37.3,49.3,37,49.3z"/>
	</g>
	<g id="XMLID_3895_">
		<path id="XMLID_3860_" fill="#05282D" d="M43.8,50.8l-1.9,2.4L43.8,50.8z"/>
		<path id="XMLID_2807_" fill="#05282D" d="M41.9,54.4c-0.3,0-0.5-0.1-0.8-0.3c-0.5-0.4-0.6-1.2-0.2-1.7l1.9-2.4
			c0.4-0.5,1.2-0.6,1.7-0.2c0.5,0.4,0.6,1.2,0.2,1.7l-1.9,2.4C42.7,54.2,42.3,54.4,41.9,54.4z"/>
	</g>
	<g id="XMLID_3892_">
		<path id="XMLID_2730_" fill="#05282D" d="M30.3,52h2.2H30.3z"/>
		<path id="XMLID_2515_" fill="#05282D" d="M32.5,53.2h-2.2c-0.7,0-1.2-0.6-1.2-1.2s0.6-1.2,1.2-1.2h2.2c0.7,0,1.2,0.6,1.2,1.2
			S33.2,53.2,32.5,53.2z"/>
	</g>
	<path id="XMLID_3893_" fill="none" stroke="#05282D" stroke-width="0.7677" stroke-miterlimit="10" d="M38.7,58.8
		c8.4,0,15.6-2.5,15.6-2.5c0.2-0.4,0.2-0.8,0-1.1c-0.3-0.5-1-0.4-1.3-0.8c0.8-1.6-0.7-3.5-2.1-4c-1.5-0.5-3.1-0.4-4.4-1.4
		c0.8-1.1,0.5-3-0.5-3.7c-0.9-0.6-2.1-0.4-3.1-0.9c-0.2-1.5-1.4-2.7-2.7-3.1c-1.3-0.4-2.7-0.1-4,0.2c-2.6-1.3-6.1,1-6.5,4.3
		c-1.2,0.1-2.5,0.3-3.4,1.3c-0.9,1-1.2,2.8-0.3,3.8c-2,0-3.6,3-2.6,5.1C23.3,56,30.3,58.8,38.7,58.8z"/>
</g>
</svg>
