<?xml version="1.0" encoding="utf-8"?>
<!-- Generator: Adobe Illustrator 19.0.0, SVG Export Plug-In . SVG Version: 6.00 Build 0)  -->
<svg version="1.1" id="Слой_1" xmlns="http://www.w3.org/2000/svg" xmlns:xlink="http://www.w3.org/1999/xlink" x="0px" y="0px"
	 viewBox="0 0 89 134.3" enable-background="new 0 0 89 134.3" xml:space="preserve">
<g id="XMLID_3891_">
	<rect id="XMLID_3864_" x="0" y="0" fill="#5A9191" width="89" height="80"/>
	<polygon id="XMLID_3890_" fill="#C6E8EE" points="20.6,73.7 68.8,73.7 68.8,40.3 20.6,73.1 	"/>
	<polygon id="XMLID_3889_" fill="#C6E8EE" points="20.6,50.6 20.6,64.8 68.8,32 68.8,21.5 63.4,21.5 	"/>
	<g id="XMLID_3879_">
		<g id="XMLID_3884_">
			<polygon id="XMLID_3887_" fill="#FCAF32" points="20.6,75.5 20.6,80 44.7,80 68.8,80 68.8,75.5 44.7,75.5 			"/>
			<polygon id="XMLID_3886_" fill="#FFD366" points="20.6,73.7 20.6,75.5 44.7,75.5 68.8,75.5 68.8,73.7 44.7,73.7 			"/>
		</g>
		<path id="XMLID_3883_" fill="#FFD366" d="M20.6,80v1.1c0,1.6,1.2,2.9,2.8,3.1l9.8,0.9c1,0.1,9.5,1.3,9.5,8v0.4v0v22.9v2.9v5
			c0,0.8,0.6,1.4,1.4,1.4h1c0.8,0,1.4-0.6,1.4-1.4v-5h0.1V93.4v0v-0.4c0-6.7,8.5-7.9,9.5-8l9.8-0.9c1.6-0.1,2.8-1.5,2.8-3.1V80H44.7
			H20.6z"/>
		<path id="XMLID_3881_" fill="#FCAF32" d="M41,130.7c0,2,1.6,3.6,3.6,3.6h0.4c2,0,3.6-1.6,3.6-3.6v-28.3H41V130.7z"/>
	</g>
	<g id="XMLID_3866_">
		<path id="XMLID_3873_" fill="#FFFFFF" stroke="#05282D" stroke-miterlimit="10" d="M61.7,53.5c0,0-0.4,1.4-1,2
			c-0.8,0.9-2,1.2-2,1.2s1.2,0.4,1.9,1.2c0.7,0.8,1.1,1.9,1.1,1.9c0,0,0.4-1.2,1.1-1.9c0.7-0.8,1.9-1.2,1.9-1.2s-1.2-0.4-2-1.2
			C62.1,54.9,61.7,53.5,61.7,53.5z"/>
		<path id="XMLID_3870_" fill="#FFFFFF" stroke="#05282D" stroke-miterlimit="10" d="M27.3,25.8c0,0-0.4,1.4-1,2
			c-0.8,0.9-2,1.2-2,1.2s1.2,0.4,1.9,1.2c0.7,0.8,1.1,1.9,1.1,1.9c0,0,0.4-1.2,1.1-1.9c0.7-0.8,1.9-1.2,1.9-1.2s-1.2-0.4-2-1.2
			C27.7,27.1,27.3,25.7,27.3,25.8z"/>
		<path id="XMLID_3867_" fill="#FFFFFF" stroke="#05282D" stroke-miterlimit="10" d="M53.9,59.9c0,0-0.6,1.9-1.4,2.8
			c-1.1,1.2-2.8,1.7-2.8,1.7s1.7,0.6,2.6,1.6c1,1,1.5,2.7,1.5,2.7c0,0,0.6-1.6,1.5-2.7c0.9-1,2.6-1.6,2.6-1.6s-1.7-0.5-2.8-1.7
			C54.4,61.8,53.9,59.9,53.9,59.9z"/>
	</g>
	<polygon id="XMLID_3896_" fill="none" stroke="#05282D" stroke-miterlimit="10" points="19.6,72.2 19.6,74 43.7,74 67.8,74 
		67.8,72.2 43.7,72.2 	"/>
	<path id="XMLID_3894_" fill="none" stroke="#05282D" stroke-miterlimit="10" d="M19.6,78.5v1.1c0,1.6,1.2,2.9,2.8,3.1l9.8,0.9
		c1,0.1,9.5,1.3,9.5,8v0.4v0v22.9v2.9v5c0,0.8,0.6,1.4,1.4,1.4h1c0.8,0,1.4-0.6,1.4-1.4v-5h0.1V91.9v0v-0.4c0-6.7,8.5-7.9,9.5-8
		l9.8-0.9c1.6-0.1,2.8-1.5,2.8-3.1v-1.1H43.7H19.6z"/>
</g>
</svg>
