<svg xmlns="http://www.w3.org/2000/svg" viewBox="-134 352.5 325.2 136.4">
  <path fill="#FCAF32" d="M-93.7 467.4l-1.5 21.5h5.3l8.5-21.5zM153.7 467.4l1.5 21.5h-5.3l-8.5-21.5z"/>
  <path fill="#C6E8EE" d="M-97.8 418.6l5.3-45c1.4-10.5 11.6-18.3 23.7-18.3h196.5c11.7 0 21.6 7.3 23.6 17.3l7.7 46H-97.8z"/>
  <path fill="#A9D7DB" d="M157.9 393.4s-19.8 5.3-27.6 16.4H-69.2s-5.3-15.5-23.8-15.3v27.1h253l-2.1-28.2z"/>
  <path fill="#FCAF32" d="M-99.5 458.6H160v11.2H-99.5z"/>
  <path fill="#C6E8EE" d="M177.2 389.5h-5.7c-10.1 0-19.8 4.8-25.7 13-4.3 5.9-6.4 13.5-6.4 13.5l-108.8 1.7-108.7-1.8s-2.1-7.6-6.4-13.5c-6-8.2-15.6-13-25.7-13h-5.7c-10.8.1-15.7 10-13.4 20.6 2.8 12.9 6.4 29.7 16.2 43.6 4.7 6.6 12.4 10.4 20.5 10.4H153.9c8.1 0 15.8-3.8 20.5-10.4 9.8-13.9 13.3-30.7 16.2-43.6 2.3-10.6-2.6-20.5-13.4-20.5z"/>
  <path fill="#A9D7DB" d="M147.7 441H-86.4c-3.3 0-5.9-2.7-5.9-5.9 0-10.4 8.4-18.7 18.7-18.7h210.4c9.3 0 16.8 7.5 16.8 16.8v1.9c0 3.3-2.6 5.9-5.9 5.9z"/>
  <path fill="#C6E8EE" d="M24.5 437.6H-87.2c-2.9 0-5.2-2.3-5.2-5.2 0-9.1 7.4-16.5 16.5-16.5H24.4c2.9 0 5.2 2.3 5.2 5.2v11.4c0 2.8-2.3 5.1-5.1 5.1zM148.5 437.6H36.8c-2.9 0-5.2-2.3-5.2-5.2v-11.3c0-2.9 2.3-5.2 5.2-5.2h100.3c9.1 0 16.5 7.4 16.5 16.5 0 2.9-2.3 5.2-5.1 5.2z"/>
  <path fill="none" stroke="#05282D" stroke-miterlimit="10" d="M-97.8 391.2l2.3-19.8c1.4-10.4 11.6-18.3 23.7-18.3h196.5c11.7 0 21.6 7.3 23.6 17.3l3.6 21.6"/>
  <path fill="none" stroke="#05282D" stroke-miterlimit="10" d="M174.2 387.3h-5.7c-10.1 0-19.8 4.8-25.7 13-4.3 5.9-6.4 13.5-6.4 13.5l-108.7 1.7-108.8-1.7s-2.1-7.6-6.4-13.5c-6-8.2-15.6-13-25.7-13h-5.7c-10.8 0-15.7 10-13.4 20.5 2.9 12.9 6.4 29.7 16.2 43.6 4.7 6.6 12.4 10.4 20.5 10.4H150.9c8.1 0 15.8-3.8 20.5-10.4 9.8-13.9 13.3-30.7 16.2-43.6 2.3-10.5-2.6-20.5-13.4-20.5zM-95.2 435.7h239.6"/>
  <path fill="#FFD366" d="M-48.5 416.1l-25.9 2c-2.9.2-5.4-1.9-5.6-4.8l-1.6-20.3c-.2-2.9 1.9-5.4 4.8-5.6l25.9-2c2.9-.2 5.4 1.9 5.6 4.8l1.6 20.3c.2 2.9-1.9 5.4-4.8 5.6z"/>
  <path fill="#1A8689" d="M-16.7 424.3h-26c-2.9 0-5.3-2.4-5.3-5.3v-20.3c0-2.9 2.4-5.3 5.3-5.3h26c2.9 0 5.3 2.4 5.3 5.3V419c0 2.9-2.4 5.3-5.3 5.3zM118.5 421.7h-26c-2.9 0-5.3-2.4-5.3-5.3v-20.3c0-2.9 2.4-5.3 5.3-5.3h26c2.9 0 5.3 2.4 5.3 5.3v20.3c0 2.9-2.4 5.3-5.3 5.3z"/>
  <path fill="#FFF" d="M61 385.9s-.4 1.4-1.1 2.1c-.8.9-2.1 1.3-2.1 1.3s1.3.5 2 1.3 1.2 2.1 1.2 2.1.4-1.3 1.2-2.1c.7-.8 2-1.3 2-1.3s-1.3-.4-2.1-1.3c-.7-.7-1.1-2.1-1.1-2.1zM77.6 371.5s-.9 3.1-2.3 4.6c-1.7 2-4.6 2.8-4.6 2.8s2.8 1 4.3 2.7c1.6 1.7 2.5 4.4 2.5 4.4s.9-2.7 2.5-4.4c1.6-1.7 4.3-2.7 4.3-2.7s-2.8-.8-4.6-2.8c-1.1-1.5-2.1-4.6-2.1-4.6zM-100.3 436.3s-.4 1.4-1.1 2.1c-.8.9-2.1 1.3-2.1 1.3s1.3.5 2 1.3 1.2 2.1 1.2 2.1.4-1.3 1.2-2.1c.7-.8 2-1.3 2-1.3s-1.3-.4-2.1-1.3c-.7-.7-1.1-2.1-1.1-2.1zM-83.7 421.9s-.9 3.1-2.3 4.6c-1.7 2-4.6 2.8-4.6 2.8s2.8 1 4.3 2.7c1.6 1.7 2.5 4.4 2.5 4.4s.9-2.7 2.5-4.4c1.6-1.7 4.3-2.7 4.3-2.7s-2.7-.8-4.4-2.8c-1.3-1.5-2.3-4.6-2.3-4.6z"/>
</svg>
