<?xml version="1.0" encoding="utf-8"?>
<!-- Generator: Adobe Illustrator 19.0.0, SVG Export Plug-In . SVG Version: 6.00 Build 0)  -->
<svg version="1.1" id="Слой_1" xmlns="http://www.w3.org/2000/svg" xmlns:xlink="http://www.w3.org/1999/xlink" x="0px" y="0px"
	 viewBox="0 0 40.3 40.3" enable-background="new 0 0 40.3 40.3" xml:space="preserve">
<g id="XMLID_4625_">
	<circle id="XMLID_4623_" fill="#47B0D3" cx="20.1" cy="20.1" r="20.1"/>
	<path id="XMLID_4622_" fill="#2188A3" d="M2.7,20.1C2.7,9.5,11,0.7,21.5,0c-0.4,0-0.9,0-1.3,0C9,0,0,9,0,20.1s9,20.1,20.1,20.1
		c0.5,0,0.9,0,1.3,0C11,39.5,2.7,30.8,2.7,20.1z"/>
	<path id="XMLID_4621_" fill="#E5E5E5" d="M29.9,8.6c-0.2-0.1-0.4-0.2-0.7-0.1L7.6,18.6c-0.4,0.2-0.6,0.6-0.6,1
		c0,0.4,0.3,0.8,0.6,0.9l19.9,8.7c0.7,0.3,1.4-0.2,1.5-0.9l1.1-19.1C30.2,8.9,30.1,8.7,29.9,8.6z"/>
	<polygon id="XMLID_4620_" fill="#CCCCCC" points="13.5,23.1 14.8,32.1 29.8,8.5 	"/>
	<path id="XMLID_4619_" fill="#FFFFFF" d="M29.2,8.5L7.6,18.6c-0.4,0.2-0.6,0.6-0.6,1c0,0.4,0.3,0.8,0.6,1l5.9,2.6L29.8,8.5
		C29.6,8.4,29.4,8.4,29.2,8.5z"/>
	<polygon id="XMLID_4618_" fill="#E5E5E5" points="16.6,24.4 14.8,32.1 29.8,8.5 	"/>
	<path id="XMLID_3973_" fill="#FFFFFF" d="M29.9,8.6C29.9,8.6,29.8,8.5,29.9,8.6L16.6,24.4l11,4.8c0.7,0.3,1.4-0.2,1.5-0.9l1.1-19.1
		C30.2,8.9,30.1,8.7,29.9,8.6z"/>
</g>
</svg>
