<?xml version="1.0" encoding="utf-8"?>
<!-- Generator: Adobe Illustrator 19.0.0, SVG Export Plug-In . SVG Version: 6.00 Build 0)  -->
<svg version="1.1" id="Слой_1" xmlns="http://www.w3.org/2000/svg" xmlns:xlink="http://www.w3.org/1999/xlink" x="0px" y="0px"
	 viewBox="0 0 151.2 229.4" enable-background="new 0 0 151.2 229.4" xml:space="preserve">
<g id="XMLID_3957_">
	<g id="XMLID_4027_">
		<path id="XMLID_4063_" fill="#FFD366" d="M92.6,177.1c26.5-0.4,45.1-18,45.3-34.9c0.1-14.3-25-26.5-26.2-39.6
			c-0.8-9,7.2-20.2,21.2-20.9c-1.7,1.1-10.9,7.8-11.8,16.4c-0.9,9,19.2,20.2,24.1,27.4c5.1,7.3,6.4,16.8,5.9,22.3
			c-2.1,22.3-22,35.3-26.5,38c-20,12.2-48.1,7.4-52.8,6.3"/>
		<path id="XMLID_4062_" fill="none" stroke="#05282D" stroke-linejoin="round" stroke-miterlimit="10" d="M88.5,176.5
			c26.5-0.4,47.2-17.9,47.4-34.8c0.1-14.3-25-26.5-26.2-39.6c-0.8-9,7.2-20.2,21.2-20.9c-1.7,1.1-10.9,7.8-11.8,16.4
			c-0.9,9,19.2,20.2,24.1,27.4c5.1,7.3,6.4,16.8,5.9,22.3c-2.1,22.3-22,35.3-26.5,38c-20,12.2-49.5,6.6-54.3,5.4"/>
		<path id="XMLID_4061_" fill="#FFD366" d="M38.4,45.3c-8.2,8.1-36.6,29.9-11.6,56.8c-14,10-26.3,38.8-26.3,48
			c0,13.7-1.6,21.3,17.6,35.6c11.8,8.8,25.9,9,33,8.9c7.1,0.1,21.2,0,33-8.9c19.2-14.3,15.5-30.4,15.5-44.1
			c0-8.6-10.8-32.8-25.8-38.3c24.9-21.3-1.5-49.8-9.9-58"/>
		
			<line id="XMLID_4060_" fill-rule="evenodd" clip-rule="evenodd" fill="none" stroke="#E29F27" stroke-miterlimit="10" x1="51.1" y1="73.8" x2="51.1" y2="81.4"/>
		<path id="XMLID_4059_" fill="#FFFFFF" d="M51.1,180.6c-2.7-0.1-5.5-3.1-4.8-6.7c0.4,3.8-2.7,6.9-5.8,6.7c-2.9-0.1-5.5-3-5.2-6.4
			c-0.4,3.6-3.3,6.3-6.7,6.4c-3.7,0.2-7-2.8-7.3-6.7c-1,4.1-4.7,6.8-8.8,6.7c-3.8-0.1-7.1-2.8-8.1-6.6c-1.2-4.9-5.7-26.3,6.9-47
			c7.4-12.1,17.3-18.6,22.7-21.6c-2.8-5.6-6.9-15.7-7.2-28.8c-0.3-9.1,1.4-16.7,3-21.9l2.6-3c-4.5,8-3.5,17.7,2.1,23.8
			c6.3,6.8,15.7,5.7,16.8,5.8c1.1-0.1,10.5,0.9,16.8-5.8c5.6-6.1,6.6-15.7,2.1-23.8l2.6,3c1.6,5.2,3.2,12.7,3,21.9
			c-0.4,13.1-4.4,23.1-7.3,28.8c5.4,3,15.3,9.5,22.7,21.6c12.6,20.7,8.1,42.1,6.9,47c-1,3.8-4.3,6.5-8.1,6.6
			c-4.1,0.2-7.8-2.6-8.8-6.7c-0.3,3.9-3.6,6.9-7.3,6.7c-3.4-0.2-6.3-2.9-6.7-6.4c0.2,3.5-2.4,6.3-5.2,6.4c-3.1,0.2-6.2-2.9-5.8-6.7
			C56.6,177.5,53.8,180.5,51.1,180.6z"/>
		<path id="XMLID_4058_" fill="none" stroke="#05282D" stroke-linejoin="round" stroke-miterlimit="10" d="M49,178.5
			c-2.7-0.1-5.5-3.1-4.8-6.7c0.4,3.8-2.7,6.9-5.8,6.7c-2.9-0.1-5.5-3-5.2-6.4c-0.4,3.6-3.3,6.3-6.7,6.4c-3.7,0.2-7-2.8-7.3-6.7
			c-1,4.1-4.7,6.8-8.8,6.7c-3.8-0.1-7.1-2.8-8.1-6.6c-1.2-4.9-5.7-26.3,6.9-47c7.4-12.1,17.5-17.3,22.8-20.3c-2.8-5.6-7.1-17-7.4-30
			c-0.3-9.1,0.1-6.6,1.7-11.7l2.6-3c0,3.5-2.3,7.5,3.4,13.6c6.3,6.8,15.7,5.7,16.8,5.8c1.1-0.1,10.5,0.9,16.7-5.8
			c5.6-6.1,6.6-15.7,2.1-23.8l2.6,3c1.6,5.2,3.2,12.7,3,21.9c-0.4,13.1-4.8,24.8-7.7,30.4c5.4,3,15.7,7.8,23.1,19.9
			c12.6,20.7,8.1,42.1,6.9,47c-1,3.8-4.3,6.5-8.1,6.6c-4.1,0.2-7.8-2.6-8.8-6.7c-0.3,3.9-3.6,6.9-7.3,6.7c-3.4-0.2-6.3-2.9-6.7-6.4
			c0.2,3.5-2.4,6.3-5.2,6.4c-3.1,0.2-6.2-2.9-5.8-6.7C54.5,175.4,51.7,178.4,49,178.5z"/>
		<polyline id="XMLID_4057_" fill="#FFD366" points="66.8,193.3 63.3,229.4 56.8,229.4 56.8,194.5 		"/>
		<polyline id="XMLID_4056_" fill="#FFD366" points="35.4,193.3 38.9,229.4 45.4,229.4 45.4,194.5 		"/>
		<path id="XMLID_4055_" fill="#05282D" d="M53.4,229.4c0,0,4.1-8.7,6.9-8.7c2.9,0,7.4,8.7,7.4,8.7H53.4z"/>
		<path id="XMLID_4054_" fill="#05282D" d="M48.8,229.4c0,0-4.1-8.7-6.9-8.7c-2.9,0-7.4,8.7-7.4,8.7H48.8z"/>
		<path id="XMLID_4053_" fill="#FCAF32" d="M63.8,45.3c4.1,4.2-5.6,13.2-12.8,13.2s-16.3-8.2-12.7-13.8c4.2-6.6,5.6-14.6,12.7-14.6
			S58.3,39.7,63.8,45.3z"/>
		<polyline id="XMLID_4052_" fill="none" stroke="#05282D" stroke-linejoin="round" stroke-miterlimit="10" points="64.9,191.7 
			61.3,227.9 54.8,227.9 54.8,193 		"/>
		<polyline id="XMLID_4051_" fill="none" stroke="#05282D" stroke-linejoin="round" stroke-miterlimit="10" points="33.4,192.2 
			36.9,228.4 43.4,228.4 43.4,193.5 		"/>
		<path id="XMLID_4048_" fill="#FFD366" stroke="#05282D" stroke-miterlimit="10" d="M11.5,181.4c3.6,3,17.1,13.6,37.4,13.8
			c20.9,0.1,34.9-11,38.4-14"/>
		<g id="XMLID_4029_">
			<path id="XMLID_4035_" fill-rule="evenodd" clip-rule="evenodd" fill="#FFD366" stroke="#05282D" stroke-miterlimit="10" d="
				M45.9,118.1c-5.5,7.9-6.3,10.2-6.3,20.6c0,6.9-20.5,0.3-16.9-5.1c5.2-7.8,5.9-10.3,6.3-20.6C29.2,106.4,49.8,112.5,45.9,118.1
				L45.9,118.1z M33.6,113.2c-0.6-0.2-1.3,0.2-1.5,0.8c-0.2,0.6,0.2,1.3,0.8,1.5c0.6,0.2,1.3-0.2,1.5-0.8
				C34.5,114.1,34.2,113.4,33.6,113.2L33.6,113.2z M33.3,119c-0.3-0.1-0.6,0.1-0.7,0.4c-0.1,0.3,0.1,0.6,0.4,0.7
				c0.3,0.1,0.6-0.1,0.7-0.4C33.8,119.4,33.6,119.1,33.3,119L33.3,119z M37.1,118.5c-0.3-0.1-0.6,0.1-0.7,0.4
				c-0.1,0.3,0.1,0.6,0.4,0.7c0.3,0.1,0.6-0.1,0.7-0.4C37.6,118.9,37.4,118.6,37.1,118.5L37.1,118.5z M43.4,117
				c-0.3-0.1-0.6,0.1-0.7,0.4c-0.1,0.3,0.1,0.6,0.4,0.7c0.3,0.1,0.6-0.1,0.7-0.4C43.9,117.4,43.7,117.1,43.4,117L43.4,117z
				 M40.6,119.7c-0.5-0.2-1,0.1-1.2,0.6c-0.2,0.5,0.1,1,0.6,1.2c0.5,0.2,1-0.1,1.2-0.6C41.4,120.4,41.1,119.9,40.6,119.7L40.6,119.7
				z M36.8,130.5c-0.4-0.1-0.9,0.1-1,0.5c-0.1,0.4,0.1,0.9,0.5,1c0.4,0.1,0.9-0.1,1-0.5C37.4,131.1,37.2,130.6,36.8,130.5
				L36.8,130.5z M33.2,123.4c-0.4-0.1-0.9,0.1-1,0.5c-0.1,0.4,0.1,0.9,0.5,1c0.4,0.1,0.9-0.1,1-0.5C33.9,124,33.6,123.6,33.2,123.4
				L33.2,123.4z M38.6,113.3c-0.4-0.1-0.9,0.1-1,0.5c-0.1,0.4,0.1,0.9,0.5,1c0.4,0.1,0.9-0.1,1-0.5C39.3,113.9,39,113.5,38.6,113.3
				L38.6,113.3z M26.4,131c-0.3-0.1-0.6,0.1-0.7,0.4c-0.1,0.3,0.1,0.6,0.4,0.7c0.3,0.1,0.6-0.1,0.7-0.4
				C26.9,131.4,26.7,131.1,26.4,131L26.4,131z M31,134.5c-0.4-0.1-0.9,0.1-1,0.5c-0.1,0.4,0.1,0.9,0.5,1c0.4,0.1,0.9-0.1,1-0.5
				C31.6,135.1,31.4,134.6,31,134.5L31,134.5z M36.7,137.5c-0.4-0.1-0.9,0.1-1,0.5c-0.1,0.4,0.1,0.9,0.5,1c0.4,0.1,0.9-0.1,1-0.5
				C37.3,138,37.1,137.6,36.7,137.5z"/>
			<path id="XMLID_4034_" fill="#C6E8EE" d="M51.1,169.6c-4.2,0-12.9-1-20.7-7.5c-10.9-9.2-14.4-26.8-9.6-41.9
				c11,10.9,30.3,11.1,30.3,11.1s19.3-0.1,30.3-11.1c4.8,15.1,1.3,32.6-9.6,41.9C64,168.5,55.3,169.6,51.1,169.6z"/>
			<path id="XMLID_4033_" fill="none" stroke="#05282D" stroke-linejoin="round" stroke-miterlimit="10" d="M48.9,168
				c-4.2,0-12.9-1-20.7-7.5c-10.9-9.2-14.4-26.8-9.6-41.9c11,10.9,30.3,11.1,30.3,11.1s19.3-0.1,30.3-11.1
				c4.8,15.1,1.3,32.6-9.6,41.9C61.8,167,53.1,168,48.9,168z"/>
			<g id="XMLID_4030_">
				<path id="XMLID_4032_" fill-rule="evenodd" clip-rule="evenodd" fill="#FFD366" stroke="#05282D" stroke-miterlimit="10" d="
					M68.2,124.4c2.2,8.2,0.3,5.1,5.3,13c0.7,1.1,3.5,4.9,2,5.7c-1.2,0.7-3.6-3.6-4.5-4.8c0.7,2.4,2.1,5.7,2.3,8
					c0.1,1.8-1.2,1.7-2,0.4c-0.9-1.4-1.8-5.2-2.7-6.9c-0.1,1.7,1.7,6.1,2,8.4c0.2,1.3-0.6,1.7-1.3,1.4c-0.5-0.2-0.9-0.9-1.2-1.7
					c-0.9-2.7-1.6-4.8-2.8-7.5c0,1.8,2,8.6-0.2,8.7c-1.5,0.1-1.8-2-1.9-3.6c-0.1-1-0.2-2-0.4-3c0.3,0.2,0.6,0.3,1,0.3
					c0,0,0.1,0,0.1,0c0.1,0,0.2,0,0.3-0.1c0.6-0.2,0.9-1.1,1-2.2c0.1-1-0.1-2.4-0.3-3.8c-0.5-2.6-1.3-5.3-1.9-6.4
					c-6.6-0.2-4.9-4.3-4.9-4.3C58.5,125.1,68.2,124.4,68.2,124.4z"/>
				<path id="XMLID_4031_" fill-rule="evenodd" clip-rule="evenodd" fill="#FFD366" stroke="#05282D" stroke-miterlimit="10" d="
					M62.8,125.8l-9.6,1.4c-2.2,8.4-0.3,2.9-5.4,10.9c-0.7,1.2-3.5,4.9-2,5.8c1.2,0.7,3.6-3.7,4.6-4.9c-0.7,2.4-2.1,5.8-2.3,8.2
					c-0.1,1.8,1.2,1.7,2,0.4c0.9-1.4,1.8-5.3,2.7-7c0.1,1.7-1.7,6.2-2,8.5c-0.2,1.3,0.6,1.7,1.3,1.4c0.5-0.2,0.9-0.9,1.2-1.8
					c0.9-2.7,1.6-4.9,2.8-7.6c0,1.8-2,8.7,0.2,8.9c1.5,0.1,1.8-2.1,2-3.6c0.3-3.3,1.3-6.9,2.7-9.9c0,1.6,0.3,5.9,2.7,5.9
					c2.4-0.1,0.1-9.8-1.1-12C62.7,127,62.7,127.5,62.8,125.8z"/>
			</g>
		</g>
		<path id="XMLID_4028_" fill="#04282D" d="M25.5,100.5c13.9,7.7,39.4,5.3,50.2,1.1l0.3,2.7c-5.8,3.9-36.2,7.9-50.7-1L25.5,100.5z"
			/>
	</g>
	<g id="XMLID_4007_">
		<path id="XMLID_4026_" fill="#FFFFFF" d="M51.1,2.8c-6.1,0-14.5,7-14.5,7l4.1,10.5h20.8l4.1-10.5C65.6,9.8,56.7,2.8,51.1,2.8z"/>
		<path id="XMLID_4025_" fill="#FFD366" d="M51.1,55.2c-2.3-1-10.1-4.6-14.8-12.8c-3.8-6.6-3.9-12.9-3.8-15.6
			c-2-0.6-7.4-2.4-11.4-7.6c-5.9-7.6-4.6-16.4-4.3-17.9c2.1,0.3,7.3,1.3,11.8,5.6c7.2,6.8,6.6,16.3,6.5,17.7c0.6-1.1,6-7.7,16-7.7
			s15.4,6.6,16,7.7C67,23.3,66.4,13.9,73.6,7c4.5-4.3,9.7-5.3,11.8-5.6C85.6,2.9,87,11.7,81,19.3c-4.1,5.2-9.4,7.1-11.4,7.6
			c0.1,2.7,0,9-3.8,15.6C61.2,50.6,53.4,54.3,51.1,55.2z"/>
		<path id="XMLID_4024_" fill="none" stroke="#05282D" stroke-linejoin="round" stroke-miterlimit="10" d="M30.4,26
			c-2-0.6-7.4-2.4-11.4-7.6C13,10.8,14.4,2,14.6,0.5c2.1,0.3,7.3,1.3,11.8,5.6c7.2,6.8,6.6,16.3,6.5,17.7c0.6-1.1,6-7.7,16-7.7
			s15.4,6.6,16,7.7c-0.1-1.4-0.7-10.8,6.5-17.7c4.5-4.3,9.7-5.3,11.8-5.6c0.3,1.5,1.6,10.3-4.3,17.9c-4.1,5.2-9.4,7.1-11.4,7.6"/>
		<path id="XMLID_4023_" fill="none" stroke="#05282D" stroke-linejoin="round" stroke-miterlimit="10" d="M60.2,19.3l4.1-10.5
			c0,0-8.9-7-14.5-7c-6.1,0-14.5,7-14.5,7l3.8,9.7"/>
		<path id="XMLID_4022_" fill="#05282D" d="M51.1,47.4c-3-1.5-4.4-3.7-3.9-4.8c0.4-0.9,2.1-0.2,3.9,0c1.8-0.2,3.5-0.9,3.9,0
			C55.5,43.7,54.1,45.8,51.1,47.4z"/>
		<g id="XMLID_4017_">
			<path id="XMLID_4021_" fill="#05282D" d="M56.4,30c0,0,2.8-3,5.1-1.9c1.3,0.6,2.2,2.2,2.1,4c-1,0.1-2.5,0.1-4.2-0.4
				C58.3,31.4,56.4,30,56.4,30z"/>
			
				<ellipse id="XMLID_4020_" transform="matrix(0.9527 0.3038 -0.3038 0.9527 11.5423 -16.5662)" fill="#FFFFFF" cx="59" cy="28.8" rx="0.8" ry="0.9"/>
			<path id="XMLID_4019_" fill="#05282D" d="M45.8,30c0,0-2.8-3-5.1-1.9c-1.3,0.6-2.2,2.2-2.1,4c1,0.1,2.5,0.1,4.2-0.4
				C43.9,31.4,45.8,30,45.8,30z"/>
			
				<ellipse id="XMLID_4018_" transform="matrix(0.9527 0.3038 -0.3038 0.9527 10.653 -10.8504)" fill="#FFFFFF" cx="40.2" cy="28.8" rx="0.8" ry="0.9"/>
		</g>
		<g id="XMLID_4014_">
			
				<ellipse id="XMLID_4016_" transform="matrix(0.9489 -0.3157 0.3157 0.9489 -9.6475 15.0434)" opacity="0.35" fill="#BF4070" cx="41.6" cy="37.3" rx="4.2" ry="3.3"/>
			
				<ellipse id="XMLID_4015_" transform="matrix(-0.9489 -0.3157 0.3157 -0.9489 106.3451 91.8327)" opacity="0.35" fill="#BF4070" cx="60.6" cy="37.3" rx="4.2" ry="3.3"/>
		</g>
		<path id="XMLID_4013_" opacity="0.35" fill="#BF4070" d="M81.1,7.1c0,0,0.4,6.2-2.5,9.4c-2.3,2.6-5.2,3.4-6.7,3.7
			c-0.1-1.5-0.3-5.6,2.4-9.1C76.3,8.5,81.1,7.1,81.1,7.1z"/>
		<path id="XMLID_4012_" opacity="0.35" fill="#BF4070" d="M21,7.1c0,0-0.4,6.2,2.5,9.4c2.3,2.6,5.2,3.4,6.7,3.7
			c0.1-1.5,0.3-5.6-2.4-9.1C25.8,8.5,21,7.1,21,7.1z"/>
		<g id="XMLID_4008_">
			<path id="XMLID_4011_" fill="none" stroke="#05282D" stroke-linejoin="round" stroke-miterlimit="10" d="M45.7,47.6
				c1.1,2,3.3,3.2,5.5,3.1c3.1-0.2,4.6-2.9,4.7-3.1"/>
			
				<line id="XMLID_4010_" fill="none" stroke="#05282D" stroke-linejoin="round" stroke-miterlimit="10" x1="55.1" y1="46.6" x2="57.1" y2="48.7"/>
			
				<line id="XMLID_4009_" fill="none" stroke="#05282D" stroke-linejoin="round" stroke-miterlimit="10" x1="46.7" y1="46.6" x2="44.7" y2="48.7"/>
		</g>
	</g>
	<path id="XMLID_3960_" fill="#FCAF32" d="M73.1,96.5c-5.7,1.7-16.6-12.1-20.9-15.3c-0.7-0.5-1.1-1.3-1.1-2.2l0-17.7l0.3,0.6
		c1,2.2,1.5,4.6,1.7,7l0.6,7.5c0.1,0.7,0.4,1.3,0.9,1.7c9.9,8.5,15.4,10.7,18.3,5.8c5.2-8.7-2.7-23.6,1.1-27.2
		c0.6-0.6,1.6-0.1,2.6,0.6c2,1.5,3.5,3.7,4.4,6.1C87.2,81.4,76.1,95.6,73.1,96.5z"/>
	<path id="XMLID_3959_" fill="#FCAF32" d="M29.1,96.7c5.7,1.7,16.6-12.1,20.9-15.3c0.7-0.5,1.1-1.3,1.1-2.2l0-17.7l-0.3,0.6
		c-1,2.2-1.5,4.6-1.7,7l-0.6,7.5c-0.1,0.7-0.4,1.3-0.9,1.7c-9.9,8.5-15.4,10.7-18.3,5.8c-5.2-8.7,2.7-23.6-1.1-27.2
		c-0.6-0.6-1.6-0.1-2.6,0.6c-2,1.5-3.5,3.7-4.4,6.1C15,81.6,26.2,95.8,29.1,96.7z"/>
	<g id="XMLID_3961_">
		<path id="XMLID_3971_" fill="#E29F27" d="M50.6,79.2l0.5-17.7l0.5,17.7c0,0.3-0.2,0.5-0.5,0.5S50.6,79.5,50.6,79.2
			C50.6,79.2,50.6,79.2,50.6,79.2z"/>
	</g>
</g>
</svg>
