<svg xmlns="http://www.w3.org/2000/svg" viewBox="0 0 298.1 294.8">
  <path fill="#FCAF32" d="M199.3 61.6l-.4 7.8-6.6 2.7-2.8-11z"/>
  <path fill="#FFD366" d="M161.1 57c.6-8.8 5.9-24.6 19-29.8 2.3-.9 11.3-4.5 19.1 0 10 5.7 13 21.3 7.7 30.1-8.6 14.5-45.8-.3-45.8-.3z"/>
  <path fill="#FFD366" d="M231.7 1.5s1.2 17.5-7.1 26.8c-6.5 7.2-14.8 9.6-19 10.5-.4-4.3-.7-15.9 6.9-25.9 5.5-7.2 19.2-11.4 19.2-11.4z"/>
  <path fill="#05282D" d="M187.1 40.9s2.8-4.2 5.8-3.4c1.8.5 3.1 2.2 3.4 4.4-1.1.3-3 .7-5.2.4-1.3-.1-4-1.4-4-1.4z"/>
  <ellipse cx="190.1" cy="38.9" fill="#FFF" rx="1" ry="1.1" transform="rotate(7.987 190.11 38.863)"/>
  <ellipse cx="186.4" cy="51.5" fill="#BF4070" opacity=".35" rx="5.2" ry="4" transform="scale(-1) rotate(18.402 318.068 -1150.983)"/>
  <path fill="none" stroke="#05282D" stroke-miterlimit="10" stroke-width="1.24" d="M168.3 58.8s4.7 1.1 5.8-3M173.2 55l2 2.7"/>
  <path fill="#BF4070" d="M225.4 11s.5 7.7-3.1 11.7c-2.8 3.2-6.5 4.2-8.3 4.6-.2-1.9-.3-7 3-11.3 2.4-3.1 8.4-5 8.4-5z" opacity=".35"/>
  <path fill="#FFD366" d="M235.5 180c-3.1-5.9-26.7-41.4-28.5-49.8-4.2-19.6-1.2-34 .9-46.3 1-5.5-1.1-11-5.4-14.5l-.7-.5c-4.1 0-8.1.4-12.1 1.3-18.3 4.2-9.8 13.2-32.4 28-6.2 4.1-6.9 13.1-1.3 18 .2.1.3.3.5.4 7.3 5.2 11.2 13.8 9.4 22.6-2.2 10.3-3.7 22.8-3.2 36.9.6 18 1 31.1 9.8 42 18.4 22.8 64.1 24.3 72.8 8.4 6-11.1-2.2-31.8-9.8-46.5z"/>
  <path fill="#FFD366" d="M211.4 196.7c18.5 11.3 41.4 8.8 54.7-4.8 13.3-13.6 14.9-36.1 6.8-48.8-6.4-10-17-11.2-18.7-22.1-.2-1.1-1.5-10.3 5.1-16.2 6.1-5.4 14.3-3.9 15.3-3.7-7.1 4.2-11.9 8.3-8.6 15.8 2.2 5.1 9.2 6.1 15.1 9.4 15.3 8.8 18.4 35.1 16.4 49.3-3.8 26.8-31.2 50.4-67.7 54.4"/>
  <path fill="#FFF" d="M206 207.9c1.8 1.6 4.7.6 5-1.9 1-8.6 1.4-21.4-2.9-36.1-5.6-19.2-16.3-31.7-21.9-37.5 2.6-6.6 5.2-13.5 7.6-20.7 5.1-14.8 9.2-29 12.6-42.4h-3.8c-.4 1.9-3.7 15.8-17.2 22.3-8.9 4.3-18.9 2.6-21.8 2-.9.3-12.1 3.6-13.5 11.5-.7 4.1 1.5 7.6 4.8 12.7 3.9 6.1 8.3 10.3 11.4 12.8-3.4 10.2-7 25.1-7 43.3 0 12.9 1.8 23.9 3.9 32.5.7 3.4 3.8 5.5 6.6 5 2.1-.4 3.8-2.2 4.3-4.5.3 2.4 2.2 4.4 4.5 4.6 2.5.3 4.9-1.3 5.6-3.8 1.4 2.7 4.3 4.2 7.1 3.8 3.1-.4 4.7-3.1 4.9-3.4 1.2 2.8 4 4.2 6.4 3.5 2.5-.6 3.3-3.6 3.4-3.7z"/>
  <path fill="none" stroke="#05282D" stroke-linejoin="round" stroke-miterlimit="10" stroke-width="1.24" d="M203.8 207c1.8 1.6 4.7.6 5-1.9 1-8.6 1.4-21.4-2.9-36.1-5.6-19.2-16.3-31.7-21.9-37.5 2.6-6.6 5.2-13.5 7.6-20.7 5.1-14.8 9.2-29 12.6-42.4h-3.8c-.4 1.9-3.7 15.8-17.2 22.3-8.9 4.3-18.9 2.6-21.8 2-.9.3-12.1 3.6-13.5 11.5-.7 4.1 1.5 7.6 4.8 12.7 3.9 6.1 8.3 10.3 11.4 12.8-3.4 10.2-7 25.1-7 43.3 0 12.9 1.8 23.9 3.9 32.5.7 3.4 3.8 5.5 6.6 5 2.1-.4 3.8-2.2 4.3-4.5.3 2.4 2.2 4.4 4.5 4.6 2.5.3 4.9-1.3 5.6-3.8 1.4 2.7 4.3 4.2 7.1 3.8 3.1-.4 4.7-3.1 4.9-3.4 1.2 2.8 4 4.2 6.4 3.5 2.6-.6 3.4-3.6 3.4-3.7zM235.5 202.1c7.1 2.6 23.4-6 28.7-11 14-13 14.9-36.1 6.8-48.8-6.4-10-17-11.2-18.7-22.1-.2-1.1-1.5-10.3 5.1-16.2 6.1-5.4 14.3-3.9 15.3-3.7-7.1 4.2-11.9 8.3-8.6 15.8 2.2 5.1 9.2 6.1 15.1 9.4 15.3 8.8 18.4 35.1 16.4 49.3-3.8 26.8-26.8 43.2-53.1 51.7"/>
  <path fill="#FFF" d="M185.3 25.6l-3.4-15.8c1.2-.4 7.7-2.4 14.4 1.3 5.4 2.9 8.5 8.8 9.1 10.2L204.3 33l-19-7.4z"/>
  <path fill="none" stroke="#05282D" stroke-linejoin="round" stroke-miterlimit="10" stroke-width="1.24" d="M203.7 37.8c4.2-.9 12.5-3.2 19-10.5 8.2-9.2 7.1-26.8 7.1-26.8s-13.7 4.2-19.1 11.3c-7.6 10-6.3 21.1-6.3 21.1-5-6.7-13.2-10.1-21.2-9-9.2 1.3-16.8 8.5-18.8 18"/>
  <path fill="#FFD366" d="M199.8 229.5l6.3 53.5h4.4l5.8-48.8z"/>
  <path fill="none" stroke="#05282D" stroke-linejoin="round" stroke-miterlimit="10" stroke-width="1.24" d="M213 233.8l-4.1 48.3"/>
  <path fill="#05282D" d="M161.8 52.3c1.5-1.5 3.6-1.9 4.7-1.1 1.4 1 1.2 4-.4 5.5-1.4 1.3-2.6 1.2-5 .3 0-2.2.7-4.7.7-4.7z"/>
  <path fill="#FFD366" d="M190.5 229.5l6.3 53.5h4.4l5.8-48.8z"/>
  <path fill="#05282D" d="M201.2 283h-24.6c.9-1.3 3-3.9 6.6-5.4 7-2.8 13.5 1.1 14.3 1.6l3.7 3.8z"/>
  <path fill="none" stroke="#05282D" stroke-linejoin="round" stroke-miterlimit="10" stroke-width="1.24" d="M203.7 233.8l-4.1 48.3M188.9 229l6 51.5M183.1 23.8L179.7 8c1.2-.4 9.2-2.8 15.9.9 5.4 2.9 10.5 8.6 11.1 10"/>
  <path fill="#05282D" d="M163.7 129.2c5.5 1 12.8 2.1 20.5 2 10.7-.2 15.8-1.1 22.5-3l.6 3c-6.9 2-11.9 3.1-23 3.2-7.6.1-15.6-1-21.1-2l.5-3.2zM210.5 283c-1-1.1-3.1-3.3-6.3-4-.7-.2-1.4-.2-2-.2l-.6 4.2h8.9z"/>
  <path fill="#C6E8EE" d="M159.7 161.3c14.6.5 25.6-8.7 25.6-8.7.2 4.4.3 20.3-11.1 33.1-4.3 4.8-9.8 8.1-13.5 10 .1-.1-3.1-18.7-1-34.4z"/>
  <path fill="none" stroke="#05282D" stroke-linejoin="round" stroke-miterlimit="10" stroke-width="1.24" d="M157 161.3c14.6.5 25.6-8.7 25.6-8.7.2 4.4.3 20.3-11.1 33.1-4.3 4.8-9.8 8.1-13.5 10"/>
  <path fill="#FFF" stroke="#05282D" stroke-miterlimit="10" stroke-width="1.24" d="M25.2 259.9s.4 1.4 1 2.1c.8.9 2 1.3 2 1.3s-1.2.4-1.9 1.2c-.7.8-1.1 2-1.1 2s-.4-1.2-1.1-2c-.7-.8-1.9-1.2-1.9-1.2s1.3-.4 2-1.3c.6-.7 1-2.1 1-2.1zM9.2 246.1s.9 3 2.2 4.4c1.7 1.9 4.4 2.7 4.4 2.7s-2.7.9-4.2 2.6c-1.5 1.7-2.4 4.2-2.4 4.3 0 0-.9-2.6-2.4-4.3-1.5-1.7-4.2-2.6-4.2-2.6s2.7-.8 4.4-2.7c1.3-1.5 2.2-4.4 2.2-4.4z"/>
  <g fill-rule="evenodd" clip-rule="evenodd">
    <path fill="#1A8689" d="M235.8 290.1c-5.4-.8-10.4-1.6-16.6-1.8-10.6.4-21.5 1.7-32-.3-9.8-2.7-14.5-5-22-12.1-12.3-15-9.1-23.1.1-40.9 1.8-2.4 3.5-4.7 5.4-7 .8-.7 1.5-1.5 2.3-2.2 15.4-10.7 24.2-19.3 43.2-23.6 1.3-.2 2.6-.5 3.9-.7 5.6-3.7 15.7-8.7 22-5.7.5.2.7.7 1.4.8 5.5.8 43.7 2.2 39.7 14.3-.7 2.1-3.7 2.8-8.6 4.6 0 0 .9 1.7 1.8 2.9 1 1.2 2.3 3.7 2.3 3.7.7.9 2.9 1.5 3.5 2.4 5.2 8.6 3.9 18 4.2 27.9l-.9 6c-3.8-12.6-15.5-21.8-29.4-21.8-16.9 0-30.7 13.7-30.7 30.7.3 9.1 4.2 17.2 10.4 22.8z"/>
    <path fill="#05282D" d="M172.3 216.6l12.5-9 8.5.6-23.4 17.3z"/>
    <path fill="#05282D" d="M74.5 264.5c0-.2.2-.8.3-1l-1.5.1 1.2.9zm99.6-52c-11.7-15.2-23-20-32.1-18.4-6.4 1.1-12 5.4-15.8 11.3-4 6.2-6.3 14.1-5.9 22.1.6 13.1 8.2 26.5 26.2 33.1 14.4 5.3 30.4 4.1 44.4-2 13.8-6.1 25.6-17 31.7-31.4 13.9-32.8-.2-62.8-21.7-82.4-7-6.4-14.8-11.6-22.6-15.6-7.8-3.9-15.6-6.4-22.8-7.3-12.7-1.7-23.3 1.8-27.4 11.9l-52.3 128c-.3 1.4-.8 2.1-1.3 2.8 0 .1-.1 0 0 0l-1.1-.8-7 .6c-.2-2.5.4-3.6 1.1-4.5v-.2l.2-.5L120 130.6c5.8-14.3 19.9-19.4 36.5-17.2 8.2 1.1 16.9 3.9 25.5 8.2 8.5 4.3 17 10 24.6 16.9 23.9 21.7 39.4 55.2 23.8 92.1-7 16.5-20.4 29-36.2 35.9-15.9 7-34.2 8.3-50.8 2.2-21.9-8-31.1-24.6-31.8-40.8-.4-9.8 2.3-19.5 7.3-27.1 5.1-7.9 12.6-13.6 21.6-15.1 12.1-2.1 26.4 3.4 40.4 21.6l-6.8 5.2zM30.5 273.5h72.9c3.9 0 7.1 3.2 7.1 7.1v5.5c0 .9-.7 1.6-1.6 1.6H26.4c-1.6 0-3-1.3-3-3v-4.1c.1-4 3.2-7.1 7.1-7.1z"/>
    <path fill="#1A8689" d="M125.1 121.7l8.4 3.8c.9.4 1.4 1.6.9 2.5l-10.8 23.7c-.4 1-1.6 1.4-2.5.9l-8.4-3.8c-.9-.4-1.4-1.6-.9-2.5l10.8-23.7c.4-.9 1.5-1.3 2.5-.9z"/>
    <path fill="#05282D" d="M71.3 249.8l8.4 3.8c.9.4 1.4 1.6.9 2.5l-10.8 23.7c-.4 1-1.6 1.4-2.5.9l-8.4-3.8c-1-.4-1.4-1.6-.9-2.5l10.8-23.7c.4-.9 1.6-1.3 2.5-.9zM256.4 240.5c-14.8 0-26.8 12-26.8 26.8s12 26.8 26.8 26.8 26.8-12 26.8-26.8-12-26.8-26.8-26.8zm18.5 8.3c4.7 4.7 7.7 11.3 7.7 18.5 0 7.2-2.9 13.8-7.7 18.5-4.7 4.7-11.3 7.7-18.5 7.7-7.2 0-13.8-2.9-18.5-7.7-4.7-4.7-7.7-11.3-7.7-18.5 0-7.2 2.9-13.8 7.7-18.5 4.7-4.7 11.3-7.7 18.5-7.7 7.2.1 13.8 3 18.5 7.7zm-18.5-8.9c7.6 0 14.4 3.1 19.4 8 5 5 8 11.8 8 19.4 0 7.6-3.1 14.4-8 19.4-5 5-11.8 8-19.4 8-7.6 0-14.4-3.1-19.4-8-5-5-8-11.8-8-19.4 0-7.6 3.1-14.4 8-19.4 4.9-4.9 11.8-8 19.4-8zm16.2 11.2c4.2 4.2 6.7 9.9 6.7 16.2 0 6.3-2.6 12.1-6.7 16.2-4.2 4.2-9.9 6.7-16.2 6.7-6.3 0-12.1-2.6-16.2-6.7-4.2-4.2-6.7-9.9-6.7-16.2 0-6.3 2.6-12.1 6.7-16.2 4.2-4.2 9.9-6.7 16.2-6.7 6.3 0 12.1 2.6 16.2 6.7zm-16.2 5.2c6.1 0 11 4.9 11 11s-4.9 11-11 11-11-4.9-11-11c0-6 4.9-11 11-11z"/>
  </g>
  <path fill="#FFD366" d="M143.8 125.6c10.2-1.1 21.4-2.3 33.7-9.1 17.7-9.8 26.4-24.8 29.9-31.7l-1.8-10.1c-4.8 7.6-13.2 19.1-26.9 29.5-13.7 10.5-27 15.7-35.7 18.4-3.4-4-8.5-5.8-13.2-4.6-4 1-8.3 4.2-7.7 6.2.9 3.7 17.6 1.9 21.7 1.4z"/>
  <path fill="none" stroke="#05282D" stroke-linejoin="round" stroke-miterlimit="10" stroke-width="1.24" d="M232.8 288.8c-5.4-.8-10.4-1.6-16.6-1.8-10.6.4-21.5 1.7-32-.3-9.8-2.7-14.5-5-22-12.1-12.3-15-9.1-23.1.1-40.9 1.8-2.4 3.5-4.7 5.4-7 .8-.7 1.5-1.5 2.3-2.2 15.4-10.7 24.2-19.3 43.2-23.6 1.3-.2 2.6-.5 3.9-.7 5.6-3.7 15.7-8.7 22-5.7.5.2.7.7 1.4.8 5.5.8 43.7 2.2 39.7 14.3-.7 2.1-3.7 2.8-8.6 4.6 0 0 .9 1.7 1.8 2.9 1 1.2 2.3 3.7 2.3 3.7.7.9 2.9 1.5 3.5 2.4 5.2 8.6 3.9 18 4.2 27.9l-.9 6c-3.8-12.6-15.5-21.8-29.4-21.8-16.9 0-30.7 13.7-30.7 30.7.3 9 4.2 17.1 10.4 22.8z" clip-rule="evenodd"/>
</svg>
