<?xml version="1.0" encoding="utf-8"?>
<!-- Generator: Adobe Illustrator 19.0.0, SVG Export Plug-In . SVG Version: 6.00 Build 0)  -->
<svg version="1.1" id="Слой_1" xmlns="http://www.w3.org/2000/svg" xmlns:xlink="http://www.w3.org/1999/xlink" x="0px" y="0px"
	 viewBox="0 0 40.3 40.3" enable-background="new 0 0 40.3 40.3" xml:space="preserve">
<g id="XMLID_4617_">
	<circle id="XMLID_4615_" fill="#665CAC" cx="20.1" cy="20.1" r="20.1"/>
	<path id="XMLID_4545_" fill="#523494" d="M2.7,20.1C2.7,9.5,11,0.7,21.5,0c-0.4,0-0.9,0-1.3,0C9,0,0,9,0,20.1s9,20.1,20.1,20.1
		c0.5,0,0.9,0,1.3,0C11,39.5,2.7,30.8,2.7,20.1z"/>
	<g id="XMLID_4648_">
		<path id="XMLID_4614_" fill="#FFFFFF" d="M30.6,27.7L30,24.4c-0.1-0.3-0.3-0.5-0.5-0.5l-4.8-1c-0.2,0-0.4,0-0.6,0.2l-1.9,1.9
			c-3.3-1.5-5.1-3.3-6.7-6.7l1.9-1.9c0.2-0.2,0.2-0.4,0.2-0.6l-1-4.8c-0.1-0.3-0.3-0.5-0.5-0.5l-3.3-0.6c-0.1,0-0.2,0-0.3,0
			c-0.9,0.2-1.7,0.6-2.3,1.3c-1.1,1.1-1.5,2.7-1.2,4.6c0.5,3.2,2.1,7.7,5,10.6l0,0c2.9,2.9,7.4,4.5,10.6,5c0.4,0.1,0.8,0.1,1.2,0.1
			c1.4,0,2.6-0.4,3.4-1.3c0.6-0.6,1.1-1.4,1.3-2.3C30.7,27.9,30.7,27.8,30.6,27.7z"/>
		<g id="XMLID_4607_">
			<polygon id="XMLID_4612_" fill="#E5E5E5" points="16.8,17.1 17.5,16.5 17.5,16.5 16.8,17.1 			"/>
			
				<rect id="XMLID_4611_" x="23.3" y="23.5" transform="matrix(-0.7071 0.7071 -0.7071 -0.7071 57.2282 23.2405)" fill="#E5E5E5" width="0.9" height="0"/>
			<path id="XMLID_4610_" fill="#E5E5E5" d="M27.2,30.3c-0.4,0-0.8,0-1.2-0.1c-3.2-0.5-7.7-2.1-10.6-5l0,0c-2.9-2.9-4.5-7.4-5-10.6
				c-0.2-1.6,0-2.9,0.7-3.9c-0.3,0.2-0.5,0.4-0.7,0.6c-1.1,1.1-1.5,2.7-1.2,4.6c0.5,3.2,2.1,7.7,5,10.6l0,0c2.9,2.9,7.4,4.5,10.6,5
				c0.4,0.1,0.8,0.1,1.2,0.1c1.4,0,2.6-0.4,3.4-1.3c0.2-0.2,0.4-0.5,0.6-0.7C29.2,30.1,28.3,30.3,27.2,30.3z"/>
		</g>
		<g id="XMLID_4546_">
			<path id="XMLID_4606_" fill="#FFFFFF" d="M21.8,14.1c-0.4,0-0.7,0.3-0.7,0.7s0.3,0.7,0.7,0.7c1.5,0,2.7,1.2,2.7,2.7
				c0,0.4,0.3,0.7,0.7,0.7s0.7-0.3,0.7-0.7C25.9,15.9,24,14.1,21.8,14.1z"/>
			<path id="XMLID_4605_" fill="#FFFFFF" d="M21.8,11.4c-0.2,0-0.5,0-0.7,0c-0.4,0-0.6,0.4-0.6,0.7c0,0.4,0.4,0.6,0.7,0.6
				c0.2,0,0.4,0,0.6,0c3,0,5.4,2.4,5.4,5.4c0,0.2,0,0.4,0,0.6c0,0.4,0.2,0.7,0.6,0.7c0.4,0,0.7-0.2,0.7-0.6c0-0.2,0-0.5,0-0.7
				C28.6,14.4,25.5,11.4,21.8,11.4z"/>
			<path id="XMLID_4604_" fill="#FFFFFF" d="M21.8,8.7c-0.2,0-0.5,0-0.7,0c-0.4,0-0.6,0.4-0.6,0.7c0,0.4,0.4,0.6,0.7,0.6
				c0.2,0,0.4,0,0.6,0c4.5,0,8.1,3.6,8.1,8.1c0,0.6-0.1,1.3-0.2,1.9c-0.1,0.3,0.1,0.7,0.5,0.8c0.4,0.1,0.7-0.1,0.8-0.5
				c0.2-0.7,0.3-1.4,0.3-2.2C31.3,12.9,27,8.7,21.8,8.7z"/>
		</g>
	</g>
</g>
</svg>
