<?xml version="1.0" encoding="utf-8"?>
<!-- Generator: Adobe Illustrator 19.0.0, SVG Export Plug-In . SVG Version: 6.00 Build 0)  -->
<svg version="1.1" id="Слой_1" xmlns="http://www.w3.org/2000/svg" xmlns:xlink="http://www.w3.org/1999/xlink" x="0px" y="0px"
	 viewBox="-265 390 63.4 62.9" enable-background="new -265 390 63.4 62.9" xml:space="preserve">
<polygon id="XMLID_1872_" fill="#04282D" points="-233.3,393.3 -231.9,390.2 -230.8,393.4 -229.1,390.4 -228.3,393.7 -226.4,390.9 
	-225.8,394.3 -223.6,391.7 -223.4,395.1 -221,392.7 -221.1,396.1 -218.5,393.9 -218.9,397.3 -216.1,395.3 -216.8,398.7 -213.8,397 
	-214.8,400.2 -211.7,398.8 -213,402 -209.8,400.9 -211.3,403.9 -208,403 -209.8,405.9 -206.5,405.4 -208.5,408.1 -205.1,407.9 
	-207.4,410.4 -204,410.4 -206.5,412.7 -203.1,413.1 -205.9,415.2 -202.5,415.9 -205.4,417.7 -202.1,418.6 -205.2,420.2 
	-203.3,421.4 -205.2,422.7 -202.1,424.3 -205.4,425.2 -202.5,427 -205.9,427.7 -203.1,429.8 -206.5,430.2 -204,432.4 -207.4,432.5 
	-205.1,435 -208.5,434.8 -206.5,437.5 -209.8,437 -208,439.8 -211.3,439 -209.8,442 -213,440.9 -211.7,444.1 -214.8,442.7 
	-213.8,445.9 -216.8,444.2 -216.1,447.6 -218.9,445.6 -218.5,449 -221.1,446.8 -221,450.2 -223.4,447.8 -223.6,451.2 -225.8,448.6 
	-226.4,452 -228.3,449.2 -229.1,452.5 -230.8,449.5 -231.9,452.7 -233.3,449.6 -234.7,452.7 -235.8,449.5 -237.5,452.5 
	-238.3,449.2 -240.3,452 -240.8,448.6 -243,451.2 -243.2,447.8 -245.6,450.2 -245.5,446.8 -248.2,449 -247.8,445.6 -250.6,447.6 
	-249.9,444.2 -252.8,445.9 -251.9,442.7 -254.9,444.1 -253.7,440.9 -256.9,442 -255.3,439 -258.6,439.8 -256.8,437 -260.2,437.5 
	-258.1,434.8 -261.5,435 -259.2,432.5 -262.6,432.4 -260.1,430.2 -263.5,429.8 -260.8,427.7 -264.1,427 -261.2,425.2 -264.5,424.3 
	-261.5,422.7 -261.9,421.2 -261.5,420.2 -264.5,418.6 -261.2,417.7 -264.1,415.9 -260.8,415.2 -263.5,413.1 -260.1,412.7 
	-262.6,410.4 -259.2,410.4 -261.5,407.9 -258.1,408.1 -260.2,405.4 -256.8,405.9 -258.6,403 -255.3,403.9 -256.9,400.9 -253.7,402 
	-254.9,398.8 -251.9,400.2 -252.8,397 -249.9,398.7 -250.6,395.3 -247.8,397.3 -248.2,393.9 -245.5,396.1 -245.6,392.7 
	-243.2,395.1 -243,391.7 -240.8,394.3 -240.3,390.9 -238.3,393.7 -237.5,390.4 -235.8,393.4 -234.7,390.2 "/>
<ellipse id="XMLID_1866_" fill="#FFFFFF" cx="-233.4" cy="421.3" rx="23" ry="22.7"/>
<polygon id="XMLID_1_" fill="#FCAF32" points="-245.9,433 -265,433 -258.7,426.9 -265,420.8 -245.9,420.8 "/>
<polygon id="XMLID_2_" fill="#FCAF32" points="-220.7,420.8 -201.6,420.8 -207.9,426.9 -201.6,433 -220.7,433 "/>
<rect id="XMLID_5065_" x="-256.4" y="414.2" fill="#FFD366" width="46" height="16"/>
<g id="XMLID_274_">
	<g id="XMLID_453_">
		<path id="XMLID_472_" fill="#04282D" d="M-248,423.7v-2.4c0-1.1,0.6-1.8,1.6-1.8s1.6,0.6,1.7,1.7h-0.8c0-0.7-0.3-1-0.9-1
			c-0.5,0-0.8,0.3-0.8,1v2.3c0,0.7,0.3,1,0.8,1s0.8-0.3,0.9-0.9h0.8c-0.1,1.1-0.7,1.7-1.7,1.7C-247.4,425.4-248,424.8-248,423.7z"/>
		<path id="XMLID_470_" fill="#04282D" d="M-241.1,424.5v0.8h-2.8v-5.6h2.7v0.8h-1.9v1.6h1.8v0.7h-1.8v1.7H-241.1z"/>
		<path id="XMLID_467_" fill="#04282D" d="M-238.9,423.3h-0.5v2h-0.8v-5.6h1.4c1.1,0,1.7,0.6,1.7,1.8c0,0.9-0.4,1.5-1,1.7l1.2,2.1
			h-0.9L-238.9,423.3z M-239.4,422.5h0.6c0.6,0,0.9-0.4,0.9-1c0-0.7-0.3-1-0.9-1h-0.6V422.5z"/>
		<path id="XMLID_465_" fill="#04282D" d="M-233.5,420.5h-1.2v4.8h-0.8v-4.8h-1.2v-0.8h3.2V420.5z"/>
		<path id="XMLID_463_" fill="#04282D" d="M-232,419.7v5.6h-0.8v-5.6H-232z"/>
		<path id="XMLID_461_" fill="#04282D" d="M-230.1,420.5v1.7h1.7v0.7h-1.7v2.4h-0.8v-5.6h2.6v0.8
			C-228.3,420.5-230.1,420.5-230.1,420.5z"/>
		<path id="XMLID_459_" fill="#04282D" d="M-226.7,419.7v5.6h-0.8v-5.6H-226.7z"/>
		<path id="XMLID_457_" fill="#04282D" d="M-222.7,424.5v0.8h-2.8v-5.6h2.7v0.8h-1.9v1.6h1.7v0.7h-1.8v1.7H-222.7z"/>
		<path id="XMLID_454_" fill="#04282D" d="M-221.9,419.7h1.4c1.1,0,1.7,0.6,1.7,1.7v2.1c0,1.1-0.6,1.8-1.7,1.8h-1.4V419.7z
			 M-220.5,424.5c0.6,0,0.9-0.3,0.9-1v-2.1c0-0.7-0.3-1-0.9-1h-0.6v4.1H-220.5z"/>
	</g>
</g>
<g id="XMLID_2363_">
	<polygon id="XMLID_5046_" fill="#04282D" points="-233.4,403.2 -232.9,402.3 -232.4,403.3 -231.4,403.4 -232.2,404.2 -232,405.3 
		-232.9,404.7 -233.9,405.2 -233.7,404.2 -234.5,403.4 	"/>
	<polygon id="XMLID_5045_" fill="#04282D" points="-233.4,408.9 -232.9,408 -232.4,408.9 -231.4,409.1 -232.2,409.9 -232,410.9 
		-232.9,410.4 -233.9,410.9 -233.7,409.8 -234.5,409.1 	"/>
	<polygon id="XMLID_5043_" fill="#04282D" points="-228.1,405.4 -227.6,404.4 -227.1,405.4 -226,405.6 -226.8,406.3 -226.7,407.4 
		-227.6,406.9 -228.6,407.4 -228.4,406.3 -229.1,405.5 	"/>
	<polygon id="XMLID_5042_" fill="#04282D" points="-238.7,405.4 -238.2,404.4 -237.8,405.4 -236.7,405.6 -237.5,406.3 -237.3,407.4 
		-238.3,406.9 -239.2,407.4 -239,406.3 -239.8,405.5 	"/>
</g>
<path id="XMLID_5057_" fill="none" stroke="#FFFFFF" stroke-miterlimit="10" d="M-249.1,409.8"/>
<path id="XMLID_5054_" fill="none" stroke="#FFFFFF" stroke-miterlimit="10" d="M-253.1,409.8"/>
<path id="XMLID_5058_" fill="none" stroke="#FFFFFF" stroke-miterlimit="10" d="M-217.1,409.8"/>
<path id="XMLID_5041_" fill="none" stroke="#FFFFFF" stroke-miterlimit="10" d="M-221.1,409.8"/>
<polygon fill="#DB960E" points="-245.9,430.2 -245.9,433 -256.4,430.2 "/>
<polygon fill="#DB960E" points="-220.7,430.2 -220.7,433 -210.4,430.2 "/>
</svg>
