<?xml version="1.0" encoding="utf-8"?>
<!-- Generator: Adobe Illustrator 19.0.0, SVG Export Plug-In . SVG Version: 6.00 Build 0)  -->
<svg version="1.1" id="Слой_1" xmlns="http://www.w3.org/2000/svg" xmlns:xlink="http://www.w3.org/1999/xlink" x="0px" y="0px"
	 viewBox="-265 390 63.4 62.9" enable-background="new -265 390 63.4 62.9" xml:space="preserve">
<g id="XMLID_2251_">
	<g id="XMLID_344_">
		<path id="XMLID_347_" fill="#1A8689" d="M-225,412.9c0,0-2.7-9.4,3.4-15.7c6-6.2,12.4-5,14.4-5.8c1.9-0.7,3.5-1.8,4.3-1.4
			c0.8,0.5,1.5,6.1,0.9,9.2c-0.5,3-3.8,10.3-12,13C-222,415.1-225,412.9-225,412.9z"/>
		<g id="XMLID_345_">
			<path id="XMLID_346_" fill="#04282D" d="M-223.4,411.4c0,0,0.1-0.4,0.3-1.1c0.1-0.4,0.2-0.7,0.4-1.2c0.2-0.5,0.4-1,0.6-1.6
				c0.1-0.3,0.3-0.5,0.5-0.8c0.2-0.3,0.4-0.5,0.5-0.9c0.4-0.6,0.8-1.2,1.3-1.8c0.5-0.5,1-1.2,1.6-1.8c0.5-0.6,1.2-1.1,1.7-1.7
				c0.6-0.5,1.3-1,1.9-1.6c0.6-0.5,1.3-0.9,1.9-1.4c1.3-0.8,2.6-1.5,3.7-2c1.1-0.5,2-0.9,2.7-1.2c0.6-0.3,1-0.4,1-0.4
				s-1.4,0.8-3.5,2.1c-0.5,0.4-1.1,0.6-1.6,1s-1.2,0.8-1.8,1.2c-0.6,0.5-1.3,0.9-1.8,1.4c-0.6,0.5-1.3,1-1.8,1.5
				c-0.5,0.5-1.2,1-1.7,1.6c-0.5,0.5-1.1,1.1-1.6,1.6c-0.5,0.5-0.9,1.1-1.3,1.7c-0.2,0.3-0.4,0.5-0.5,0.8c-0.2,0.3-0.4,0.5-0.5,0.8
				c-0.4,0.5-0.5,1-0.8,1.5c-0.3,0.5-0.5,0.8-0.5,1.2C-223.2,411.1-223.4,411.4-223.4,411.4z"/>
		</g>
	</g>
</g>
<g id="XMLID_2237_">
	<g id="XMLID_339_">
		<path id="XMLID_342_" fill="#1A8689" d="M-247.3,415.1c0,0,4-9.9-1-16.1c-4.2-5.3-8.5-5.9-10.5-6.9c-1.5-0.7-2.6-2.6-3.6-2
			c-1.1,0.7-2.9,6.9-2.6,11.4c0.4,4.3,1.3,10,7.6,12.9C-253,416.4-247.3,415.1-247.3,415.1z"/>
		<g id="XMLID_340_">
			<path id="XMLID_341_" fill="#04282D" d="M-248.3,413.5c0,0,0-0.1,0-0.3c0-0.2-0.1-0.5-0.2-0.8s-0.2-0.7-0.4-1.2
				c-0.1-0.2-0.2-0.5-0.3-0.7c-0.2-0.2-0.2-0.5-0.4-0.7c-0.3-0.5-0.7-1.1-1.1-1.5c-0.4-0.6-0.9-1.1-1.4-1.6
				c-1.1-1.1-2.2-2.2-3.4-3.3c-0.3-0.2-0.7-0.5-1-0.7c-0.3-0.2-0.7-0.5-1-0.7c-0.7-0.6-1.1-1.2-1.6-1.9c-0.4-0.7-0.8-1.3-1.1-2
				c-0.3-0.7-0.5-1.3-0.7-1.9c-0.3-1.2-0.5-2.2-0.6-2.9c-0.1-0.7-0.1-1.1-0.1-1.1s0.1,0.4,0.2,1.1c0.2,0.7,0.4,1.6,0.8,2.8
				c0.2,0.6,0.5,1.1,0.8,1.8c0.2,0.3,0.3,0.6,0.5,0.9c0.2,0.3,0.4,0.6,0.6,0.9c0.2,0.3,0.5,0.6,0.7,0.9c0.2,0.2,0.5,0.5,0.8,0.8
				c0.3,0.2,0.7,0.5,0.9,0.7c0.3,0.2,0.7,0.5,1,0.7c0.7,0.5,1.2,1.1,1.8,1.6c0.6,0.6,1.1,1.1,1.6,1.7c0.5,0.6,1,1.2,1.4,1.8
				c0.4,0.6,0.7,1.1,1.1,1.7c0.2,0.2,0.2,0.6,0.4,0.8c0.1,0.2,0.2,0.5,0.2,0.7c0.2,0.5,0.2,0.9,0.3,1.3c0.1,0.3,0.1,0.7,0,0.8
				C-248.3,413.4-248.3,413.5-248.3,413.5z"/>
		</g>
	</g>
</g>
<g id="XMLID_2250_">
	<circle id="XMLID_2345_" fill="#04282D" cx="-233.4" cy="421.5" r="31.4"/>
</g>
<g id="XMLID_2269_">
	<g id="XMLID_349_">
		<path id="XMLID_352_" fill="#1A8689" d="M-243.1,406.5c0,0,2.9-4.8,0.4-9.1s-6.1-4.6-7.1-5.4c-0.9-0.7-1.7-1.5-2.2-1.4
			c-0.6,0.2-1.7,3.2-1.9,4.9c-0.1,1.7,0.6,6.2,4.7,8.9C-245.1,407.2-243.1,406.5-243.1,406.5z"/>
		<g id="XMLID_350_">
			<path id="XMLID_351_" fill="#04282D" d="M-243.8,405.4c0,0,0-0.2-0.1-0.7c0-0.2-0.1-0.4-0.1-0.7c-0.1-0.3-0.1-0.6-0.2-0.9
				c0-0.2-0.1-0.4-0.1-0.5c-0.1-0.2-0.1-0.4-0.2-0.5c-0.1-0.4-0.3-0.7-0.5-1.1c-0.2-0.4-0.4-0.8-0.6-1.2s-0.4-0.8-0.7-1.1
				c-0.3-0.3-0.5-0.8-0.8-1.1s-0.6-0.7-0.8-1c-0.3-0.3-0.5-0.6-0.8-1c-0.3-0.3-0.5-0.6-0.7-0.8c-1-1-1.6-1.7-1.6-1.7
				s0.2,0.1,0.5,0.4c0.3,0.2,0.8,0.6,1.3,1.1c0.5,0.5,1.1,1,1.7,1.7c0.3,0.3,0.6,0.7,0.9,1s0.6,0.7,0.8,1.1s0.5,0.8,0.7,1.2
				c0.2,0.4,0.4,0.8,0.6,1.2c0.1,0.4,0.3,0.8,0.4,1.2c0.1,0.2,0.1,0.4,0.2,0.6c0,0.2,0.1,0.4,0.1,0.5c0.1,0.4,0.1,0.6,0.1,1
				c0,0.3,0,0.5,0,0.7C-243.8,405.2-243.8,405.4-243.8,405.4z"/>
		</g>
	</g>
</g>
<g id="XMLID_2232_">
	<path id="XMLID_2298_" fill="#FFFFFF" d="M-233.4,448.8c-15,0-27.3-12.2-27.3-27.3c0-15,12.2-27.3,27.3-27.3s27.3,12.2,27.3,27.3
		C-206.1,436.5-218.3,448.8-233.4,448.8z"/>
</g>
<g id="XMLID_2173_">
	<g id="XMLID_2329_">
		
			<line id="XMLID_2334_" fill="none" stroke="#04282D" stroke-width="0.8104" stroke-linecap="round" stroke-miterlimit="10" x1="-253.6" y1="432.6" x2="-253.6" y2="432.6"/>
		
			<path id="XMLID_2333_" fill="none" stroke="#04282D" stroke-width="0.8104" stroke-linecap="round" stroke-miterlimit="10" stroke-dasharray="0,2.3849" d="
			M-254.7,430.5c-1.1-2.7-1.7-5.7-1.7-8.8c0-3.9,0.9-7.6,2.7-10.8"/>
		
			<line id="XMLID_2332_" fill="none" stroke="#04282D" stroke-width="0.8104" stroke-linecap="round" stroke-miterlimit="10" x1="-253.1" y1="409.9" x2="-253.1" y2="409.9"/>
	</g>
</g>
<g id="XMLID_2172_">
	<g id="XMLID_2318_">
		
			<line id="XMLID_2327_" fill="none" stroke="#04282D" stroke-width="0.8104" stroke-linecap="round" stroke-miterlimit="10" x1="-212.8" y1="411.3" x2="-212.8" y2="411.3"/>
		
			<path id="XMLID_2320_" fill="none" stroke="#04282D" stroke-width="0.8104" stroke-linecap="round" stroke-miterlimit="10" stroke-dasharray="0,2.5514" d="
			M-211.8,413.6c0.9,2.5,1.4,5.2,1.4,8c0,3.8-0.9,7.4-2.6,10.5"/>
		
			<line id="XMLID_2319_" fill="none" stroke="#04282D" stroke-width="0.8104" stroke-linecap="round" stroke-miterlimit="10" x1="-213.5" y1="433.3" x2="-213.5" y2="433.3"/>
	</g>
</g>
<g id="XMLID_2171_">
	<g id="XMLID_2300_">
		
			<line id="XMLID_2309_" fill="none" stroke="#04282D" stroke-width="0.8104" stroke-linecap="round" stroke-miterlimit="10" x1="-241" y1="399.9" x2="-241" y2="399.9"/>
		
			<path id="XMLID_2306_" fill="none" stroke="#04282D" stroke-width="0.8104" stroke-linecap="round" stroke-miterlimit="10" stroke-dasharray="0,2.485" d="
			M-238.5,399.2c1.6-0.4,3.4-0.6,5.2-0.6c2.1,0,4,0.3,5.9,0.7"/>
		
			<line id="XMLID_2303_" fill="none" stroke="#04282D" stroke-width="0.8104" stroke-linecap="round" stroke-miterlimit="10" x1="-226.3" y1="399.7" x2="-226.3" y2="399.7"/>
	</g>
</g>
<g id="XMLID_364_">
	<g id="XMLID_427_">
		<path id="XMLID_433_" fill="#04282D" d="M-244.7,413.1h4.3v2.9h-4.3v5.9h5.5v2.9h-8.5v-20.1h8.5v2.9h-5.5V413.1z"/>
		<path id="XMLID_431_" fill="#04282D" d="M-228.1,417.2v2.7c0,3.2-1.6,5-4.7,5c-3.1,0-4.7-1.9-4.7-5v-10.4c0-3.2,1.6-5,4.7-5
			c3.1,0,4.7,1.9,4.7,5v2h-3v-2.2c0-1.4-0.6-2-1.6-2c-1,0-1.6,0.5-1.6,2v10.8c0,1.4,0.6,2,1.6,2c1,0,1.6-0.5,1.6-2v-2.9H-228.1z"/>
		<path id="XMLID_428_" fill="#04282D" d="M-226.5,409.5c0-3.2,1.6-5,4.7-5s4.7,1.9,4.7,5v10.4c0,3.2-1.6,5-4.7,5s-4.7-1.9-4.7-5
			V409.5z M-223.3,420.1c0,1.4,0.6,2,1.6,2s1.6-0.5,1.6-2v-10.8c0-1.4-0.6-2-1.6-2s-1.6,0.5-1.6,2V420.1z"/>
	</g>
</g>
<g id="XMLID_294_">
	<g id="XMLID_511_">
		<path id="XMLID_529_" fill="#04282D" d="M-247.9,435.7c-0.2,0-0.4,0-0.5-0.1V435c0.2,0.1,0.3,0.1,0.5,0.1s0.4-0.1,0.5-0.3
			s0.2-0.4,0.3-0.7l1-4.6h-0.8l0.1-0.3l0.9-0.3l0.1-0.4c0.1-0.6,0.3-1,0.5-1.2s0.6-0.3,1-0.3c0.1,0,0.2,0,0.4,0
			c0.2,0,0.3,0.1,0.4,0.1l-0.2,0.5c-0.2-0.1-0.4-0.1-0.6-0.1s-0.4,0.1-0.6,0.2c-0.1,0.1-0.2,0.4-0.3,0.7l-0.1,0.5h1l-0.1,0.5h-1
			l-1,4.7c-0.1,0.5-0.3,0.9-0.5,1.2C-247.1,435.5-247.4,435.7-247.9,435.7z"/>
		<path id="XMLID_527_" fill="#04282D" d="M-241.4,428.7c0.2,0,0.4,0,0.5,0.1l-0.2,0.6c-0.1,0-0.3-0.1-0.4-0.1
			c-0.3,0-0.5,0.1-0.7,0.3s-0.4,0.4-0.6,0.7s-0.3,0.6-0.4,1l-0.4,2.2h-0.7l1-4.7h0.6l-0.1,0.9l0,0c0.2-0.3,0.4-0.5,0.5-0.6
			s0.3-0.2,0.4-0.3C-241.7,428.8-241.6,428.7-241.4,428.7z"/>
		<path id="XMLID_524_" fill="#04282D" d="M-240.1,433.5h-0.7l1-4.7h0.7L-240.1,433.5z M-239.6,427.6c0-0.2,0-0.3,0.1-0.4
			c0.1-0.1,0.2-0.1,0.3-0.1c0.2,0,0.4,0.1,0.4,0.4c0,0.2,0,0.3-0.1,0.4c-0.1,0.1-0.2,0.2-0.3,0.2s-0.2,0-0.3-0.1
			S-239.6,427.8-239.6,427.6z"/>
		<path id="XMLID_521_" fill="#04282D" d="M-236.8,433.7c-0.5,0-0.9-0.2-1.2-0.5s-0.4-0.7-0.4-1.3c0-0.5,0.1-1,0.3-1.5
			c0.2-0.5,0.5-0.9,0.8-1.1s0.7-0.4,1.1-0.4s0.8,0.1,1,0.3s0.3,0.4,0.3,0.8c0,0.5-0.2,0.9-0.7,1.2s-1.1,0.4-2.1,0.4h-0.1v0.3
			c0,0.4,0.1,0.7,0.3,0.9s0.4,0.3,0.8,0.3c0.2,0,0.4,0,0.5-0.1c0.2,0,0.4-0.1,0.7-0.3v0.6c-0.3,0.1-0.5,0.2-0.7,0.3
			C-236.2,433.7-236.4,433.7-236.8,433.7z M-236.1,429.3c-0.3,0-0.6,0.1-0.8,0.4c-0.3,0.3-0.4,0.6-0.6,1.1h0.1
			c0.6,0,1.1-0.1,1.5-0.3c0.3-0.2,0.5-0.4,0.5-0.7c0-0.1-0.1-0.3-0.2-0.4C-235.7,429.4-235.9,429.3-236.1,429.3z"/>
		<path id="XMLID_519_" fill="#04282D" d="M-231.4,433.5l0.6-3c0.1-0.3,0.1-0.5,0.1-0.6c0-0.2,0-0.3-0.1-0.4s-0.3-0.2-0.5-0.2
			s-0.5,0.1-0.7,0.3s-0.4,0.4-0.6,0.7s-0.3,0.7-0.4,1.1l-0.4,2.1h-0.7l1-4.7h0.6l-0.2,0.9l0,0c0.3-0.3,0.5-0.6,0.8-0.7
			s0.5-0.2,0.8-0.2c0.4,0,0.6,0.1,0.8,0.3s0.3,0.5,0.3,0.8c0,0.2,0,0.5-0.1,0.8l-0.6,2.9h-0.7V433.5z"/>
		<path id="XMLID_516_" fill="#04282D" d="M-226.7,428.7c0.5,0,0.9,0.3,1.2,0.8l0,0c0-0.4,0.1-0.8,0.2-1.2l0.3-1.5h0.7l-1.4,6.7
			h-0.6l0.1-0.9l0,0c-0.3,0.4-0.5,0.6-0.8,0.7c-0.2,0.1-0.5,0.2-0.8,0.2c-0.4,0-0.7-0.1-0.9-0.4s-0.3-0.7-0.3-1.1
			c0-0.6,0.1-1.1,0.3-1.6c0.2-0.5,0.5-0.9,0.8-1.2S-227.1,428.7-226.7,428.7z M-227.5,433c0.3,0,0.5-0.1,0.8-0.4s0.5-0.6,0.7-1
			s0.2-0.8,0.2-1.2c0-0.3-0.1-0.5-0.2-0.7c-0.2-0.2-0.4-0.2-0.7-0.2s-0.5,0.1-0.8,0.3s-0.4,0.6-0.6,1c-0.1,0.4-0.2,0.9-0.2,1.3
			C-228.2,432.7-228,433-227.5,433z"/>
		<path id="XMLID_514_" fill="#04282D" d="M-223.3,433.5h-0.7l1.4-6.7h0.7L-223.3,433.5z"/>
		<path id="XMLID_512_" fill="#04282D" d="M-221.6,428.8h0.7l0.3,2.4c0,0.2,0.1,0.5,0.1,0.9s0,0.7,0,0.9l0,0
			c0.1-0.2,0.2-0.5,0.4-0.8s0.3-0.5,0.3-0.7l1.4-2.7h0.7l-3,5.6c-0.3,0.5-0.5,0.8-0.8,1s-0.6,0.3-0.9,0.3c-0.2,0-0.4,0-0.6-0.1V435
			c0.2,0.1,0.4,0.1,0.6,0.1s0.4-0.1,0.6-0.2s0.3-0.4,0.5-0.6l0.3-0.6L-221.6,428.8z"/>
	</g>
</g>
<g id="XMLID_1999_">
	<g id="XMLID_330_">
		<path id="XMLID_333_" fill="#1A8689" d="M-232.3,451c0,0-0.7-8.5,5.6-12.9c6.3-4.3,11.5-2.3,13.4-2.6c1.7-0.3,3.3-1,3.9-0.4
			c0.6,0.6,0.2,5.6-0.7,8c-1,2.5-4.9,8.1-12.4,9.2C-230.3,453.4-232.3,451-232.3,451z"/>
		<g id="XMLID_331_">
			<path id="XMLID_332_" fill="#04282D" d="M-230.8,450c0,0,0.1-0.3,0.4-0.9c0.1-0.3,0.3-0.6,0.5-1s0.5-0.8,0.8-1.2
				c0.2-0.2,0.3-0.4,0.5-0.7c0.2-0.2,0.4-0.4,0.6-0.7c0.4-0.5,0.9-0.9,1.3-1.3c0.5-0.4,1-0.9,1.6-1.2c0.6-0.4,1.2-0.8,1.9-1.1
				c0.6-0.3,1.2-0.7,2-1c0.6-0.3,1.3-0.5,2-0.8c1.2-0.5,2.5-0.8,3.5-1.1c1-0.3,2-0.4,2.5-0.6c0.6-0.1,0.9-0.2,0.9-0.2
				s-1.3,0.7-3.4,1.4c-1,0.4-2.2,0.8-3.4,1.3s-2.5,1.1-3.7,1.9s-2.4,1.4-3.4,2.3c-0.5,0.4-1,0.8-1.4,1.2s-0.8,0.8-1.1,1.2
				c-0.4,0.4-0.6,0.7-0.9,1.1c-0.3,0.3-0.5,0.6-0.6,0.9C-230.6,449.7-230.8,450-230.8,450z"/>
		</g>
	</g>
</g>
<g id="XMLID_1862_">
	<g id="XMLID_300_">
		<path id="XMLID_304_" fill="#1A8689" d="M-229.7,449.3c0,0-1-9.9-9.1-13.4c-8-3.5-13.6-0.1-15.6-0.1c-2.1,0-4-0.4-4.5,0.3
			s0.9,6.4,2.6,9c1.6,2.6,7.4,8.2,16.2,7.7C-231.7,452.4-229.7,449.3-229.7,449.3z"/>
	</g>
</g>
<g id="XMLID_276_">
	<g id="XMLID_1853_">
		<path id="XMLID_2015_" fill="#04282D" d="M-231.8,448.5c0,0-0.3-0.3-0.8-0.8c-0.2-0.3-0.5-0.5-0.9-0.9c-0.4-0.3-0.8-0.7-1.2-1
			c-0.2-0.2-0.5-0.4-0.7-0.6c-0.3-0.2-0.5-0.4-0.8-0.5c-0.5-0.4-1.2-0.7-1.9-1.1c-0.7-0.3-1.3-0.7-2.1-1s-1.4-0.6-2.3-0.8
			c-0.7-0.2-1.5-0.5-2.3-0.7s-1.5-0.4-2.3-0.6c-0.7-0.1-1.4-0.3-2.2-0.5c-0.7-0.1-1.3-0.3-2-0.4c-2.5-0.4-4-0.7-4-0.7s0.4,0,1.1,0
			c0.7,0,1.7,0,3,0.1s2.7,0.2,4.2,0.5c0.7,0.2,1.5,0.3,2.4,0.5c0.8,0.2,1.5,0.4,2.4,0.7s1.5,0.6,2.3,0.9s1.4,0.7,2.2,1.1
			c0.6,0.4,1.3,0.8,1.9,1.2c0.3,0.2,0.5,0.4,0.8,0.6c0.2,0.2,0.5,0.4,0.7,0.6c0.5,0.4,0.8,0.8,1.2,1.2c0.3,0.4,0.6,0.7,0.8,1
			C-232.1,448.1-231.8,448.5-231.8,448.5z"/>
	</g>
</g>
</svg>
