<?xml version="1.0" encoding="utf-8"?>
<!-- Generator: Adobe Illustrator 19.0.0, SVG Export Plug-In . SVG Version: 6.00 Build 0)  -->
<svg version="1.1" id="Слой_1" xmlns="http://www.w3.org/2000/svg" xmlns:xlink="http://www.w3.org/1999/xlink" x="0px" y="0px"
	 viewBox="0 0 63.4 62.9" enable-background="new 0 0 63.4 62.9" xml:space="preserve">
<g id="XMLID_2395_">
	<g id="XMLID_2331_">
		<g id="XMLID_337_">
			<path id="XMLID_339_" fill="#04282D" d="M63.4,31.5c0,1.3-1.7,2.4-1.8,3.6c-0.1,1.2,1.2,2.8,0.9,4c-0.3,1.2-2.2,1.9-2.6,3.1
				c-0.4,1.2,0.5,3-0.1,4.1c-0.6,1.1-2.6,1.3-3.3,2.4c-0.7,1-0.2,3-1.1,3.9c-0.8,0.9-2.8,0.7-3.8,1.5c-0.9,0.8-0.9,2.8-2,3.6
				c-1,0.7-2.9,0-4,0.6c-1.1,0.6-1.6,2.5-2.7,3c-1.2,0.4-2.8-0.7-4-0.4c-1.2,0.3-2.1,2.1-3.4,2.2c-1.2,0.1-2.6-1.4-3.8-1.4
				s-2.6,1.5-3.8,1.4c-1.2-0.1-2.2-1.9-3.4-2.2c-1.2-0.3-2.9,0.8-4,0.4c-1.2-0.4-1.7-2.4-2.7-3c-1.1-0.6-3,0.1-4-0.6
				c-1-0.7-1-2.7-2-3.6c-0.9-0.8-2.9-0.6-3.8-1.5c-0.8-0.9-0.3-2.9-1.1-3.9c-0.7-1-2.7-1.3-3.3-2.4C3,45.1,4,43.3,3.5,42.1
				C3.1,41,1.2,40.3,0.9,39c-0.3-1.2,1-2.7,0.9-4C1.7,33.9,0,32.7,0,31.5c0-1.3,1.7-2.4,1.8-3.6c0.1-1.2-1.2-2.8-0.9-4
				c0.3-1.2,2.2-1.9,2.6-3.1c0.4-1.2-0.5-3,0.1-4.1c0.6-1.1,2.6-1.3,3.3-2.4c0.7-1,0.2-3,1.1-3.9c0.8-0.9,2.8-0.7,3.8-1.5
				c0.9-0.8,0.9-2.8,2-3.6c1-0.7,2.9,0,4-0.6c1.1-0.6,1.6-2.5,2.7-3c1.2-0.4,2.8,0.7,4,0.4c1.2-0.3,2.1-2.1,3.4-2.2
				c1.2-0.1,2.6,1.4,3.8,1.4s2.6-1.5,3.8-1.4c1.2,0.1,2.2,1.9,3.4,2.2c1.2,0.3,2.9-0.8,4-0.4c1.2,0.4,1.7,2.4,2.7,3
				c1.1,0.6,3-0.1,4,0.6c1,0.7,1,2.7,2,3.6c0.9,0.8,2.9,0.6,3.8,1.5c0.8,0.9,0.3,2.9,1.1,3.9c0.7,1,2.7,1.3,3.3,2.4
				c0.6,1.1-0.4,2.9,0.1,4.1c0.4,1.2,2.3,1.9,2.6,3.1c0.3,1.2-1,2.7-0.9,4C61.7,29.1,63.4,30.2,63.4,31.5z"/>
			<path id="XMLID_338_" fill="#04282D" d="M63.4,31.5c0,1.3-1.7,2.4-1.8,3.6c-0.1,1.2,1.2,2.8,0.9,4c-0.3,1.2-2.2,1.9-2.6,3.1
				c-0.4,1.2,0.5,3-0.1,4.1c-0.6,1.1-2.6,1.3-3.3,2.4c-0.7,1-0.2,3-1.1,3.9c-0.8,0.9-2.8,0.7-3.8,1.5c-0.9,0.8-0.9,2.8-2,3.6
				c-1,0.7-2.9,0-4,0.6c-1.1,0.6-1.6,2.5-2.7,3c-1.2,0.4-2.8-0.7-4-0.4c-1.2,0.3-2.1,2.1-3.4,2.2c-1.2,0.1-2.6-1.4-3.8-1.4
				s-2.6,1.5-3.8,1.4c-1.2-0.1-2.2-1.9-3.4-2.2c-1.2-0.3-2.9,0.8-4,0.4c-1.2-0.4-1.7-2.4-2.7-3c-1.1-0.6-3,0.1-4-0.6
				c-1-0.7-1-2.7-2-3.6c-0.9-0.8-2.9-0.6-3.8-1.5c-0.8-0.9-0.3-2.9-1.1-3.9c-0.7-1-2.7-1.3-3.3-2.4C3,45.1,4,43.3,3.5,42.1
				C3.1,41,1.2,40.3,0.9,39c-0.3-1.2,1-2.7,0.9-4C1.7,33.9,0,32.7,0,31.5c0-1.3,1.7-2.4,1.8-3.6c0.1-1.2-1.2-2.8-0.9-4
				c0.3-1.2,2.2-1.9,2.6-3.1c0.4-1.2-0.5-3,0.1-4.1c0.6-1.1,2.6-1.3,3.3-2.4c0.7-1,0.2-3,1.1-3.9c0.8-0.9,2.8-0.7,3.8-1.5
				c0.9-0.8,0.9-2.8,2-3.6c1-0.7,2.9,0,4-0.6c1.1-0.6,1.6-2.5,2.7-3c1.2-0.4,2.8,0.7,4,0.4c1.2-0.3,2.1-2.1,3.4-2.2
				c1.2-0.1,2.6,1.4,3.8,1.4s2.6-1.5,3.8-1.4c1.2,0.1,2.2,1.9,3.4,2.2c1.2,0.3,2.9-0.8,4-0.4c1.2,0.4,1.7,2.4,2.7,3
				c1.1,0.6,3-0.1,4,0.6c1,0.7,1,2.7,2,3.6c0.9,0.8,2.9,0.6,3.8,1.5c0.8,0.9,0.3,2.9,1.1,3.9c0.7,1,2.7,1.3,3.3,2.4
				c0.6,1.1-0.4,2.9,0.1,4.1c0.4,1.2,2.3,1.9,2.6,3.1c0.3,1.2-1,2.7-0.9,4C61.7,29.1,63.4,30.2,63.4,31.5z"/>
		</g>
	</g>
	<g id="XMLID_2316_">
		<circle id="XMLID_2361_" fill="#FFFFFF" cx="31.7" cy="31.5" r="26.3"/>
	</g>
	<g id="XMLID_2321_">
		<g id="XMLID_2304_">
			<path id="XMLID_2312_" fill="#04282D" d="M31.8,8.9L32,9.6c0,0.1,0.1,0.1,0.2,0.1h0.7c0.2,0,0.2,0.2,0.1,0.3l-0.6,0.4
				c-0.1,0-0.1,0.1-0.1,0.2l0.2,0.7c0.1,0.2-0.1,0.3-0.3,0.2l-0.6-0.4c-0.1,0-0.1,0-0.2,0l-0.6,0.4c-0.1,0.1-0.3,0-0.3-0.2l0.2-0.7
				c0-0.1,0-0.2-0.1-0.2l-0.6-0.4C30,10,30.1,9.7,30.3,9.7H31c0.1,0,0.1-0.1,0.2-0.1l0.2-0.7C31.5,8.8,31.7,8.8,31.8,8.9z"/>
		</g>
		<g id="XMLID_1987_">
			<path id="XMLID_1991_" fill="#04282D" d="M26,10.1l0.3,0.4c0,0,0.1,0.1,0.1,0l0.5-0.1c0.1,0,0.2,0.1,0.1,0.2L26.7,11
				c0,0,0,0.1,0,0.1l0.3,0.4c0.1,0.1,0,0.2-0.1,0.2l-0.4-0.2c0,0-0.1,0-0.1,0l-0.3,0.4c-0.1,0.1-0.2,0-0.2-0.1l0-0.5
				c0-0.1,0-0.1-0.1-0.1l-0.4-0.2c-0.1,0-0.1-0.2,0-0.2l0.5-0.1c0,0,0.1-0.1,0.1-0.1l0-0.5C25.8,10,25.9,10,26,10.1z"/>
		</g>
		<g id="XMLID_1967_">
			<path id="XMLID_1983_" fill="#04282D" d="M20.7,12.2l0.4,0.3c0,0,0.1,0,0.1,0l0.4-0.2c0.1-0.1,0.2,0,0.2,0.2l-0.2,0.4
				c0,0,0,0.1,0,0.1l0.4,0.3c0.1,0.1,0,0.2-0.1,0.2l-0.5-0.1c-0.1,0-0.1,0-0.1,0.1L21,14c0,0.1-0.2,0.1-0.2,0l-0.1-0.5
				c0,0-0.1-0.1-0.1-0.1l-0.5-0.1c-0.1,0-0.1-0.2,0-0.2l0.4-0.2c0,0,0.1-0.1,0.1-0.1l-0.1-0.5C20.4,12.2,20.6,12.1,20.7,12.2z"/>
		</g>
		<g id="XMLID_1957_">
			<path id="XMLID_1960_" fill="#04282D" d="M42.7,12.4l-0.1,0.5c0,0,0,0.1,0.1,0.1l0.4,0.2c0.1,0.1,0.1,0.2,0,0.2l-0.5,0.1
				c-0.1,0-0.1,0-0.1,0.1l-0.1,0.5c0,0.1-0.2,0.1-0.2,0l-0.2-0.4c0,0-0.1-0.1-0.1-0.1l-0.5,0.1c-0.1,0-0.2-0.1-0.1-0.2l0.4-0.3
				c0,0,0-0.1,0-0.1l-0.2-0.4c0-0.1,0.1-0.2,0.2-0.2l0.4,0.2c0,0,0.1,0,0.1,0l0.4-0.3C42.6,12.2,42.7,12.3,42.7,12.4z"/>
		</g>
		<g id="XMLID_1857_">
			<path id="XMLID_1861_" fill="#04282D" d="M37.4,10.2l0,0.5c0,0.1,0,0.1,0.1,0.1l0.5,0.1c0.1,0,0.1,0.2,0,0.2l-0.4,0.2
				c0,0-0.1,0.1-0.1,0.1l0,0.5c0,0.1-0.1,0.2-0.2,0.1L37,11.6c0,0-0.1-0.1-0.1,0l-0.4,0.2c-0.1,0-0.2-0.1-0.1-0.2l0.3-0.4
				c0,0,0-0.1,0-0.1l-0.3-0.4c-0.1-0.1,0-0.2,0.1-0.2l0.5,0.1c0,0,0.1,0,0.1,0l0.3-0.4C37.2,10,37.4,10.1,37.4,10.2z"/>
		</g>
	</g>
	<g id="XMLID_2323_">
		<g id="XMLID_2373_">
			<path id="XMLID_2374_" fill="#04282D" d="M32.1,54.2l0.2-0.7c0-0.1,0.1-0.1,0.2-0.1h0.7c0.2,0,0.2-0.2,0.1-0.3l-0.6-0.4
				c-0.1,0-0.1-0.1-0.1-0.2l0.2-0.7c0.1-0.2-0.1-0.3-0.3-0.2L32,52c-0.1,0-0.1,0-0.2,0l-0.6-0.4c-0.1-0.1-0.3,0-0.3,0.2l0.2,0.7
				c0,0.1,0,0.2-0.1,0.2l-0.6,0.4c-0.1,0.1-0.1,0.3,0.1,0.3h0.7c0.1,0,0.1,0.1,0.2,0.1l0.2,0.7C31.8,54.4,32,54.4,32.1,54.2z"/>
		</g>
		<g id="XMLID_2370_">
			<path id="XMLID_2372_" fill="#04282D" d="M26.3,53.1l0.3-0.4c0,0,0.1-0.1,0.1,0l0.5,0.1c0.1,0,0.2-0.1,0.1-0.2L27,52.2
				c0,0,0-0.1,0-0.1l0.3-0.4c0.1-0.1,0-0.2-0.1-0.2l-0.4,0.2c0,0-0.1,0-0.1,0l-0.3-0.4c-0.1-0.1-0.2,0-0.2,0.1l0,0.5
				c0,0.1,0,0.1-0.1,0.1l-0.4,0.2c-0.1,0-0.1,0.2,0,0.2l0.5,0.1c0,0,0.1,0.1,0.1,0.1l0,0.5C26.1,53.1,26.3,53.2,26.3,53.1z"/>
		</g>
		<g id="XMLID_2360_">
			<path id="XMLID_2362_" fill="#04282D" d="M21,50.9l0.4-0.3c0,0,0.1,0,0.1,0l0.4,0.2c0.1,0.1,0.2,0,0.2-0.2l-0.2-0.4
				c0,0,0-0.1,0-0.1l0.4-0.3c0.1-0.1,0-0.2-0.1-0.2l-0.5,0.1c-0.1,0-0.1,0-0.1-0.1l-0.2-0.4c0-0.1-0.2-0.1-0.2,0L21,49.6
				c0,0-0.1,0.1-0.1,0.1l-0.5,0.1c-0.1,0-0.1,0.2,0,0.2l0.4,0.2c0,0,0.1,0.1,0.1,0.1l-0.1,0.5C20.8,50.9,20.9,51,21,50.9z"/>
		</g>
		<g id="XMLID_2344_">
			<path id="XMLID_2358_" fill="#04282D" d="M43,50.7l-0.1-0.5c0,0,0-0.1,0.1-0.1l0.4-0.2c0.1-0.1,0.1-0.2,0-0.2l-0.5-0.1
				c-0.1,0-0.1,0-0.1-0.1l-0.1-0.5c0-0.1-0.2-0.1-0.2,0l-0.2,0.4c0,0-0.1,0.1-0.1,0.1l-0.5-0.1c-0.1,0-0.2,0.1-0.1,0.2l0.4,0.3
				c0,0,0,0.1,0,0.1l-0.2,0.4c0,0.1,0.1,0.2,0.2,0.2l0.4-0.2c0,0,0.1,0,0.1,0l0.4,0.3C42.9,50.9,43,50.8,43,50.7z"/>
		</g>
		<g id="XMLID_2342_">
			<path id="XMLID_2343_" fill="#04282D" d="M37.7,53l0-0.5c0-0.1,0-0.1,0.1-0.1l0.5-0.1c0.1,0,0.1-0.2,0-0.2l-0.4-0.2
				c0,0-0.1-0.1-0.1-0.1l0-0.5c0-0.1-0.1-0.2-0.2-0.1l-0.3,0.4c0,0-0.1,0.1-0.1,0l-0.4-0.2c-0.1,0-0.2,0.1-0.1,0.2l0.3,0.4
				c0,0,0,0.1,0,0.1l-0.3,0.4c-0.1,0.1,0,0.2,0.1,0.2l0.5-0.1c0,0,0.1,0,0.1,0l0.3,0.4C37.6,53.1,37.7,53.1,37.7,53z"/>
		</g>
	</g>
	<g id="XMLID_2376_">
		<path id="XMLID_2386_" fill="#FFC552" d="M29.4,20.7l2.3,2.1l0,0c1.5,1,3.3,3.6,3.7,4.3l0,0c-0.2-3-1.1-5.7-2-7.4
			c-2.6-2.2-1.3-1.1-1.7-1.4c-0.7-0.6-1.8-0.5-2.4,0.2l0,0C28.7,19.1,28.8,20.1,29.4,20.7z"/>
		<path id="XMLID_2385_" fill="#FCAF32" d="M32.6,21.5l-2.3-2.1c-0.4-0.4-0.6-0.9-0.5-1.3c-0.2,0.1-0.4,0.2-0.6,0.4l0,0
			c-0.6,0.6-0.5,1.6,0.1,2.2l2.3,2.1l0,0c1.5,1,3.3,3.6,3.7,4.3l0,0c-0.1-1.2-0.3-2.4-0.5-3.5C34.1,22.8,33.3,22,32.6,21.5z"/>
		<path id="XMLID_2384_" fill="#FFD366" d="M40.4,27.8c0,0-0.9-7.3-5-11.7c-0.7-0.7-1.7-0.8-2.5-0.2l0,0c-0.8,0.6-0.9,1.6-0.4,2.4
			c1,1.5,2.4,4.3,2.8,8.1c0,0.4-0.2,0.1-0.2,0.1l0,0c-1.7-2.6-3.5-3.9-4.7-4.4c-0.3-0.1-0.5-0.1-0.8-0.1c-1,0.2-3.7,0.6-5.1,2
			c-1.7,1.7-0.1,3.3,1.1,3.3c0.8,0,2.2-0.6,3.1-0.9c0.4-0.2,1-0.1,1.3,0.3l1.6,2c0.2,0.3,0.3,0.6,0.4,0.9L32,33
			c0,0.3-0.1,0.6-0.3,0.7l-1.2,1.1c-0.5,0.5-1.3,0.6-1.9,0.2c-0.3-0.2-1-0.5-1.1-1.3c-0.3-1.8-0.9-3.4-0.9-3.5
			c-0.6-1.3-1.7-2.2-3.1-1.7c-2.1,0.8-0.4,2-0.2,7.2c0,0.8,0.3,1.4,0.8,2c1,1.1,1.8,2.3,3.4,4.4c0.2,0.2,0.3,0.5,0.4,0.7l0,0
			c0.2,0.4,0.2,0.8,0.2,0.8c0,0.7,0.6,1.3,1.3,1.3H37c0.7,0,1.2-0.5,1.2-1.2c0.1-2.9-0.2-3.6,0.3-4.5c0.3-0.6,0.5-1.2,0.7-1.8
			c0.2-0.6,0.4-1.3,0.7-2C41.4,31.4,40.4,28.1,40.4,27.8z"/>
		<g id="XMLID_2377_">
			<path id="XMLID_2383_" fill="#FCAF32" d="M29.9,43.7c0,0,0-0.4-0.2-0.8l0,0c-0.1-0.3-0.3-0.5-0.4-0.7c-1.7-2.3-2.5-3.4-3.6-4.6
				c-0.5-0.6-0.8-1.3-0.8-2.1c-0.2-4.4-1.4-6.1-0.6-7c-0.2,0-0.5,0.1-0.8,0.2c-2.1,0.8-0.4,2-0.2,7.2c0,0.8,0.3,1.4,0.8,2
				c1,1.1,1.8,2.3,3.4,4.4c0.2,0.2,0.3,0.5,0.4,0.7l0,0c0.2,0.4,0.2,0.8,0.2,0.8c0,0.7,0.6,1.3,1.3,1.3h1.4
				C30.3,44.8,29.9,44.3,29.9,43.7z"/>
			<path id="XMLID_2382_" fill="#FCAF32" d="M33.8,28.9c0-0.4-0.1-0.7-0.4-1l-1.7-2c-0.3-0.4-0.9-0.5-1.3-0.3c-0.9,0.4-2.4,1-3.2,1
				c-1.5,0-3.2-2-0.8-3.8C25.7,23,25,23.4,24.4,24c-1.7,1.7-0.1,3.3,1.1,3.3c0.8,0,2.2-0.6,3.1-0.9c0.4-0.2,1-0.1,1.3,0.3l1.6,2
				c0.2,0.3,0.3,0.6,0.4,0.9c0.1,3.6,0.2,3.6,0,3.9c-0.1,0.3-0.2,0.3-1.4,1.3l0,0c-0.1,0.1-0.4,0.5-1.1,0.5l0,0c0,0,1.3,0.3,2.5-0.6
				c0.2-0.1,0,0,1.7-1.4c0.2-0.2,0.3-0.5,0.3-0.8L33.8,28.9z"/>
			<path id="XMLID_2378_" fill="#FCAF32" d="M37.3,24.6c-0.5-3.4-1.8-6-2.8-7.5c-0.3-0.5-0.4-1.1-0.2-1.6c-0.5-0.1-1,0.1-1.4,0.4
				l0,0c-0.8,0.6-0.9,1.6-0.4,2.4c1.5,2.3,2.5,5.1,2.8,8.1c0,0.1,0,0.2,0,0.2C37.5,26.5,37.3,24.6,37.3,24.6z"/>
		</g>
	</g>
</g>
</svg>
