<svg xmlns="http://www.w3.org/2000/svg" viewBox="0 0 649.1 76.7">
  <g fill="none" stroke="#05282D" stroke-miterlimit="10">
    <path d="M1.7 36.1c-.1 0-.1 0-.1-.1s0-.1.1-.1c.1.1.1.1 0 .2.1 0 .1 0 0 0z"/>
    <path stroke-width="2.186" d="M645.6 19.1c0 .2.2.4.4.4s.4-.2.4-.4-.2-.4-.4-.4-.4.2-.4.4zM645.2 36.5c0 .5.4.9.9.9s.9-.4.9-.9-.4-.9-.9-.9c-.5.1-.9.4-.9.9zM645.1 53.9c0 .6.5 1 1 1s1-.5 1-1-.5-1-1-1c-.6 0-1 .5-1 1zM644.8 71.3c0 .7.6 1.3 1.3 1.3.7 0 1.3-.6 1.3-1.3 0-.7-.6-1.3-1.3-1.3-.7 0-1.3.6-1.3 1.3zM628.1 53.9c0 .3.2.5.5.5s.5-.2.5-.5-.2-.5-.5-.5c-.2 0-.5.2-.5.5zM628 71.3c0 .4.3.7.7.7.4 0 .7-.3.7-.7 0-.4-.3-.7-.7-.7-.4.1-.7.4-.7.7zM610.6 71.3c0 .4.3.7.7.7.4 0 .7-.3.7-.7 0-.4-.3-.7-.7-.7-.4.1-.7.4-.7.7zM593.2 71.3c0 .4.3.6.6.6s.6-.3.6-.6-.3-.6-.6-.6-.6.3-.6.6zM576 53.9c0 .2.2.4.4.4s.4-.2.4-.4-.2-.4-.4-.4-.4.2-.4.4zM575.8 71.3c0 .3.3.6.6.6s.6-.3.6-.6-.3-.6-.6-.6c-.3.1-.6.3-.6.6zM558 19.1c0 .6.4 1 1 1s1-.5 1-1c0-.6-.5-1-1-1s-1 .4-1 1zM557.5 36.5c0 .8.7 1.5 1.5 1.5s1.5-.7 1.5-1.5-.7-1.5-1.5-1.5-1.5.7-1.5 1.5zM558.5 53.9c0 .3.2.5.5.5s.5-.2.5-.5-.2-.5-.5-.5-.5.3-.5.5zM558.2 71.3c0 .5.4.8.8.8.5 0 .8-.4.8-.8 0-.5-.4-.8-.8-.8s-.8.4-.8.8zM540.6 19.1c0 .6.4 1 1 1s1-.5 1-1c0-.6-.5-1-1-1-.6 0-1 .4-1 1zM540.6 36.5c0 .5.4 1 1 1 .5 0 1-.4 1-1 0-.5-.4-1-1-1-.5.1-1 .5-1 1zM540.3 53.9c0 .7.6 1.3 1.3 1.3.7 0 1.3-.6 1.3-1.3 0-.7-.6-1.3-1.3-1.3-.7 0-1.3.6-1.3 1.3zM541.1 71.3c0 .3.2.5.5.5s.5-.2.5-.5-.2-.5-.5-.5c-.3.1-.5.3-.5.5zM522.6 19.1c0 .8.7 1.5 1.6 1.5.8 0 1.5-.7 1.5-1.5s-.7-1.5-1.5-1.5c-.9 0-1.6.7-1.6 1.5zM522.7 36.5c0 .8.7 1.5 1.5 1.5s1.5-.7 1.5-1.5-.7-1.5-1.5-1.5c-.9 0-1.5.7-1.5 1.5zM522.1 53.9c0 1.2.9 2.1 2.1 2.1 1.1 0 2.1-.9 2.1-2.1s-.9-2.1-2.1-2.1c-1.2.1-2.1 1-2.1 2.1zM521.5 71.3c0 1.5 1.2 2.7 2.7 2.7 1.5 0 2.7-1.2 2.7-2.7 0-1.5-1.2-2.7-2.7-2.7-1.5 0-2.7 1.3-2.7 2.7zM505.5 19.1c0 .7.6 1.3 1.3 1.3.7 0 1.3-.6 1.3-1.3s-.6-1.3-1.3-1.3c-.7 0-1.3.6-1.3 1.3zM504.6 36.5c0 1.2 1 2.2 2.2 2.2 1.2 0 2.2-1 2.2-2.2 0-1.2-1-2.2-2.2-2.2-1.2 0-2.2 1-2.2 2.2zM504.9 53.9c0 1 .8 1.9 1.9 1.9 1 0 1.9-.8 1.9-1.9s-.8-1.9-1.9-1.9c-1.1 0-1.9.9-1.9 1.9zM504.4 71.3c0 1.3 1.1 2.4 2.4 2.4 1.3 0 2.4-1.1 2.4-2.4 0-1.3-1-2.4-2.4-2.4-1.3.1-2.4 1.1-2.4 2.4zM488.4 19.1c0 .5.4.9.9.9s.9-.4.9-.9-.4-.9-.9-.9-.9.4-.9.9zM487.5 36.5c0 1 .8 1.9 1.9 1.9 1 0 1.9-.8 1.9-1.9 0-1-.8-1.9-1.9-1.9-1.1 0-1.9.9-1.9 1.9zM487.7 53.9c0 .9.7 1.6 1.6 1.6.9 0 1.6-.7 1.6-1.6s-.7-1.6-1.6-1.6c-.9 0-1.6.7-1.6 1.6zM487.2 71.3c0 1.2.9 2.1 2.1 2.1s2.1-1 2.1-2.1c0-1.2-1-2.1-2.1-2.1s-2.1 1-2.1 2.1zM470.4 19.1c0 .8.7 1.5 1.5 1.5s1.5-.7 1.5-1.5-.7-1.5-1.5-1.5-1.5.7-1.5 1.5zM470.3 36.5c0 .9.7 1.6 1.6 1.6.9 0 1.6-.7 1.6-1.6 0-.9-.7-1.6-1.6-1.6-.9 0-1.6.7-1.6 1.6zM469.4 53.9c0 1.4 1.1 2.5 2.5 2.5s2.5-1.1 2.5-2.5-1.1-2.5-2.5-2.5-2.5 1.1-2.5 2.5zM470 71.3c0 1.1.9 1.9 1.9 1.9 1.1 0 1.9-.9 1.9-1.9 0-1.1-.9-1.9-1.9-1.9-1 0-1.9.9-1.9 1.9zM453.4 19.1c0 .6.5 1.2 1.1 1.2.7 0 1.2-.5 1.2-1.2s-.5-1.2-1.2-1.2c-.6.1-1.1.6-1.1 1.2zM453.4 36.5c0 .6.5 1.1 1.1 1.1.6 0 1.1-.5 1.1-1.1 0-.6-.5-1.1-1.1-1.1-.6 0-1.1.5-1.1 1.1zM452.4 53.9c0 1.2 1 2.2 2.2 2.2 1.2 0 2.2-1 2.2-2.2 0-1.2-1-2.2-2.2-2.2-1.3.1-2.2 1-2.2 2.2zM452.5 71.3c0 1.1.9 2 2 2s2-.9 2-2-.9-2-2-2-2 .9-2 2zM436.2 19.1c0 .5.4.9.9.9s.9-.4.9-.9-.4-.9-.9-.9-.9.4-.9.9zM436.2 36.5c0 .5.4.9.9.9s.9-.4.9-.9-.4-.9-.9-.9-.9.4-.9.9zM436.2 53.9c0 .5.4.9.9.9s.9-.4.9-.9-.4-.9-.9-.9c-.5.1-.9.4-.9.9zM435.4 71.3c0 1 .8 1.7 1.7 1.7 1 0 1.7-.8 1.7-1.7 0-1-.8-1.7-1.7-1.7-1 0-1.7.8-1.7 1.7zM419 19.1c0 .4.3.7.7.7.4 0 .7-.3.7-.7s-.3-.7-.7-.7c-.4 0-.7.3-.7.7zM419.2 36.5c0 .3.2.5.5.5s.5-.2.5-.5-.2-.5-.5-.5-.5.2-.5.5zM418.9 53.9c0 .4.3.8.8.8.4 0 .8-.4.8-.8s-.3-.8-.8-.8c-.4.1-.8.4-.8.8zM418.4 71.3c0 .7.6 1.3 1.3 1.3s1.3-.6 1.3-1.3c0-.7-.6-1.2-1.3-1.2s-1.3.5-1.3 1.2zM402 19.1c0 .1.1.2.2.2s.2-.1.2-.2-.1-.2-.2-.2-.2.1-.2.2zM401.9 36.5c0 .2.2.4.4.4s.4-.2.4-.4-.2-.4-.4-.4-.4.2-.4.4zM402 53.9c0 .2.2.3.3.3.2 0 .3-.2.3-.3s-.1-.3-.3-.3c-.2 0-.3.1-.3.3zM401.8 71.3c0 .3.2.5.5.5s.5-.2.5-.5-.2-.5-.5-.5c-.3.1-.5.3-.5.5zM384.5 19.1c0 .2.2.4.4.4s.4-.2.4-.4-.2-.4-.4-.4-.4.2-.4.4zM384.6 36.5c0 .2.1.3.3.3.2 0 .3-.1.3-.3 0-.2-.1-.3-.3-.3-.2 0-.3.2-.3.3zM384.5 53.9c0 .2.1.3.3.3.2 0 .3-.2.3-.3s-.1-.3-.3-.3c-.1 0-.3.1-.3.3zM384.5 71.3c0 .2.1.3.3.3.2 0 .3-.2.3-.3 0-.2-.1-.3-.3-.3-.1 0-.3.2-.3.3zM367.3 19.1c0 .1.1.2.2.2s.2-.1.2-.2-.1-.2-.2-.2-.2.1-.2.2zM367.2 36.5c0 .1.1.2.2.2s.2-.1.2-.2-.1-.2-.2-.2-.2.1-.2.2zM367.2 53.9c0 .2.1.3.3.3.2 0 .3-.1.3-.3s-.1-.3-.3-.3c-.2 0-.3.2-.3.3zM367.2 71.3c0 .1.1.2.2.2s.2-.1.2-.2-.1-.2-.2-.2-.2.1-.2.2zM349.9 19.1c0 .1.1.1.1.1.1 0 .1-.1.1-.1 0-.1-.1-.1-.1-.1s-.1 0-.1.1zM349.9 36.5c0 .1.1.1.1.1.1 0 .1-.1.1-.1 0-.1-.1-.1-.1-.1s-.1 0-.1.1zM349.9 53.9c0 .1.1.2.2.2s.2-.1.2-.2-.1-.2-.2-.2-.2.1-.2.2zM349.8 71.3c0 .1.1.2.2.2s.2-.1.2-.2-.1-.2-.2-.2-.2.1-.2.2zM332.5 19.1c0 .1.1.1.2.1s.1-.1.1-.1c0-.1-.1-.1-.1-.1-.1 0-.2 0-.2.1zM332.4 36.5c0 .1.1.2.2.2s.2-.1.2-.2-.1-.2-.2-.2-.2.1-.2.2zM332.4 53.9c0 .1.1.2.2.2s.2-.1.2-.2-.1-.2-.2-.2-.2.1-.2.2zM332.3 71.3c0 .2.2.4.4.4s.4-.2.4-.4-.2-.4-.4-.4c-.3.1-.4.2-.4.4zM315.1 19.1c0 .1.1.1.1.1.1 0 .1-.1.1-.1 0-.1-.1-.1-.1-.1-.1 0-.1 0-.1.1zM314.9 36.5c0 .2.1.3.3.3.2 0 .3-.1.3-.3 0-.2-.1-.3-.3-.3-.1 0-.3.2-.3.3zM314.9 53.9c0 .2.2.3.3.3.2 0 .3-.2.3-.3s-.2-.3-.3-.3c-.2 0-.3.1-.3.3zM314.8 71.3c0 .2.2.4.4.4s.4-.2.4-.4-.2-.4-.4-.4c-.2.1-.4.2-.4.4zM297.7 19.1c0 .1.1.1.1.1.1 0 .2-.1.2-.1 0-.1-.1-.1-.2-.1s-.1 0-.1.1zM297.6 36.5c0 .1.1.2.2.2s.2-.1.2-.2-.1-.2-.2-.2-.2.1-.2.2zM297.5 53.9c0 .2.2.3.3.3.2 0 .4-.2.4-.3s-.2-.3-.4-.3-.3.1-.3.3zM297.5 71.3c0 .2.1.3.3.3.2 0 .3-.1.3-.3 0-.2-.1-.3-.3-.3-.2.1-.3.2-.3.3zM280 36.5c0 .2.2.4.4.4s.4-.2.4-.4-.2-.4-.4-.4-.4.2-.4.4zM280 53.9c0 .2.2.4.4.4s.4-.2.4-.4-.2-.4-.4-.4-.4.2-.4.4zM280.1 71.3c0 .2.1.3.3.3.2 0 .4-.2.4-.3 0-.2-.2-.3-.4-.3s-.3.2-.3.3zM262.8 53.9c0 .1.1.2.1.2.1 0 .1-.1.1-.2s-.1-.1-.1-.1l-.1.1zM262.8 71.3c0 .1.1.1.1.1.1 0 .1-.1.1-.1 0-.1-.1-.1-.1-.1l-.1.1z"/>
    <ellipse cx="245.6" cy="53.9" stroke-width="2.186" rx=".1" ry=".1"/>
    <path stroke-width="2.186" d="M245.4 71.3c0 .1.1.2.2.2s.2-.1.2-.2-.1-.2-.2-.2c-.1.1-.2.1-.2.2zM228 53.9c0 .1.1.2.2.2s.2-.1.2-.2-.1-.2-.2-.2c-.2 0-.2.1-.2.2zM228 71.3c0 .1.1.2.2.2s.2-.1.2-.2-.1-.2-.2-.2c-.2.1-.2.1-.2.2zM210.5 53.9c0 .1.1.2.2.2s.2-.1.2-.2-.1-.2-.2-.2-.2.1-.2.2zM210.5 71.3c0 .1.1.2.2.2s.2-.1.2-.2-.1-.2-.2-.2-.2.1-.2.2zM192.8 53.9c0 .3.2.5.5.5s.5-.2.5-.5-.2-.5-.5-.5c-.2 0-.5.3-.5.5zM192.5 71.3c0 .5.4.8.8.8.5 0 .8-.4.8-.8 0-.5-.4-.8-.8-.8s-.8.4-.8.8zM175.7 53.9c0 .1.1.2.2.2s.2-.1.2-.2-.1-.2-.2-.2-.2.1-.2.2zM175.4 71.3c0 .3.2.5.5.5s.5-.2.5-.5-.2-.5-.5-.5-.5.3-.5.5zM158.3 36.5c0 .1.1.2.2.2s.2-.1.2-.2-.1-.2-.2-.2-.2.1-.2.2zM158.4 53.9c0 .1 0 .1.1.1 0 0 .1 0 .1-.1s-.1-.1-.1-.1c-.1 0-.1.1-.1.1zM158.3 71.3c0 .1.1.2.2.2s.2-.1.2-.2-.1-.2-.2-.2c-.1.1-.2.1-.2.2zM140.9 19.1c0 .1.1.1.1.1.1 0 .1-.1.1-.1 0-.1-.1-.1-.1-.1s-.1 0-.1.1zM140.9 36.5c0 .1.1.2.2.2s.2-.1.2-.2-.1-.2-.2-.2-.2.1-.2.2zM140.8 53.9c0 .2.1.3.3.3.2 0 .3-.1.3-.3s-.1-.3-.3-.3c-.2 0-.3.2-.3.3zM141 71.3c0 .1 0 .1.1.1s.1 0 .1-.1h-.2zM123.5 19.1c0 .1.1.1.1.1.1 0 .2-.1.2-.1 0-.1-.1-.1-.2-.1 0 0-.1 0-.1.1zM123.4 36.5c0 .1.1.2.2.2s.2-.1.2-.2-.1-.2-.2-.2-.2.1-.2.2zM123.6 53.9c0 .1 0 .1 0 0 .2.1.2.1.2 0s-.1-.1-.2 0c0-.1 0 0 0 0zM123.5 71.3c0 .1.1.1.1.1.1 0 .2-.1.2-.1 0-.1-.1-.1-.2-.1l-.1.1zM106 19.1c0 .1.1.2.2.2s.2-.1.2-.2-.1-.2-.2-.2-.2.1-.2.2zM106.1 36.5c0 .1.1.2.2.2s.2-.1.2-.2-.1-.2-.2-.2-.2.1-.2.2zM106.1 53.9c0 .1.1.2.1.2.1 0 .2-.1.2-.2s-.1-.1-.2-.1l-.1.1zM106.1 71.3c0 .1.1.2.2.2s.2-.1.2-.2-.1-.2-.2-.2c-.1.1-.2.1-.2.2zM88.7 19.1c0 .1.1.1.1.1.1 0 .1-.1.1-.1 0-.1-.1-.1-.1-.1s-.1 0-.1.1zM88.7 36.5c0 .1.1.2.2.2s.2-.1.2-.2-.1-.2-.2-.2c-.2 0-.2.1-.2.2z"/>
    <ellipse cx="88.8" cy="53.9" stroke-width="2.186" rx=".1" ry=".1"/>
    <path stroke-width="2.186" d="M88.8 71.3c0 .1 0 .1.1.1s.1 0 .1-.1h-.2z"/>
    <ellipse cx="71.4" cy="19.1" stroke-width="2.186" rx=".1" ry=".1"/>
    <path stroke-width="2.186" d="M71.3 36.5c0 .1.1.1.2.1s.1-.1.1-.1c0-.1-.1-.1-.1-.1-.1 0-.2 0-.2.1z"/>
    <ellipse cx="71.4" cy="53.9" stroke-width="2.186" rx=".1" ry=".1"/>
    <path stroke-width="2.186" d="M71.3 71.3c0 .1 0 .1.1.1s.1 0 .1-.1h-.2c.1 0 0 0 0 0zM53.9 19.1c0 .1.1.1 0 0 .2.1.2.1.2 0s0-.1-.2 0c.1-.1 0 0 0 0zM53.9 36.5c0 .1.1.1.1.1.1 0 .2-.1.2-.1 0-.1-.1-.1-.2-.1 0 0-.1 0-.1.1zM53.8 53.9c0 .1.1.2.2.2s.2-.1.2-.2-.1-.2-.2-.2-.2.1-.2.2zM53.9 71.3c0 .1.1.1.1.1.1 0 .2-.1.2-.1 0-.1-.1-.1-.2-.1l-.1.1zM36.5 19.1c0 .1.1.1.1.1.1 0 .2-.1.2-.1 0-.1-.1-.1-.2-.1s-.1 0-.1.1zM36.4 36.5c0 .1.1.2.2.2s.2-.1.2-.2-.1-.2-.2-.2-.2.1-.2.2zM36.4 53.9c0 .1.1.2.2.2s.2-.1.2-.2-.1-.2-.2-.2-.2.1-.2.2zM36.5 71.3c0 .1.1.1.1.1.1 0 .2-.1.2-.1 0-.1-.1-.1-.2-.1s-.1.1-.1.1zM18.9 19.1c0 .2.1.3.3.3.2 0 .3-.1.3-.3 0-.2-.1-.3-.3-.3-.2 0-.3.1-.3.3zM18.8 36.5c0 .2.2.4.4.4s.4-.2.4-.4-.2-.4-.4-.4-.4.2-.4.4zM18.8 53.9c0 .2.2.4.4.4s.4-.2.4-.4-.2-.4-.4-.4-.4.2-.4.4zM18.7 71.3c0 .3.2.5.5.5s.5-.2.5-.5-.2-.5-.5-.5-.5.3-.5.5zM1.6 1.7c0 .1.1.1.1.1.1 0 .1-.1.1-.1 0-.1-.1-.1-.1-.1 0-.1-.1 0-.1.1zM1.6 19.1c0 .1.1.2.2.2s.2-.1.2-.2-.1-.2-.2-.2-.2.1-.2.2zM1.5 36.5c0 .2.1.3.3.3.2 0 .3-.1.3-.3 0-.2-.1-.3-.3-.3-.2 0-.3.2-.3.3zM1.4 53.9c0 .2.2.4.4.4s.4-.2.4-.4-.2-.4-.4-.4-.4.2-.4.4zM1.3 71.3c0 .2.2.4.4.4s.4-.2.4-.4-.2-.4-.4-.4c-.1 0-.4.2-.4.4z"/>
  </g>
</svg>
