<svg xmlns="http://www.w3.org/2000/svg" viewBox="0 0 92.6 132.4">
  <path fill="#FFD366" d="M78.2 13.4C77.4 6.8 71.7 1.8 65 1.8H31.2c-6.7 0-12.4 5-13.2 11.6L3.6 127.8c-.3 2 1.3 3.8 3.3 3.8h18.8c2 0 3.7-1.5 4-3.5l1.3-10.5h34.2l1.3 10.5c.3 2 2 3.5 4 3.5h18.8c2 0 3.6-1.8 3.3-3.8L78.2 13.4zm-15.1 2.4c0 1-.8 1.8-1.8 1.8H34.8c-1 0-1.8-.8-1.8-1.8v-3.9c0-1 .8-1.8 1.8-1.8h26.6c1 0 1.8.8 1.8 1.8v3.9z"/>
  <path fill="#05282D" d="M68 28.4c-.4-3.3-3.3-5.8-6.6-5.8H34.9c-3.3 0-6.2 2.5-6.6 5.8l-9.6 73.1c-.2 1.9.3 3.8 1.6 5.3 1.3 1.4 3.1 2.3 5 2.3h45.6c1.9 0 3.8-.8 5-2.3 1.3-1.4 1.9-3.4 1.6-5.3L68 28.4z"/>
  <path fill="#FFD366" d="M63.6 29c-.2-1.1-1.1-2-2.3-2H34.9c-1.2 0-2.1.9-2.3 2L23 102.1c-.2 1.4.9 2.6 2.3 2.6h45.6c1.4 0 2.5-1.2 2.3-2.6L63.6 29z"/>
  <g fill="#05282D">
    <path d="M53.1 41.7c-1-1.8-2.9-2.9-5-2.9s-3.9 1.1-5 2.9L30.8 63c-1 1.8-1 3.9 0 5.7 1 1.8 2.9 2.9 5 2.9h24.6c2.1 0 3.9-1.1 5-2.9 1-1.8 1-3.9 0-5.7L53.1 41.7zM60.4 69H35.8c-2.4 0-3.9-2.6-2.7-4.7L45.4 43c1.2-2.1 4.2-2.1 5.4 0l12.3 21.3c1.2 2.1-.3 4.7-2.7 4.7z"/>
    <path d="M49 60.1l.6-11v-3.7c0-.9-.4-1.5-1.8-1.5-1.3 0-1.7.7-1.7 1.5v3.8l.7 11H49zM47.8 62.2c-1.2 0-2.1.9-2.1 2.1 0 1.2.8 2.1 2.2 2.1 1.3 0 2.1-1 2.1-2.1 0-1.3-.8-2.1-2.2-2.1z"/>
  </g>
  <g fill="#05282D">
    <path d="M35.7 83.5c0 .1 0 .2-.2.2-.1 0-.3.1-.5.1-1 0-1.4-.7-1.4-1.8s.5-1.7 1.4-1.7c.1 0 .3 0 .5.1.1 0 .2.1.2.2v.6l.7-.1v-1.2c-.4-.2-.9-.3-1.4-.3-1.1 0-2.3.6-2.3 2.5 0 1.6.8 2.5 2.3 2.5.5 0 1-.1 1.4-.3V83l-.7-.1v.6zM39.7 83.4c0 .1 0 .2-.2.2h-1.2v-3.2c0-.2.1-.2.2-.2h.2v-.6H37v.6h.4v3.3c0 .1-.1.2-.2.2H37v.6h3.4V83l-.7-.1v.5zM43.6 83.4c0 .1 0 .2-.2.2h-1.2v-1.3h1.7v-.7h-1.7v-1.2h1.1c.2 0 .2.1.2.2v.3l.7-.1v-1.2h-3.3v.6h.4v3.3c0 .1-.1.2-.2.2h-.2v.6h3.4V83l-.7-.1v.5zM48.9 83.8l-1.5-4.2h-1.6v.6h.5l-1.2 3.4c-.1.1-.1.2-.2.2h-.2v.6h1.7v-.6H46l.2-.6h1.7l.2.4c.1.2 0 .2-.2.2h-.3v.6h1.9v-.6h-.6zm-2.6-1.3l.7-2 .6 2h-1.3zM52.5 80.2h.5v2.7l-2-3.3h-1.3v.6h.4v3.3c0 .1-.1.2-.2.2h-.3v.6h1.8v-.6h-.5V81l2.1 3.4h.8v-4c0-.2.1-.2.2-.2h.3v-.6h-1.8v.6zM54.7 80.2h.4v3.3c0 .2-.1.2-.2.2h-.2v.6h1.7v-.6H56v-3.3c0-.2.1-.2.2-.2h.2v-.6h-1.7v.6zM59.8 80.2h.5v2.7l-2-3.3H57v.6h.4v3.3c0 .1-.1.2-.2.2h-.3v.6h1.8v-.6h-.5V81l2.1 3.4h.8v-4c0-.2.1-.2.2-.2h.3v-.6h-1.8v.6zM64.4 82.5h.6v1.1c-.1.1-.5.2-.8.2-.9 0-1.3-.7-1.3-1.8s.4-1.7 1.4-1.7c.2 0 .4 0 .5.1.1 0 .2.1.2.2v.6l.7-.1v-1.2c-.4-.2-.9-.3-1.4-.3-1 0-2.3.6-2.3 2.5 0 1.7.8 2.5 2.1 2.5.7 0 1.3-.2 1.7-.5v-1.3c0-.2.1-.2.2-.2h.2V82h-1.8v.5z"/>
    <g>
      <path d="M34.7 95.1h-2.1v.6h.4V99c0 .1-.1.2-.2.2h-.2v.6h2v-.6h-.7v-1h.6c1.1 0 1.9-.5 1.9-1.6 0-1-.6-1.5-1.7-1.5zm-.2 2.4H34v-1.7h.4c.7 0 1.1.1 1.1.9 0 .6-.4.8-1 .8zM40.2 98.1c-.1-.2-.2-.4-.4-.4.4-.2.9-.5.9-1.3 0-1-.7-1.3-1.7-1.3h-2v.6h.4V99c0 .1-.1.2-.2.2H37v.6h1.8v-.6h-.5V98h.7c.3 0 .4.1.5.3l.3.7c.1.1 0 .2-.1.2h-.2v.6h1.8v-.6h-.4l-.7-1.1zm-1.4-.8h-.6v-1.5h.5c.6 0 1 .1 1 .7 0 .5-.2.8-.9.8zM43.5 95c-1 0-2.2.6-2.2 2.5 0 1.6.8 2.5 2.1 2.5s2.1-.8 2.1-2.5c0-1.8-.9-2.5-2-2.5zm0 4.3c-1 0-1.2-1-1.2-1.8 0-.9.3-1.7 1.2-1.7 1 0 1.2 1 1.2 1.8-.1.8-.3 1.7-1.2 1.7zM48.5 98h.6v1.1c-.1.1-.5.2-.8.2-.9 0-1.3-.7-1.3-1.8s.4-1.7 1.4-1.7c.2 0 .4 0 .5.1.1 0 .2.1.2.2v.6l.7-.1v-1.2c-.4-.2-.9-.3-1.4-.3-1 0-2.3.6-2.3 2.5 0 1.7.8 2.5 2.1 2.5.7 0 1.3-.2 1.7-.5v-1.3c0-.2.1-.2.2-.2h.2v-.6h-1.8v.5zM53.9 98.1c-.1-.2-.2-.4-.4-.4.4-.2.9-.5.9-1.3 0-1-.7-1.3-1.7-1.3h-2v.6h.4V99c0 .1-.1.2-.2.2h-.2v.6h1.8v-.6H52V98h.7c.3 0 .4.1.5.3l.3.7c.1.1 0 .2-.1.2h-.2v.6H55v-.6h-.4l-.7-1.1zm-1.3-.8H52v-1.5h.5c.6 0 1 .1 1 .7 0 .5-.3.8-.9.8zM57.9 98.9c0 .1 0 .2-.2.2h-1.2v-1.3h1.7v-.7h-1.7v-1.2h1.1c.2 0 .2.1.2.2v.3l.7-.1v-1.2h-3.3v.6h.4V99c0 .1-.1.2-.2.2h-.2v.6h3.4v-1.3l-.7-.1v.5zM61.1 97.1c-.5-.2-1-.3-1-.7s.3-.6.8-.6c.1 0 .3 0 .5.1.1 0 .2.1.2.2v.4l.7-.1v-1.1c-.4-.2-.9-.3-1.4-.3-1 0-1.7.5-1.7 1.4 0 .9.7 1.2 1.4 1.4.5.1.9.3.9.7 0 .5-.4.7-.9.7-.2 0-.4 0-.5-.1-.1 0-.2-.1-.2-.2v-.4l-.7.1v1.1c.4.2.9.3 1.5.3 1 0 1.7-.5 1.7-1.5 0-.9-.7-1.2-1.3-1.4zM64.8 97.1c-.5-.2-1-.3-1-.7s.3-.6.8-.6c.1 0 .3 0 .5.1.1 0 .2.1.2.2v.4l.7-.1v-1.1c-.4-.2-.9-.3-1.4-.3-1 0-1.7.5-1.7 1.4 0 .9.7 1.2 1.4 1.4.5.1.9.3.9.7 0 .5-.4.7-.9.7-.2 0-.4 0-.5-.1-.1 0-.2-.1-.2-.2v-.4l-.6.1v1.1c.4.2.9.3 1.5.3 1 0 1.7-.5 1.7-1.5 0-.9-.7-1.2-1.4-1.4z"/>
    </g>
    <g>
      <path d="M46 88.4h.4v3.3c0 .2-.1.2-.2.2l-.2.1v.6h1.7V92h-.4v-3.3c0-.2.1-.2.2-.2h.2v-.6H46v.5zM51.1 88.4h.5v2.7l-2-3.3h-1.3v.6h.4v3.3c0 .1-.1.2-.2.2h-.3v.6H50V92h-.5v-2.7l2.1 3.4h.8v-4c0-.2.1-.2.2-.2h.3v-.6h-1.8v.5z"/>
    </g>
  </g>
  <g>
    <path fill="none" stroke="#05282D" stroke-linejoin="round" stroke-miterlimit="10" stroke-width="1.24" d="M91.5 132.2L76.4 12.6C75.6 5.9 69.9.9 63.2.9H29.3c-6.7 0-12.4 5-13.2 11.6L1 132.2m26.1 0l2.1-15.6h34.2l1.9 15.7M61.3 15c0 1-.8 1.8-1.8 1.8H33c-1 0-1.8-.8-1.8-1.8v-4c0-1 .8-1.8 1.8-1.8h26.6c1 0 1.8.8 1.8 1.8v4z"/>
  </g>
</svg>
