<svg xmlns="http://www.w3.org/2000/svg" viewBox="0 0 199.6 230.6">
  <path fill="#FFD366" d="M139.2 116.4c-7.6 5-17.9 10.4-17.9 10.4s9-13.1 14.7-20.4c5.7-7.3.4-9.3-5.7-4.1-4.3 3.8-19.7 17.1-19.7 17.1s7.4-13.4 13.5-23.9c5-8.8-2.3-9.9-6.6-3.5-2.1 3.1-17 21.6-17 21.6s4.3-17.3 8.5-27.4c3.2-7.9-2.2-10.6-6.8-1.9-3.4 6.6-12.1 25-18.8 33.5-4 5.1-9.9 7.2-10.3-.6-.1-2.8.7-8.9-2-14.7-2.7-5.8-5.7-5.4-6.3-1.1-.6 4.2.5 17.4-2 25.1-3.2 10.2 1.3 18.8 1.4 22.9.1 4.1-59.1 80.3-59.1 80.3h56.1s27.4-59 34-63.1c9.3-5.9 18.6-20.1 26-27.6 4.5-4.5 16.7-13.8 21.1-17.1 6.5-4.8 3.6-9.8-3.1-5.5z"/>
  <path fill="#FFD366" d="M88.4 119.3s1.9 7.4.7 16.2c-.9 6.5-7.1 18.1-7.1 18.1s8.6-10 10.5-16.5c2.5-9.2-4.1-17.8-4.1-17.8zM105.8 131.7c-3.7-4.2-15.5-13.5-15.5-13.5s5.8 7.1 9.2 11.3c2.5 3.2 12.8 11.9 12.8 11.9s-2.8-5.4-6.5-9.7zM81.4 164.8c-5.1-3.1-7.2-6-7.2-6s3 7 8.8 9c6.5 2.3 11.3-.5 11.3-.5s-8.3.2-12.9-2.5z"/>
  <path fill="none" stroke="#05282D" stroke-miterlimit="10" d="M57.6 230.6s28.6-61.8 35.2-66c9.3-5.9 18.6-20.1 26-27.6 4.5-4.5 16.7-13.8 21.1-17.1 6.3-4.7 3.4-9.7-3.2-5.4-7.6 5-17.9 10.4-17.9 10.4s9-13.1 14.7-20.4c5.7-7.3.4-9.3-5.7-4.1-4.3 3.8-19.7 17.1-19.7 17.1s7.4-13.4 13.5-23.9c5-8.8-2.3-9.9-6.6-3.5-2.1 3.1-17 21.6-17 21.6s4.3-17.3 8.5-27.4c3.2-7.9-2.2-10.6-6.8-1.9-3.4 6.6-12.1 25-18.8 33.5-4 5.1-9.9 7.2-10.3-.6-.1-2.8.7-8.9-2-14.7-2.7-5.8-5.7-5.4-6.3-1.1-.6 4.2.5 17.4-2 25.1-3.2 10.2 1.3 18.8 1.4 22.9.1 4.1-61.2 82.8-61.2 82.8"/>
  <circle cx="135.4" cy="123.4" r="63.6" fill="#FFF" stroke="#05282D" stroke-miterlimit="10"/>
  <circle cx="135.4" cy="123.4" r="53.8" fill="#FFF"/>
  <path fill="#05282D" d="M135.4 68.7c-30.2 0-54.7 24.5-54.7 54.7 0 30.2 24.5 54.7 54.7 54.7 30.2 0 54.7-24.5 54.7-54.7 0-30.2-24.6-54.7-54.7-54.7zm0 107.5c-29.1 0-52.9-23.7-52.9-52.9 0-29.1 23.7-52.9 52.9-52.9 29.1 0 52.9 23.7 52.9 52.9-.1 29.2-23.8 52.9-52.9 52.9z"/>
  <path fill="#1A8689" d="M129.269 154.017l-18.05-36.59 55.691-27.472 18.05 36.59z"/>
  <g>
    <circle cx="135.4" cy="141.4" r="2.3" fill="#05282D"/>
  </g>
  <g>
    <circle cx="123.7" cy="117.9" r="2.3" fill="#05282D"/>
  </g>
  <g>
    <circle cx="123.3" cy="124.9" r="2.3" fill="#05282D"/>
  </g>
  <g>
    <path fill="#FFF" stroke="#05282D" stroke-miterlimit="10" d="M164.5 106.8c3.8-3.3 7.6-7.9 4-12.5-2.7-3.4-6.9-3.2-10.3-1.4-.4-3.7-1.3-6.8-6.3-5.5-3.3.8-5.8 3.1-7.2 6-2.2-4.7-7.8-11-11.5-5.4-2.2 3.3-2.1 7.4-.4 10.8-1.4-.4-2.9-.5-4.4.1-1.9.7-3.2 2.4-3.1 4.5.2 2.3 1.9 4.3 4.1 5.4-2.1.6-3.7 1.5-3.2 4.5.4 2.3 2 3.4 3.8 3.9-3.7 2.9-5.4 8.1-.9 11.9 2.1 1.8 4.5 2.3 6.8 2 1.9 4.8 10.3 6.6 13.2.3 5.1 4.5 18.2-3.3 12.7-11.1 5-.6 12-2.7 11.5-8.4-.2-4.3-4.7-5.3-8.8-5.1zM103.8 134.3c.6-1.8.4-3.7-1.8-4.6-2-.8-4.4-.4-5.7 1.1-.9-1.8-3.2-2.6-5.1-.9-1.5 1.4-1.5 3.6-.6 5.3-1.6.2-3 1.2-2.7 3.1.4 2.3 3.6 3 5.8 3.1-.7 2.5.5 5.1 3.2 5.9 3.4.9 6-1.4 7.2-4.3.2.1.5.1.7.1.1 0 .3.1.4 0 2.7-1 6.6-3.7 4.4-7-.9-1.7-3.6-2.4-5.8-1.8zM126.9 137.4c.5-.9.5-2.1-.4-3.1-1-1.1-3-.5-4.1-.1-2.4-2.2-4.9.9-2.5 2.8-3.6 2.2.2 5.2 2 4.5 1.6 2.1 4.8 1.8 6.1-.6.8-1.5.1-3-1.1-3.5zM178.3 112.9c-1.1.2-1.5 1.6-1.4 2.9.1 1.9 3 2.9 4.2 1 1.1-1.7-.7-4.3-2.8-3.9zM115.1 103.2c-.8 1.2-.3 3.1 1.3 2.9 1.5-.2 2.2-2.5 1-3.5-.6-.5-1.6-.4-2.3.6zM107.8 96.1c-1.7.1-3.1 1.6-2.8 4 .3 2.9 3.7 5.1 6 2.6 2.1-2.3 0-6.7-3.2-6.6zM114.7 122.4c-.8-.1-1.6.6-1.6 1.8 0 1.4 1.5 2.7 2.7 1.7 1.2-1.1.5-3.3-1.1-3.5zM107.8 108.2c-.8-.1-1.6.6-1.6 1.8 0 1.4 1.5 2.7 2.7 1.7 1.2-1.1.4-3.4-1.1-3.5z"/>
  </g>
  <g>
    <path fill="#FFD366" d="M182.5 175.5c2.4-10.2-1.3-26.7-3.7-36.4-1.6-6.7-6-28.2-7.6-33.2-2.7-8-7.7-7.2-6.6.5 1.2 8.5 4.6 25.2 4.6 25.2S162 108.1 159 99.8c-2.6-7.1-7.8-7-6 1.9 1.9 9.8 5.7 30.6 5.7 30.6s-5.2-17.6-9.3-28.4c-3.5-9.1-7.8-4.7-5.9 1.6 1 3.4 6.7 28.7 6.7 28.7s-5.3-15.7-7.8-22.5c-2.7-7.4-6.3-4.1-4.8 2 1.6 6.8 4.3 26.5 5.4 36.8.6 6.1-2 11.4-7.4 6.4-1.9-1.8-5.4-6.5-11-8.6-5.6-2.2-7.4.1-5 3.3 2.4 3.2 11.7 11.5 15.2 18.3 4.6 9.1 13.2 11.9 16 14.6 2.8 2.7 8.6 45 8.6 45h40.9c-.2.2-19.6-46.8-17.8-54z"/>
  </g>
  <g>
    <path fill="none" stroke="#05282D" stroke-miterlimit="10" d="M198.5 230.2s-19.7-47.8-18-55c2.4-10.2-1.3-26.7-3.7-36.4-1.6-6.7-6-28.2-7.6-33.2-2.7-8-7.7-7.2-6.6.5 1.2 8.5 4.6 25.2 4.6 25.2S160 107.8 157 99.5c-2.6-7.1-7.8-7-6 1.9 1.9 9.8 5.7 30.6 5.7 30.6s-5.2-17.6-9.3-28.4c-3.5-9.1-7.8-4.7-5.9 1.6 1 3.4 6.7 28.7 6.7 28.7s-5.3-15.7-7.8-22.5c-2.7-7.4-6.3-4.1-4.8 2 1.6 6.8 4.3 26.5 5.4 36.8.6 6.1-2 11.4-7.4 6.4-1.9-1.8-5.4-6.5-11-8.6-5.6-2.2-7.4.1-5 3.3 2.4 3.2 11.7 11.5 15.2 18.3 4.6 9.1 13.2 11.9 16 14.6 2.8 2.7 8.6 45.9 8.6 45.9"/>
  </g>
  <path fill="#FFF" stroke="#05282D" stroke-miterlimit="10" d="M52.4 29.3s-.9 2.8-2.1 4.2c-1.6 1.8-4.2 2.6-4.2 2.6s2.5.9 4 2.5c1.4 1.6 2.3 4 2.3 4s.8-2.5 2.3-4c1.4-1.6 4-2.5 4-2.5s-2.6-.7-4.2-2.6c-1.3-1.4-2.1-4.2-2.1-4.2zM18.1 1s-1.8 6.1-4.5 9c-3.4 3.9-9 5.5-9 5.5s5.4 1.9 8.5 5.3c3.1 3.4 4.9 8.7 4.9 8.7s1.8-5.3 4.9-8.7c3.1-3.4 8.5-5.3 8.5-5.3s-5.6-1.6-9-5.5c-2.5-2.9-4.3-9-4.3-9z"/>
</svg>
