<svg xmlns="http://www.w3.org/2000/svg" viewBox="0 0 188.8 123">
  <g fill="#1A8689" fill-rule="evenodd" clip-rule="evenodd">
    <path d="M92.9 34.5l6 5.1c2 1.1 7.2-.5 11 1.6 1.5.8 3.5 2.9 4 4.5.2.7.5 2.2.5 2.2v59.4H89V56.8c0-.9 0-1.4.2-2.3.9-3.7 4.4-4.6 8-4.9 1.9-.2 6.9.1 8.1-1.2.3-.3-.2-.6-.7-.8-2.1-.9-5-.6-7.3-1s-4.1-1.3-5.4-4.3c-.5-1.1-.8-2.2-.9-2.9-.3-2.7.3-2.9 1.9-4.9z"/>
    <path d="M93.5 33l6 5.1 3.2-3.7 1.6-5.6-2.4-2.2-5.2 3z"/>
  </g>
  <g fill="#1A8689" fill-rule="evenodd" clip-rule="evenodd">
    <path d="M138.9 68.2h-4.8c-8.1 0-14.8 6.7-14.8 14.8v21.8c0 1.3 1.1 2.4 2.4 2.4h28.1c1.3 0 2.4-1.1 2.4-2.4V81.5c-.1-7.3-6-13.3-13.3-13.3zM140.4 60.1H131c-.4 0-.8.3-.8.8v6c0 .4.3.8.8.8h9.5c.4 0 .8-.3.8-.8v-6c-.1-.4-.4-.8-.9-.8zM138.9 58h-6.5c-.4 0-.7.3-.7.7v.7h8v-.7c0-.4-.4-.7-.8-.7zM131.5 53.3h8.4v4.3h-8.4zM148.5 51.6c-.3.5-.5 1-.8 1.6-4.1-1.4-7.3-.6-11-.3-1.2.1-2.1.2-3.2 0-1-.1-2-.4-2.6-.6.2-2.4 1.5-1.4 3.2-1.3 2.5.1 4.8-.1 7.4-.3 2.6-.2 5.3-.2 7 .9z"/>
  </g>
  <g fill="#1A8689" fill-rule="evenodd" clip-rule="evenodd">
    <path d="M55.5 14.7h2V8.9h-.1c-.4 0-.6-.3-.6-.6 0-.4.3-.6.6-.6h1.2l6.7-5.2 3 2.4-2.6 2.8c.4 0 .6.3.6.6 0 .4-.3.6-.6.6h-.1v5.8H68c1.2 0 2.2 1 2.2 2.2v8H53v-7.7c0-1.4 1.1-2.5 2.5-2.5zM48.1 107.8h28.5c4.8-5.4 8.9-13.3 8.9-22.1 0-7.2-2-13.7-5.3-18.9-1.5-2.3-1.5-5.1.1-7.4 2.1-3.2 3.4-6.9 3.4-10.9C83.7 30.9 69 33.9 69 25.6H54.2v.5c0 2-1 3.7-2.8 4.7-6.5 3.5-10.8 10.1-10.8 17.6 0 4 1.2 7.8 3.4 10.9 1.5 2.3 1.6 5.1.1 7.4-3.3 5.1-5.3 11.7-5.3 18.9-.1 8.9 4.5 16.8 9.3 22.2z"/>
  </g>
  <g fill="none" stroke="#05282D" stroke-linejoin="round" stroke-miterlimit="10" stroke-width="1.24" clip-rule="evenodd">
    <path d="M91.4 33l6 5.1c2 1.1 7.2-.5 11 1.6 1.5.8 3.5 2.9 4 4.5.2.7.5 2.2.5 2.2v59.4H87.5V55.3c0-.9 0-1.4.2-2.3.9-3.7 4.4-4.6 8-4.9 1.9-.2 6.9.1 8.1-1.2.3-.3-.2-.6-.7-.8-2.1-.9-5-.6-7.3-1s-4.1-1.3-5.4-4.3c-.5-1.1-.8-2.2-.9-2.9-.3-2.7.3-2.9 1.9-4.9z"/>
    <path d="M91.9 31.5l6.1 5.1 3.1-3.7 1.7-5.6-2.5-2.2-5.1 3z"/>
  </g>
  <g fill="none" stroke="#05282D" stroke-linejoin="round" stroke-miterlimit="10" stroke-width="1.24" clip-rule="evenodd">
    <path d="M137.3 66.7h-4.8c-8.1 0-14.8 6.7-14.8 14.8v21.8c0 1.3 1.1 2.4 2.4 2.4h28.1c1.3 0 2.4-1.1 2.4-2.4V80c0-7.3-6-13.3-13.3-13.3zM138.9 58.7h-9.5c-.4 0-.8.3-.8.8v6c0 .4.3.8.8.8h9.5c.4 0 .8-.3.8-.8v-6c0-.5-.4-.8-.8-.8zM137.4 56.5h-6.5c-.4 0-.7.3-.7.7v.8h8v-.7c0-.4-.4-.8-.8-.8zM130 51.8h8.4v4.3H130zM147 50.1c-.3.5-.5 1-.8 1.6-4.1-1.4-7.3-.6-11-.3-1.2.1-2.1.2-3.2 0-1-.1-2-.4-2.6-.6.2-2.4 1.5-1.4 3.2-1.3 2.5.1 4.8-.1 7.4-.3 2.6-.2 5.3-.1 7 .9z"/>
  </g>
  <g fill="none" stroke="#05282D" stroke-linejoin="round" stroke-miterlimit="10" stroke-width="1.24" clip-rule="evenodd">
    <path d="M54 13.2h2V7.5c-.4 0-.6-.3-.6-.6 0-.4.3-.6.6-.6h1.2L63.9 1l3 2.4-2.6 2.8c.4 0 .6.3.6.6 0 .4-.3.6-.6.6h-.1v5.8h2.3c1.2 0 2.2 1 2.2 2.2v8H51.5v-7.7c0-1.4 1.1-2.5 2.5-2.5zM46.6 106.3h28.5C79.8 100.9 84 93 84 84.2c0-7.2-2-13.7-5.3-18.9-1.5-2.3-1.5-5.1.1-7.4 2.1-3.2 3.4-6.9 3.4-10.9 0-17.6-14.7-14.6-14.7-22.9H52.7v.5c0 2-1 3.7-2.8 4.7C43.4 32.8 39 39.4 39 47c0 4 1.2 7.8 3.4 10.9 1.5 2.3 1.6 5.1.1 7.4-3.3 5.1-5.3 11.7-5.3 18.9 0 8.8 4.6 16.7 9.4 22.1z"/>
  </g>
  <path fill="#FFF" stroke="#05282D" stroke-miterlimit="10" d="M52.1 69.9s-.9 2.8-2.1 4.2c-1.6 1.8-4.2 2.6-4.2 2.6s2.5.9 4 2.5c1.4 1.6 2.3 4 2.3 4s.8-2.5 2.3-4c1.4-1.6 4-2.5 4-2.5s-2.6-.7-4.2-2.6c-1.2-1.4-2.1-4.2-2.1-4.2zM17.9 41.6s-1.8 6.1-4.5 9c-3.4 3.9-9 5.5-9 5.5s5.4 1.9 8.5 5.3c3.1 3.4 4.9 8.7 4.9 8.7s1.8-5.3 4.9-8.7c3.1-3.4 8.5-5.3 8.5-5.3s-5.6-1.6-9-5.5c-2.5-2.9-4.3-9-4.3-9z"/>
  <path fill="#FFD366" fill-rule="evenodd" d="M0 108.5h188.8V123H0z" clip-rule="evenodd"/>
</svg>
