<svg xmlns="http://www.w3.org/2000/svg" viewBox="0 0 139.5 169.9">
  <path fill="#FFF" stroke="#05282D" stroke-miterlimit="10" d="M.7.8h131.4v160.9H.7z"/>
  <path fill="#C6E8EE" stroke="#05282D" stroke-miterlimit="10" d="M15.4 13.1h102.1v136.3H15.4z"/>
  <path fill="#69D8FF" d="M66.4 13.1v136.3V13.1z"/>
  <path fill="#FFF" stroke="#05282D" stroke-miterlimit="10" d="M65.3 13.1h2.3v136.3h-2.3z"/>
  <g>
    <path fill="#FFF" d="M41.6 25.6l-2-9.9-2 9.9c-.8 4-3 6.9-5.7 7.3l-14.2 2.8 14.6 2.8c2.7.4 4.9 3.3 5.7 7.3l2 9.9 2-9.9c.8-4 3-6.9 5.7-7.3l14.2-2.8-14.6-2.8c-2.7-.4-4.9-3.3-5.7-7.3z"/>
  </g>
  <g clip-rule="evenodd">
    <g fill-rule="evenodd">
      <path fill="#FFD366" d="M107.9 78.3h-.2c-1.5-.2-2.9-.4-4.4-.5v-5.2c1.6-.1 3.1-.3 4.7-.4h.2l-.3 6.1zM113.3 85.1c2.7.1 5.4.1 8.1.2-.9-.8-1.8-1.7-2.7-2.5-1.5-.8-2.8-2-4.3-2.8-1.1-.4-2.2-.7-3.4-1-.3.5-.7 1.2-1 1.7.1 2.8-.3 7.5-1.2 10.1-.4 1.1-.6 2-1.4 3-.2.2-.4.5-.6.7-.8 1.1 0 1.3.8.5 3.2-2.9 4.6-5.9 5.7-9.9z"/>
      <path fill="#04282D" d="M118.1 87h12.5v9h-12.5z"/>
      <path fill="#1A8689" d="M117.7 96.6c-1.4 1.7-2.3 2.9-2.2 5.3 0 1.3.5 2.1 1 3.3.5 1.4.6 1.6.2 2.5-.7 1.7-1.6 1.5-1 3.2.6 1.2 1 2.3 1 3 .2 1.9-.3 1-.9 2.6-.2.6-.4 1.4-.2 2 .9 2.2 1.1 4.5.3 6.8-.7 2-1.7 2.5-4.3 4-2.6 2-2.9 2.1-4.8 4.8-1 2.1-1.6 3.4-2.3 5.6-1.1 9.8-2.4 22.1 3.9 30.3h26.3c3.8-5.4 4.5-11.7 4.7-18.8.1-5.2-.1-10-.5-15.2-.6-5.9-1.3-12.1-2.4-17.9-1.7-6.9-2.9-13.4-5-20.2-.2-.4-.4-.9-.6-1.3h-13.2zM108.2 72c6.2-.1 20.1-.5 25.7 2.1 1.7.8 1.5 1.2.5 2.2-.6.6-1.3 1.2-1.9 2-.5.7-.8 1.2-1.1 2-1 2.3-1 2.7-.9 6.1-2.8-.1-5.5 0-8.3-.1-3.2-4-8.7-7.7-13.9-7.8-.1-2.1-.1-4.3-.1-6.5z"/>
    </g>
    <g fill="none" stroke="#05282D" stroke-miterlimit="10">
      <path d="M105.5 76.8h-.2c-1.5-.2-2.9-.4-4.4-.5v-5.2c1.6-.1 3.1-.3 4.7-.4h.2l-.3 6.1zM110.9 83.5c2.7.1 5.4.1 8.1.2-.9-.8-1.8-1.7-2.7-2.5-1.5-.8-2.8-2-4.3-2.8-1.1-.4-2.2-.7-3.4-1-.3.5-.7 1.2-1 1.7.1 2.8-.3 7.5-1.2 10.1-.4 1.1-.6 2-1.4 3-.2.2-.4.5-.6.7-.8 1.1 0 1.3.8.5 3.2-2.9 4.6-5.9 5.7-9.9z"/>
      <path d="M115.7 85.4h12.5v9h-12.5zM115.3 95c-1.4 1.7-2.3 2.9-2.2 5.3 0 1.3.5 2.1 1 3.3.5 1.4.6 1.6.2 2.5-.7 1.7-1.6 1.5-1 3.2.6 1.2 1 2.3 1 3 .2 1.9-.3 1-.9 2.6-.2.6-.4 1.4-.2 2 .9 2.2 1.1 4.5.3 6.8-.7 2-1.7 2.5-4.3 4-2.6 2-2.9 2.1-4.8 4.8-1 2.1-1.6 3.4-2.3 5.6-1.1 9.8-2.4 22.1 3.9 30.3h26.3c3.8-5.4 4.5-11.7 4.7-18.8.1-5.2-.1-10-.5-15.2-.6-5.9-1.3-12.1-2.4-17.9-1.7-6.9-2.9-13.4-5-20.2-.2-.4-.4-.9-.6-1.3h-13.2zM105.8 70.4c6.2-.1 20.1-.5 25.7 2.1 1.7.8 1.5 1.2.5 2.2-.6.6-1.3 1.2-1.9 2-.5.7-.8 1.2-1.1 2-1 2.3-1 2.7-.9 6.1-2.8-.1-5.5 0-8.3-.1-3.2-4-8.7-7.7-13.9-7.8-.1-2.1-.1-4.3-.1-6.5z"/>
    </g>
  </g>
</svg>
